<svg width="1232" height="723" fill="none" xmlns="http://www.w3.org/2000/svg"><g clip-path="url(#a)"><path fill="url(#b)" d="M-1 0h1234v723H-1z"/><g filter="url(#c)"><ellipse cx="853.232" cy="488.449" rx="256.892" ry="90.956" transform="rotate(-37.462 853.232 488.449)" fill="#000" fill-opacity=".29"/></g><g filter="url(#d)"><ellipse cx="1096.23" cy="-17.551" rx="256.892" ry="90.956" transform="rotate(-37.462 1096.23 -17.551)" fill="#000" fill-opacity=".29"/></g><g filter="url(#e)"><ellipse cx="-5.768" cy="568.449" rx="256.892" ry="90.956" transform="rotate(-37.462 -5.768 568.449)" fill="#000" fill-opacity=".29"/></g><mask id="g" style="mask-type:alpha" maskUnits="userSpaceOnUse" x="877" y="608" width="392" height="169"><path d="M877 733.063h35.77c4.312 26.699 170.36 40.002 252.84 43.315l103.39-3.55V608.086c-14.37-.119-62.8-.972-103.39 6.746-69.09 13.136-144.06 38.345-203.84 69.234-47.824 24.711-71.867 30.416-77.91 30.179L877 733.063Z" fill="url(#f)"/></mask><g mask="url(#g)"><path d="M876.02 733.063h36.75c4.312 26.699 170.36 40.002 252.84 43.315l103.39-3.55V608.086c-14.37-.119-62.8-.972-103.39 6.746-69.09 13.136-144.06 38.345-203.84 69.234-47.824 24.711-71.867 30.416-77.91 30.179l-7.84 18.818Z" fill="#fff"/><path d="M876.02 733.773h36.75c4.312 26.699 170.36 40.002 252.84 43.315l103.39-3.55V608.796c-14.37-.119-62.8-.972-103.39 6.746-69.09 13.136-147.49 38.7-207.27 69.589-47.824 24.711-68.437 30.061-74.48 29.824l-7.84 18.818Z" fill="url(#h)"/><path d="M1210.65 631.232c-40.88 7.139-100.9 7.743-114.16 0-20.8-5.343-87.7 24.475-118.55 40.052 105.17.849 239.14-2.57 289.54-5.045l5.44-37.483c12.74-1.853-17.15-5.403-62.27 2.476Z" fill="url(#i)" fill-opacity=".15"/><path d="M1132.78 645.366c-25.09-12.214-104.21 7.693-140.63 19.172l-102.9 18.108-34.3 79.175c100.613 1.302 306.54 2.202 325.36-4.615 23.52-8.521 64.19-60.003 17.64-67.459-46.55-7.456-78.89 31.954-111.72 48.286s-191.1 29.114-196.98 9.942c-5.88-19.173 24.99-18.818 102.9-34.085 77.91-15.267 171.99-53.257 140.63-68.524Z" fill="url(#j)" fill-opacity=".25"/><path d="M969.12 679.805c1.47 1.421 64.97 4.545 307.23 5.681M1272.43 716.73c-64.52-10.059-214.91-24.782-300.37-3.195" stroke="#fff" stroke-opacity=".1"/></g><ellipse cx="968.5" cy="1188" rx="526.5" ry="527" fill="url(#k)"/><path d="M660.382 549 574 622.416" stroke="url(#l)" stroke-width=".5" stroke-linecap="round"/><g filter="url(#m)"><circle cx="574.5" cy="621.916" r="2.5" fill="#E89D67"/></g><circle cx="574.5" cy="621.916" r="1.5" fill="#fff"/><path d="M794.382 505 708 578.416" stroke="url(#n)" stroke-width=".5" stroke-linecap="round"/><g filter="url(#o)"><circle cx="708.5" cy="577.916" r="2.5" fill="#E89D67"/></g><circle cx="708.5" cy="577.916" r="1.5" fill="#fff"/><mask id="p" style="mask-type:alpha" maskUnits="userSpaceOnUse" x="1138" y="385" width="135" height="135"><circle cx="1205.62" cy="452.619" r="66.723" transform="rotate(-30 1205.62 452.619)" fill="#D9D9D9"/></mask><g mask="url(#p)"><circle cx="1205.62" cy="452.619" r="66.723" transform="rotate(-30 1205.62 452.619)" fill="#fff"/><circle cx="1209" cy="453.524" r="66.723" transform="rotate(-30 1209 453.524)" fill="url(#q)"/><path fill="#AB76CC" fill-opacity=".28" d="m1156.48 500.962 113.428-65.487 12.356 21.4-113.428 65.488zM1125.17 422.019l92.026-53.131 7.413 12.84-92.025 53.132zM1132.19 483.599l134.829-77.844 4.942 8.561-134.828 77.844z"/><circle cx="1236.57" cy="451.869" r="66.723" transform="rotate(-30 1236.57 451.869)" fill="#000" fill-opacity=".17"/></g><path d="m1120.66 105.139.72 3.456 3.46.721-3.46.72-.72 3.457-.72-3.457-3.46-.72 3.46-.721.72-3.456ZM885.177 164l.721 3.456 3.456.721-3.456.721-.721 3.456-.721-3.456-3.456-.721 3.456-.721.721-3.456Z" fill="#fff"/><circle cx="776.05" cy="204.693" r=".696" fill="#fff"/><circle cx="1092.12" cy="338.359" r=".696" fill="#fff"/><circle cx="929.21" cy="221.401" r=".696" fill="#fff"/><circle cx="803.696" cy="83.696" r=".696" fill="#fff"/><circle cx="1121.36" cy="206.085" r=".696" fill="#fff"/><circle cx="1069.84" cy="172.668" r=".696" fill="#fff"/><circle cx="996.043" cy="116.974" r=".696" fill="#fff"/><circle cx="1149.7" cy="275.696" r=".696" fill="#fff"/><circle cx="708.696" cy="339.696" r=".696" fill="#fff"/><path d="m689 655 .518 2.482L692 658l-2.482.518L689 661l-.518-2.482L686 658l2.482-.518L689 655ZM650 492l.518 2.482L653 495l-2.482.518L650 498l-.518-2.482L647 495l2.482-.518L650 492ZM523 684l.518 2.482L526 687l-2.482.518L523 690l-.518-2.482L520 687l2.482-.518L523 684ZM1088 480l.52 2.482 2.48.518-2.48.518L1088 486l-.52-2.482L1085 483l2.48-.518.52-2.482Z" fill="#fff"/><circle cx="590.5" cy="549.5" r=".5" fill="#fff"/><circle cx="628.5" cy="697.5" r=".5" fill="#fff"/><circle cx="865.5" cy="526.5" r=".5" fill="#fff"/><circle cx="737.5" cy="465.5" r=".5" fill="#fff"/><circle cx="881.5" cy="465.5" r=".5" fill="#fff"/><circle cx="1082.5" cy="598.5" r=".5" fill="#fff"/><circle cx="1185.5" cy="558.5" r=".5" fill="#fff"/><circle cx="766.5" cy="616.5" r=".5" fill="#fff"/><circle cx="526.5" cy="464.5" r=".5" fill="#fff"/><circle cx="707.5" cy="525.5" r=".5" fill="#fff"/><circle cx="577.5" cy="670.5" r=".5" fill="#fff"/><circle cx="1110.5" cy="541.5" r=".5" fill="#fff"/><circle cx="711.5" cy="705.5" r=".5" fill="#fff"/><circle cx="661.5" cy="604.5" r=".5" fill="#fff"/></g><defs><linearGradient id="b" x1="964.5" y1="244.5" x2="1165.5" y2="814" gradientUnits="userSpaceOnUse"><stop stop-color="#21284B"/><stop offset="1" stop-color="#5153E7"/></linearGradient><linearGradient id="f" x1="1230.78" y1="616.252" x2="1070.93" y2="788.506" gradientUnits="userSpaceOnUse"><stop stop-color="#00255C"/><stop offset="1" stop-color="#110534"/></linearGradient><linearGradient id="h" x1="1230.78" y1="616.962" x2="1070.93" y2="789.216" gradientUnits="userSpaceOnUse"><stop stop-color="#4B4274"/><stop offset="1" stop-color="#110534"/></linearGradient><linearGradient id="i" x1="1251.36" y1="648.561" x2="1027.43" y2="648.561" gradientUnits="userSpaceOnUse"><stop stop-color="#915CAB"/><stop offset="1" stop-color="#765387" stop-opacity="0"/></linearGradient><linearGradient id="j" x1="925.02" y1="756.496" x2="1159.64" y2="570.834" gradientUnits="userSpaceOnUse"><stop/><stop offset="1" stop-opacity="0"/></linearGradient><linearGradient id="k" x1="1017.34" y1="661" x2="732.265" y2="948.388" gradientUnits="userSpaceOnUse"><stop stop-color="#000233"/><stop offset="1" stop-color="#0F3876"/></linearGradient><linearGradient id="l" x1="574.172" y1="623.271" x2="656.458" y2="553.988" gradientUnits="userSpaceOnUse"><stop/><stop offset="0" stop-color="#fff"/><stop offset="1" stop-color="#fff" stop-opacity="0"/></linearGradient><linearGradient id="n" x1="708.172" y1="579.271" x2="790.458" y2="509.988" gradientUnits="userSpaceOnUse"><stop/><stop offset="0" stop-color="#fff"/><stop offset="1" stop-color="#fff" stop-opacity="0"/></linearGradient><filter id="c" x="547.899" y="222.282" width="610.667" height="532.333" filterUnits="userSpaceOnUse" color-interpolation-filters="sRGB"><feFlood flood-opacity="0" result="BackgroundImageFix"/><feBlend in="SourceGraphic" in2="BackgroundImageFix" result="shape"/><feGaussianBlur stdDeviation="47" result="effect1_foregroundBlur_559_4565"/></filter><filter id="d" x="790.899" y="-283.718" width="610.667" height="532.333" filterUnits="userSpaceOnUse" color-interpolation-filters="sRGB"><feFlood flood-opacity="0" result="BackgroundImageFix"/><feBlend in="SourceGraphic" in2="BackgroundImageFix" result="shape"/><feGaussianBlur stdDeviation="47" result="effect1_foregroundBlur_559_4565"/></filter><filter id="e" x="-311.101" y="302.282" width="610.667" height="532.333" filterUnits="userSpaceOnUse" color-interpolation-filters="sRGB"><feFlood flood-opacity="0" result="BackgroundImageFix"/><feBlend in="SourceGraphic" in2="BackgroundImageFix" result="shape"/><feGaussianBlur stdDeviation="47" result="effect1_foregroundBlur_559_4565"/></filter><filter id="m" x="559" y="606.416" width="31" height="31" filterUnits="userSpaceOnUse" color-interpolation-filters="sRGB"><feFlood flood-opacity="0" result="BackgroundImageFix"/><feBlend in="SourceGraphic" in2="BackgroundImageFix" result="shape"/><feGaussianBlur stdDeviation="6.5" result="effect1_foregroundBlur_559_4565"/></filter><filter id="o" x="693" y="562.416" width="31" height="31" filterUnits="userSpaceOnUse" color-interpolation-filters="sRGB"><feFlood flood-opacity="0" result="BackgroundImageFix"/><feBlend in="SourceGraphic" in2="BackgroundImageFix" result="shape"/><feGaussianBlur stdDeviation="6.5" result="effect1_foregroundBlur_559_4565"/></filter><radialGradient id="q" cx="0" cy="0" r="1" gradientUnits="userSpaceOnUse" gradientTransform="rotate(44.502 65.27 1650.535) scale(100.48)"><stop offset="0" stop-color="#6C5FBD"/><stop offset="1" stop-color="#352F79"/></radialGradient><clipPath id="a"><path fill="#fff" d="M0 0h1232v723H0z"/></clipPath></defs></svg>