<svg xmlns="http://www.w3.org/2000/svg" width="393" height="361" fill="none"><path fill="url(#a)" d="M237.92 122.928c0 16.637 0 16.922-43.945 16.922s-43.945 0-43.945-16.922C150.087 98.657 169.751 79 194.032 79c24.281 0 43.888 19.657 43.888 43.928Z"/><path fill="url(#b)" d="M226.35 124.182c0 10.369 0 10.597-32.375 10.597s-32.375 0-32.375-10.597c0-15.156 14.478-27.463 32.375-27.463s32.375 12.307 32.375 27.463Z"/><path stroke="#fff" stroke-miterlimit="10" stroke-width=".5" d="M212.613 83.102c-2.507 7.92-9.86 13.617-18.581 13.617-8.72 0-16.13-5.697-18.581-13.617"/><path stroke="#fff" stroke-miterlimit="10" stroke-width=".5" d="M209.308 81.393c-2.052 6.495-8.151 11.224-15.333 11.224s-13.28-4.729-15.332-11.224"/><g filter="url(#c)"><path stroke="#fff" d="M0-.5h42.483" transform="matrix(-.60517 .7961 -.7987 -.60172 206.973 100.023)"/></g><path fill="#2B2B2B" d="M178.187 123.327a7.579 7.579 0 1 0 0-15.155 7.579 7.579 0 1 0 0 15.155Z"/><path fill="#fff" d="M177.959 115.237a2.508 2.508 0 1 0 0-5.016 2.508 2.508 0 0 0 0 5.016ZM174.14 117.003a1.254 1.254 0 1 0 0-2.508 1.254 1.254 0 0 0 0 2.508Z"/><path fill="#f7931a" d="M229.086 211.64v4.444c0 1.197-1.368 2.051-2.622 1.652l-8.037-2.678c-.798-.284-.855-1.253-.057-1.538l7.923-3.418c1.311-.57 2.793.284 2.793 1.538Z"/><path fill="#2B2B2B" d="M209.08 123.327a7.579 7.579 0 1 0 0-15.155 7.579 7.579 0 1 0 0 15.155Z"/><path fill="#fff" d="M208.795 115.237a2.507 2.507 0 1 0 0-5.014 2.507 2.507 0 0 0 0 5.014ZM204.976 117.003a1.254 1.254 0 1 0 0-2.508 1.254 1.254 0 0 0 0 2.508Z"/><path fill="#000" d="M171.176 313s3.306-.627 2.109-4.159c-.798-2.279-3.135-5.983-4.788-8.376-.969-1.481-2.679-2.336-4.503-2.222l-17.726.912c-.57.057-1.14.114-1.71.228l-10.43 2.336-5.13 4.843L144.615 313h26.561ZM172.715 225.2c-1.026-2.393-3.591-6.096-5.985-6.096h-.057c-1.368.057-2.508 1.253-3.42 3.646l-.114-.057c2.223 2.564 5.871 4.33 9.69 5.812 1.026.399 1.938.683 2.85.797-.684-.569-1.938-1.823-2.964-4.102ZM214.95 225.143c1.026-2.393 3.591-6.153 5.985-6.153h.057c1.368.057 2.508 1.253 3.42 3.646l.114-.057c-2.223 2.564-5.871 4.33-9.69 5.812-1.026.399-1.938.683-2.85.797.741-.512 1.938-1.709 2.964-4.045Z"/><path fill="url(#d)" d="m170.948 312.373-2.622-7.749a4.42 4.42 0 0 0-4.161-2.962h-28.841c-.797 0-1.595.285-2.165.854l-4.161 3.989V312.943s0 .057.057.057h41.494c.285 0 .513-.342.399-.627Z"/><path fill="#4862BD" d="M155.388 280.011c-2.451 0-4.389.912-4.389 2.051l-.114 17.378c0 1.139 1.938 2.108 4.389 2.108 2.451 0 4.389-.912 4.389-2.051l.114-17.378c0-1.139-1.938-2.108-4.389-2.108Z"/><path fill="url(#e)" d="M152.595 259.272s-8.436 20.283-9.063 25.411c-.627 5.128 0 12.592 18.809 12.25 10.203-.171 8.607-10.826 6.783-20.284-1.539-8.033-3.021-15.212-3.021-15.212"/><path stroke="#fff" stroke-miterlimit="10" stroke-width=".5" d="M158.523 296.933c10.202-.171 8.606-10.826 6.782-20.284-1.083-5.754-2.052-11.053-2.451-13.503"/><path fill="#000" d="M166.387 261.619c.212-1.337-2.767-2.919-6.654-3.535-3.886-.615-7.208-.031-7.42 1.305-.212 1.337 2.767 2.919 6.653 3.535 3.887.615 7.209.031 7.421-1.305Z"/><path fill="#4862BD" d="M162.797 240.868c-2.393-.398-4.502.228-4.673 1.368l-2.793 17.207c-.171 1.139 1.596 2.393 3.99 2.791 2.393.399 4.502-.227 4.673-1.367l2.793-17.207c.228-1.139-1.596-2.393-3.99-2.792ZM165.818 219.73l-6.839 16.011c-.456 1.082.969 2.678 3.191 3.646 2.223.969 4.389.855 4.845-.228l5.871-13.788s-1.938-4.102-4.446-5.811c-.912-.627-1.767-.798-2.28-.513-.114.171-.285.626-.342.683Z"/><path fill="#4862BD" d="m166.217 256.879-1.71-.057-9.518-10.199 5.528-13.902 13.053 2.393.228 13.959c0 .684-.228 1.31-.627 1.823l-4.332 5.185c-.285.399-1.197.912-2.622.798Z"/><path fill="url(#f)" d="M165.191 256.822s-3.704.114-8.264-1.368c-.741-.228-1.938-.911-2.223-1.595l-2.052-6.666c-.228-.57-.171-1.254.057-1.823l5.187-12.991 13.052 2.393.228 13.959c0 .627-.228 1.254-.627 1.709l-5.358 6.382Z"/><path fill="#000" d="M157.611 232.151c-.057.456.798 1.026 2.223 1.539l.969-2.279c-1.881 0-3.078.284-3.192.74ZM169.751 232.835l-1.197 2.735c2.964.285 5.13.057 5.244-.57.114-.627-1.539-1.424-4.047-2.165Z"/><path fill="#4862BD" d="M165.989 231.98c-1.938-.342-3.762-.512-5.186-.512l-.969 2.279a30.39 30.39 0 0 0 5.585 1.424c1.083.171 2.166.342 3.135.399l1.197-2.735c-1.083-.285-2.394-.627-3.762-.855Z"/><path fill="#010202" d="M170.321 235.798c-1.368 0-3.135-.171-4.902-.513-1.938-.342-3.762-.798-5.072-1.311-1.539-.569-2.223-1.139-2.109-1.709.114-.513.513-.513 1.938-.627l.285.342c-1.311.057-1.653.342-1.653.399 0 .057.285.456 1.766 1.026 1.311.512 3.078.968 4.959 1.31 1.938.342 3.705.513 5.13.456 1.596-.057 1.995-.342 1.995-.399 0-.057-.285-.513-1.824-1.082l.342-.285c1.596.569 2.166.911 2.052 1.481-.114.57-.912.855-2.565.855-.114.057-.228.057-.342.057Z"/><path fill="url(#g)" d="M169.582 313.372h-44.173a1.985 1.985 0 0 1-1.767-2.905l.285-.513c.855-1.767 2.622-2.906 4.56-3.02 8.948-.513 34.312-1.367 41.437 5.641.285.284.057.797-.342.797Z"/><path fill="#000" d="M216.546 312.943s-3.306-.627-2.109-4.159c.798-2.279 3.135-5.983 4.788-8.376.969-1.481 2.679-2.336 4.503-2.222l17.726.912c.57.057 1.14.114 1.71.228l10.431 2.336 5.13 4.843-15.618 6.438h-26.561Z"/><path fill="url(#h)" d="m216.774 312.373 2.622-7.749a4.42 4.42 0 0 1 4.161-2.962h28.841c.798 0 1.596.285 2.166.854l4.161 3.989V312.943s0 .057-.057.057h-41.495c-.285-.057-.513-.342-.399-.627Z"/><path fill="url(#i)" d="M217.572 312.943h44.173a1.985 1.985 0 0 0 1.767-2.906l-.285-.512c-.855-1.767-2.621-2.906-4.559-3.02-8.949-.513-34.313-1.368-41.438 5.64-.285.285-.057.798.342.798Z"/><path fill="#4862BD" d="M232.278 279.954c2.451 0 4.389.912 4.389 2.051l.114 17.378c0 1.139-1.938 2.108-4.389 2.108-2.451 0-4.389-.912-4.389-2.051l-.114-17.378c0-1.139 1.995-2.051 4.389-2.108Z"/><path fill="url(#j)" d="M235.128 259.215s8.435 20.283 9.062 25.411c.627 5.128 0 12.592-18.809 12.25-10.203-.171-8.607-10.826-6.783-20.284 1.539-8.033 3.021-15.212 3.021-15.212"/><path stroke="#fff" stroke-miterlimit="10" stroke-width=".5" d="M229.143 296.933c-10.203-.171-8.607-10.826-6.783-20.284 1.083-5.754 2.052-11.053 2.451-13.503"/><path fill="#000" d="M228.783 262.894c3.886-.615 6.865-2.198 6.653-3.534-.211-1.337-3.534-1.921-7.42-1.305-3.887.615-6.866 2.198-6.654 3.534.212 1.336 3.534 1.921 7.421 1.305Z"/><path fill="#4862BD" d="M224.925 240.868c2.394-.398 4.503.228 4.674 1.368l2.793 17.207c.171 1.139-1.596 2.393-3.99 2.791-2.394.399-4.503-.227-4.674-1.367l-2.793-17.207c-.228-1.196 1.596-2.393 3.99-2.792ZM221.904 219.73l6.84 16.011c.456 1.082-.969 2.678-3.192 3.646-2.223.969-4.389.855-4.845-.228l-5.928-13.731s1.938-4.102 4.446-5.811c.912-.627 1.767-.798 2.28-.513.114.114.342.513.399.626Z"/><path fill="#4F69C1" d="m221.505 256.879 1.71-.057 9.519-10.199-5.529-13.902-13.053 2.393-.228 13.959c0 .684.228 1.31.627 1.823l4.332 5.185c.285.342 1.197.912 2.622.798Z"/><path fill="url(#k)" d="M222.531 256.822s3.705.114 8.265-1.368c.741-.228 1.938-.911 2.223-1.595l2.052-6.666c.228-.57.171-1.254-.057-1.823l-5.187-12.991-13.053 2.393-.228 13.959c0 .627.228 1.254.627 1.709l5.358 6.382Z"/><path fill="#000" d="M230.112 232.151c.057.456-.798 1.026-2.223 1.539l-.969-2.279c1.824 0 3.078.227 3.192.74ZM217.914 232.835l1.197 2.735c-2.964.285-5.13.057-5.244-.57-.114-.627 1.539-1.481 4.047-2.165Z"/><path fill="#4862BD" d="M221.733 231.98c1.938-.342 3.762-.512 5.187-.512l.969 2.279a30.404 30.404 0 0 1-5.586 1.424c-1.083.171-2.166.342-3.135.399l-1.254-2.735a29.387 29.387 0 0 1 3.819-.855Z"/><path fill="#010202" d="M217.344 235.741c1.368 0 3.135-.171 4.902-.513 1.938-.342 3.762-.798 5.073-1.311 1.539-.569 2.223-1.139 2.109-1.709-.114-.513-.513-.513-1.938-.627l-.285.342c1.311.057 1.653.342 1.653.399 0 .057-.285.456-1.767 1.026-1.311.512-3.078.968-4.959 1.31-1.938.342-3.705.513-5.13.456-1.596-.057-1.995-.342-1.995-.399 0-.057.285-.513 1.824-1.082l-.342-.285c-1.596.569-2.166.911-2.052 1.481.114.57.912.855 2.565.855.171.057.285.057.342.057Z"/><path fill="#000" d="M243.201 225.343c.971-.098 1.051-7.157.179-15.766-.871-8.609-2.365-15.509-3.336-15.411-.971.098-1.051 7.157-.18 15.767.872 8.609 2.366 15.508 3.337 15.41Z"/><path fill="#4862BD" d="M239.459 159.336s46.34 16.295-2.394 50.481v9.287s30.266-13.504 31.691-32.761c.855-11.282-5.13-21.651-28.214-31.907l-2.622-.627-.855 4.843 2.394.684Z"/><path fill="url(#l)" d="M243.449 164.179s6.156 5.242 9.12 9.458c.741 1.082 2.337 1.253 3.249.285 2.109-2.108 5.13-5.926 5.757-10.769.057-.512-.171-1.025-.57-1.367-1.824-1.254-7.296-4.729-15.276-7.35l-2.28 9.743Z"/><path fill="#000" d="M246.47 157.228c.114-1.538-.171-2.678-.741-2.792-.456-.114-1.083.57-1.596 1.652.798.399 1.596.741 2.337 1.14ZM243.506 164.179c.57.114 1.254-.741 1.824-2.108a36.785 36.785 0 0 0-2.508-1.311c-.228 1.881.057 3.248.684 3.419Z"/><path fill="url(#m)" d="M252.056 177.34s.57 6.496-1.026 9.287c0 0 14.534 10.541 20.006 19.429 0 0 5.7-12.136 1.311-28.716h-20.291Z"/><path fill="#000" d="M252.056 177.34c0 .798 3.078 1.482 7.239 1.71-.114-1.14-.399-2.279-.741-3.305-3.819.228-6.498.855-6.498 1.595ZM267.16 175.802c.399.969.741 1.937.969 2.963 2.508-.342 4.161-.855 4.161-1.425.057-.626-2.052-1.196-5.13-1.538Z"/><path fill="#4862BD" d="M262.201 175.574c-1.31 0-2.507.057-3.647.114.342 1.083.627 2.165.741 3.305.912.057 1.88.057 2.906.057 2.223 0 4.275-.114 5.985-.342a19.959 19.959 0 0 0-.969-2.963c-1.539-.057-3.249-.171-5.016-.171Z"/><path fill="url(#n)" d="M248.351 186.343s11.115 16.978 13.223 27.234c0 0-8.321 9.914-18.125 11.623 0 0 1.995-17.833-3.477-31.052l8.379-7.805Z"/><path fill="url(#o)" d="M235.356 200.074c.228-.285 5.528-6.723 5.3 1.139-.228 8.775-.513 27.748-4.445 23.987-3.933-3.76-10.431-14.586-.855-25.126Z"/><path fill="#fff" d="M259.58 163.951a.627.627 0 1 0 0-1.253.627.627 0 0 0 0 1.253ZM270.466 202.296a.627.627 0 1 0 0-1.255.627.627 0 0 0 0 1.255ZM247.781 190.445a.627.627 0 1 0 0-1.255.627.627 0 0 0 0 1.255ZM245.273 223.662a.627.627 0 1 0 0-1.255.627.627 0 0 0 0 1.255Z"/><path stroke="#fff" stroke-miterlimit="10" stroke-width=".5" d="M264.424 179.107s1.026 8.717 4.047 11.68c2.223 2.165 5.529 1.709 5.529 1.709M257.528 202.581s-9.405 4.045-7.581 9.743c1.767 5.64 3.078 8.831 3.078 8.831"/><path fill="#4862BD" d="M243.107 158.994c-.114.627-.228 1.197-.285 1.766.741.342 1.596.798 2.508 1.311.285-.684.57-1.481.741-2.393.171-.855.285-1.652.342-2.393a29.581 29.581 0 0 0-2.337-1.14c-.342.684-.684 1.71-.969 2.849Z"/><path fill="url(#p)" d="M232.449 172.782c-.057.456-.228.912-.399 1.368l-5.757 12.193-4.389 23.588-14.078 15.326h-27.644l-14.421-15.611-4.047-23.303-5.813-12.193c-.228-.399-.342-.855-.399-1.368l-4.503-26.266a4.33 4.33 0 0 1 4.275-5.07h77.46c2.679 0 4.73 2.45 4.274 5.07l-4.559 26.266Z"/><path fill="url(#q)" d="M226.977 184.576c-8.835-6.381-14.535-16.751-14.535-28.488 0-5.241 1.14-10.198 3.192-14.699h-43.546c2.052 4.444 3.192 9.458 3.192 14.699 0 11.737-5.757 22.107-14.535 28.488 0 0-3.476 1.767-1.538 8.604 2.108 7.35 4.502 5.127 4.502 5.127 7.296-5.868 20.007-9.401 30.095-9.401 10.089 0 22.856 3.533 30.095 9.401 0 0 2.451 2.223 4.503-5.127 2.052-6.837-1.425-8.604-1.425-8.604Z"/><path stroke="#fff" stroke-miterlimit="10" stroke-width=".5" d="M223.557 201.669a45.676 45.676 0 0 0-29.639-10.882c-11.285 0-21.602 4.102-29.582 10.825M217.914 141.389c-2.052 4.444-3.192 9.458-3.192 14.699 0 10.94 4.959 20.683 12.825 27.121M169.637 141.389c2.052 4.444 3.192 9.458 3.192 14.699 0 10.94-4.959 20.683-12.824 27.121"/><path fill="#fff" d="M230.511 147.77a1.596 1.596 0 1 0 0-3.191 1.596 1.596 0 0 0 0 3.191ZM225.894 147.77a1.596 1.596 0 1 0 0-3.191 1.596 1.596 0 0 0 0 3.191ZM221.22 147.77a1.596 1.596 0 1 0 0-3.191 1.596 1.596 0 0 0 0 3.191ZM226.065 188.565a1.026 1.026 0 1 0 0-2.051 1.026 1.026 0 0 0 0 2.051ZM225.267 192.496a1.026 1.026 0 1 0 0-2.051 1.026 1.026 0 0 0 0 2.051ZM179.156 152.214a1.026 1.026 0 1 0 0-2.052 1.026 1.026 0 0 0 0 2.052Z"/><path fill="#9BAFF5" d="M165.077 205.771c-5.3 8.148-4.958 13.219-1.995 16.751.969-2.45 2.166-3.703 3.648-3.76h.057c2.508 0 5.13 3.76 6.213 6.267 1.311 2.906 2.907 4.045 3.363 4.33 6.726.912 10.202-4.159 10.202-4.159-2.507-16.922-21.488-19.429-21.488-19.429Z"/><path fill="#000" d="M173 225.086c-1.14-2.564-3.705-6.267-6.213-6.267h-.057c-1.482.057-2.679 1.31-3.648 3.76l.114.114.114.057c.912-2.393 2.052-3.589 3.42-3.646h.057c2.394 0 4.902 3.76 5.985 6.096 1.026 2.336 2.223 3.533 2.964 4.102.057 0 .114 0 .171.057.171 0 .342.057.456.057-.456-.285-2.109-1.424-3.363-4.33Z"/><path fill="#8EA7FF" d="M222.645 205.714c5.301 8.148 4.959 13.219 1.995 16.751-.969-2.45-2.166-3.703-3.648-3.76h-.057c-2.508 0-5.13 3.76-6.213 6.267-1.311 2.906-2.907 4.045-3.363 4.33-6.725.912-10.202-4.159-10.202-4.159 2.508-16.865 21.488-19.429 21.488-19.429Z"/><path fill="#000" d="M214.722 225.029c1.14-2.564 3.705-6.267 6.213-6.267h.057c1.482.057 2.679 1.31 3.648 3.76l-.114.114-.114.057c-.912-2.393-2.052-3.589-3.42-3.646h-.057c-2.394 0-4.902 3.76-5.985 6.153-1.026 2.336-2.223 3.533-2.964 4.102-.057 0-.114 0-.171.057-.171 0-.342.057-.456.057.456-.342 2.052-1.481 3.363-4.387Z"/><path fill="#4862BD" d="M236.267 145.32c.228-.399.684-.57 1.083-.342 1.425.741 4.332 2.735 3.591 6.096l-3.021 16.808c-.171 1.026-.684 1.995-1.425 2.792l-2.108 2.165c-1.026 1.083-2.85.285-2.736-1.196.399-6.837 1.596-20.284 4.616-26.323ZM150.999 145.32c-.228-.399-.684-.57-1.083-.342-1.425.741-4.332 2.735-3.591 6.096l3.021 16.808c.171 1.026.684 1.995 1.425 2.792l2.109 2.165c1.026 1.083 2.85.285 2.736-1.196-.456-6.837-1.596-20.284-4.617-26.323Z"/><path fill="#000" d="M109.313 148.825c.186-.957-6.554-3.066-15.053-4.709-8.5-1.643-15.54-2.199-15.725-1.241-.185.957 6.555 3.066 15.054 4.709 8.499 1.643 15.539 2.199 15.724 1.241Z"/><path fill="#4862BD" d="M142.905 158.253s-28.898 39.713-47.65-16.807l-8.892-2.678s4.218 32.875 22.23 39.769c10.544 4.045 22.229 1.31 38.644-17.834l2.85-3.304-1.482-6.268-5.7 7.122Z"/><path fill="url(#r)" d="M137.091 160.646s-6.782 4.388-11.684 5.983c-1.254.399-1.881 1.88-1.254 3.02 1.425 2.621 4.218 6.609 8.664 8.603.513.228 1.026.171 1.482-.171 1.709-1.367 6.611-5.584 11.456-12.478l-8.664-4.957Z"/><path fill="#000" d="M140.568 161.045c-1.71-.74-3.192-.911-3.477-.342-.285.513.342 1.425 1.539 2.393a59.727 59.727 0 0 0 1.938-2.051ZM144.617 163.666c-.627.684-1.197 1.311-1.767 1.937 1.482.513 2.622.627 2.907.114.171-.456-.285-1.253-1.14-2.051Z"/><path fill="#4862BD" d="M142.164 161.843c-.57-.285-1.083-.57-1.596-.798-.57.627-1.254 1.311-1.995 2.051.57.456 1.254.969 2.052 1.425.741.456 1.539.797 2.223 1.025.57-.626 1.197-1.253 1.767-1.937-.57-.57-1.425-1.196-2.451-1.766Z"/><path fill="url(#s)" d="M121.987 165.091s-6.384-1.311-8.607-3.704c0 0-14.306 10.883-24.338 13.617 0 0 9.975 8.946 27.131 9.515l5.814-19.428Z"/><path fill="#000" d="M121.702 171.814c.855-3.704 1.026-6.496.285-6.723-.741-.228-2.28 2.506-3.705 6.438 1.14.228 2.28.342 3.42.285ZM116.002 180.132c-.399 2.507-.399 4.216.171 4.387.627.171 1.767-1.652 2.964-4.501-1.083.114-2.109.171-3.135.114Z"/><path fill="#4862BD" d="M119.08 180.018a45.01 45.01 0 0 0 1.653-4.729c.342-1.253.684-2.393.912-3.532-1.14.057-2.28-.057-3.42-.228-.285.854-.627 1.766-.912 2.735-.627 2.165-1.14 4.159-1.368 5.811 1.083.114 2.109.057 3.135-.057Z"/><path fill="url(#t)" d="M114.463 158.994s-19.493 5.698-29.923 4.843c0 0-7.125-10.825-5.928-20.739 0 0 16.53 7.008 30.722 5.641l5.129 10.255Z"/><path fill="url(#u)" d="M105.002 142.585c.171.342 4.844 7.179-2.622 4.729-8.322-2.735-26.39-8.489-21.66-11.167 4.731-2.678 16.986-5.755 24.282 6.438Z"/><path fill="#fff" d="M133.273 176.999a.627.627 0 1 0 0-1.255.627.627 0 0 0 0 1.255ZM93.431 176.372a.627.627 0 1 0 0-1.254.627.627 0 0 0 0 1.254ZM111.271 158.083a.627.627 0 1 0 0-1.253.627.627 0 0 0 0 1.253Z"/><path stroke="#fff" stroke-miterlimit="10" stroke-width=".5" d="M116.743 176.486s-8.663-1.539-12.311.513c-2.736 1.481-3.249 4.786-3.249 4.786M96.224 163.096s-1.197-10.141-7.125-10.084c-5.927.057-9.347.399-9.347.399"/><path fill="#f7931a" d="M222.531 202.638s9.405-4.16 8.265-1.14c-1.14 3.02-1.824 6.666-6.213 6.723-3.876.057-12.654-1.025-2.052-5.583ZM224.526 226.055s9.918 2.678 8.379-.114c-1.596-2.792-2.85-6.324-7.125-5.698-3.819.513-12.369 2.906-1.254 5.812ZM94.343 135.805l-6.327-.456c-1.71-.114-2.793-2.108-2.052-3.874l3.933-9.857c.456-1.083 3.477-1.083 3.82 0l3.134 10.37c.627 1.88-.684 3.931-2.508 3.817ZM111.442 127.6s-5.3 8.832-6.098 5.698c-.798-3.134-2.394-6.552 1.197-9.059 3.078-2.279 10.886-6.438 4.901 3.361ZM74.508 127.714s5.757 8.49 6.44 5.356c.628-3.133 1.996-6.666-1.71-9.002-3.248-2.051-11.285-5.812-4.73 3.646Z"/><path fill="url(#v)" d="m144.9 80.253 4.218 27.463 4.047 4.957s.798 17.092-3.249 15.497c-4.047-1.595-5.13-7.293-5.757-17.378-.627-10.084-3.078-29.171-3.078-29.171l3.819-1.368Z"/><path fill="url(#w)" d="m243.506 80.253-4.218 27.463-4.046 4.957s-.798 17.092 3.248 15.497c4.047-1.538 5.13-7.293 5.757-17.378.627-10.084 3.078-29.171 3.078-29.171l-3.819-1.368Z"/><path fill="#f7931a" d="M92 114c8.837 0 16-7.163 16-16s-7.163-16-16-16-16 7.163-16 16 7.163 16 16 16Z"/><path stroke="#21284B" stroke-miterlimit="10" d="M92 111c7.18 0 13-5.82 13-13s-5.82-13-13-13-13 5.82-13 13 5.82 13 13 13Z"/><path stroke="#21284B" stroke-miterlimit="10" d="m97 94-5 4-3-2"/><path fill="#21284B" d="M100 99a1 1 0 1 0 0-2 1 1 0 0 0 0 2ZM84 99a1 1 0 1 0 0-2 1 1 0 0 0 0 2ZM92 91a1 1 0 1 0 0-2 1 1 0 0 0 0 2ZM92 106a1 1 0 1 0 0-2 1 1 0 0 0 0 2Z"/><defs><linearGradient id="a" x1="151.882" x2="208.809" y1="141.156" y2="140.234" gradientUnits="userSpaceOnUse"><stop stop-color="#DFE6FF"/><stop offset="1" stop-color="#7992EA"/></linearGradient><linearGradient id="b" x1="224.418" x2="158.31" y1="128.816" y2="131.122" gradientUnits="userSpaceOnUse"><stop stop-color="#4D62A9"/><stop offset="1" stop-color="#4863BD" stop-opacity="0"/><stop offset="1" stop-color="#ADBFFF"/></linearGradient><linearGradient id="d" x1="124.336" x2="149.978" y1="307.516" y2="313.047" gradientUnits="userSpaceOnUse"><stop stop-color="#CBD7FF"/><stop offset="1" stop-color="#6D8CF8"/></linearGradient><linearGradient id="e" x1="140.864" x2="180.794" y1="278.266" y2="285.181" gradientUnits="userSpaceOnUse"><stop stop-color="#C7D3FF"/><stop offset="1" stop-color="#557BFF"/></linearGradient><linearGradient id="f" x1="178.968" x2="148.226" y1="258.156" y2="250.321" gradientUnits="userSpaceOnUse"><stop stop-color="#5A7FFF"/><stop offset="1" stop-color="#D8E0FF"/></linearGradient><linearGradient id="g" x1="146.735" x2="115.45" y1="306.602" y2="307.957" gradientUnits="userSpaceOnUse"><stop stop-color="#4862BD"/><stop offset="1" stop-color="#A7BAFF"/></linearGradient><linearGradient id="h" x1="221.205" x2="262.058" y1="310.715" y2="305.643" gradientUnits="userSpaceOnUse"><stop stop-color="#95AAF3"/><stop offset="1" stop-color="#C7D3FF"/></linearGradient><linearGradient id="i" x1="240.419" x2="271.704" y1="306.172" y2="307.528" gradientUnits="userSpaceOnUse"><stop stop-color="#4862BD"/><stop offset="1" stop-color="#A7BAFF"/></linearGradient><linearGradient id="j" x1="224.877" x2="262.058" y1="285.578" y2="280.506" gradientUnits="userSpaceOnUse"><stop stop-color="#7E9BFF"/><stop offset="1" stop-color="#EDF1FF"/></linearGradient><linearGradient id="k" x1="221.664" x2="238.628" y1="235.305" y2="228.396" gradientUnits="userSpaceOnUse"><stop stop-color="#92AAFF"/><stop offset="1" stop-color="#fff"/></linearGradient><linearGradient id="l" x1="249.668" x2="258.328" y1="160.809" y2="178.207" gradientUnits="userSpaceOnUse"><stop stop-color="#A2B6FF"/><stop offset="0" stop-color="#A5B9FF"/><stop offset="1" stop-color="#E4EAFF"/></linearGradient><linearGradient id="m" x1="262.519" x2="277.109" y1="177.34" y2="206.108" gradientUnits="userSpaceOnUse"><stop stop-color="#9CB2FF"/><stop offset="1" stop-color="#D8E0FF"/></linearGradient><linearGradient id="n" x1="250.773" x2="250.773" y1="186.343" y2="225.2" gradientUnits="userSpaceOnUse"><stop stop-color="#96ADFF"/><stop offset="1" stop-color="#CDD8FF"/></linearGradient><linearGradient id="o" x1="239.568" x2="227.632" y1="226.164" y2="226.625" gradientUnits="userSpaceOnUse"><stop stop-color="#B8C8FF"/><stop offset="1" stop-color="#E3EAFF"/></linearGradient><linearGradient id="p" x1="157.85" x2="234.977" y1="188.23" y2="187.308" gradientUnits="userSpaceOnUse"><stop stop-color="#BCCBFF"/><stop offset="1" stop-color="#708BE9"/></linearGradient><linearGradient id="q" x1="226.714" x2="155.555" y1="199.199" y2="198.738" gradientUnits="userSpaceOnUse"><stop offset=".362" stop-color="#4862BD"/><stop offset="1" stop-color="#ACBFFF"/></linearGradient><linearGradient id="r" x1="134.831" x2="134.831" y1="160.646" y2="178.389" gradientUnits="userSpaceOnUse"><stop stop-color="#A4B8FF"/><stop offset="1" stop-color="#C6D2FF"/></linearGradient><linearGradient id="s" x1="105.515" x2="100.507" y1="161.387" y2="184.127" gradientUnits="userSpaceOnUse"><stop stop-color="#A7BBFF"/><stop offset="1" stop-color="#E0E7FF"/></linearGradient><linearGradient id="t" x1="96.47" x2="85.392" y1="143.098" y2="164.049" gradientUnits="userSpaceOnUse"><stop stop-color="#A0B6FF"/><stop offset="1" stop-color="#D6DFFF"/></linearGradient><linearGradient id="u" x1="88.986" x2="94.451" y1="145.27" y2="128.345" gradientUnits="userSpaceOnUse"><stop stop-color="#CAD5FF"/><stop offset="1" stop-color="#9FB4FF"/></linearGradient><linearGradient id="v" x1="155" x2="141.003" y1="127" y2="129.516" gradientUnits="userSpaceOnUse"><stop stop-color="#f7931a"/><stop offset=".305" stop-color="#f7931a"/><stop offset="1" stop-color="#fff"/></linearGradient><linearGradient id="w" x1="244.618" x2="239.569" y1="128.359" y2="127.898" gradientUnits="userSpaceOnUse"><stop stop-color="#5E3607"/><stop offset="1" stop-color="#f7931a"/></linearGradient><filter id="c" width="44.508" height="52.422" x="172.264" y="91.023" color-interpolation-filters="sRGB" filterUnits="userSpaceOnUse"><feFlood flood-opacity="0" result="BackgroundImageFix"/><feBlend in="SourceGraphic" in2="BackgroundImageFix" result="shape"/><feGaussianBlur result="effect1_foregroundBlur_18_6567" stdDeviation="4.5"/></filter></defs></svg>