<svg xmlns="http://www.w3.org/2000/svg" width="393" height="361" fill="none"><path fill="#f7931a" d="M299 192.119c0 7.665-6.943 13.881-15.5 13.881s-15.5-6.216-15.5-13.881c0-8.184 10.191-20.524 14.047-24.893a.64.64 0 0 1 .329-.225.673.673 0 0 1 .729.239.587.587 0 0 1 .111.369c-.33 3.657-.104 11.481 6.833 15.381a.677.677 0 0 0 .474.096.652.652 0 0 0 .411-.242 7.721 7.721 0 0 0 1.453-4.077.585.585 0 0 1 .154-.364.654.654 0 0 1 .357-.2.685.685 0 0 1 .412.047.631.631 0 0 1 .297.273c2.952 4.583 5.393 9.586 5.393 13.596Z"/><path fill="#303E66" d="M273.812 197.323c0 4.795 4.341 8.677 9.688 8.677s9.687-3.882 9.687-8.677c0-4.796-5.612-11.889-8.292-14.997a.642.642 0 0 0-.33-.232.69.69 0 0 0-.412.003.644.644 0 0 0-.326.238.58.58 0 0 0-.107.375c.096 2.437-.356 6.563-4.101 8.805a.667.667 0 0 1-.5.086.628.628 0 0 1-.411-.281 4.718 4.718 0 0 1-.646-1.706.596.596 0 0 0-.172-.354.679.679 0 0 0-.77-.122.626.626 0 0 0-.285.281c-1.699 2.7-3.023 5.57-3.023 7.904Z"/><path fill="#f7931a" fill-rule="evenodd" d="M282.208 193.605c-1.582 1.914-4.036 5.265-4.036 7.624.014.644.164 1.279.44 1.869.276.59.673 1.122 1.169 1.565a5.204 5.204 0 0 0 1.717 1.02c.639.23 1.319.337 2.002.317a5.443 5.443 0 0 0 2.002-.317 5.204 5.204 0 0 0 1.717-1.02 4.863 4.863 0 0 0 1.169-1.565c.276-.59.426-1.225.44-1.869a8.24 8.24 0 0 0-1.292-3.76.627.627 0 0 0-.262-.253.678.678 0 0 0-.714.059.607.607 0 0 0-.212.291.604.604 0 0 1-.173.241.682.682 0 0 1-.854.009 5.118 5.118 0 0 1-1.425-1.741 4.835 4.835 0 0 1-.512-2.147.593.593 0 0 0-.137-.35.646.646 0 0 0-.328-.21.685.685 0 0 0-.396.011.65.65 0 0 0-.315.226Zm.257 1.274c-.663.84-1.397 1.848-2.008 2.88-.793 1.343-1.281 2.567-1.285 3.459.012.5.129.995.345 1.456.218.465.533.889.931 1.244a4.2 4.2 0 0 0 1.389.824 4.428 4.428 0 0 0 1.633.258h.06a4.428 4.428 0 0 0 1.633-.258 4.2 4.2 0 0 0 1.389-.824 3.87 3.87 0 0 0 .931-1.244c.21-.449.326-.929.344-1.415a7.204 7.204 0 0 0-.873-2.816 1.657 1.657 0 0 1-.814.473 1.677 1.677 0 0 1-1.442-.318 6.135 6.135 0 0 1-1.697-2.077 5.865 5.865 0 0 1-.536-1.642Z" clip-rule="evenodd"/><mask id="b" width="101" height="63" x="151" y="150" maskUnits="userSpaceOnUse" style="mask-type:alpha"><rect width="101" height="63" x="151" y="150" fill="url(#a)" rx="31.5"/></mask><g mask="url(#b)"><rect width="101" height="63" x="151" y="150" fill="url(#c)" rx="31.5"/><rect width="37" height="42" x="242" y="162" fill="url(#d)" rx="18.5"/><rect width="37" height="42" x="125" y="162" fill="url(#e)" rx="18.5"/><path stroke="#fff" stroke-miterlimit="10" stroke-width=".5" d="M222.143 148.87c-2.731 8.664-10.739 14.897-20.237 14.897a21.156 21.156 0 0 1-20.237-14.897"/><path stroke="#fff" stroke-miterlimit="10" stroke-width=".5" d="M218.543 147c-2.235 7.106-8.877 12.28-16.699 12.28-7.822 0-14.464-5.174-16.698-12.28"/></g><path fill="url(#f)" d="M237 179.653c0 10.366 0 28.347-35 28.347s-35-17.753-35-28.347c0-15.149 15.651-9.698 35-9.698s35-5.451 35 9.698Z"/><path fill="#2B2B2B" d="M184.649 188.5c4.56 0 8.256 3.283 8.256-1.295 0-4.579-3.696-8.291-8.256-8.291-4.56 0-8.256 3.712-8.256 8.291 0 4.578 3.696 1.295 8.256 1.295ZM218.256 188.5c4.56 0 8.256 3.283 8.256-1.295 0-4.579-3.696-8.291-8.256-8.291-4.56 0-8.256 3.712-8.256 8.291 0 4.578 3.696 1.295 8.256 1.295Z"/><path fill="#fff" d="M217.5 184a1.5 1.5 0 1 0-.001-3.001A1.5 1.5 0 0 0 217.5 184ZM183.5 184a1.5 1.5 0 1 0-.001-3.001A1.5 1.5 0 0 0 183.5 184ZM214 186a1 1 0 1 0 0-2 1 1 0 0 0 0 2ZM180 186a1 1 0 1 0 0-2 1 1 0 0 0 0 2Z"/><path fill="#000" d="M203.494 324.049c2.091 0 2.934 1.31 2.934 2.5l-32.038 19.5c-1.294-1.87-2.962-6-1.962-10.777.627-2.996 24.249-11.223 31.066-11.223Z"/><mask id="h" width="35" height="34" x="173" y="325" maskUnits="userSpaceOnUse" style="mask-type:alpha"><path fill="url(#g)" d="M204.928 338.049c-3.2 6-17.667 15.834-24.5 20l-6.5-22 32-11c1 1.834 2.2 7-1 13Z"/></mask><g mask="url(#h)"><path fill="#000" d="M204.928 338.049c-3.2 6-17.667 15.834-24.5 20l-6.5-22 32-11c1 1.834 2.2 7-1 13Z"/><path fill="url(#i)" d="M204.826 337c-3.2 6-17.667 15.833-24.5 20l-6.5-22 32-11c1 1.833 2.2 7-1 13Z"/></g><path fill="#000" d="M173.855 336.272c-2.4 2 6 21.5 8 21.5 3.5 0 4.5-15.951 4.5-18.5 0-4-9.5-5.5-12.5-3Z"/><path fill="#3550AB" d="M172.427 337.049c-2.4 2 6.001 21.5 8 21.5 3.5 0 4.5-15.95 4.5-18.5 0-4-9.5-5.5-12.5-3Z"/><mask id="j" width="90" height="27" x="198" y="292" maskUnits="userSpaceOnUse" style="mask-type:alpha"><path fill="#3550AB" d="M199.428 308.549c0 12.951 44.833 9.5 57 9.5 6.5.834 19.15-.158 30-6 6.5-3.5-16-11-51-17.5-44-8.171-36 14-36 14Z"/></mask><g mask="url(#j)"><path fill="#3550AB" d="M199.428 308.549c0 16.451 44.833 9.5 57 9.5 6.5.834 19.15-.158 30-6 6.5-3.5-16-11-51-17.5-44-8.171-36 14-36 14Z"/><path fill="#203177" d="M200.996 303.858c20 5.5 44.834 9.5 57 9.5 6.5.833 19.151-.158 30-6 6.5-3.5-16-11-51-17.5-44-8.172-36 14-36 14Z"/></g><path fill="url(#k)" d="M228.927 304.549c7.2 1.6 34.667 1.334 47.5 1 9-3.5-40-15.5-46-16.5s-10.5 13.5-1.5 15.5Z"/><circle cx="212.427" cy="333.049" r="8" fill="#000"/><circle cx="285.428" cy="312.049" r="8" fill="#000"/><path fill="url(#l)" d="M292.102 335.935c8.263-1.907 8.686-11.358 6.419-20.744-2.267-9.386-7.847-11.209-14.512-9.739-14.195 3.13-47.316 14.508-62.162 19.705-4.242 1.485-6.63 5.936-5.575 10.305.975 4.034 4.619 6.834 8.766 6.673 15.069-.587 50.26-2.322 67.064-6.2Z"/><path stroke="#fff" stroke-width=".5" d="m299.96 324.049-29.474 4.603c-8.25 1.288-7.283 8.652-7.516 11.295"/><path fill="#f7931a" d="M197.408 324.049c-2.092 0-2.934 1.31-2.934 2.5l32.037 19.5c1.295-1.87 2.963-6 1.963-10.777-.627-2.996-24.25-11.223-31.066-11.223Z"/><mask id="n" width="34" height="34" x="193" y="325" maskUnits="userSpaceOnUse" style="mask-type:alpha"><path fill="url(#m)" d="M195.974 338.049c3.2 6 17.667 15.834 24.5 20l6.5-22-32-11c-1 1.834-2.2 7 1 13Z"/></mask><g mask="url(#n)"><path fill="#000" d="M195.974 338.049c3.2 6 17.667 15.834 24.5 20l6.5-22-32-11c-1 1.834-2.2 7 1 13Z"/><path fill="url(#o)" d="M196.076 337c3.2 6 17.667 15.833 24.5 20l6.5-22-32-11c-1 1.833-2.2 7 1 13Z"/></g><path fill="#000" d="M227.047 336.272c2.4 2-6 21.5-8 21.5-3.5 0-4.5-15.951-4.5-18.5 0-4 9.5-5.5 12.5-3Z"/><path fill="#3550AB" d="M228.474 337.049c2.4 2-6 21.5-8 21.5-3.5 0-4.5-15.95-4.5-18.5 0-4 9.5-5.5 12.5-3Z"/><mask id="p" width="90" height="28" x="113" y="292" maskUnits="userSpaceOnUse" style="mask-type:alpha"><path fill="#3550AB" d="M201.474 308.549c0 15.451-44.833 9.5-57 9.5-6.5.834-19.15-.158-30-6-6.5-3.5 16-11 51-17.5 44-8.171 36 14 36 14Z"/></mask><g mask="url(#p)"><path fill="#3550AB" d="M201.474 308.549c0 19.451-44.833 9.5-57 9.5-6.5.834-19.15-.158-30-6-6.5-3.5 16-11 51-17.5 44-8.171 36 14 36 14Z"/><path fill="#203177" d="M199.905 303.858c-20 5.5-44.833 9.5-57 9.5-6.5.833-19.15-.158-30-6-6.5-3.5 16-11 51-17.5 44-8.172 36 14 36 14Z"/></g><path fill="url(#q)" d="M171.974 304.549c-7.2 1.6-34.666 1.334-47.5 1-9-3.5 40-15.5 46-16.5s10.5 13.5 1.5 15.5Z"/><circle cx="8" cy="8" r="8" fill="#000" transform="matrix(-1 0 0 1 196.474 325.049)"/><circle cx="8" cy="8" r="8" fill="#000" transform="matrix(-1 0 0 1 123.474 304.049)"/><path fill="url(#r)" d="M108.799 335.935c-8.262-1.907-8.686-11.358-6.419-20.744 2.267-9.386 7.847-11.209 14.513-9.739 14.195 3.13 47.315 14.508 62.162 19.705 4.241 1.485 6.63 5.936 5.574 10.305-.974 4.034-4.619 6.834-8.766 6.673-15.069-.587-50.26-2.322-67.064-6.2Z"/><path stroke="#fff" stroke-width=".5" d="m100.941 324.049 29.475 4.603c8.25 1.288 7.282 8.652 7.515 11.295"/><path fill="url(#s)" d="M243.954 249.398C240.781 274.925 230.224 315 202.031 315c-28.194 0-39.209-39.916-42.048-65.602V232.5c0-17.5 12.593-17.5 15.517-17.5h51c2.923 0 17.665 0 17.665 17.5l-.211 16.898Z"/><path fill="url(#t)" d="M175 215h52v34c0 6.627-5.373 12-12 12h-28c-6.627 0-12-5.373-12-12v-34Z"/><path fill="#fff" d="M222.5 222a1.5 1.5 0 1 0-.001-3.001A1.5 1.5 0 0 0 222.5 222ZM217.5 222a1.5 1.5 0 1 0-.001-3.001A1.5 1.5 0 0 0 217.5 222ZM212.5 222a1.5 1.5 0 1 0-.001-3.001A1.5 1.5 0 0 0 212.5 222Z"/><path fill="#3550AB" d="m248.288 226.327-.681.448c-5.999 3.944-7.665 12.005-3.721 18.004l19.137 29.108 11.544-7.59-26.279-39.97Z"/><path fill="url(#u)" d="M237.5 218.5c1.778-4.28 16-3 16 7.5l-4.784 19c.047 1.204.147 3.327-.716 4.5l-1.771 4.107c-1.201 1.6-4.998.58-5.262-1.107-2.467-7.5-6.17-26.126-3.467-34Z"/><mask id="v" width="10" height="31" x="244" y="224" maskUnits="userSpaceOnUse" style="mask-type:alpha"><path fill="#000" d="M252.478 237.334c-1.44 6.186-4.392 17.152-6.478 16.666-2.086-.486-2.517-12.239-1.076-18.425 1.44-6.186 5.468-11.561 7.554-11.075 2.086.486 1.441 6.649 0 12.834Z"/></mask><g mask="url(#v)"><path fill="#000" d="M252.478 237.334c-1.44 6.186-4.392 17.152-6.478 16.666-2.086-.486-2.517-12.239-1.076-18.425 1.44-6.186 5.468-11.561 7.554-11.075 2.086.486 1.441 6.649 0 12.834Z"/><path fill="#3550AB" d="m248.288 226.327-.681.448c-5.999 3.944-7.665 12.005-3.721 18.004l19.137 29.108 11.544-7.59-26.279-39.97Z"/></g><circle cx="266" cy="268" r="7" fill="#000"/><path fill="url(#w)" d="M289.53 239.316s-1.977-6.385-11.87-8.716c-9.892-2.331-14.511 2.499-14.511 2.499l-2.07 27.993a9.26 9.26 0 0 0 17.804 4.195l10.647-25.971Z"/><ellipse cx="276.504" cy="234.848" fill="#000" rx="13.5" ry="4.976" transform="rotate(13.35 276.504 234.848)"/><path stroke="#fff" stroke-width=".5" d="m264.766 268.86 3.728-14.218c1.044-3.98-4.605-5.553-6.493-6.373"/><path fill="#3550AB" d="m156.138 226.327.636.421c5.99 3.959 7.66 12.04 3.73 18.049l-19.022 29.09-11.482-7.59 26.138-39.97Z"/><path fill="url(#x)" d="M166.868 218.5c-1.769-4.28-15.914-3-15.914 7.5l4.758 19c-.047 1.204-.146 3.327.712 4.5l1.761 4.107c1.195 1.6 4.972.58 5.235-1.107 2.453-7.5 6.136-26.126 3.448-34Z"/><mask id="y" width="11" height="31" x="150" y="224" maskUnits="userSpaceOnUse" style="mask-type:alpha"><path fill="#000" d="M151.97 237.334c1.433 6.186 4.368 17.152 6.443 16.666 2.075-.486 2.504-12.239 1.071-18.425s-5.439-11.561-7.514-11.075c-2.075.486-1.433 6.649 0 12.834Z"/></mask><g mask="url(#y)"><path fill="#000" d="M151.97 237.334c1.433 6.186 4.368 17.152 6.443 16.666 2.075-.486 2.504-12.239 1.071-18.425s-5.439-11.561-7.514-11.075c-2.075.486-1.433 6.649 0 12.834Z"/><path fill="#3550AB" d="m156.137 226.327.637.421c5.99 3.959 7.66 12.04 3.73 18.049l-19.023 29.09-11.481-7.59 26.137-39.97Z"/></g><circle cx="7.5" cy="7.5" r="7.5" fill="#000" transform="matrix(-1 0 0 1 145 261)"/><path fill="url(#z)" d="M122.299 300.481s3.084 5.929 13.235 6.456c10.15.527 13.832-5.051 13.832-5.051l-2.962-27.912a9.26 9.26 0 0 0-18.268-.949l-5.837 27.456Z"/><ellipse cx="135.913" cy="302.55" fill="#000" rx="13.5" ry="4.976" transform="rotate(-176.937 135.913 302.55)"/><path stroke="#fff" stroke-width=".5" d="m141.389 266.989-1.13 14.656c-.316 4.102 5.524 4.641 7.528 5.11"/><path fill="#f7931a" d="m280.889 234.314-6.094-1.761c-1.649-.467-2.294-2.642-1.202-4.216l5.896-8.824c.671-.964 3.626-.336 3.736.794l.91 10.795c.223 1.969-1.486 3.703-3.246 3.212ZM299.32 229.844s-7.021 7.536-7.15 4.305c-.129-3.231-.979-6.907 3.054-8.612 3.485-1.59 11.987-4.035 4.096 4.307ZM263.169 222.277s3.866 9.501 5.186 6.578c1.265-2.935 3.337-6.106.199-9.161-2.751-2.682-9.831-8.031-5.385 2.583ZM137.264 310.771l-4.853.291c-1.307.078-2.151 1.621-1.634 2.958l3.447 8.562c.363.849 1.424.848 1.683-.038l3.219-8.837c.537-1.462-.493-3.017-1.862-2.936ZM147.521 317.31s3.931-10.496.707-9.06c-3.223 1.437-7.161 2.418-6.938 7.194.19 4.217 1.942 13.689 6.231 1.866ZM121.819 316.669s-3.569-10.607-.42-9.116c3.152 1.553 7.091 2.686 6.685 7.374-.312 4.185-2.37 13.636-6.265 1.742Z"/><path stroke="#fff" d="M202.5 149.5v-30"/><mask id="A" width="21" height="6" x="192" y="147" maskUnits="userSpaceOnUse" style="mask-type:alpha"><path fill="#f7931a" d="M192.167 151.163c-.157-.194-.073-.447.096-.632l1.453-1.585a6.002 6.002 0 0 1 4.423-1.946h8.721c1.682 0 3.287.706 4.423 1.946l1.454 1.585c.169.185.253.438.095.632-.497.615-2.475 1.837-10.332 1.837-7.858 0-9.835-1.222-10.333-1.837Z"/></mask><g mask="url(#A)"><path fill="#f7931a" d="M192.167 151.163c-.157-.194-.073-.447.096-.632l1.453-1.585a6.002 6.002 0 0 1 4.423-1.946h8.721c1.682 0 3.287.706 4.423 1.946l1.454 1.585c.169.185.253.438.095.632-.497.615-2.475 1.837-10.332 1.837-7.858 0-9.835-1.222-10.333-1.837Z"/><path stroke="#000" stroke-opacity=".29" stroke-width=".5" d="m192.447 149.064 1.454-1.586a5.75 5.75 0 0 1 4.238-1.864h8.721a5.75 5.75 0 0 1 4.239 1.864l1.454 1.586a.432.432 0 0 1 .109.193c.01.048.002.081-.024.113-.199.246-.756.687-2.272 1.063-1.511.376-3.948.681-7.866.681-3.918 0-6.355-.305-7.866-.681-1.516-.376-2.073-.817-2.272-1.063-.026-.032-.034-.065-.024-.113a.432.432 0 0 1 .109-.193Z"/></g><circle cx="202.5" cy="120.5" r="11.25" stroke="#fff" stroke-opacity=".2" stroke-width=".5"/><circle cx="202.5" cy="120.5" r="18.25" stroke="#fff" stroke-opacity=".2" stroke-width=".5"/><circle cx="202.5" cy="120.5" r="3.5" fill="#f7931a"/><defs><linearGradient id="a" x1="256" x2="146" y1="182" y2="182" gradientUnits="userSpaceOnUse"><stop stop-color="#7992EA"/><stop offset="1" stop-color="#DEE5FF"/></linearGradient><linearGradient id="c" x1="256" x2="146" y1="182" y2="182" gradientUnits="userSpaceOnUse"><stop stop-color="#7992EA"/><stop offset="1" stop-color="#DEE5FF"/></linearGradient><linearGradient id="d" x1="280.465" x2="240.168" y1="183.333" y2="183.333" gradientUnits="userSpaceOnUse"><stop stop-color="#40529A"/></linearGradient><linearGradient id="e" x1="163.465" x2="123.168" y1="183.333" y2="183.333" gradientUnits="userSpaceOnUse"><stop stop-color="#40529A"/></linearGradient><linearGradient id="f" x1="234.912" x2="163.457" y1="202.039" y2="204.735" gradientUnits="userSpaceOnUse"><stop stop-color="#4963BD"/><stop offset="1" stop-color="#92A3E1"/></linearGradient><linearGradient id="g" x1="190.466" x2="190.466" y1="325.049" y2="358.049" gradientUnits="userSpaceOnUse"><stop stop-color="#B2C3FF"/><stop offset="1" stop-color="#5C7AE2"/></linearGradient><linearGradient id="i" x1="190.364" x2="190.364" y1="324" y2="357" gradientUnits="userSpaceOnUse"><stop stop-color="#B2C3FF"/><stop offset="1" stop-color="#5C7AE2"/></linearGradient><linearGradient id="k" x1="261.927" x2="250.683" y1="290.049" y2="305.802" gradientUnits="userSpaceOnUse"><stop stop-color="#617EE3"/><stop offset="1" stop-color="#BCCBFF"/></linearGradient><linearGradient id="l" x1="259.416" x2="253.37" y1="337.881" y2="312.852" gradientUnits="userSpaceOnUse"><stop stop-color="#B2C3FF"/><stop offset="1" stop-color="#5674DF"/></linearGradient><linearGradient id="m" x1="210.436" x2="210.436" y1="325.049" y2="358.049" gradientUnits="userSpaceOnUse"><stop stop-color="#B2C3FF"/><stop offset="1" stop-color="#5C7AE2"/></linearGradient><linearGradient id="o" x1="210.538" x2="210.538" y1="324" y2="357" gradientUnits="userSpaceOnUse"><stop stop-color="#B2C3FF"/><stop offset="1" stop-color="#5C7AE2"/></linearGradient><linearGradient id="q" x1="138.974" x2="150.219" y1="290.049" y2="305.802" gradientUnits="userSpaceOnUse"><stop stop-color="#617EE3"/><stop offset="1" stop-color="#BCCBFF"/></linearGradient><linearGradient id="r" x1="141.486" x2="147.532" y1="337.881" y2="312.852" gradientUnits="userSpaceOnUse"><stop stop-color="#B2C3FF"/><stop offset="1" stop-color="#5674DF"/></linearGradient><linearGradient id="s" x1="162.546" x2="246.714" y1="266.356" y2="265.355" gradientUnits="userSpaceOnUse"><stop stop-color="#BCCBFF"/><stop offset="1" stop-color="#708BE9"/></linearGradient><linearGradient id="t" x1="175" x2="230.5" y1="235.346" y2="235.346" gradientUnits="userSpaceOnUse"><stop stop-color="#46569D"/><stop offset="1" stop-color="#26398B"/></linearGradient><linearGradient id="u" x1="248.5" x2="239" y1="217" y2="247" gradientUnits="userSpaceOnUse"><stop stop-color="#2A3D8E"/><stop offset="1" stop-color="#44559C"/></linearGradient><linearGradient id="w" x1="286.006" x2="259.625" y1="254.27" y2="248.053" gradientUnits="userSpaceOnUse"><stop stop-color="#5674DF"/><stop offset="1" stop-color="#B2C3FF"/></linearGradient><linearGradient id="x" x1="163.093" x2="153.413" y1="216.231" y2="252.747" gradientUnits="userSpaceOnUse"><stop stop-color="#2A3D8E"/><stop offset="1" stop-color="#46569D"/></linearGradient><linearGradient id="z" x1="123.095" x2="150.163" y1="285.138" y2="286.543" gradientUnits="userSpaceOnUse"><stop stop-color="#B2C3FF"/><stop offset="1" stop-color="#5674DF"/></linearGradient></defs></svg>