<svg xmlns="http://www.w3.org/2000/svg" width="393" height="361" fill="none"><path fill="url(#a)" d="M211 128.241a1 1 0 0 1-1.511.859l-2.558-1.522a6.002 6.002 0 0 1-2.931-5.156v-9.844a6.002 6.002 0 0 1 2.931-5.156l2.558-1.522a1 1 0 0 1 1.511.859v21.482Z"/><path fill="#1C1C1C" stroke="#6B8AF5" stroke-miterlimit="10" d="M81.983 254.966c10.484 0 18.983-8.499 18.983-18.983S92.466 217 81.983 217C71.499 217 63 225.499 63 235.983s8.499 18.983 18.983 18.983Z"/><path stroke="#6B8AF5" stroke-miterlimit="10" d="M81.983 250.963c8.046 0 14.568-6.522 14.568-14.568s-6.522-14.568-14.568-14.568-14.568 6.522-14.568 14.568 6.522 14.568 14.568 14.568ZM99.543 229.449l-3.59 1.491M100.78 236.081h-3.885M99.887 242.124l-3.738-1.069M96.394 247.961l-3.15-2.276M91.744 251.993l-2.394-3.061M85.338 254.642l-.98-3.767M78.755 254.681l.58-3.845M72.633 252.386l1.943-3.365M67.65 248.03l2.992-2.482M64.432 242.438l3.59-1.501M63.147 236.14h3.885M64.393 229.842l3.669 1.295M67.552 224.034l3.512 2.237M72.35 219.963l2.334 3.443M78.696 217.647l.815 4.082M85.465 217.716l-1.334 3.944M91.626 219.923l-2.648 3.522M96.404 223.946l-3.287 2.923"/><path fill="#f7931a" fill-rule="evenodd" d="M88.257 234.567c.3-2.012-1.222-3.093-3.301-3.815l.674-2.726-1.647-.413-.657 2.654c-.433-.109-.877-.211-1.32-.313l.662-2.671-1.646-.414-.675 2.725c-.358-.082-.71-.164-1.052-.249l.002-.009-2.271-.571-.438 1.772s1.222.282 1.196.3c.667.167.787.612.767.965l-.768 3.105c.046.011.105.028.171.055l-.056-.014a9.114 9.114 0 0 0-.118-.03l-1.077 4.35c-.082.204-.289.511-.755.394.017.024-1.197-.301-1.197-.301l-.818 1.899 2.144.539c.239.06.475.122.71.184l.464.121-.682 2.757 1.645.413.675-2.727c.45.123.886.236 1.313.343l-.673 2.715 1.647.413.682-2.752c2.809.536 4.92.32 5.81-2.239.716-2.06-.036-3.249-1.514-4.024 1.076-.25 1.887-.963 2.103-2.436Zm-3.763 5.316c-.467 1.89-3.404 1.109-4.748.751l-.321-.084.904-3.652c.112.028.25.059.405.094 1.39.315 4.239.958 3.76 2.891Zm-3.481-4.586c1.12.302 3.564.959 3.99-.759.435-1.758-1.94-2.287-3.1-2.546-.131-.029-.246-.055-.34-.078l-.82 3.312.27.071Z" clip-rule="evenodd"/><path fill="#1C1C1C" stroke="#6B8AF5" stroke-miterlimit="10" d="M165.983 254.966c10.484 0 18.983-8.499 18.983-18.983S176.467 217 165.983 217 147 225.499 147 235.983s8.499 18.983 18.983 18.983Z"/><path stroke="#6B8AF5" stroke-miterlimit="10" d="M165.983 250.953c8.046 0 14.568-6.522 14.568-14.568s-6.522-14.568-14.568-14.568-14.568 6.522-14.568 14.568 6.522 14.568 14.568 14.568ZM183.543 229.449l-3.59 1.482M184.77 236.081h-3.885M183.877 242.124l-3.728-1.069M180.394 247.951l-3.149-2.275M175.734 251.983l-2.384-3.06M169.329 254.632l-.982-3.757M162.746 254.672l.579-3.846M156.634 252.376l1.942-3.365M151.64 248.02l3.002-2.472M148.432 242.438l3.581-1.501M147.147 236.14h3.885M148.393 229.832l3.66 1.295M151.542 224.034l3.512 2.227M156.349 219.963l2.335 3.443M162.696 217.638l.815 4.081M169.466 217.706l-1.334 3.944M175.626 219.923l-2.648 3.513M180.404 223.946l-3.296 2.923"/><path fill="#fff" d="m171.676 239.007-7.137.482-4.369-5.663 9.638-6.036 1.868 11.217Z"/><path fill="#fff" d="m171.235 239.995-9.056 4.735-2.453-9.918 4.369 5.662 7.14-.479Z"/><rect width="56" height="1" x="121" y="146" fill="#fff" rx=".5" transform="rotate(90 121 146)"/><path stroke="#fff" stroke-width=".5" d="m131.487 255.75 26.013-53.181 26.013 53.181h-52.026ZM66.487 255.75 92.5 202.569l26.013 53.181H66.487Z"/><path fill="#BCCBFD" d="M128 254h57a6 6 0 0 1-6 6h-45a6 6 0 0 1-6-6Z"/><rect width="80" height="1" x="85" y="201" fill="#fff" rx=".5"/><path fill="#BCCBFD" d="M63 254h57a6 6 0 0 1-6 6H69a6 6 0 0 1-6-6Z"/><path fill="#000" d="M225 237h-8v43h8z"/><path fill="url(#b)" d="M228.853 214.406c-1.678-8.632-14.028-8.632-15.706 0l-5.018 25.818c-.96 4.938 2.822 9.526 7.853 9.526h10.036c5.031 0 8.813-4.588 7.853-9.526l-5.018-25.818Z"/><circle cx="221" cy="260" r="8" fill="url(#c)"/><path fill="url(#d)" d="M228.591 282.244c-2.68-6.657-12.093-6.691-14.82-.053l-12.234 29.768c-2.163 5.265 1.708 11.041 7.4 11.041h24.218c5.667 0 9.538-5.731 7.421-10.988l-11.985-29.768Z"/><path fill="#f7931a" d="M205.426 323H232c-1.114-4.528-4.846-15.196-10.861-21.648-4.982-5.343-13.556 6.221-19.123 15.978-1.468 2.573.448 5.67 3.41 5.67Z"/><path fill="url(#e)" d="M199.454 323H229c-1.027-4.134-4.467-13.874-10.012-19.765-4.545-4.828-16.077 5.459-22.565 14.306-1.755 2.395.062 5.459 3.031 5.459Z"/><path fill="#000" d="M271 237h8v43h-8z"/><path fill="url(#f)" d="M267.147 214.406c1.678-8.632 14.028-8.632 15.706 0l5.018 25.818c.96 4.938-2.822 9.526-7.853 9.526h-10.036c-5.031 0-8.813-4.588-7.853-9.526l5.018-25.818Z"/><circle cx="8" cy="8" r="8" fill="url(#g)" transform="matrix(0 1 1 0 267 252)"/><path fill="url(#h)" d="M267.409 282.244c2.68-6.657 12.093-6.691 14.82-.053l12.234 29.768c2.163 5.265-1.708 11.041-7.4 11.041h-24.218c-5.667 0-9.538-5.731-7.421-10.988l11.985-29.768Z"/><path fill="#f7931a" d="M290.574 323H264c1.114-4.528 4.846-15.196 10.861-21.648 4.982-5.343 13.556 6.221 19.123 15.978 1.468 2.573-.448 5.67-3.41 5.67Z"/><path fill="url(#i)" d="M296.546 323H267c1.027-4.134 4.467-13.874 10.012-19.765 4.545-4.828 16.077 5.459 22.565 14.306 1.755 2.395-.062 5.459-3.031 5.459Z"/><path fill="#4862BD" d="m183.583 161.305-18.723 13.756c-1.258.934-.703 3.734 1.194 6.355 1.897 2.622 4.463 3.96 5.721 3.026l16.102-11.86s.557-6.029-1.165-9.694c-.623-1.339-1.489-2.116-2.272-2.137-.247.119-.753.527-.857.554ZM130.542 174.423l8.802 2.814 8.245 2.633 2.07.649 1.54.457 1.389.355 1.877.401 1.394.229 1.129.133 1.151.078 1.38.01 1.258-.102 1.25-.255.918-.323.723-.402.487-.315-.672.89-.963.944-1.036.702-.91.444-1.004.342-1.233.24-1.399.12-1.246-.01-1.832-.149-2.498-.394-2.651-.552-4.024-1.027-3.839-1.123-8.919-2.946-.567-.27-.371-.393-.241-.469-.094-.325-.137-.895.023-1.491Z"/><path fill="url(#j)" d="M185.071 185.351s16.928-10.739 21.433-15.228c4.869-4.852 7.431-10.229 3.524-16.899-2.875-4.091-9.857-4.807-18.96-1.586-9.104 3.22-19.502 8.593-19.502 8.593"/><mask id="k" width="17" height="26" x="170" y="160" maskUnits="userSpaceOnUse" style="mask-type:alpha"><path fill="#000" d="M185.372 185.218c-2.111 1.184-6.918-3.399-10.738-10.236-3.82-6.838-5.206-13.341-3.096-14.525 2.11-1.184 6.917 3.399 10.737 10.236 3.82 6.838 5.207 13.34 3.097 14.525Z"/></mask><g mask="url(#k)"><path fill="#000" d="M185.372 185.218c-2.111 1.184-6.918-3.399-10.738-10.236-3.82-6.838-5.206-13.341-3.096-14.525 2.11-1.184 6.917 3.399 10.737 10.236 3.82 6.838 5.207 13.34 3.097 14.525Z"/><path fill="#4862BD" d="m183.583 161.305-18.723 13.756c-1.258.934-.703 3.734 1.194 6.355 1.897 2.622 4.463 3.96 5.721 3.026l16.102-11.86s.557-6.029-1.165-9.694c-.623-1.339-1.489-2.116-2.272-2.137-.247.119-.753.527-.857.554Z"/></g><path stroke="#fff" stroke-miterlimit="10" stroke-width=".5" d="M192.482 180.501s-4.092-5.249-.015-9.398c4.076-4.149 19.292-15.432 19.292-15.432"/><circle cx="168.017" cy="178.854" r="9" fill="url(#l)" transform="rotate(6.904 168.017 178.854)"/><path fill="url(#m)" d="M131.736 177.892s8.153 2.821 11.625 3.777c12.355 3.395 18.773 4.226 22.152-3.023 3.83-8.232-5.745-13.091-12.057-16.218a11207.96 11207.96 0 0 1-11.802-5.848"/><path stroke="#fff" stroke-miterlimit="10" stroke-width=".5" d="M164.155 180.785c-2.621 2.672-9.543 1.435-13.787.193-1.305-.384-8.562-2.706-15.478-4.933l-.975-1.894-.886.061"/><path fill="#000" d="M139.774 168.827c-2.817 6.066-6.624 10.276-8.503 9.403-1.88-.873-1.121-6.499 1.696-12.565 2.816-6.067 6.623-10.276 8.503-9.403 1.88.873 1.12 6.499-1.696 12.565Z"/><path fill="#566FC6" d="m122.57 171.976 3.853 1.037c3.658.982 8.226-1.949 10.479-6.702l1.014-2.13c2.089-4.415 1.555-9.081-1.269-11.092l-4.218-2.996-9.859 21.883Z"/><ellipse cx="11.992" cy="2.714" fill="#000" rx="11.992" ry="2.714" transform="matrix(.43244 -.90166 .92966 .3684 119.761 170.943)"/><path fill="#f7931a" d="M115.04 155.003c1.106-1.425 12.018 1.329 13.394 1.967.365.166-.523 2.176-.685 2.532l-1.832 4.125c-.551 1.142-1.206 1.786-1.585 1.569-3.477-2.125-10.397-8.769-9.292-10.193ZM120.246 144.836a.526.526 0 0 0-.146.747l5.147 7.524a.56.56 0 0 0 .752.165l2.439-3.32c.461-.833 1.141-1.923-.283-3.028-3.238-2.05-4.345-2.318-7.909-2.088ZM110.771 163.209a.56.56 0 0 1 .654-.427l8.902 1.757a.53.53 0 0 1 .419.624l-2.279 3.538c-.624.749-1.414 1.801-2.956.931-3.067-2.16-3.708-3.069-4.74-6.423Z"/><path fill="#4862BD" d="m315.678 169.707 10.576 22.763c.706 1.54-1.276 3.903-4.435 5.398-3.16 1.496-6.286 1.429-6.992-.11l-9.08-19.605s2.608-5.998 6.145-8.574c1.286-.944 2.51-1.229 3.262-.842.172.241.439.89.524.97Z"/><path fill="url(#n)" d="M301.763 191.704s-10.444-18.972-12.376-25.566c-2.088-7.127-1.717-13.552 5.451-17.836 4.85-2.379 11.833.574 18.78 8.358 6.946 7.784 13.998 18.279 13.998 18.279"/><mask id="o" width="27" height="19" x="301" y="174" maskUnits="userSpaceOnUse" style="mask-type:alpha"><path fill="#000" d="M301.548 191.422c1.382 2.219 8.318.379 15.491-4.109 7.174-4.489 11.868-9.926 10.486-12.145-1.382-2.218-8.318-.379-15.491 4.11-7.174 4.488-11.868 9.925-10.486 12.144Z"/></mask><g mask="url(#o)"><path fill="#000" d="M301.548 191.422c1.382 2.219 8.318.379 15.491-4.109 7.174-4.489 11.868-9.926 10.486-12.145-1.382-2.218-8.318-.379-15.491 4.11-7.174 4.488-11.868 9.925-10.486 12.144Z"/><path fill="#4862BD" d="m315.678 169.707 10.576 22.763c.706 1.54-1.276 3.903-4.435 5.398-3.16 1.496-6.286 1.429-6.992-.11l-9.08-19.605s2.608-5.998 6.145-8.574c1.286-.944 2.51-1.229 3.262-.842.172.241.439.891.524.97Z"/></g><path stroke="#fff" stroke-miterlimit="10" stroke-width=".5" d="M297.268 183.256s6.604-2.842 4.902-8.891c-1.703-6.049-10.244-24.646-10.244-24.646"/><circle cx="9.723" cy="9.723" r="9.723" fill="url(#p)" transform="scale(-1 1) rotate(-21.871 322.456 960.081)"/><path fill="url(#q)" d="M329.001 231.463s1.512-9.185 1.901-13.049c1.376-13.744 1.12-20.699-7.018-22.841-9.241-2.424-12.627 8.669-14.78 15.966-1.812 6.152-4.028 13.644-4.028 13.644"/><path fill="#4862BD" d="m325.597 233.412 1.392-9.87 1.301-9.245.314-2.319.207-1.719.127-1.54.089-2.066-.005-1.521-.059-1.22-.12-1.234-.23-1.462-.326-1.31-.484-1.273-.497-.907-.545-.686-.413-.453 1.044.535 1.151.833.912.957.621.874.532.995.466 1.258.369 1.456.208 1.32.165 1.968.025 2.722-.11 2.913-.367 4.462-.499 4.284-1.509 10.02-.181.654-.345.471-.446.346-.322.165-.908.322-1.557.27Z"/><path stroke="#fff" stroke-miterlimit="10" stroke-width=".5" d="M326.348 196.587c3.24 2.245 3.162 9.814 2.61 14.551-.172 1.456-1.32 9.595-2.431 17.353l-1.802 1.406.218.925"/><path fill="#000" d="M318.157 224.751c6.809 1.78 11.858 4.976 11.277 7.137-.581 2.162-6.571 2.472-13.38.691-6.809-1.78-11.857-4.975-11.277-7.137.581-2.162 6.572-2.471 13.38-.691Z"/><path fill="#566FC6" d="m324.389 243.771.757-3.918c.717-3.719-2.534-8.064-7.437-9.97l-2.198-.858c-4.553-1.767-9.169-.899-10.972 2.062l-2.684 4.422 22.534 8.262Z"/><ellipse cx="11.992" cy="2.714" fill="#000" rx="11.992" ry="2.714" transform="matrix(-.9304 -.36656 .30068 -.95373 323.56 246.647)"/><path fill="#f7931a" d="M308 252.5c-1.5-1 .462-12.081 1-13.5.14-.376 2.208.366 2.574.501l4.247 1.531c1.179.468 1.868 1.075 1.679 1.468-1.87 3.621-8 11-9.5 10ZM297.485 248.039c.18.242.515.279.756.091l7.136-5.674a.563.563 0 0 0 .11-.762L302 239.5c-.863-.4-2-1-3 .5-1.812 3.377-2 4.5-1.515 8.039ZM316.492 256.169a.559.559 0 0 1-.473-.622l1.113-9.005a.529.529 0 0 1 .592-.462l3.693 2.018c.792.569 1.897 1.282 1.14 2.882-1.933 3.214-2.794 3.919-6.065 5.189Z"/><path fill="#000" d="M289.474 203.556a4.087 4.087 0 0 0-4.06-4.556h-74.828a4.087 4.087 0 0 0-4.06 4.556c1.482 12.848 13.265 21.946 26.07 20.129L248 221.5l15.404 2.185c12.805 1.817 24.588-7.281 26.07-20.129Z"/><mask id="s" width="87" height="80" x="205" y="145" maskUnits="userSpaceOnUse" style="mask-type:alpha"><path fill="url(#r)" fill-rule="evenodd" d="M292 148v42.302C292 209.463 272.522 225 248.5 225S205 209.463 205 190.302V148c0-1.657 19.476-3 43.5-3s43.5 1.343 43.5 3Z" clip-rule="evenodd"/></mask><g mask="url(#s)"><path fill="url(#t)" fill-rule="evenodd" d="M292 148v42.302C292 209.463 272.522 225 248.5 225S205 209.463 205 190.302V148c0-1.657 19.476-3 43.5-3s43.5 1.343 43.5 3Z" clip-rule="evenodd"/><path stroke="#fff" stroke-miterlimit="10" stroke-opacity=".46" stroke-width=".5" d="M292 190c0 4.422-19.478 8-43.5 8s-43.5-3.578-43.5-8M292 203c0 4.422-19.478 8-43.5 8s-43.5-3.578-43.5-8"/></g><rect width="56" height="28" x="220" y="155" fill="url(#u)" rx="8"/><path stroke="#DAE2FF" stroke-miterlimit="10" d="M247.563 166.573h-2.851v-1.55l-2.271 2.685 1.834 2.094.248.272-.024-1.325 3.064-.023v-2.153Z"/><path stroke="#DAE2FF" stroke-miterlimit="10" d="M249.349 167.708v-1.454l2.507 2.436-2.507 2.91v-1.218l-3.407.023"/><path fill="#f7931a" fill-rule="evenodd" d="M239.256 166.295c-.165-1.437-1.409-1.901-2.97-2.013l-.039-1.997-1.207.019.037 1.944c-.317.005-.642.017-.964.028l-.037-1.956-1.207.019.038 1.995c-.261.01-.518.019-.768.023l-.001-.006-1.665.025.025 1.298s.892-.031.877-.014c.489-.008.654.275.705.521l.043 2.274c.034 0 .078.001.128.007h-.041l-.086.002.06 3.186c-.018.155-.104.404-.446.41.016.013-.877.013-.877.013l-.212 1.455 1.571-.025.521-.004h.001l.341-.002.039 2.019 1.206-.019-.038-1.998c.331.002.652 0 .964-.006l.038 1.989 1.207-.019-.038-2.016c2.028-.149 3.439-.686 3.578-2.607.113-1.547-.622-2.225-1.78-2.485.694-.37 1.119-1.009.997-2.06Zm-1.607 4.343c.027 1.385-2.134 1.388-3.123 1.39-.089 0-.169 0-.236.002l-.051-2.676c.082-.001.182-.005.295-.009 1.013-.04 3.088-.122 3.115 1.293Zm-3.235-2.509c.825.001 2.625.002 2.601-1.256-.025-1.287-1.754-1.214-2.598-1.178-.095.004-.179.008-.248.009l.046 2.426.199-.001Z" clip-rule="evenodd"/><path fill="#fff" d="m264.1 168.823-4.55 2.431-4.55-2.431 4.55-6.823 4.55 6.823Z"/><path fill="#fff" d="m264.103 169.603-4.553 5.796-4.55-5.796 4.55 2.43 4.553-2.43Z"/><path fill="url(#v)" d="M292.353 140.753c-6.853 1.747-8.981 7.99-6.853 17.747 1.331 6.06 3.5 10.773 6.42 14.522L300.5 155c3.196-7.448 1-16-8.147-14.247Z"/><path fill="url(#w)" d="M204.141 140.753c6.853 1.747 8.98 7.99 6.852 17.747-1.331 6.06-3.499 10.773-6.419 14.522L195.994 155c-3.197-7.448-1.001-16 8.147-14.247Z"/><path fill="#44579D" d="M274 141h-52a6.737 6.737 0 0 0 5.606 3h40.788a6.737 6.737 0 0 0 5.606-3Z"/><mask id="y" width="80" height="62" x="208" y="79" maskUnits="userSpaceOnUse" style="mask-type:alpha"><path fill="url(#x)" d="M288 103.563C288 90.001 270.093 79 248 79s-40 11-40 24.563V133.907c0 3.918 3.43 7.093 7.663 7.093h64.663c4.232 0 7.662-3.175 7.662-7.093V103.563H288Z"/></mask><g mask="url(#y)"><path fill="url(#z)" d="M288 103.563C288 90.001 270.093 79 248 79s-40 11-40 24.563V133.907c0 3.918 3.43 7.093 7.663 7.093h64.663c4.232 0 7.662-3.175 7.662-7.093V103.563H288Z"/><path fill="url(#A)" d="M272 112.093c0-6.125-13.43-11.093-30-11.093s-30 4.968-30 11.093v13.704c0 1.769 2.573 3.203 5.747 3.203h48.497c3.175 0 5.747-1.434 5.747-3.203v-13.704H272Z"/><path stroke="#fff" stroke-miterlimit="10" stroke-width=".5" d="m229.968 81.724 9.299 17.438s1.729 1.65 3.867 1.758c2.137.108 4.567 0 4.567 0s2.138-.841 2.827-1.65c.689-.809 10.105-17.546 10.105-17.546"/><path stroke="#fff" stroke-miterlimit="10" stroke-width=".5" d="m226 82.647 11.672 20.65s2.178 1.956 4.862 2.086c2.685.131 5.727 0 5.727 0s2.684-1.003 3.56-1.955c.876-.953 12.698-20.781 12.698-20.781"/><path fill="#AEC0FF" d="m208.13 124.266 1.784-4.77L210 93l-.795 1.99-.194.723-.276 1.19-.276 1.445-.173 1.19-.156 1.479-.119 2.101L208 125l.13-.734Z"/><path fill="#4862BD" d="m287.744 123.856-3.524-4.756-.171-26.423 1.57 1.973.384.732.545 1.186.544 1.442.342 1.186.31 1.475.235 2.085.021 21.832-.256-.732Z"/></g><path fill="#2A2A2A" d="M220.96 127.822a7.96 7.96 0 1 0 0-15.92 7.96 7.96 0 0 0 0 15.92Z"/><path fill="#fff" d="M217.282 116.692a2.26 2.26 0 1 0 0 4.518 2.26 2.26 0 0 0 0-4.518ZM220.877 114.729a.98.98 0 1 0 0 1.961.98.98 0 0 0 0-1.961Z"/><path fill="#2A2A2A" d="M252.73 127.822a7.96 7.96 0 1 0 0-15.92 7.96 7.96 0 0 0 0 15.92Z"/><path fill="#fff" d="M249.311 116.692a2.26 2.26 0 1 0 .002 4.52 2.26 2.26 0 0 0-.002-4.52ZM252.659 114.729a.98.98 0 1 0-.002 1.962.98.98 0 0 0 .002-1.962Z"/><mask id="C" width="11" height="25" x="284" y="105" maskUnits="userSpaceOnUse" style="mask-type:alpha"><path fill="url(#B)" d="M287.731 105.05c.172-.051.351-.001.505.091l3.833 2.281a6.002 6.002 0 0 1 2.931 5.156v9.844a6.002 6.002 0 0 1-2.931 5.156l-3.833 2.281c-.154.092-.333.142-.505.091-.898-.264-3.731-1.93-3.731-12.45s2.833-12.186 3.731-12.45Z"/></mask><g mask="url(#C)"><path fill="url(#D)" d="M287.731 105.05c.172-.051.351-.001.505.091l3.833 2.281a6.002 6.002 0 0 1 2.931 5.156v9.844a6.002 6.002 0 0 1-2.931 5.156l-3.833 2.281c-.154.092-.333.142-.505.091-.898-.264-3.731-1.93-3.731-12.45s2.833-12.186 3.731-12.45Z"/><path fill="url(#E)" d="M290.731 105.05c.172-.051.351-.001.505.091l3.833 2.281a6.002 6.002 0 0 1 2.931 5.156v9.844a6.002 6.002 0 0 1-2.931 5.156l-3.833 2.281c-.154.092-.333.142-.505.091-.898-.264-3.731-1.93-3.731-12.45s2.833-12.186 3.731-12.45Z"/><path stroke="#000" stroke-opacity=".29" stroke-width=".5" d="m291.109 105.356 3.832 2.281a5.75 5.75 0 0 1 2.809 4.941v9.844a5.75 5.75 0 0 1-2.809 4.941l-3.832 2.281c-.122.073-.226.09-.308.066-.37-.108-1.251-.535-2.046-2.244-.798-1.718-1.505-4.724-1.505-9.966 0-5.242.707-8.248 1.505-9.966.795-1.709 1.676-2.136 2.046-2.244.082-.024.186-.007.308.066Z"/></g><path fill="#f7931a" d="m247.673 93.837 3.435-3.318 1.069 1.032c.176.17.46.222.69.13a.6.6 0 0 0 .392-.575v-6.492a.624.624 0 0 0-.635-.614h-6.723a.65.65 0 0 0-.596.379.607.607 0 0 0 .136.666l1.515 1.463a.67.67 0 0 0 .906 0 .617.617 0 0 0 0-.875l-.433-.418h4.559v4.39l-.433-.419a.67.67 0 0 0-.906 0l-3.883 3.75a.617.617 0 0 0 0 .875.648.648 0 0 0 .447.182.506.506 0 0 0 .46-.156Z"/><path fill="#fff" d="m245.089 88.866-1.22-1.34-1.219-1.338a.578.578 0 0 0-.415-.188.578.578 0 0 0-.415.188l-1.561 1.714-1.561 1.714-.488-.536-.487-.535a.25.25 0 0 0-.293-.067.277.277 0 0 0-.171.268v5.946c0 .08.037.16.086.214a.275.275 0 0 0 .195.094h5.414c.122 0 .208-.08.244-.188a.312.312 0 0 0-.061-.32l-.585-.644-.585-.643 1.561-1.714 1.561-1.714a.7.7 0 0 0 0-.91Z"/><defs><linearGradient id="a" x1="211" x2="194.638" y1="118.5" y2="116.071" gradientUnits="userSpaceOnUse"><stop stop-color="#f7931a"/><stop offset="1" stop-color="#fff"/></linearGradient><linearGradient id="b" x1="231.524" x2="208.452" y1="228.418" y2="228.418" gradientUnits="userSpaceOnUse"><stop stop-color="#6D86DC"/><stop offset="1" stop-color="#B7C7FD"/></linearGradient><linearGradient id="d" x1="238.402" x2="200.791" y1="306.026" y2="306.026" gradientUnits="userSpaceOnUse"><stop stop-color="#6D86DC"/><stop offset="1" stop-color="#B7C7FD"/></linearGradient><linearGradient id="e" x1="213.789" x2="198.858" y1="302" y2="323.198" gradientUnits="userSpaceOnUse"><stop stop-color="#1A2D70"/><stop offset="1" stop-color="#627DD8"/></linearGradient><linearGradient id="f" x1="264.476" x2="287.548" y1="228.418" y2="228.418" gradientUnits="userSpaceOnUse"><stop stop-color="#B7C7FD"/><stop offset="1" stop-color="#6D86DC"/></linearGradient><linearGradient id="h" x1="257.598" x2="295.209" y1="306.026" y2="306.026" gradientUnits="userSpaceOnUse"><stop stop-color="#B7C7FD"/><stop offset="1" stop-color="#6D86DC"/></linearGradient><linearGradient id="i" x1="282.211" x2="297.142" y1="302" y2="323.198" gradientUnits="userSpaceOnUse"><stop stop-color="#627DD8"/><stop offset="1" stop-color="#1A2D70"/></linearGradient><linearGradient id="j" x1="213.425" x2="198.265" y1="188.825" y2="139.562" gradientUnits="userSpaceOnUse"><stop stop-color="#6B8AF5"/><stop offset="1" stop-color="#ABBEFE"/></linearGradient><linearGradient id="m" x1="164.229" x2="158.749" y1="179.406" y2="156.041" gradientUnits="userSpaceOnUse"><stop stop-color="#6B8AF5"/><stop offset="1" stop-color="#B2C3FF"/></linearGradient><linearGradient id="n" x1="273.107" x2="313.082" y1="180.249" y2="141.482" gradientUnits="userSpaceOnUse"><stop stop-color="#6B8AF5"/><stop offset="1" stop-color="#ABBEFE"/></linearGradient><linearGradient id="q" x1="324.899" x2="301.266" y1="196.782" y2="206.568" gradientUnits="userSpaceOnUse"><stop stop-color="#6B8AF5"/><stop offset="1" stop-color="#B2C3FF"/></linearGradient><linearGradient id="r" x1="203" x2="295" y1="180.323" y2="180.323" gradientUnits="userSpaceOnUse"><stop stop-color="#BCCBFF"/><stop offset="1" stop-color="#5C77D5"/></linearGradient><linearGradient id="t" x1="203" x2="295" y1="180.323" y2="180.323" gradientUnits="userSpaceOnUse"><stop stop-color="#BCCBFF"/><stop offset="1" stop-color="#5C77D5"/></linearGradient><linearGradient id="u" x1="220" x2="277" y1="168" y2="168" gradientUnits="userSpaceOnUse"><stop stop-color="#47579D"/><stop offset="1" stop-color="#24378A"/></linearGradient><linearGradient id="v" x1="298.785" x2="283.385" y1="140.482" y2="169.294" gradientUnits="userSpaceOnUse"><stop stop-color="#4F60AA"/><stop offset="1" stop-color="#293771"/></linearGradient><linearGradient id="w" x1="197.708" x2="213.108" y1="140.482" y2="169.294" gradientUnits="userSpaceOnUse"><stop stop-color="#4F60AA"/><stop offset="1" stop-color="#293771"/></linearGradient><linearGradient id="x" x1="287.734" x2="206.137" y1="129.264" y2="129.795" gradientUnits="userSpaceOnUse"><stop stop-color="#6B87ED"/><stop offset="1" stop-color="#C7D3FF"/></linearGradient><linearGradient id="z" x1="287.734" x2="206.137" y1="129.264" y2="129.795" gradientUnits="userSpaceOnUse"><stop stop-color="#6B87ED"/><stop offset="1" stop-color="#C7D3FF"/></linearGradient><linearGradient id="A" x1="271.8" x2="210.607" y1="123.7" y2="124.361" gradientUnits="userSpaceOnUse"><stop offset=".311" stop-color="#4862BD"/><stop offset="1" stop-color="#AEBCEF"/></linearGradient><linearGradient id="B" x1="288" x2="296.345" y1="116.5" y2="117.474" gradientUnits="userSpaceOnUse"><stop stop-color="#f7931a"/><stop offset="1" stop-color="#353535"/></linearGradient><linearGradient id="D" x1="288" x2="296.345" y1="116.5" y2="117.474" gradientUnits="userSpaceOnUse"><stop stop-color="#f7931a"/><stop offset="1" stop-color="#353535"/></linearGradient><linearGradient id="E" x1="291" x2="299.345" y1="116.5" y2="117.474" gradientUnits="userSpaceOnUse"><stop stop-color="#f7931a"/><stop offset="1" stop-color="#353535"/></linearGradient><radialGradient id="c" cx="0" cy="0" r="1" gradientTransform="rotate(65.376 -90.898 299.48) scale(11.7337)" gradientUnits="userSpaceOnUse"><stop stop-color="#ACBFFE"/><stop offset="1" stop-color="#082382"/></radialGradient><radialGradient id="g" cx="0" cy="0" r="1" gradientTransform="rotate(65.376 -1.045 7.515) scale(11.7337)" gradientUnits="userSpaceOnUse"><stop stop-color="#ACBFFE"/><stop offset="1" stop-color="#082382"/></radialGradient><radialGradient id="l" cx="0" cy="0" r="1" gradientTransform="rotate(65.376 -54.014 217.285) scale(13.2004)" gradientUnits="userSpaceOnUse"><stop stop-color="#ACBFFE"/><stop offset="1" stop-color="#082382"/></radialGradient><radialGradient id="p" cx="0" cy="0" r="1" gradientTransform="rotate(65.376 -1.27 9.134) scale(14.2614)" gradientUnits="userSpaceOnUse"><stop stop-color="#ACBFFE"/><stop offset="1" stop-color="#082382"/></radialGradient></defs></svg>