<svg width="500" height="100" viewBox="0 0 500 100" fill="none" xmlns="http://www.w3.org/2000/svg">
<path d="M206.191 25.4497L211.986 27.6784L216.622 31.0215L218.94 34.3646L213.145 37.7076L206.191 35.4789H195.76L187.647 37.7076L181.852 34.3646L187.647 28.7928L194.601 25.4497V29.9072H206.191V25.4497Z" fill="#EE9112"/>
<path d="M181.852 20.9923H184.17L185.329 23.221L184.17 25.4498H181.852L180.693 23.221L181.852 20.9923Z" fill="#EE9112"/>
<path d="M218.94 56.6516L222.417 58.8803L216.622 65.5665L211.986 68.9095L205.032 72.2526L203.873 66.6808H193.442L188.806 68.9095L184.17 65.5665L180.693 61.109L178.375 57.766L183.011 56.6516L187.647 59.9947L193.442 61.109H200.396H206.191L210.827 59.9947L218.94 56.6516Z" fill="#303273"/>
<path d="M194.601 26.5641V29.9072H206.191V25.4497L200.396 24.3354L194.601 26.5641Z" fill="#303273"/>
<path d="M223.576 41.0507L228.212 44.3937V51.0799L227.053 56.6516L222.417 57.766L223.576 53.3086L224.735 48.8512L223.576 41.0507Z" fill="#EE9112"/>
<path d="M177.216 41.0507L173.739 43.2794L172.58 47.7368V51.0799L173.739 55.5373L176.057 57.766H178.375L177.216 54.423V49.9655V41.0507Z" fill="#EE9112"/>
<path d="M213.145 37.7077L218.94 34.3646L222.417 39.9364L223.576 44.3938L224.735 47.7368L223.576 53.3086L222.417 57.766L217.781 56.6517L220.099 53.3086L221.258 49.9655L220.099 45.5081L216.622 39.9364L213.145 37.7077Z" fill="black"/>
<path d="M181.852 34.3646L187.647 37.7077L181.852 43.2794L180.693 47.7368V52.1942L183.011 56.6517L178.375 57.766L177.216 53.3086V46.6225L178.375 39.9364L181.852 34.3646Z" fill="black"/>
<path d="M189.965 70.0238L195.76 72.2526H202.714L205.032 71.1382L203.873 66.6808H192.283L188.806 68.9095L189.965 70.0238Z" fill="black"/>
<path d="M201.555 35.4789L208.509 36.5933L213.145 37.7076L217.781 42.1651L220.099 45.5081L221.258 49.9655L220.099 54.4229L216.622 57.766L210.827 59.9947L205.032 61.1091H199.237H194.601L188.806 59.9947L184.17 57.766L180.693 54.4229V49.9655V45.5081L183.011 42.1651L186.488 38.822L191.124 36.5933L194.601 35.4789H201.555Z" fill="#FFFAFA"/>
<path d="M181.774 20.1327C180.453 20.5032 179.584 21.6957 179.596 23.1313C179.62 24.9259 180.929 26.1299 182.844 26.1299H183.666L184.677 27.5077C185.236 28.2718 185.7 28.9317 185.7 28.9896C185.7 29.0359 185.153 29.5569 184.475 30.1358C181.726 32.4977 179.441 35.6815 177.918 39.2591L177.43 40.4052L176.562 40.6715C175.562 40.961 174.943 41.3546 174.229 42.1187C171.683 44.8742 171.231 51.624 173.325 55.8383C173.789 56.7761 174.039 57.135 174.61 57.6444C175.586 58.5128 176.716 58.999 177.811 59.0106C178.168 59.0106 178.216 59.0801 178.858 60.2494C182.19 66.3393 187.83 70.6693 194.589 72.3365C196.838 72.8923 198.504 73.0543 201.229 72.9849C204.596 72.9038 207.083 72.3944 209.975 71.2019C215.377 68.9558 219.625 65.1584 222.338 60.1684L222.933 59.0801L223.778 58.9411C225.17 58.7096 225.813 58.3854 226.658 57.5171C227.681 56.4751 228.216 55.3289 228.728 53.1639C228.99 52.064 229.097 48.2897 228.895 46.9698C228.621 45.0942 228.026 43.5428 227.134 42.3966C226.586 41.6788 225.408 40.8915 224.516 40.6484C224.135 40.5442 223.778 40.4052 223.707 40.3242C223.635 40.2547 223.457 39.8611 223.302 39.4443C222.088 36.0868 219.018 31.9188 216.02 29.5569C215.698 29.3138 215.448 29.0591 215.448 29.0012C215.448 28.9086 216.067 28.0287 217.198 26.512C217.459 26.1531 217.495 26.1415 218.328 26.1531C218.983 26.1647 219.328 26.0952 219.744 25.91C221.386 25.1574 222.041 23.2934 221.231 21.6841C220.708 20.6421 219.685 20.0169 218.471 20.0053C216.567 19.9706 215.02 21.5915 215.258 23.3513C215.341 23.9881 215.615 24.6943 215.889 24.9953C216.055 25.169 215.972 25.3079 215.032 26.5236C214.461 27.2646 213.925 27.8666 213.842 27.8666C213.759 27.8666 213.235 27.6119 212.688 27.3109C209.88 25.7363 206.881 24.729 203.609 24.2659C202.288 24.0691 198.694 24.0807 197.481 24.2659C193.887 24.8332 191.257 25.7247 188.425 27.2993C187.854 27.6119 187.342 27.8666 187.283 27.8666C187.212 27.8666 186.7 27.2646 186.141 26.5352L185.117 25.1922L185.403 24.7869C186.319 23.4671 186.01 21.6494 184.689 20.6768C183.82 20.0285 182.821 19.8433 181.774 20.1327ZM219.339 22.1125C219.827 22.564 219.946 23.0734 219.673 23.6176C219.411 24.1733 218.971 24.428 218.316 24.428C217.864 24.428 217.733 24.3701 217.388 24.0112C216.876 23.4555 216.841 22.7493 217.305 22.2051C217.876 21.5452 218.685 21.5104 219.339 22.1125ZM183.761 22.1125C184.142 22.4598 184.189 22.564 184.189 23.0271C184.165 23.9418 183.606 24.4628 182.642 24.4396C181.393 24.4164 180.857 22.9461 181.774 22.0662C182.059 21.7883 182.214 21.7304 182.714 21.7304C183.237 21.7304 183.38 21.7883 183.761 22.1125ZM204.192 26.0721C205.822 26.3615 205.727 26.2457 205.632 27.9013C205.584 28.677 205.524 29.3485 205.489 29.3949C205.465 29.4527 203.252 29.4875 200.574 29.4875C196.053 29.4875 195.696 29.4759 195.589 29.2791C195.434 29.0012 195.374 26.512 195.517 26.3731C195.648 26.2457 196.707 26.0489 198.016 25.8984C199.277 25.7479 202.966 25.8521 204.192 26.0721ZM193.709 28.9665C193.756 30.0548 193.816 31.0042 193.851 31.0736C193.923 31.2936 207.107 31.2936 207.178 31.0736C207.202 31.0042 207.286 30.0548 207.357 28.9781C207.428 27.8898 207.512 26.9867 207.547 26.952C207.726 26.7783 210.653 28.0634 212.236 29.0128C212.783 29.3485 213.699 29.9622 214.259 30.3905C215.329 31.201 217.828 33.5628 217.828 33.7712C217.828 33.8407 217.436 34.1301 216.972 34.4312C214.485 35.9594 213.913 36.3067 213.426 36.5846L212.89 36.874L212.117 36.5267C210.129 35.6237 206.702 34.7553 204.085 34.4659C202.49 34.2922 198.242 34.327 196.648 34.5238C193.828 34.8595 191.924 35.3342 189.413 36.3067C188.747 36.573 188.14 36.7814 188.068 36.7814C188.009 36.7814 187.533 36.5267 187.033 36.2141C185.01 34.9753 183.535 34.1186 183.428 34.1186C182.868 34.1186 184.606 32.1619 186.39 30.7842C187.902 29.6264 188.842 29.0012 190.044 28.376C191.317 27.7045 193.185 26.9288 193.435 26.9751C193.578 26.9983 193.625 27.3572 193.709 28.9665ZM183.368 35.9478C183.963 36.3183 184.867 36.874 185.367 37.1751C185.879 37.4761 186.319 37.754 186.343 37.8003C186.379 37.8466 185.962 38.2055 185.427 38.5991C182.166 40.9725 180.131 44.168 179.572 47.7802C179.12 50.6862 179.667 53.5459 181.072 55.6646C181.333 56.0467 181.536 56.3709 181.536 56.4056C181.536 56.4635 179.679 57.0424 179.465 57.0424C179.156 57.0424 178.287 54.2985 177.954 52.2376C177.74 50.9641 177.74 46.4604 177.942 45.3489C178.477 42.4892 179.287 40.0926 180.5 37.8234C181.179 36.5614 182.012 35.2763 182.166 35.2763C182.226 35.2763 182.773 35.5773 183.368 35.9478ZM219.708 36.272C221.957 39.5601 223.219 43.566 223.385 47.9192C223.492 50.802 223.159 53.2333 222.338 55.6878C221.85 57.135 221.862 57.1234 220.791 56.8108C220.303 56.6603 219.851 56.4867 219.768 56.4172C219.661 56.3246 219.744 56.093 220.137 55.4794C221.243 53.6964 221.66 52.1682 221.66 49.8642C221.672 46.553 220.744 44.0059 218.554 41.2967C218.138 40.7873 217.519 40.139 217.186 39.8611C216.222 39.0391 214.925 38.055 214.83 38.055C214.77 38.055 214.734 37.9855 214.734 37.9045C214.734 37.8234 215.413 37.3603 216.258 36.8625C217.091 36.3762 218.007 35.8205 218.304 35.6352C218.602 35.45 218.899 35.3111 218.959 35.3226C219.03 35.3342 219.363 35.7626 219.708 36.272ZM204.739 36.2604C209.689 37.0014 213.164 38.4949 216.032 41.1231C217.804 42.7555 218.947 44.6311 219.637 47.0277C220.018 48.3939 220.018 51.0336 219.637 52.3534C218.911 54.8195 217.162 56.7414 214.378 58.1654C212.557 59.0916 210.796 59.6705 208.249 60.1799C203.454 61.1293 197.183 61.0714 192.364 60.041C188.794 59.2769 186.331 58.2349 184.379 56.6603C182.844 55.4215 181.821 53.8469 181.405 52.1103C181.19 51.1841 181.155 50.7904 181.214 49.3201C181.274 47.375 181.452 46.5877 182.142 45.1289C184.023 41.1925 187.818 38.2865 192.899 36.9204C194.327 36.5267 196.588 36.1447 197.957 36.0405C199.325 35.9478 203.525 36.0752 204.739 36.2604ZM176.728 42.8481C176.252 44.4922 176.026 46.472 176.026 48.8801C176.026 51.7282 176.276 53.4186 177.121 56.1741C177.442 57.2045 177.442 57.2045 177.014 57.1234C175.955 56.915 174.955 55.7225 174.396 54.009C173.932 52.6081 173.765 51.3809 173.765 49.3432C173.765 47.676 173.801 47.2129 174.027 46.333C174.456 44.6774 175.158 43.4849 176.11 42.8018C176.609 42.4313 176.835 42.4545 176.728 42.8481ZM225.396 43.0797C226.063 43.7512 226.634 44.7932 226.931 45.8815C227.669 48.6023 227.312 53.1986 226.205 55.3289C225.694 56.313 224.992 56.9266 224.052 57.2045C223.683 57.3203 223.695 57.1697 224.135 55.792C224.992 53.0481 225.337 49.8874 225.099 46.9814C224.968 45.4184 224.73 43.8901 224.432 42.7671C224.29 42.2461 224.694 42.3735 225.396 43.0797ZM183.88 58.4896C186.105 60.0526 189.627 61.3377 193.375 61.9629C196.66 62.5071 202.062 62.6576 205.275 62.3102C207.535 62.0555 207.309 61.9861 207.405 63.0281C207.595 65.1005 208.368 66.8255 209.773 68.3422C210.082 68.678 210.332 69.0022 210.332 69.06C210.332 69.3263 206.702 70.6578 205.798 70.7272L205.394 70.762L205.358 68.5275L205.334 66.3045H198.825H192.316L190.746 67.2308C189.889 67.7402 189.092 68.157 188.973 68.157C188.699 68.157 187.176 67.1497 185.986 66.1772C184.855 65.251 183.356 63.7459 182.595 62.7734C181.559 61.4651 180.108 59.138 180.108 58.7906C180.108 58.7327 180.417 58.5938 180.798 58.4896C181.167 58.3854 181.75 58.2002 182.071 58.0844C182.404 57.9686 182.737 57.876 182.809 57.8644C182.892 57.8528 183.368 58.1423 183.88 58.4896ZM219.732 58.2696C220.446 58.5012 221.041 58.7212 221.041 58.779C221.041 58.8254 220.815 59.2769 220.553 59.7747C219.494 61.7314 217.4 64.2553 215.532 65.8299C214.437 66.7445 212.402 68.157 212.164 68.157C212.081 68.157 211.641 67.7633 211.177 67.2771C210.07 66.1309 209.451 64.9268 209.189 63.4333C208.916 61.7892 208.916 61.7892 209.975 61.5345C211.902 61.0714 213.366 60.562 215.02 59.74C216.079 59.2306 217.745 58.1886 217.888 57.9686C218.007 57.7718 218.352 57.8297 219.732 58.2696ZM203.49 69.6621V71.2251L202.954 71.3061C201.253 71.5492 197.838 71.3293 195.493 70.8314C193.471 70.3915 190.984 69.4537 191.079 69.1758C191.114 69.0948 191.507 68.8053 191.959 68.539L192.78 68.0528L198.135 68.0759L203.49 68.0991V69.6621Z" fill="black"/>
<path d="M188.818 42.2229C187.533 42.5471 186.593 43.0913 185.569 44.0754C184.546 45.0595 184.046 45.9394 183.654 47.4676C183.344 48.6486 183.416 49.8063 183.856 51.0915C184.855 53.9859 187.39 55.7804 190.496 55.7804C192.554 55.7804 194.03 55.19 195.47 53.8006C196.517 52.7934 197.136 51.7051 197.421 50.3505C197.647 49.2969 197.647 48.7296 197.433 47.6413C196.957 45.2563 195.66 43.647 193.387 42.6282C191.912 41.9567 190.377 41.8293 188.818 42.2229ZM191.043 44.249C191.317 44.4111 191.698 44.7932 191.888 45.0826C192.197 45.5457 192.245 45.7426 192.245 46.4025C192.245 47.0856 192.197 47.2477 191.864 47.7339C191.317 48.5212 190.412 48.9843 189.556 48.9033C187.259 48.6833 186.331 46.1015 187.997 44.5616C188.83 43.7859 190.079 43.647 191.043 44.249Z" fill="black"/>
<path d="M209.142 42.165C206.988 42.6397 205.334 43.8669 204.382 45.6962C203.799 46.8077 203.621 47.6065 203.621 48.938C203.621 50.9641 204.251 52.4229 205.739 53.8585C207.143 55.2131 208.713 55.8151 210.748 55.792C213.509 55.7572 216.032 54.1248 217.114 51.6587C217.4 51.0104 217.709 49.5747 217.709 48.8801C217.709 48.0581 217.376 46.6803 216.983 45.8699C215.615 43.1028 212.2 41.4819 209.142 42.165ZM212.152 43.9711C212.652 44.0985 213.473 44.7584 213.723 45.2215C213.973 45.7078 214.056 46.5298 213.902 47.0971C213.699 47.8265 212.831 48.6254 212.01 48.8222C210.427 49.1927 208.785 47.9423 208.785 46.3677C208.785 45.8236 209.154 45.0363 209.606 44.6079C210.332 43.9248 211.189 43.7048 212.152 43.9711Z" fill="black"/>
<path d="M20.774 67H4.935C4.33967 67 3.901 66.8747 3.619 66.624C3.36833 66.342 3.243 65.9033 3.243 65.308V34.852C3.243 34.2567 3.36833 33.8337 3.619 33.583C3.901 33.301 4.33967 33.16 4.935 33.16H20.774C24.6907 33.16 27.589 33.9433 29.469 35.51C31.3803 37.0767 32.336 39.4893 32.336 42.748V57.412C32.336 60.6707 31.3803 63.0833 29.469 64.65C27.589 66.2167 24.6907 67 20.774 67ZM13.912 42.137V58.117H19.505C20.257 58.117 20.8053 57.929 21.15 57.553C21.526 57.177 21.714 56.5973 21.714 55.814V44.393C21.714 43.6097 21.526 43.0457 21.15 42.701C20.8053 42.325 20.257 42.137 19.505 42.137H13.912ZM48.9314 41.62V47.636H52.4564C53.2711 47.636 53.8194 47.4323 54.1014 47.025C54.3834 46.5863 54.5244 46.0537 54.5244 45.427V43.829C54.5244 43.2023 54.3834 42.6853 54.1014 42.278C53.8194 41.8393 53.2711 41.62 52.4564 41.62H48.9314ZM47.2394 67H40.0014C39.4061 67 38.9674 66.8747 38.6854 66.624C38.4347 66.342 38.3094 65.9033 38.3094 65.308V34.852C38.3094 34.2567 38.4347 33.8337 38.6854 33.583C38.9674 33.301 39.4061 33.16 40.0014 33.16H55.6524C59.1617 33.16 61.5744 33.8963 62.8904 35.369C64.2377 36.8103 64.9114 38.6903 64.9114 41.009V43.171C64.9114 44.487 64.7077 45.615 64.3004 46.555C63.9244 47.4637 63.2507 48.1217 62.2794 48.529C63.9714 48.717 65.3344 49.4063 66.3684 50.597C67.4337 51.7877 67.9664 53.37 67.9664 55.344V65.308C67.9664 65.9033 67.8254 66.342 67.5434 66.624C67.2927 66.8747 66.8697 67 66.2744 67H58.9894C58.3941 67 57.9554 66.8747 57.6734 66.624C57.4227 66.342 57.2974 65.9033 57.2974 65.308V58.117C57.2974 57.4277 57.1564 56.9263 56.8744 56.613C56.6237 56.2683 56.1694 56.096 55.5114 56.096H48.9314V65.308C48.9314 65.9033 48.7904 66.342 48.5084 66.624C48.2577 66.8747 47.8347 67 47.2394 67ZM101.679 58.117C101.679 59.5583 101.459 60.8743 101.021 62.065C100.613 63.2243 99.8613 64.227 98.7646 65.073C97.6993 65.8877 96.211 66.53 94.2996 67C92.4196 67.47 90.0226 67.705 87.1086 67.705C84.1946 67.705 81.782 67.47 79.8706 67C77.9593 66.53 76.4553 65.8877 75.3586 65.073C74.2933 64.227 73.5413 63.2243 73.1026 62.065C72.6953 60.8743 72.4916 59.5583 72.4916 58.117V42.09C72.4916 40.6487 72.6953 39.3483 73.1026 38.189C73.5413 36.9983 74.2933 35.98 75.3586 35.134C76.4553 34.288 77.9593 33.63 79.8706 33.16C81.782 32.69 84.1946 32.455 87.1086 32.455C90.0226 32.455 92.4196 32.69 94.2996 33.16C96.211 33.63 97.6993 34.288 98.7646 35.134C99.8613 35.98 100.613 36.9983 101.021 38.189C101.459 39.3483 101.679 40.6487 101.679 42.09V58.117ZM83.1606 56.425C83.1606 57.0517 83.3956 57.5843 83.8656 58.023C84.3356 58.4303 85.4166 58.634 87.1086 58.634C88.8006 58.634 89.8816 58.4303 90.3516 58.023C90.8216 57.5843 91.0566 57.0517 91.0566 56.425V43.782C91.0566 43.1867 90.8216 42.6853 90.3516 42.278C89.8816 41.8393 88.8006 41.62 87.1086 41.62C85.4166 41.62 84.3356 41.8393 83.8656 42.278C83.3956 42.6853 83.1606 43.1867 83.1606 43.782V56.425ZM108.602 67C108.007 67 107.568 66.8747 107.286 66.624C107.035 66.342 106.91 65.9033 106.91 65.308V59.715C106.91 59.1197 107.035 58.6967 107.286 58.446C107.568 58.164 108.007 58.023 108.602 58.023H113.255V42.231H108.602C108.007 42.231 107.568 42.1057 107.286 41.855C107.035 41.573 106.91 41.1343 106.91 40.539V34.852C106.91 34.2567 107.035 33.8337 107.286 33.583C107.568 33.301 108.007 33.16 108.602 33.16H128.624C129.219 33.16 129.642 33.301 129.893 33.583C130.175 33.8337 130.316 34.2567 130.316 34.852V40.539C130.316 41.1343 130.175 41.573 129.893 41.855C129.642 42.1057 129.219 42.231 128.624 42.231H124.065V58.023H128.624C129.219 58.023 129.642 58.164 129.893 58.446C130.175 58.6967 130.316 59.1197 130.316 59.715V65.308C130.316 65.9033 130.175 66.342 129.893 66.624C129.642 66.8747 129.219 67 128.624 67H108.602ZM153.65 67H137.811C137.216 67 136.777 66.8747 136.495 66.624C136.244 66.342 136.119 65.9033 136.119 65.308V34.852C136.119 34.2567 136.244 33.8337 136.495 33.583C136.777 33.301 137.216 33.16 137.811 33.16H153.65C157.567 33.16 160.465 33.9433 162.345 35.51C164.256 37.0767 165.212 39.4893 165.212 42.748V57.412C165.212 60.6707 164.256 63.0833 162.345 64.65C160.465 66.2167 157.567 67 153.65 67ZM146.788 42.137V58.117H152.381C153.133 58.117 153.681 57.929 154.026 57.553C154.402 57.177 154.59 56.5973 154.59 55.814V44.393C154.59 43.6097 154.402 43.0457 154.026 42.701C153.681 42.325 153.133 42.137 152.381 42.137H146.788ZM258.025 67H236.217C235.622 67 235.183 66.8747 234.901 66.624C234.651 66.342 234.525 65.9033 234.525 65.308V34.852C234.525 34.2567 234.651 33.8337 234.901 33.583C235.183 33.301 235.622 33.16 236.217 33.16H258.025C258.621 33.16 259.044 33.301 259.294 33.583C259.576 33.8337 259.717 34.2567 259.717 34.852V40.351C259.717 40.9463 259.576 41.385 259.294 41.667C259.044 41.9177 258.621 42.043 258.025 42.043H245.053V45.662H254.218C254.814 45.662 255.237 45.803 255.487 46.085C255.769 46.3357 255.91 46.7587 255.91 47.354V52.383C255.91 52.9783 255.769 53.417 255.487 53.699C255.237 53.9497 254.814 54.075 254.218 54.075H245.053V58.117H258.025C258.621 58.117 259.044 58.258 259.294 58.54C259.576 58.7907 259.717 59.2137 259.717 59.809V65.308C259.717 65.9033 259.576 66.342 259.294 66.624C259.044 66.8747 258.621 67 258.025 67ZM275.382 65.308C275.382 65.9033 275.241 66.342 274.959 66.624C274.709 66.8747 274.286 67 273.69 67H266.546C265.951 67 265.512 66.8747 265.23 66.624C264.98 66.342 264.854 65.9033 264.854 65.308V60.279C264.854 58.8377 264.98 57.7567 265.23 57.036C265.481 56.3153 265.951 55.4693 266.64 54.498L270.447 49.375L266.64 44.252C265.92 43.2807 265.434 42.4347 265.183 41.714C264.964 40.9933 264.854 39.9123 264.854 38.471V34.852C264.854 34.2567 264.98 33.8337 265.23 33.583C265.512 33.301 265.951 33.16 266.546 33.16H273.784C274.38 33.16 274.803 33.301 275.053 33.583C275.335 33.8337 275.476 34.2567 275.476 34.852V38.095C275.476 38.4083 275.492 38.7373 275.523 39.082C275.555 39.4267 275.68 39.7557 275.899 40.069L277.967 43.03C278.124 43.2807 278.281 43.4843 278.437 43.641C278.625 43.7663 278.845 43.829 279.095 43.829H279.659C279.91 43.829 280.114 43.7663 280.27 43.641C280.427 43.4843 280.599 43.2807 280.787 43.03L282.902 40.069C283.122 39.7557 283.247 39.4267 283.278 39.082C283.31 38.7373 283.325 38.4083 283.325 38.095V34.852C283.325 34.2567 283.451 33.8337 283.701 33.583C283.983 33.301 284.422 33.16 285.017 33.16H292.161C292.757 33.16 293.18 33.301 293.43 33.583C293.712 33.8337 293.853 34.2567 293.853 34.852V38.471C293.853 39.9123 293.728 40.9933 293.477 41.714C293.227 42.4347 292.757 43.2807 292.067 44.252L288.26 49.422L292.067 54.498C292.788 55.4693 293.258 56.3153 293.477 57.036C293.728 57.7567 293.853 58.8377 293.853 60.279V65.308C293.853 65.9033 293.712 66.342 293.43 66.624C293.18 66.8747 292.757 67 292.161 67H285.017C284.422 67 283.983 66.8747 283.701 66.624C283.451 66.342 283.325 65.9033 283.325 65.308V60.655C283.325 60.3417 283.31 60.0127 283.278 59.668C283.247 59.3233 283.122 58.9943 282.902 58.681L280.834 55.72C280.646 55.438 280.474 55.2343 280.317 55.109C280.161 54.9837 279.957 54.921 279.706 54.921H279.048C278.798 54.921 278.594 54.9837 278.437 55.109C278.281 55.2343 278.108 55.438 277.92 55.72L275.805 58.681C275.586 58.9943 275.461 59.3233 275.429 59.668C275.398 60.0127 275.382 60.3417 275.382 60.655V65.308ZM322.444 67H310.976C307.059 67 304.145 66.2167 302.234 64.65C300.354 63.0833 299.414 60.6707 299.414 57.412V42.795C299.414 39.5363 300.354 37.1237 302.234 35.557C304.145 33.959 307.059 33.16 310.976 33.16H322.444C323.039 33.16 323.462 33.301 323.713 33.583C323.995 33.8337 324.136 34.2567 324.136 34.852V40.539C324.136 41.1343 323.995 41.573 323.713 41.855C323.462 42.1057 323.039 42.231 322.444 42.231H312.997C312.025 42.231 311.305 42.4347 310.835 42.842C310.365 43.218 310.13 43.7977 310.13 44.581V55.767C310.13 56.5503 310.365 57.13 310.835 57.506C311.305 57.8507 312.025 58.023 312.997 58.023H322.444C323.039 58.023 323.462 58.164 323.713 58.446C323.995 58.6967 324.136 59.1197 324.136 59.715V65.308C324.136 65.9033 323.995 66.342 323.713 66.624C323.462 66.8747 323.039 67 322.444 67ZM338.42 67H331.135C330.54 67 330.101 66.8747 329.819 66.624C329.569 66.342 329.443 65.9033 329.443 65.308V34.852C329.443 34.2567 329.569 33.8337 329.819 33.583C330.101 33.301 330.54 33.16 331.135 33.16H338.42C339.016 33.16 339.439 33.301 339.689 33.583C339.971 33.8337 340.112 34.2567 340.112 34.852V45.051H347.961V34.852C347.961 34.2567 348.087 33.8337 348.337 33.583C348.619 33.301 349.058 33.16 349.653 33.16H356.938C357.534 33.16 357.957 33.301 358.207 33.583C358.489 33.8337 358.63 34.2567 358.63 34.852V65.308C358.63 65.9033 358.489 66.342 358.207 66.624C357.957 66.8747 357.534 67 356.938 67H349.653C349.058 67 348.619 66.8747 348.337 66.624C348.087 66.342 347.961 65.9033 347.961 65.308V54.874H340.112V65.308C340.112 65.9033 339.971 66.342 339.689 66.624C339.439 66.8747 339.016 67 338.42 67ZM377.373 43.03L375.164 50.174H382.543L380.334 43.03C380.209 42.748 380.068 42.5443 379.911 42.419C379.786 42.2937 379.629 42.231 379.441 42.231H378.266C378.078 42.231 377.906 42.2937 377.749 42.419C377.624 42.5443 377.499 42.748 377.373 43.03ZM374.694 65.308C374.694 65.9033 374.553 66.342 374.271 66.624C374.021 66.8747 373.598 67 373.002 67H366.093C365.498 67 365.059 66.8747 364.777 66.624C364.527 66.342 364.401 65.9033 364.401 65.308V52.9C364.401 51.96 364.542 50.879 364.824 49.657C365.138 48.435 365.608 47.0093 366.234 45.38L370.323 34.711C370.511 34.1783 370.793 33.7867 371.169 33.536C371.577 33.2853 372.094 33.16 372.72 33.16H385.363C385.959 33.16 386.444 33.2853 386.82 33.536C387.228 33.7867 387.525 34.1783 387.713 34.711L391.802 45.38C392.429 47.0093 392.883 48.435 393.165 49.657C393.479 50.879 393.635 51.96 393.635 52.9V65.308C393.635 65.9033 393.494 66.342 393.212 66.624C392.962 66.8747 392.539 67 391.943 67H384.846C384.22 67 383.75 66.8747 383.436 66.624C383.154 66.342 383.013 65.9033 383.013 65.308V58.728H374.694V65.308ZM408.18 67H401.13C400.535 67 400.096 66.8747 399.814 66.624C399.564 66.342 399.438 65.9033 399.438 65.308V34.852C399.438 34.2567 399.564 33.8337 399.814 33.583C400.096 33.301 400.535 33.16 401.13 33.16H406.018C406.614 33.16 407.115 33.254 407.522 33.442C407.961 33.63 408.384 33.959 408.791 34.429L417.909 44.863V34.852C417.909 34.2567 418.035 33.8337 418.285 33.583C418.567 33.301 419.006 33.16 419.601 33.16H426.651C427.247 33.16 427.67 33.301 427.92 33.583C428.202 33.8337 428.343 34.2567 428.343 34.852V65.308C428.343 65.9033 428.202 66.342 427.92 66.624C427.67 66.8747 427.247 67 426.651 67H419.601C419.006 67 418.567 66.8747 418.285 66.624C418.035 66.342 417.909 65.9033 417.909 65.308V59.527L409.872 49.798V65.308C409.872 65.9033 409.731 66.342 409.449 66.624C409.199 66.8747 408.776 67 408.18 67ZM460.676 67H445.871C441.954 67 439.04 66.2167 437.129 64.65C435.249 63.0833 434.309 60.6707 434.309 57.412V42.748C434.309 39.4893 435.249 37.0767 437.129 35.51C439.04 33.9433 441.954 33.16 445.871 33.16H457.621C458.216 33.16 458.639 33.301 458.89 33.583C459.172 33.8337 459.313 34.2567 459.313 34.852V40.539C459.313 41.1343 459.172 41.573 458.89 41.855C458.639 42.1057 458.216 42.231 457.621 42.231H447.845C446.874 42.231 446.153 42.4347 445.683 42.842C445.213 43.218 444.978 43.7977 444.978 44.581V55.814C444.978 56.5973 445.15 57.177 445.495 57.553C445.871 57.929 446.419 58.117 447.14 58.117H451.699V50.785C451.699 50.1897 451.824 49.7667 452.075 49.516C452.357 49.234 452.796 49.093 453.391 49.093H460.676C461.271 49.093 461.694 49.234 461.945 49.516C462.227 49.7667 462.368 50.1897 462.368 50.785V65.308C462.368 65.9033 462.227 66.342 461.945 66.624C461.694 66.8747 461.271 67 460.676 67ZM491.602 67H469.794C469.199 67 468.76 66.8747 468.478 66.624C468.228 66.342 468.102 65.9033 468.102 65.308V34.852C468.102 34.2567 468.228 33.8337 468.478 33.583C468.76 33.301 469.199 33.16 469.794 33.16H491.602C492.198 33.16 492.621 33.301 492.871 33.583C493.153 33.8337 493.294 34.2567 493.294 34.852V40.351C493.294 40.9463 493.153 41.385 492.871 41.667C492.621 41.9177 492.198 42.043 491.602 42.043H478.63V45.662H487.795C488.391 45.662 488.814 45.803 489.064 46.085C489.346 46.3357 489.487 46.7587 489.487 47.354V52.383C489.487 52.9783 489.346 53.417 489.064 53.699C488.814 53.9497 488.391 54.075 487.795 54.075H478.63V58.117H491.602C492.198 58.117 492.621 58.258 492.871 58.54C493.153 58.7907 493.294 59.2137 493.294 59.809V65.308C493.294 65.9033 493.153 66.342 492.871 66.624C492.621 66.8747 492.198 67 491.602 67Z" fill="#EE9112"/>
</svg>
