<svg width="250" height="45" viewBox="0 0 250 45" fill="none" xmlns="http://www.w3.org/2000/svg">
<path d="M98.7503 12.4453L101.25 13.4453L103.25 14.9453L104.25 16.4453L101.75 17.9453L98.7503 16.9453H94.2503L90.7503 17.9453L88.2503 16.4453L90.7503 13.9453L93.7503 12.4453V14.4453H98.7503V12.4453Z" fill="#EE9112"/>
<path d="M103.25 10.4453H104.25L105.25 10.9453L104.25 12.4453L103.25 11.9453V10.4453Z" fill="#EE9112"/>
<path d="M88.2503 10.4453H89.2503L89.7503 11.4453L89.2503 12.4453H88.2503L87.7503 11.4453L88.2503 10.4453Z" fill="#EE9112"/>
<path d="M104.25 26.4453L105.75 27.4453L103.25 30.4453L101.25 31.9453L98.2503 33.4453L97.7503 30.9453H93.2503L91.2503 31.9453L89.2503 30.4453L87.7503 28.4453L86.7503 26.9453L88.7503 26.4453L90.7503 27.9453L93.2503 28.4453H96.2503H98.7503L100.75 27.9453L104.25 26.4453Z" fill="#303273"/>
<path d="M93.7503 12.9453V14.4453H98.7503V12.4453L96.2503 11.9453L93.7503 12.9453Z" fill="#303273"/>
<path d="M106.25 19.4453L108.25 20.9453V23.9453L107.75 26.4453L105.75 26.9453L106.25 24.9453L106.75 22.9453L106.25 19.4453Z" fill="#EE9112"/>
<path d="M86.2503 19.4453L84.7503 20.4453L84.2503 22.4453V23.9453L84.7503 25.9453L85.7503 26.9453H86.7503L86.2503 25.4453V23.4453V19.4453Z" fill="#EE9112"/>
<path d="M101.75 17.9453L104.25 16.4453L105.75 18.9453L106.25 20.9453L106.75 22.4453L106.25 24.9453L105.75 26.9453L103.75 26.4453L104.75 24.9453L105.25 23.4453L104.75 21.4453L103.25 18.9453L101.75 17.9453Z" fill="black"/>
<path d="M88.2503 16.4453L90.7503 17.9453L88.2503 20.4453L87.7503 22.4453V24.4453L88.7503 26.4453L86.7503 26.9453L86.2503 24.9453V21.9453L86.7503 18.9453L88.2503 16.4453Z" fill="black"/>
<path d="M91.7503 32.4453L94.2503 33.4453H97.2503L98.2503 32.9453L97.7503 30.9453H92.7503L91.2503 31.9453L91.7503 32.4453Z" fill="black"/>
<path d="M96.7503 16.9453L99.7503 17.4453L101.75 17.9453L103.75 19.9453L104.75 21.4453L105.25 23.4453L104.75 25.4453L103.25 26.9453L100.75 27.9453L98.2503 28.4453H95.7503H93.7503L91.2503 27.9453L89.2503 26.9453L87.7503 25.4453V23.4453V21.4453L88.7503 19.9453L90.2503 18.4453L92.2503 17.4453L93.7503 16.9453H96.7503Z" fill="#FFFAFA"/>
<path d="M88.2164 10.0595C87.6466 10.2258 87.2719 10.7608 87.277 11.405C87.2873 12.2102 87.8519 12.7505 88.6784 12.7505H89.0326L89.469 13.3686C89.7103 13.7115 89.9105 14.0076 89.9105 14.0336C89.9105 14.0543 89.6743 14.2881 89.3817 14.5479C88.1959 15.6076 87.2103 17.0362 86.5532 18.6414L86.3427 19.1556L85.968 19.2751C85.5368 19.405 85.2698 19.5816 84.9618 19.9245C83.8632 21.1609 83.6682 24.1895 84.5717 26.0804C84.7719 26.5011 84.8797 26.6622 85.1261 26.8908C85.547 27.2804 86.0347 27.4985 86.507 27.5037C86.661 27.5037 86.6815 27.5349 86.9587 28.0596C88.3961 30.7921 90.8294 32.7349 93.7452 33.483C94.7154 33.7323 95.4341 33.805 96.6096 33.7739C98.0624 33.7375 99.1353 33.5089 100.383 32.9739C102.713 31.9661 104.546 30.2622 105.716 28.0232L105.973 27.5349L106.338 27.4726C106.938 27.3687 107.215 27.2232 107.58 26.8336C108.021 26.3661 108.252 25.8518 108.473 24.8804C108.586 24.3869 108.632 22.6934 108.545 22.1011C108.427 21.2596 108.17 20.5635 107.785 20.0492C107.549 19.7271 107.041 19.3738 106.656 19.2647C106.492 19.218 106.338 19.1556 106.307 19.1193C106.276 19.0881 106.199 18.9115 106.132 18.7245C105.609 17.218 104.284 15.3479 102.991 14.2881C102.852 14.179 102.744 14.0647 102.744 14.0388C102.744 13.9972 103.011 13.6024 103.499 12.9219C103.612 12.7608 103.627 12.7556 103.986 12.7608C104.269 12.766 104.418 12.7349 104.597 12.6517C105.306 12.3141 105.588 11.4777 105.239 10.7556C105.013 10.2881 104.572 10.0076 104.048 10.0024C103.227 9.98681 102.559 10.7141 102.662 11.5037C102.698 11.7894 102.816 12.1063 102.934 12.2414C103.006 12.3193 102.97 12.3816 102.565 12.9271C102.318 13.2595 102.087 13.5297 102.051 13.5297C102.015 13.5297 101.789 13.4154 101.553 13.2803C100.342 12.5738 99.048 12.1219 97.6363 11.9141C97.0665 11.8258 95.5162 11.831 94.9926 11.9141C93.4423 12.1686 92.3078 12.5686 91.086 13.2751C90.8396 13.4154 90.6189 13.5297 90.5932 13.5297C90.5624 13.5297 90.3417 13.2595 90.1004 12.9323L89.6589 12.3297L89.7821 12.1479C90.1774 11.5556 90.0439 10.7401 89.4741 10.3037C89.0994 10.0128 88.6682 9.92967 88.2164 10.0595ZM104.423 10.9479C104.633 11.1505 104.685 11.379 104.567 11.6232C104.454 11.8725 104.264 11.9868 103.981 11.9868C103.786 11.9868 103.73 11.9608 103.581 11.7998C103.36 11.5505 103.345 11.2336 103.545 10.9894C103.791 10.6933 104.14 10.6777 104.423 10.9479ZM89.0737 10.9479C89.238 11.1037 89.2585 11.1505 89.2585 11.3582C89.2483 11.7686 89.007 12.0024 88.5912 11.992C88.0522 11.9816 87.8211 11.3219 88.2164 10.9271C88.3396 10.8024 88.4064 10.7764 88.622 10.7764C88.8478 10.7764 88.9094 10.8024 89.0737 10.9479ZM97.8879 12.7245C98.5912 12.8543 98.5501 12.8024 98.509 13.5453C98.4885 13.8933 98.4628 14.1946 98.4474 14.2154C98.4372 14.2414 97.4823 14.2569 96.3273 14.2569C94.3766 14.2569 94.2226 14.2517 94.1764 14.1634C94.1096 14.0388 94.084 12.9219 94.1456 12.8595C94.202 12.8024 94.6589 12.7141 95.2236 12.6466C95.7678 12.579 97.3591 12.6258 97.8879 12.7245ZM93.3653 14.0232C93.3858 14.5115 93.4115 14.9375 93.4269 14.9686C93.4577 15.0673 99.1456 15.0673 99.1764 14.9686C99.1866 14.9375 99.2226 14.5115 99.2534 14.0284C99.2842 13.5401 99.3201 13.1349 99.3355 13.1193C99.4125 13.0414 100.675 13.618 101.358 14.044C101.594 14.1946 101.99 14.4699 102.231 14.6621C102.693 15.0258 103.771 16.0855 103.771 16.179C103.771 16.2102 103.601 16.3401 103.401 16.4751C102.328 17.1608 102.082 17.3167 101.872 17.4414L101.64 17.5712L101.307 17.4154C100.45 17.0102 98.971 16.6206 97.8417 16.4907C97.1538 16.4128 95.3211 16.4284 94.6333 16.5167C93.4166 16.6673 92.5953 16.8803 91.5121 17.3167C91.2246 17.4362 90.9628 17.5297 90.932 17.5297C90.9064 17.5297 90.701 17.4154 90.4854 17.2751C89.6127 16.7193 88.9762 16.3349 88.93 16.3349C88.6887 16.3349 89.4382 15.4569 90.2082 14.8388C90.8602 14.3193 91.2657 14.0388 91.7842 13.7582C92.3335 13.4569 93.1394 13.1089 93.2472 13.1297C93.3088 13.1401 93.3294 13.3011 93.3653 14.0232ZM88.9043 17.1556C89.161 17.3219 89.5511 17.5712 89.7667 17.7063C89.9875 17.8414 90.1774 17.966 90.1877 17.9868C90.2031 18.0076 90.0234 18.1686 89.7924 18.3453C88.3858 19.4102 87.508 20.844 87.2667 22.4648C87.0717 23.7687 87.3078 25.0518 87.9135 26.0024C88.0265 26.1739 88.1138 26.3193 88.1138 26.3349C88.1138 26.3609 87.3129 26.6206 87.2205 26.6206C87.0871 26.6206 86.7123 25.3895 86.5686 24.4648C86.4762 23.8934 86.4762 21.8726 86.5634 21.3739C86.7945 20.0908 87.1435 19.0154 87.6671 17.9972C87.9598 17.431 88.3191 16.8543 88.3858 16.8543C88.4115 16.8543 88.6476 16.9894 88.9043 17.1556ZM104.582 17.3011C105.552 18.7764 106.096 20.5739 106.168 22.5271C106.214 23.8206 106.071 24.9115 105.716 26.0128C105.506 26.6622 105.511 26.657 105.049 26.5167C104.839 26.4492 104.644 26.3713 104.608 26.3401C104.561 26.2985 104.597 26.1947 104.767 25.9193C105.244 25.1193 105.424 24.4336 105.424 23.3998C105.429 21.9141 105.029 20.7713 104.084 19.5556C103.904 19.3271 103.637 19.0362 103.494 18.9115C103.078 18.5427 102.518 18.1011 102.477 18.1011C102.452 18.1011 102.436 18.0699 102.436 18.0336C102.436 17.9972 102.729 17.7894 103.093 17.566C103.453 17.3479 103.848 17.0985 103.976 17.0154C104.105 16.9323 104.233 16.8699 104.259 16.8751C104.289 16.8803 104.433 17.0725 104.582 17.3011ZM98.124 17.2959C100.26 17.6284 101.759 18.2985 102.996 19.4777C103.761 20.2102 104.253 21.0518 104.551 22.1271C104.715 22.7401 104.715 23.9245 104.551 24.5167C104.238 25.6232 103.483 26.4856 102.282 27.1245C101.497 27.5401 100.737 27.7998 99.6384 28.0284C97.5696 28.4544 94.8643 28.4284 92.7852 27.9661C91.2452 27.6232 90.1825 27.1557 89.3407 26.4492C88.6784 25.8934 88.237 25.1869 88.0573 24.4076C87.9649 23.9921 87.9495 23.8154 87.9752 23.1557C88.0008 22.283 88.0778 21.9297 88.3756 21.2752C89.1867 19.5089 90.8242 18.205 93.0162 17.592C93.6322 17.4154 94.6076 17.244 95.1979 17.1972C95.7883 17.1556 97.6004 17.2128 98.124 17.2959ZM86.0398 20.2518C85.8345 20.9895 85.737 21.8778 85.737 22.9583C85.737 24.2362 85.8448 24.9947 86.2092 26.231C86.3478 26.6934 86.3478 26.6934 86.163 26.657C85.7062 26.5635 85.2749 26.0284 85.0337 25.2596C84.8335 24.631 84.7616 24.0804 84.7616 23.1661C84.7616 22.418 84.777 22.2102 84.8745 21.8154C85.0593 21.0726 85.3622 20.5375 85.7729 20.231C85.9885 20.0648 86.086 20.0752 86.0398 20.2518ZM107.036 20.3557C107.323 20.657 107.57 21.1245 107.698 21.6128C108.016 22.8336 107.862 24.896 107.385 25.8518C107.164 26.2934 106.861 26.5687 106.456 26.6934C106.297 26.7453 106.302 26.6778 106.492 26.0596C106.861 24.8284 107.01 23.4102 106.907 22.1063C106.851 21.405 106.748 20.7193 106.62 20.2154C106.558 19.9817 106.733 20.0388 107.036 20.3557ZM89.125 27.27C90.085 27.9713 91.6045 28.5479 93.2216 28.8284C94.6384 29.0726 96.969 29.1401 98.355 28.9843C99.3304 28.87 99.2328 28.8388 99.2739 29.3063C99.3561 30.2362 99.6897 31.0102 100.296 31.6908C100.429 31.8414 100.537 31.9869 100.537 32.0128C100.537 32.1323 98.971 32.7297 98.5809 32.7609L98.4064 32.7765L98.391 31.7739L98.3807 30.7765H95.5727H92.7647L92.0871 31.1921C91.7175 31.4206 91.3735 31.6076 91.3222 31.6076C91.2041 31.6076 90.547 31.1557 90.0337 30.7193C89.546 30.3037 88.8992 29.6284 88.5706 29.1921C88.124 28.605 87.4977 27.5609 87.4977 27.405C87.4977 27.3791 87.6312 27.3167 87.7955 27.27C87.9546 27.2232 88.2062 27.1401 88.3448 27.0882C88.4885 27.0362 88.6322 26.9947 88.663 26.9895C88.699 26.9843 88.9043 27.1141 89.125 27.27ZM104.592 27.1713C104.9 27.2752 105.157 27.3739 105.157 27.3998C105.157 27.4206 105.059 27.6232 104.946 27.8466C104.49 28.7245 103.586 29.857 102.78 30.5635C102.308 30.9739 101.43 31.6076 101.327 31.6076C101.291 31.6076 101.101 31.431 100.901 31.2128C100.424 30.6985 100.157 30.1583 100.044 29.4882C99.9259 28.7505 99.9259 28.7505 100.383 28.6362C101.214 28.4284 101.846 28.1998 102.559 27.831C103.016 27.6024 103.735 27.1349 103.797 27.0362C103.848 26.9479 103.997 26.9739 104.592 27.1713ZM97.585 32.283V32.9843L97.354 33.0206C96.6199 33.1297 95.1466 33.031 94.1353 32.8076C93.2626 32.6102 92.1897 32.1895 92.2308 32.0648C92.2462 32.0284 92.4156 31.8985 92.6107 31.7791L92.9649 31.5609L95.2749 31.5713L97.585 31.5817V32.283Z" fill="black"/>
<path d="M91.2554 19.9713C90.701 20.1167 90.2955 20.3609 89.854 20.8025C89.4125 21.244 89.1969 21.6388 89.0275 22.3245C88.894 22.8544 88.9248 23.3739 89.1148 23.9505C89.546 25.2492 90.6394 26.0544 91.9793 26.0544C92.8673 26.0544 93.5039 25.7895 94.125 25.1661C94.5768 24.7141 94.8437 24.2258 94.9669 23.618C95.0645 23.1453 95.0645 22.8908 94.9721 22.4025C94.7667 21.3323 94.2072 20.6102 93.2267 20.1531C92.5901 19.8518 91.9279 19.7946 91.2554 19.9713ZM92.2154 20.8804C92.3335 20.9531 92.4977 21.1245 92.5799 21.2544C92.7133 21.4622 92.7339 21.5505 92.7339 21.8466C92.7339 22.1531 92.7133 22.2258 92.5696 22.444C92.3335 22.7973 91.9433 23.005 91.5737 22.9687C90.583 22.87 90.1825 21.7115 90.9012 21.0206C91.2606 20.6726 91.7996 20.6102 92.2154 20.8804Z" fill="black"/>
<path d="M100.023 19.9453C99.0942 20.1583 98.3807 20.7089 97.97 21.5297C97.7185 22.0284 97.6415 22.3868 97.6415 22.9842C97.6415 23.8933 97.9135 24.5479 98.5552 25.192C99.161 25.7998 99.8386 26.07 100.716 26.0596C101.907 26.044 102.996 25.3115 103.463 24.205C103.586 23.9141 103.72 23.27 103.72 22.9583C103.72 22.5894 103.576 21.9713 103.406 21.6076C102.816 20.3661 101.343 19.6388 100.023 19.9453ZM101.322 20.7557C101.538 20.8128 101.892 21.1089 102 21.3167C102.108 21.5349 102.144 21.9037 102.077 22.1583C101.99 22.4855 101.615 22.844 101.261 22.9323C100.578 23.0985 99.8694 22.5375 99.8694 21.831C99.8694 21.5868 100.029 21.2336 100.224 21.0414C100.537 20.7349 100.906 20.6362 101.322 20.7557Z" fill="black"/>
<g filter="url(#filter0_i_24_29)">
<path d="M2.175 33V14.575H12.175L16 18.45V29.125L12.175 33H2.175ZM4.45 30.975H11.15L13.725 28.35V19.225L11.15 16.6H4.45V30.975ZM19.802 33V14.575H29.877L32.477 17.2V23.075L29.877 25.7H29.802L33.127 33H30.602L27.327 25.7H22.077V33H19.802ZM22.077 23.675H28.852L30.202 22.3V17.975L28.852 16.6H22.077V23.675ZM38.8709 33L36.2459 30.375V17.2L38.8709 14.575H47.5709L50.1959 17.2V30.375L47.5709 33H38.8709ZM39.8959 30.975H46.5459L47.9209 29.6V17.975L46.5459 16.6H39.8959L38.5209 17.975V29.6L39.8959 30.975ZM53.4543 33V30.9H55.7043V16.675H53.4543V14.575H60.2293V16.675H57.9793V30.9H60.2293V33H53.4543ZM63.9426 33V14.575H73.9426L77.7676 18.45V29.125L73.9426 33H63.9426ZM66.2176 30.975H72.9176L75.4926 28.35V19.225L72.9176 16.6H66.2176V30.975ZM114.821 33V14.575H126.971V16.675H117.096V22.275H125.921V24.35H117.096V30.9H126.971V33H114.821ZM128.596 33L134.146 23.575L128.646 14.575H131.221L135.871 22.325H136.471L141.121 14.575H143.721L138.196 23.575L143.746 33H141.146L136.471 24.9H135.896L131.221 33H128.596ZM148.221 33L145.596 30.375V17.2L148.221 14.575H156.546L159.096 17.125L157.646 18.6L155.646 16.6H149.246L147.871 17.975V29.6L149.246 30.975H155.846L157.871 28.95L159.321 30.425L156.721 33H148.221ZM162.258 33V14.575H164.533V22.3H173.658V14.575H175.933V33H173.658V24.325H164.533V33H162.258ZM178.426 33L184.651 14.575H188.176L194.401 33H192.026L190.451 28.2H182.376L180.826 33H178.426ZM183.051 26.2H189.801L186.701 16.725H186.126L183.051 26.2ZM196.926 33V14.575H200.026L208.251 29.4V14.575H210.526V33H207.826L199.751 18.45H199.201V33H196.926ZM216.97 33L214.395 30.375V17.2L217.02 14.575H225.77L228.32 17.125L226.87 18.6L224.87 16.6H218.045L216.67 17.975V29.6L218.045 30.975H223.57L226.42 28.325V25.325H222.17V23.325H228.32V33H226.42V30.875L224.145 33H216.97ZM232.644 33V14.575H244.794V16.675H234.919V22.275H243.744V24.35H234.919V30.9H244.794V33H232.644Z" fill="#EE9112"/>
</g>
<defs>
<filter id="filter0_i_24_29" x="2.175" y="14.575" width="242.619" height="22.425" filterUnits="userSpaceOnUse" color-interpolation-filters="sRGB">
<feFlood flood-opacity="0" result="BackgroundImageFix"/>
<feBlend mode="normal" in="SourceGraphic" in2="BackgroundImageFix" result="shape"/>
<feColorMatrix in="SourceAlpha" type="matrix" values="0 0 0 0 0 0 0 0 0 0 0 0 0 0 0 0 0 0 127 0" result="hardAlpha"/>
<feOffset dy="8"/>
<feGaussianBlur stdDeviation="2"/>
<feComposite in2="hardAlpha" operator="arithmetic" k2="-1" k3="1"/>
<feColorMatrix type="matrix" values="0 0 0 0 0 0 0 0 0 0 0 0 0 0 0 0 0 0 0.25 0"/>
<feBlend mode="normal" in2="shape" result="effect1_innerShadow_24_29"/>
</filter>
</defs>
</svg>
