<svg width="500" height="101" viewBox="0 0 500 101" fill="none" xmlns="http://www.w3.org/2000/svg">
<g filter="url(#filter0_i_14_3)">
<path d="M211.622 22.9923H213.94L216.258 24.1067L213.94 27.4498L211.622 26.3354V22.9923Z" fill="#EE9112"/>
<path d="M201.191 27.4497L206.986 29.6784L211.622 33.0215L213.94 36.3646L208.145 39.7076L201.191 37.4789H190.76L182.647 39.7076L176.852 36.3646L182.647 30.7928L189.601 27.4497V31.9072H201.191V27.4497Z" fill="#EE9112"/>
<path d="M176.852 22.9923H179.17L180.329 25.221L179.17 27.4498H176.852L175.693 25.221L176.852 22.9923Z" fill="#EE9112"/>
<path d="M213.94 58.6516L217.417 60.8803L211.622 67.5665L206.986 70.9095L200.032 74.2526L198.873 68.6808H188.442L183.806 70.9095L179.17 67.5665L175.693 63.109L173.375 59.766L178.011 58.6516L182.647 61.9947L188.442 63.109H195.396H201.191L205.827 61.9947L213.94 58.6516Z" fill="#303273"/>
<path d="M189.601 28.5641V31.9072H201.191V27.4497L195.396 26.3354L189.601 28.5641Z" fill="#303273"/>
<path d="M218.576 43.0507L223.212 46.3937V53.0799L222.053 58.6516L217.417 59.766L218.576 55.3086L219.735 50.8512L218.576 43.0507Z" fill="#EE9112"/>
<path d="M172.216 43.0507L168.739 45.2794L167.58 49.7368V53.0799L168.739 57.5373L171.057 59.766H173.375L172.216 56.423V51.9655V43.0507Z" fill="#EE9112"/>
<path d="M208.145 39.7077L213.94 36.3646L217.417 41.9364L218.576 46.3938L219.735 49.7368L218.576 55.3086L217.417 59.766L212.781 58.6517L215.099 55.3086L216.258 51.9655L215.099 47.5081L211.622 41.9364L208.145 39.7077Z" fill="black"/>
<path d="M176.852 36.3646L182.647 39.7077L176.852 45.2794L175.693 49.7368V54.1942L178.011 58.6517L173.375 59.766L172.216 55.3086V48.6225L173.375 41.9364L176.852 36.3646Z" fill="black"/>
<path d="M184.965 72.0238L190.76 74.2526H197.714L200.032 73.1382L198.873 68.6808H187.283L183.806 70.9095L184.965 72.0238Z" fill="black"/>
<path d="M196.555 37.4789L203.509 38.5933L208.145 39.7076L212.781 44.1651L215.099 47.5081L216.258 51.9655L215.099 56.4229L211.622 59.766L205.827 61.9947L200.032 63.1091H194.237H189.601L183.806 61.9947L179.17 59.766L175.693 56.4229V51.9655V47.5081L178.011 44.1651L181.488 40.822L186.124 38.5933L189.601 37.4789H196.555Z" fill="#FFFAFA"/>
<path d="M176.774 22.1327C175.453 22.5032 174.584 23.6957 174.596 25.1313C174.62 26.9259 175.929 28.1299 177.844 28.1299H178.666L179.677 29.5077C180.236 30.2718 180.7 30.9317 180.7 30.9896C180.7 31.0359 180.153 31.5569 179.475 32.1358C176.726 34.4977 174.441 37.6815 172.918 41.2591L172.43 42.4052L171.562 42.6715C170.562 42.961 169.943 43.3546 169.229 44.1187C166.683 46.8742 166.231 53.624 168.325 57.8383C168.789 58.7761 169.039 59.135 169.61 59.6444C170.586 60.5128 171.716 60.999 172.811 61.0106C173.168 61.0106 173.216 61.0801 173.858 62.2494C177.19 68.3393 182.83 72.6693 189.589 74.3365C191.838 74.8923 193.504 75.0543 196.229 74.9849C199.596 74.9038 202.083 74.3944 204.975 73.2019C210.377 70.9558 214.625 67.1584 217.338 62.1684L217.933 61.0801L218.778 60.9411C220.17 60.7096 220.813 60.3854 221.658 59.5171C222.681 58.4751 223.216 57.3289 223.728 55.1639C223.99 54.064 224.097 50.2897 223.895 48.9698C223.621 47.0942 223.026 45.5428 222.134 44.3966C221.586 43.6788 220.408 42.8915 219.516 42.6484C219.135 42.5442 218.778 42.4052 218.707 42.3242C218.635 42.2547 218.457 41.8611 218.302 41.4443C217.088 38.0868 214.018 33.9188 211.02 31.5569C210.698 31.3138 210.448 31.0591 210.448 31.0012C210.448 30.9086 211.067 30.0287 212.198 28.512C212.459 28.1531 212.495 28.1415 213.328 28.1531C213.983 28.1647 214.328 28.0952 214.744 27.91C216.386 27.1574 217.041 25.2934 216.231 23.6841C215.708 22.6421 214.685 22.0169 213.471 22.0053C211.567 21.9706 210.02 23.5915 210.258 25.3513C210.341 25.9881 210.615 26.6943 210.889 26.9953C211.055 27.169 210.972 27.3079 210.032 28.5236C209.461 29.2646 208.925 29.8666 208.842 29.8666C208.759 29.8666 208.235 29.6119 207.688 29.3109C204.88 27.7363 201.881 26.729 198.609 26.2659C197.288 26.0691 193.694 26.0807 192.481 26.2659C188.887 26.8332 186.257 27.7247 183.425 29.2993C182.854 29.6119 182.342 29.8666 182.283 29.8666C182.212 29.8666 181.7 29.2646 181.141 28.5352L180.117 27.1922L180.403 26.7869C181.319 25.4671 181.01 23.6494 179.689 22.6768C178.82 22.0285 177.821 21.8433 176.774 22.1327ZM214.34 24.1125C214.827 24.564 214.946 25.0734 214.673 25.6176C214.411 26.1733 213.971 26.428 213.316 26.428C212.864 26.428 212.733 26.3701 212.388 26.0112C211.876 25.4555 211.841 24.7493 212.305 24.2051C212.876 23.5452 213.685 23.5104 214.34 24.1125ZM178.761 24.1125C179.142 24.4598 179.189 24.564 179.189 25.0271C179.165 25.9418 178.606 26.4628 177.642 26.4396C176.393 26.4164 175.857 24.9461 176.774 24.0662C177.059 23.7883 177.214 23.7304 177.714 23.7304C178.237 23.7304 178.38 23.7883 178.761 24.1125ZM199.192 28.0721C200.822 28.3615 200.727 28.2457 200.632 29.9013C200.584 30.677 200.524 31.3485 200.489 31.3949C200.465 31.4527 198.252 31.4875 195.574 31.4875C191.053 31.4875 190.696 31.4759 190.589 31.2791C190.434 31.0012 190.374 28.512 190.517 28.3731C190.648 28.2457 191.707 28.0489 193.016 27.8984C194.277 27.7479 197.966 27.8521 199.192 28.0721ZM188.709 30.9665C188.756 32.0548 188.816 33.0042 188.851 33.0736C188.923 33.2936 202.107 33.2936 202.178 33.0736C202.202 33.0042 202.286 32.0548 202.357 30.9781C202.428 29.8898 202.512 28.9867 202.547 28.952C202.726 28.7783 205.653 30.0634 207.236 31.0128C207.783 31.3485 208.699 31.9622 209.259 32.3905C210.329 33.201 212.828 35.5628 212.828 35.7712C212.828 35.8407 212.436 36.1301 211.972 36.4312C209.485 37.9594 208.913 38.3067 208.426 38.5846L207.89 38.874L207.117 38.5267C205.129 37.6237 201.702 36.7553 199.085 36.4659C197.49 36.2922 193.242 36.327 191.648 36.5238C188.828 36.8595 186.924 37.3342 184.413 38.3067C183.747 38.573 183.14 38.7814 183.068 38.7814C183.009 38.7814 182.533 38.5267 182.033 38.2141C180.01 36.9753 178.535 36.1186 178.428 36.1186C177.868 36.1186 179.606 34.1619 181.39 32.7842C182.902 31.6264 183.842 31.0012 185.044 30.376C186.317 29.7045 188.185 28.9288 188.435 28.9751C188.578 28.9983 188.625 29.3572 188.709 30.9665ZM178.368 37.9478C178.963 38.3183 179.867 38.874 180.367 39.1751C180.879 39.4761 181.319 39.7539 181.343 39.8003C181.379 39.8466 180.962 40.2055 180.427 40.5991C177.166 42.9725 175.131 46.168 174.572 49.7802C174.12 52.6862 174.667 55.5459 176.072 57.6646C176.333 58.0467 176.536 58.3709 176.536 58.4056C176.536 58.4635 174.679 59.0424 174.465 59.0424C174.156 59.0424 173.287 56.2985 172.954 54.2376C172.74 52.9641 172.74 48.4604 172.942 47.3489C173.477 44.4892 174.287 42.0926 175.5 39.8234C176.179 38.5614 177.012 37.2763 177.166 37.2763C177.226 37.2763 177.773 37.5773 178.368 37.9478ZM214.708 38.272C216.957 41.5601 218.219 45.566 218.385 49.9192C218.492 52.802 218.159 55.2333 217.338 57.6878C216.85 59.135 216.862 59.1234 215.791 58.8108C215.303 58.6603 214.851 58.4867 214.768 58.4172C214.661 58.3246 214.744 58.093 215.137 57.4794C216.243 55.6964 216.66 54.1682 216.66 51.8642C216.672 48.553 215.744 46.0059 213.554 43.2967C213.138 42.7873 212.519 42.139 212.186 41.8611C211.222 41.0391 209.925 40.055 209.83 40.055C209.77 40.055 209.734 39.9855 209.734 39.9045C209.734 39.8234 210.413 39.3603 211.258 38.8625C212.091 38.3762 213.007 37.8205 213.304 37.6352C213.602 37.45 213.899 37.3111 213.959 37.3226C214.03 37.3342 214.363 37.7626 214.708 38.272ZM199.739 38.2604C204.689 39.0014 208.164 40.4949 211.032 43.1231C212.804 44.7555 213.947 46.6311 214.637 49.0277C215.018 50.3939 215.018 53.0336 214.637 54.3534C213.911 56.8195 212.162 58.7414 209.378 60.1654C207.557 61.0916 205.796 61.6705 203.249 62.1799C198.454 63.1293 192.183 63.0714 187.364 62.041C183.794 61.2769 181.331 60.2349 179.379 58.6603C177.844 57.4215 176.821 55.8469 176.405 54.1103C176.19 53.1841 176.155 52.7904 176.214 51.3201C176.274 49.375 176.452 48.5877 177.142 47.1289C179.023 43.1925 182.818 40.2865 187.899 38.9204C189.327 38.5267 191.588 38.1446 192.957 38.0405C194.325 37.9478 198.525 38.0752 199.739 38.2604ZM171.728 44.8481C171.252 46.4922 171.026 48.472 171.026 50.8801C171.026 53.7282 171.276 55.4186 172.121 58.1741C172.442 59.2045 172.442 59.2045 172.014 59.1234C170.955 58.915 169.955 57.7225 169.396 56.009C168.932 54.6081 168.765 53.3809 168.765 51.3432C168.765 49.676 168.801 49.2129 169.027 48.333C169.456 46.6774 170.158 45.4849 171.11 44.8018C171.609 44.4313 171.835 44.4545 171.728 44.8481ZM220.396 45.0797C221.063 45.7512 221.634 46.7932 221.931 47.8815C222.669 50.6023 222.312 55.1986 221.205 57.3289C220.694 58.313 219.992 58.9266 219.052 59.2045C218.683 59.3203 218.695 59.1697 219.135 57.792C219.992 55.0481 220.337 51.8874 220.099 48.9814C219.968 47.4184 219.73 45.8901 219.432 44.7671C219.29 44.2461 219.694 44.3735 220.396 45.0797ZM178.88 60.4896C181.105 62.0526 184.627 63.3377 188.375 63.9629C191.66 64.5071 197.062 64.6576 200.275 64.3102C202.535 64.0555 202.309 63.9861 202.405 65.0281C202.595 67.1005 203.368 68.8255 204.772 70.3422C205.082 70.678 205.332 71.0022 205.332 71.06C205.332 71.3263 201.702 72.6578 200.798 72.7272L200.394 72.762L200.358 70.5275L200.334 68.3045H193.825H187.316L185.746 69.2308C184.889 69.7402 184.092 70.157 183.973 70.157C183.699 70.157 182.176 69.1497 180.986 68.1772C179.855 67.251 178.356 65.7459 177.595 64.7734C176.559 63.4651 175.108 61.138 175.108 60.7906C175.108 60.7327 175.417 60.5938 175.798 60.4896C176.167 60.3854 176.75 60.2002 177.071 60.0844C177.404 59.9686 177.737 59.876 177.809 59.8644C177.892 59.8528 178.368 60.1423 178.88 60.4896ZM214.732 60.2696C215.446 60.5012 216.041 60.7212 216.041 60.779C216.041 60.8254 215.815 61.2769 215.553 61.7747C214.494 63.7314 212.4 66.2553 210.532 67.8299C209.437 68.7445 207.402 70.157 207.164 70.157C207.081 70.157 206.641 69.7633 206.177 69.2771C205.07 68.1309 204.451 66.9268 204.189 65.4333C203.916 63.7892 203.916 63.7892 204.975 63.5345C206.902 63.0714 208.366 62.562 210.02 61.74C211.079 61.2306 212.745 60.1886 212.888 59.9686C213.007 59.7718 213.352 59.8297 214.732 60.2696ZM198.49 71.6621V73.2251L197.954 73.3061C196.253 73.5492 192.838 73.3293 190.493 72.8314C188.471 72.3915 185.984 71.4537 186.079 71.1758C186.114 71.0948 186.507 70.8053 186.959 70.539L187.78 70.0528L193.135 70.0759L198.49 70.0991V71.6621Z" fill="black"/>
<path d="M183.818 44.2229C182.533 44.5471 181.593 45.0913 180.569 46.0754C179.546 47.0595 179.046 47.9394 178.654 49.4676C178.344 50.6486 178.416 51.8063 178.856 53.0915C179.855 55.9859 182.39 57.7804 185.496 57.7804C187.554 57.7804 189.03 57.19 190.47 55.8006C191.517 54.7934 192.136 53.7051 192.421 52.3505C192.647 51.2969 192.647 50.7296 192.433 49.6413C191.957 47.2563 190.66 45.647 188.387 44.6282C186.912 43.9567 185.377 43.8293 183.818 44.2229ZM186.043 46.249C186.317 46.4111 186.698 46.7932 186.888 47.0826C187.197 47.5457 187.245 47.7426 187.245 48.4025C187.245 49.0856 187.197 49.2477 186.864 49.7339C186.317 50.5212 185.412 50.9843 184.556 50.9033C182.259 50.6833 181.331 48.1015 182.997 46.5616C183.83 45.7859 185.079 45.647 186.043 46.249Z" fill="black"/>
<path d="M204.142 44.165C201.988 44.6397 200.334 45.8669 199.382 47.6962C198.799 48.8077 198.621 49.6065 198.621 50.938C198.621 52.9641 199.251 54.4229 200.739 55.8585C202.143 57.2131 203.713 57.8151 205.748 57.792C208.509 57.7572 211.032 56.1248 212.114 53.6587C212.4 53.0104 212.709 51.5747 212.709 50.8801C212.709 50.0581 212.376 48.6803 211.983 47.8699C210.615 45.1028 207.2 43.4819 204.142 44.165ZM207.152 45.9711C207.652 46.0985 208.473 46.7584 208.723 47.2215C208.973 47.7078 209.056 48.5298 208.902 49.0971C208.699 49.8265 207.831 50.6254 207.01 50.8222C205.427 51.1927 203.785 49.9423 203.785 48.3677C203.785 47.8236 204.154 47.0363 204.606 46.6079C205.332 45.9248 206.189 45.7048 207.152 45.9711Z" fill="black"/>
</g>
<path d="M3.6 70V34.624H25.344L32.736 42.016V62.608L25.344 70H3.6ZM11.088 63.952H21.984L25.392 60.544V44.032L21.984 40.672H11.088V63.952ZM38.7563 70V34.624H61.1243L66.4523 39.952V52.144L61.9883 56.56L67.7003 70H59.7803L54.6923 57.472H46.2443V70H38.7563ZM46.2443 51.424H57.1883L59.1083 49.552L59.0603 42.544L57.1883 40.672H46.2443V51.424ZM77.5774 70L72.2494 64.672V39.952L77.5774 34.624H96.5854L101.961 39.952V64.672L96.5854 70H77.5774ZM81.6574 63.952H92.5534L94.4734 62.032V42.544L92.5054 40.672H81.6574L79.7374 42.544V62.032L81.6574 63.952ZM106.978 70V63.856H110.722V40.768H106.978V34.624H121.762V40.768H118.018L117.922 63.856H121.762V70H106.978ZM127.772 70V34.624H149.516L156.908 42.016V62.608L149.516 70H127.772ZM135.26 63.952H146.156L149.564 60.544V44.032L146.156 40.672H135.26V63.952ZM231.834 70V34.624H257.37V41.008H239.322V48.592H255.69V54.736H239.322V63.616H257.37V70H231.834ZM260.021 70L269.429 51.568L260.117 34.624H268.709L275.477 48.112H276.917L283.685 34.624H292.277L282.965 51.568L292.325 70H283.685L276.917 55.6H275.477L268.661 70H260.021ZM299.999 70L294.671 64.672V39.952L299.999 34.624H317.423L322.559 39.712L317.807 44.272L314.111 40.672H304.079L302.159 42.544V62.032L304.079 63.952H314.495L318.143 60.352L322.895 64.912L317.807 70H299.999ZM327.928 70V34.624H335.416V48.304H349.192V34.624H356.68V70H349.192V54.448H335.416V70H327.928ZM360.521 70L371.465 34.624H383.225L394.169 70H386.249L384.041 62.176H370.649L368.489 70H360.521ZM372.377 56.08H382.313L378.089 40.864H376.649L372.377 56.08ZM397.958 70V34.624H406.742L419.702 57.52V34.624H426.95V70H419.462L406.646 47.296H405.206V70H397.958ZM438.468 70L433.14 64.672V39.952L438.468 34.624H457.14L462.228 39.712L457.476 44.272L453.828 40.672H442.548L440.628 42.544V62.032L442.548 63.952H450.9L455.988 59.488V56.848H448.692V50.8H462.516V70H456.228V66.64L452.436 70H438.468ZM469.491 70V34.624H495.027V41.008H476.979V48.592H493.347V54.736H476.979V63.616H495.027V70H469.491Z" fill="#EE9112"/>
</svg>
