<svg width="252" height="45" viewBox="0 0 252 45" fill="none" xmlns="http://www.w3.org/2000/svg">
<g filter="url(#filter0_d_25_35)">
<path d="M98.7503 9.44525L101.25 10.4453L103.25 11.9453L104.25 13.4453L101.75 14.9453L98.7503 13.9453H94.2503L90.7503 14.9453L88.2503 13.4453L90.7503 10.9453L93.7503 9.44525V11.4453H98.7503V9.44525Z" fill="#EE9112"/>
<path d="M103.25 7.44525H104.25L105.25 7.94525L104.25 9.44525L103.25 8.94525V7.44525Z" fill="#EE9112"/>
<path d="M88.2503 7.44525H89.2503L89.7503 8.44525L89.2503 9.44525H88.2503L87.7503 8.44525L88.2503 7.44525Z" fill="#EE9112"/>
<path d="M104.25 23.4453L105.75 24.4453L103.25 27.4453L101.25 28.9453L98.2503 30.4453L97.7503 27.9453H93.2503L91.2503 28.9453L89.2503 27.4453L87.7503 25.4453L86.7503 23.9453L88.7503 23.4453L90.7503 24.9453L93.2503 25.4453H96.2503H98.7503L100.75 24.9453L104.25 23.4453Z" fill="#303273"/>
<path d="M93.7503 9.94525V11.4453H98.7503V9.44525L96.2503 8.94525L93.7503 9.94525Z" fill="#303273"/>
<path d="M106.25 16.4453L108.25 17.9453V20.9453L107.75 23.4453L105.75 23.9453L106.25 21.9453L106.75 19.9453L106.25 16.4453Z" fill="#EE9112"/>
<path d="M86.2503 16.4453L84.7503 17.4453L84.2503 19.4453V20.9453L84.7503 22.9453L85.7503 23.9453H86.7503L86.2503 22.4453V20.4453V16.4453Z" fill="#EE9112"/>
<path d="M101.75 14.9453L104.25 13.4453L105.75 15.9453L106.25 17.9453L106.75 19.4453L106.25 21.9453L105.75 23.9453L103.75 23.4453L104.75 21.9453L105.25 20.4453L104.75 18.4453L103.25 15.9453L101.75 14.9453Z" fill="black"/>
<path d="M88.2503 13.4453L90.7503 14.9453L88.2503 17.4453L87.7503 19.4453V21.4453L88.7503 23.4453L86.7503 23.9453L86.2503 21.9453V18.9453L86.7503 15.9453L88.2503 13.4453Z" fill="black"/>
<path d="M91.7503 29.4453L94.2503 30.4453H97.2503L98.2503 29.9453L97.7503 27.9453H92.7503L91.2503 28.9453L91.7503 29.4453Z" fill="black"/>
<path d="M96.7503 13.9453L99.7503 14.4453L101.75 14.9453L103.75 16.9453L104.75 18.4453L105.25 20.4453L104.75 22.4453L103.25 23.9453L100.75 24.9453L98.2503 25.4453H95.7503H93.7503L91.2503 24.9453L89.2503 23.9453L87.7503 22.4453V20.4453V18.4453L88.7503 16.9453L90.2503 15.4453L92.2503 14.4453L93.7503 13.9453H96.7503Z" fill="#FFFAFA"/>
<path d="M88.2164 7.05954C87.6466 7.22577 87.2719 7.76084 87.277 8.40499C87.2873 9.21019 87.8519 9.75045 88.6784 9.75045H89.0326L89.469 10.3686C89.7103 10.7115 89.9105 11.0076 89.9105 11.0336C89.9105 11.0543 89.6743 11.2881 89.3817 11.5479C88.1959 12.6076 87.2103 14.0362 86.5532 15.6414L86.3427 16.1556L85.968 16.2751C85.5368 16.405 85.2698 16.5816 84.9618 16.9245C83.8632 18.1609 83.6682 21.1895 84.5717 23.0804C84.7719 23.5011 84.8797 23.6622 85.1261 23.8908C85.547 24.2804 86.0347 24.4985 86.507 24.5037C86.661 24.5037 86.6815 24.5349 86.9587 25.0596C88.3961 27.7921 90.8294 29.7349 93.7452 30.483C94.7154 30.7323 95.4341 30.805 96.6096 30.7739C98.0624 30.7375 99.1353 30.5089 100.383 29.9739C102.713 28.9661 104.546 27.2622 105.716 25.0232L105.973 24.5349L106.338 24.4726C106.938 24.3687 107.215 24.2232 107.58 23.8336C108.021 23.3661 108.252 22.8518 108.473 21.8804C108.586 21.3869 108.632 19.6934 108.545 19.1011C108.427 18.2596 108.17 17.5635 107.785 17.0492C107.549 16.7271 107.041 16.3738 106.656 16.2647C106.492 16.218 106.338 16.1556 106.307 16.1193C106.276 16.0881 106.199 15.9115 106.132 15.7245C105.609 14.218 104.284 12.3479 102.991 11.2881C102.852 11.179 102.744 11.0647 102.744 11.0388C102.744 10.9972 103.011 10.6024 103.499 9.92187C103.612 9.76084 103.627 9.75564 103.986 9.76084C104.269 9.76603 104.418 9.73486 104.597 9.65174C105.306 9.31408 105.588 8.47772 105.239 7.75564C105.013 7.28811 104.572 7.00759 104.048 7.0024C103.227 6.98681 102.559 7.71409 102.662 8.50369C102.698 8.78941 102.816 9.10629 102.934 9.24136C103.006 9.31928 102.97 9.38162 102.565 9.92707C102.318 10.2595 102.087 10.5297 102.051 10.5297C102.015 10.5297 101.789 10.4154 101.553 10.2803C100.342 9.57382 99.048 9.12187 97.6363 8.91408C97.0665 8.82577 95.5162 8.83097 94.9926 8.91408C93.4423 9.16863 92.3078 9.56863 91.086 10.2751C90.8396 10.4154 90.6189 10.5297 90.5932 10.5297C90.5624 10.5297 90.3417 10.2595 90.1004 9.93226L89.6589 9.32967L89.7821 9.14785C90.1774 8.55564 90.0439 7.74006 89.4741 7.3037C89.0994 7.01279 88.6682 6.92967 88.2164 7.05954ZM104.423 7.94785C104.633 8.15045 104.685 8.37902 104.567 8.62317C104.454 8.87252 104.264 8.98681 103.981 8.98681C103.786 8.98681 103.73 8.96084 103.581 8.7998C103.36 8.55045 103.345 8.23356 103.545 7.98941C103.791 7.69331 104.14 7.67772 104.423 7.94785ZM89.0737 7.94785C89.238 8.10369 89.2585 8.15045 89.2585 8.35824C89.2483 8.76863 89.007 9.00239 88.5912 8.992C88.0522 8.98162 87.8211 8.32187 88.2164 7.92707C88.3396 7.8024 88.4064 7.77642 88.622 7.77642C88.8478 7.77642 88.9094 7.8024 89.0737 7.94785ZM97.8879 9.72447C98.5912 9.85434 98.5501 9.80239 98.509 10.5453C98.4885 10.8933 98.4628 11.1946 98.4474 11.2154C98.4372 11.2414 97.4823 11.2569 96.3273 11.2569C94.3766 11.2569 94.2226 11.2517 94.1764 11.1634C94.1096 11.0388 94.084 9.92187 94.1456 9.85954C94.202 9.80239 94.6589 9.71408 95.2236 9.64655C95.7678 9.57902 97.3591 9.62577 97.8879 9.72447ZM93.3653 11.0232C93.3858 11.5115 93.4115 11.9375 93.4269 11.9686C93.4577 12.0673 99.1456 12.0673 99.1764 11.9686C99.1866 11.9375 99.2226 11.5115 99.2534 11.0284C99.2842 10.5401 99.3201 10.1349 99.3355 10.1193C99.4125 10.0414 100.675 10.618 101.358 11.044C101.594 11.1946 101.99 11.4699 102.231 11.6621C102.693 12.0258 103.771 13.0855 103.771 13.179C103.771 13.2102 103.601 13.3401 103.401 13.4751C102.328 14.1608 102.082 14.3167 101.872 14.4414L101.64 14.5712L101.307 14.4154C100.45 14.0102 98.971 13.6206 97.8417 13.4907C97.1538 13.4128 95.3211 13.4284 94.6333 13.5167C93.4166 13.6673 92.5953 13.8803 91.5121 14.3167C91.2246 14.4362 90.9628 14.5297 90.932 14.5297C90.9064 14.5297 90.701 14.4154 90.4854 14.2751C89.6127 13.7193 88.9762 13.3349 88.93 13.3349C88.6887 13.3349 89.4382 12.4569 90.2082 11.8388C90.8602 11.3193 91.2657 11.0388 91.7842 10.7582C92.3335 10.4569 93.1394 10.1089 93.2472 10.1297C93.3088 10.1401 93.3294 10.3011 93.3653 11.0232ZM88.9043 14.1556C89.161 14.3219 89.5511 14.5712 89.7667 14.7063C89.9875 14.8414 90.1774 14.966 90.1877 14.9868C90.2031 15.0076 90.0234 15.1686 89.7924 15.3453C88.3858 16.4102 87.508 17.844 87.2667 19.4648C87.0717 20.7687 87.3078 22.0518 87.9135 23.0024C88.0265 23.1739 88.1138 23.3193 88.1138 23.3349C88.1138 23.3609 87.3129 23.6206 87.2205 23.6206C87.0871 23.6206 86.7123 22.3895 86.5686 21.4648C86.4762 20.8934 86.4762 18.8726 86.5634 18.3739C86.7945 17.0908 87.1435 16.0154 87.6671 14.9972C87.9598 14.431 88.3191 13.8543 88.3858 13.8543C88.4115 13.8543 88.6476 13.9894 88.9043 14.1556ZM104.582 14.3011C105.552 15.7764 106.096 17.5739 106.168 19.5271C106.214 20.8206 106.071 21.9115 105.716 23.0128C105.506 23.6622 105.511 23.657 105.049 23.5167C104.839 23.4492 104.644 23.3713 104.608 23.3401C104.561 23.2985 104.597 23.1947 104.767 22.9193C105.244 22.1193 105.424 21.4336 105.424 20.3998C105.429 18.9141 105.029 17.7713 104.084 16.5556C103.904 16.3271 103.637 16.0362 103.494 15.9115C103.078 15.5427 102.518 15.1011 102.477 15.1011C102.452 15.1011 102.436 15.0699 102.436 15.0336C102.436 14.9972 102.729 14.7894 103.093 14.566C103.453 14.3479 103.848 14.0985 103.976 14.0154C104.105 13.9323 104.233 13.8699 104.259 13.8751C104.289 13.8803 104.433 14.0725 104.582 14.3011ZM98.124 14.2959C100.26 14.6284 101.759 15.2985 102.996 16.4777C103.761 17.2102 104.253 18.0518 104.551 19.1271C104.715 19.7401 104.715 20.9245 104.551 21.5167C104.238 22.6232 103.483 23.4856 102.282 24.1245C101.497 24.5401 100.737 24.7998 99.6384 25.0284C97.5696 25.4544 94.8643 25.4284 92.7852 24.9661C91.2452 24.6232 90.1825 24.1557 89.3407 23.4492C88.6784 22.8934 88.237 22.1869 88.0573 21.4076C87.9649 20.9921 87.9495 20.8154 87.9752 20.1557C88.0008 19.283 88.0778 18.9297 88.3756 18.2752C89.1867 16.5089 90.8242 15.205 93.0162 14.592C93.6322 14.4154 94.6076 14.244 95.1979 14.1972C95.7883 14.1556 97.6004 14.2128 98.124 14.2959ZM86.0398 17.2518C85.8345 17.9895 85.737 18.8778 85.737 19.9583C85.737 21.2362 85.8448 21.9947 86.2092 23.231C86.3478 23.6934 86.3478 23.6934 86.163 23.657C85.7062 23.5635 85.2749 23.0284 85.0337 22.2596C84.8335 21.631 84.7616 21.0804 84.7616 20.1661C84.7616 19.418 84.777 19.2102 84.8745 18.8154C85.0593 18.0726 85.3622 17.5375 85.7729 17.231C85.9885 17.0648 86.086 17.0752 86.0398 17.2518ZM107.036 17.3557C107.323 17.657 107.57 18.1245 107.698 18.6128C108.016 19.8336 107.862 21.896 107.385 22.8518C107.164 23.2934 106.861 23.5687 106.456 23.6934C106.297 23.7453 106.302 23.6778 106.492 23.0596C106.861 21.8284 107.01 20.4102 106.907 19.1063C106.851 18.405 106.748 17.7193 106.62 17.2154C106.558 16.9817 106.733 17.0388 107.036 17.3557ZM89.125 24.27C90.085 24.9713 91.6045 25.5479 93.2216 25.8284C94.6384 26.0726 96.969 26.1401 98.355 25.9843C99.3304 25.87 99.2328 25.8388 99.2739 26.3063C99.3561 27.2362 99.6897 28.0102 100.296 28.6908C100.429 28.8414 100.537 28.9869 100.537 29.0128C100.537 29.1323 98.971 29.7297 98.5809 29.7609L98.4064 29.7765L98.391 28.7739L98.3807 27.7765H95.5727H92.7647L92.0871 28.1921C91.7175 28.4206 91.3735 28.6076 91.3222 28.6076C91.2041 28.6076 90.547 28.1557 90.0337 27.7193C89.546 27.3037 88.8992 26.6284 88.5706 26.1921C88.124 25.605 87.4977 24.5609 87.4977 24.405C87.4977 24.3791 87.6312 24.3167 87.7955 24.27C87.9546 24.2232 88.2062 24.1401 88.3448 24.0882C88.4885 24.0362 88.6322 23.9947 88.663 23.9895C88.699 23.9843 88.9043 24.1141 89.125 24.27ZM104.592 24.1713C104.9 24.2752 105.157 24.3739 105.157 24.3998C105.157 24.4206 105.059 24.6232 104.946 24.8466C104.49 25.7245 103.586 26.857 102.78 27.5635C102.308 27.9739 101.43 28.6076 101.327 28.6076C101.291 28.6076 101.101 28.431 100.901 28.2128C100.424 27.6985 100.157 27.1583 100.044 26.4882C99.9259 25.7505 99.9259 25.7505 100.383 25.6362C101.214 25.4284 101.846 25.1998 102.559 24.831C103.016 24.6024 103.735 24.1349 103.797 24.0362C103.848 23.9479 103.997 23.9739 104.592 24.1713ZM97.585 29.283V29.9843L97.354 30.0206C96.6199 30.1297 95.1466 30.031 94.1353 29.8076C93.2626 29.6102 92.1897 29.1895 92.2308 29.0648C92.2462 29.0284 92.4156 28.8985 92.6107 28.7791L92.9649 28.5609L95.2749 28.5713L97.585 28.5817V29.283Z" fill="black"/>
<path d="M91.2554 16.9713C90.701 17.1167 90.2955 17.3609 89.854 17.8025C89.4125 18.244 89.1969 18.6388 89.0275 19.3245C88.894 19.8544 88.9248 20.3739 89.1148 20.9505C89.546 22.2492 90.6394 23.0544 91.9793 23.0544C92.8673 23.0544 93.5039 22.7895 94.125 22.1661C94.5768 21.7141 94.8437 21.2258 94.9669 20.618C95.0645 20.1453 95.0645 19.8908 94.9721 19.4025C94.7667 18.3323 94.2072 17.6102 93.2267 17.1531C92.5901 16.8518 91.9279 16.7946 91.2554 16.9713ZM92.2154 17.8804C92.3335 17.9531 92.4977 18.1245 92.5799 18.2544C92.7133 18.4622 92.7339 18.5505 92.7339 18.8466C92.7339 19.1531 92.7133 19.2258 92.5696 19.444C92.3335 19.7973 91.9433 20.005 91.5737 19.9687C90.583 19.87 90.1825 18.7115 90.9012 18.0206C91.2606 17.6726 91.7996 17.6102 92.2154 17.8804Z" fill="black"/>
<path d="M100.023 16.9453C99.0942 17.1583 98.3807 17.7089 97.97 18.5297C97.7185 19.0284 97.6415 19.3868 97.6415 19.9842C97.6415 20.8933 97.9135 21.5479 98.5552 22.192C99.161 22.7998 99.8386 23.07 100.716 23.0596C101.907 23.044 102.996 22.3115 103.463 21.205C103.586 20.9141 103.72 20.27 103.72 19.9583C103.72 19.5894 103.576 18.9713 103.406 18.6076C102.816 17.3661 101.343 16.6388 100.023 16.9453ZM101.322 17.7557C101.538 17.8128 101.892 18.1089 102 18.3167C102.108 18.5349 102.144 18.9037 102.077 19.1583C101.99 19.4855 101.615 19.844 101.261 19.9323C100.578 20.0985 99.8694 19.5375 99.8694 18.831C99.8694 18.5868 100.029 18.2336 100.224 18.0414C100.537 17.7349 100.906 17.6362 101.322 17.7557Z" fill="black"/>
<mask id="path-15-outside-1_25_35" maskUnits="userSpaceOnUse" x="3" y="11" width="246" height="19" fill="black">
<rect fill="white" x="3" y="11" width="246" height="19"/>
<path d="M12.6992 26.5977C13.8164 26.5977 14.6758 26.2969 15.2773 25.6953C15.8789 25.0938 16.1797 24.2344 16.1797 23.1172V18.0781C16.1797 17.5312 16.1016 17.043 15.9453 16.6133C15.7891 16.1836 15.5586 15.8203 15.2539 15.5234C14.957 15.2188 14.5938 14.9883 14.1641 14.832C13.7344 14.6758 13.2461 14.5977 12.6992 14.5977H6.55859V26.5977H12.6992ZM4.15625 29V12.1953H12.6992C13.5977 12.1953 14.4062 12.3359 15.125 12.6172C15.8516 12.8906 16.4688 13.2852 16.9766 13.8008C17.4922 14.3086 17.8867 14.9258 18.1602 15.6523C18.4414 16.3789 18.582 17.1875 18.582 18.0781V23.1172C18.582 24.0078 18.4414 24.8164 18.1602 25.543C17.8867 26.2695 17.4922 26.8906 16.9766 27.4062C16.4688 27.9141 15.8516 28.3086 15.125 28.5898C14.4062 28.8633 13.5977 29 12.6992 29H4.15625ZM35.7148 18.1953C35.7148 20.5391 34.7148 21.875 32.7148 22.2031L35.8789 29H33.2188L30.1016 22.2852H24.8398V29H22.4375V12.1953H31.6367C34.3555 12.1953 35.7148 13.5586 35.7148 16.2852V18.1953ZM24.8398 19.8828H31.5078C32.1484 19.8828 32.6094 19.7422 32.8906 19.4609C33.1719 19.1797 33.3125 18.7188 33.3125 18.0781V16.4023C33.3125 15.7617 33.1719 15.3008 32.8906 15.0195C32.6094 14.7383 32.1484 14.5977 31.5078 14.5977H24.8398V19.8828ZM54.1367 26.5977C54.1367 26.9258 54.0742 27.2383 53.9492 27.5352C53.8242 27.8242 53.6523 28.0781 53.4336 28.2969C53.2148 28.5156 52.957 28.6875 52.6602 28.8125C52.3711 28.9375 52.0625 29 51.7344 29H42.1367C41.8086 29 41.4961 28.9375 41.1992 28.8125C40.9102 28.6875 40.6562 28.5156 40.4375 28.2969C40.2188 28.0781 40.0469 27.8242 39.9219 27.5352C39.7969 27.2383 39.7344 26.9258 39.7344 26.5977V14.5977C39.7344 14.2695 39.7969 13.9609 39.9219 13.6719C40.0469 13.375 40.2188 13.1211 40.4375 12.9102C40.6562 12.6914 40.9102 12.5195 41.1992 12.3945C41.4961 12.2617 41.8086 12.1953 42.1367 12.1953H51.7344C52.0625 12.1953 52.3711 12.2617 52.6602 12.3945C52.957 12.5195 53.2148 12.6914 53.4336 12.9102C53.6523 13.1211 53.8242 13.375 53.9492 13.6719C54.0742 13.9609 54.1367 14.2695 54.1367 14.5977V26.5977ZM42.1367 14.5977V26.5977H51.7344V14.5977H42.1367ZM60.8633 12.1953V29H58.4609V12.1953H60.8633ZM73.7305 26.5977C74.8477 26.5977 75.707 26.2969 76.3086 25.6953C76.9102 25.0938 77.2109 24.2344 77.2109 23.1172V18.0781C77.2109 17.5312 77.1328 17.043 76.9766 16.6133C76.8203 16.1836 76.5898 15.8203 76.2852 15.5234C75.9883 15.2188 75.625 14.9883 75.1953 14.832C74.7656 14.6758 74.2773 14.5977 73.7305 14.5977H67.5898V26.5977H73.7305ZM65.1875 29V12.1953H73.7305C74.6289 12.1953 75.4375 12.3359 76.1562 12.6172C76.8828 12.8906 77.5 13.2852 78.0078 13.8008C78.5234 14.3086 78.918 14.9258 79.1914 15.6523C79.4727 16.3789 79.6133 17.1875 79.6133 18.0781V23.1172C79.6133 24.0078 79.4727 24.8164 79.1914 25.543C78.918 26.2695 78.5234 26.8906 78.0078 27.4062C77.5 27.9141 76.8828 28.3086 76.1562 28.5898C75.4375 28.8633 74.6289 29 73.7305 29H65.1875ZM112.25 12.1953H124.496V14.5977H114.652V19.4023H123.055V21.8047H114.652V26.5977H124.496V29H112.25V12.1953ZM129.676 12.1953L134.164 18.4883L138.676 12.1953H141.582L135.629 20.5273L141.711 29H138.805L134.164 22.543L129.559 29H126.652L132.734 20.5273L126.781 12.1953H129.676ZM144.594 14.5977C144.594 14.2695 144.656 13.9609 144.781 13.6719C144.906 13.375 145.078 13.1211 145.297 12.9102C145.516 12.6914 145.77 12.5195 146.059 12.3945C146.355 12.2617 146.668 12.1953 146.996 12.1953H156.113C156.441 12.1953 156.75 12.2617 157.039 12.3945C157.336 12.5195 157.594 12.6914 157.812 12.9102C158.031 13.1211 158.203 13.375 158.328 13.6719C158.453 13.9609 158.516 14.2695 158.516 14.5977V16.7656H156.113V14.5977H146.996V26.5977H156.113V24.4414H158.516V26.5977C158.516 26.9258 158.453 27.2383 158.328 27.5352C158.203 27.8242 158.031 28.0781 157.812 28.2969C157.594 28.5156 157.336 28.6875 157.039 28.8125C156.75 28.9375 156.441 29 156.113 29H146.996C146.668 29 146.355 28.9375 146.059 28.8125C145.77 28.6875 145.516 28.5156 145.297 28.2969C145.078 28.0781 144.906 27.8242 144.781 27.5352C144.656 27.2383 144.594 26.9258 144.594 26.5977V14.5977ZM176.785 12.1953V29H174.383V21.8047H164.762V29H162.359V12.1953H164.762V19.4023H174.383V12.1953H176.785ZM188.551 12.1953L195.031 29H192.629L191.141 25.1328H183.559L182.07 29H179.668L186.148 12.1953H188.551ZM184.473 22.7305H190.215L187.355 15.3242L184.473 22.7305ZM200.316 29H197.914V12.1953H200.316L210.418 25.2266V12.1953H212.82V29H210.418L200.316 15.9688V29ZM217.133 14.5977C217.133 14.2695 217.195 13.9609 217.32 13.6719C217.445 13.375 217.617 13.1211 217.836 12.9102C218.055 12.6914 218.309 12.5195 218.598 12.3945C218.895 12.2617 219.207 12.1953 219.535 12.1953H228.652C228.98 12.1953 229.289 12.2617 229.578 12.3945C229.875 12.5195 230.133 12.6914 230.352 12.9102C230.57 13.1211 230.742 13.375 230.867 13.6719C230.992 13.9609 231.055 14.2695 231.055 14.5977V16.7656H228.652V14.5977H219.535V26.5977H228.652V22.5195H224.094V20.1172H231.055V26.5977C231.055 26.9258 230.992 27.2383 230.867 27.5352C230.742 27.8242 230.57 28.0781 230.352 28.2969C230.133 28.5156 229.875 28.6875 229.578 28.8125C229.289 28.9375 228.98 29 228.652 29H219.535C219.207 29 218.895 28.9375 218.598 28.8125C218.309 28.6875 218.055 28.5156 217.836 28.2969C217.617 28.0781 217.445 27.8242 217.32 27.5352C217.195 27.2383 217.133 26.9258 217.133 26.5977V14.5977ZM235.367 12.1953H247.613V14.5977H237.77V19.4023H246.172V21.8047H237.77V26.5977H247.613V29H235.367V12.1953Z"/>
</mask>
<g filter="url(#filter1_i_25_35)">
<path d="M12.6992 26.5977C13.8164 26.5977 14.6758 26.2969 15.2773 25.6953C15.8789 25.0938 16.1797 24.2344 16.1797 23.1172V18.0781C16.1797 17.5312 16.1016 17.043 15.9453 16.6133C15.7891 16.1836 15.5586 15.8203 15.2539 15.5234C14.957 15.2188 14.5938 14.9883 14.1641 14.832C13.7344 14.6758 13.2461 14.5977 12.6992 14.5977H6.55859V26.5977H12.6992ZM4.15625 29V12.1953H12.6992C13.5977 12.1953 14.4062 12.3359 15.125 12.6172C15.8516 12.8906 16.4688 13.2852 16.9766 13.8008C17.4922 14.3086 17.8867 14.9258 18.1602 15.6523C18.4414 16.3789 18.582 17.1875 18.582 18.0781V23.1172C18.582 24.0078 18.4414 24.8164 18.1602 25.543C17.8867 26.2695 17.4922 26.8906 16.9766 27.4062C16.4688 27.9141 15.8516 28.3086 15.125 28.5898C14.4062 28.8633 13.5977 29 12.6992 29H4.15625ZM35.7148 18.1953C35.7148 20.5391 34.7148 21.875 32.7148 22.2031L35.8789 29H33.2188L30.1016 22.2852H24.8398V29H22.4375V12.1953H31.6367C34.3555 12.1953 35.7148 13.5586 35.7148 16.2852V18.1953ZM24.8398 19.8828H31.5078C32.1484 19.8828 32.6094 19.7422 32.8906 19.4609C33.1719 19.1797 33.3125 18.7188 33.3125 18.0781V16.4023C33.3125 15.7617 33.1719 15.3008 32.8906 15.0195C32.6094 14.7383 32.1484 14.5977 31.5078 14.5977H24.8398V19.8828ZM54.1367 26.5977C54.1367 26.9258 54.0742 27.2383 53.9492 27.5352C53.8242 27.8242 53.6523 28.0781 53.4336 28.2969C53.2148 28.5156 52.957 28.6875 52.6602 28.8125C52.3711 28.9375 52.0625 29 51.7344 29H42.1367C41.8086 29 41.4961 28.9375 41.1992 28.8125C40.9102 28.6875 40.6562 28.5156 40.4375 28.2969C40.2188 28.0781 40.0469 27.8242 39.9219 27.5352C39.7969 27.2383 39.7344 26.9258 39.7344 26.5977V14.5977C39.7344 14.2695 39.7969 13.9609 39.9219 13.6719C40.0469 13.375 40.2188 13.1211 40.4375 12.9102C40.6562 12.6914 40.9102 12.5195 41.1992 12.3945C41.4961 12.2617 41.8086 12.1953 42.1367 12.1953H51.7344C52.0625 12.1953 52.3711 12.2617 52.6602 12.3945C52.957 12.5195 53.2148 12.6914 53.4336 12.9102C53.6523 13.1211 53.8242 13.375 53.9492 13.6719C54.0742 13.9609 54.1367 14.2695 54.1367 14.5977V26.5977ZM42.1367 14.5977V26.5977H51.7344V14.5977H42.1367ZM60.8633 12.1953V29H58.4609V12.1953H60.8633ZM73.7305 26.5977C74.8477 26.5977 75.707 26.2969 76.3086 25.6953C76.9102 25.0938 77.2109 24.2344 77.2109 23.1172V18.0781C77.2109 17.5312 77.1328 17.043 76.9766 16.6133C76.8203 16.1836 76.5898 15.8203 76.2852 15.5234C75.9883 15.2188 75.625 14.9883 75.1953 14.832C74.7656 14.6758 74.2773 14.5977 73.7305 14.5977H67.5898V26.5977H73.7305ZM65.1875 29V12.1953H73.7305C74.6289 12.1953 75.4375 12.3359 76.1562 12.6172C76.8828 12.8906 77.5 13.2852 78.0078 13.8008C78.5234 14.3086 78.918 14.9258 79.1914 15.6523C79.4727 16.3789 79.6133 17.1875 79.6133 18.0781V23.1172C79.6133 24.0078 79.4727 24.8164 79.1914 25.543C78.918 26.2695 78.5234 26.8906 78.0078 27.4062C77.5 27.9141 76.8828 28.3086 76.1562 28.5898C75.4375 28.8633 74.6289 29 73.7305 29H65.1875ZM112.25 12.1953H124.496V14.5977H114.652V19.4023H123.055V21.8047H114.652V26.5977H124.496V29H112.25V12.1953ZM129.676 12.1953L134.164 18.4883L138.676 12.1953H141.582L135.629 20.5273L141.711 29H138.805L134.164 22.543L129.559 29H126.652L132.734 20.5273L126.781 12.1953H129.676ZM144.594 14.5977C144.594 14.2695 144.656 13.9609 144.781 13.6719C144.906 13.375 145.078 13.1211 145.297 12.9102C145.516 12.6914 145.77 12.5195 146.059 12.3945C146.355 12.2617 146.668 12.1953 146.996 12.1953H156.113C156.441 12.1953 156.75 12.2617 157.039 12.3945C157.336 12.5195 157.594 12.6914 157.812 12.9102C158.031 13.1211 158.203 13.375 158.328 13.6719C158.453 13.9609 158.516 14.2695 158.516 14.5977V16.7656H156.113V14.5977H146.996V26.5977H156.113V24.4414H158.516V26.5977C158.516 26.9258 158.453 27.2383 158.328 27.5352C158.203 27.8242 158.031 28.0781 157.812 28.2969C157.594 28.5156 157.336 28.6875 157.039 28.8125C156.75 28.9375 156.441 29 156.113 29H146.996C146.668 29 146.355 28.9375 146.059 28.8125C145.77 28.6875 145.516 28.5156 145.297 28.2969C145.078 28.0781 144.906 27.8242 144.781 27.5352C144.656 27.2383 144.594 26.9258 144.594 26.5977V14.5977ZM176.785 12.1953V29H174.383V21.8047H164.762V29H162.359V12.1953H164.762V19.4023H174.383V12.1953H176.785ZM188.551 12.1953L195.031 29H192.629L191.141 25.1328H183.559L182.07 29H179.668L186.148 12.1953H188.551ZM184.473 22.7305H190.215L187.355 15.3242L184.473 22.7305ZM200.316 29H197.914V12.1953H200.316L210.418 25.2266V12.1953H212.82V29H210.418L200.316 15.9688V29ZM217.133 14.5977C217.133 14.2695 217.195 13.9609 217.32 13.6719C217.445 13.375 217.617 13.1211 217.836 12.9102C218.055 12.6914 218.309 12.5195 218.598 12.3945C218.895 12.2617 219.207 12.1953 219.535 12.1953H228.652C228.98 12.1953 229.289 12.2617 229.578 12.3945C229.875 12.5195 230.133 12.6914 230.352 12.9102C230.57 13.1211 230.742 13.375 230.867 13.6719C230.992 13.9609 231.055 14.2695 231.055 14.5977V16.7656H228.652V14.5977H219.535V26.5977H228.652V22.5195H224.094V20.1172H231.055V26.5977C231.055 26.9258 230.992 27.2383 230.867 27.5352C230.742 27.8242 230.57 28.0781 230.352 28.2969C230.133 28.5156 229.875 28.6875 229.578 28.8125C229.289 28.9375 228.98 29 228.652 29H219.535C219.207 29 218.895 28.9375 218.598 28.8125C218.309 28.6875 218.055 28.5156 217.836 28.2969C217.617 28.0781 217.445 27.8242 217.32 27.5352C217.195 27.2383 217.133 26.9258 217.133 26.5977V14.5977ZM235.367 12.1953H247.613V14.5977H237.77V19.4023H246.172V21.8047H237.77V26.5977H247.613V29H235.367V12.1953Z" fill="#EE9112"/>
</g>
<path d="M15.2539 15.5234L14.5377 16.2213L14.5467 16.2306L14.556 16.2397L15.2539 15.5234ZM6.55859 14.5977V13.5977H5.55859V14.5977H6.55859ZM6.55859 26.5977H5.55859V27.5977H6.55859V26.5977ZM4.15625 29H3.15625V30H4.15625V29ZM4.15625 12.1953V11.1953H3.15625V12.1953H4.15625ZM15.125 12.6172L14.7606 13.5485L14.7728 13.5531L15.125 12.6172ZM16.9766 13.8008L16.2641 14.5025L16.2694 14.5079L16.2749 14.5133L16.9766 13.8008ZM18.1602 15.6523L17.2242 16.0046L17.2276 16.0133L18.1602 15.6523ZM18.1602 25.543L17.2275 25.182L17.2242 25.1907L18.1602 25.543ZM15.125 28.5898L15.4806 29.5245L15.486 29.5224L15.125 28.5898ZM12.6992 27.5977C13.9953 27.5977 15.1421 27.2448 15.9845 26.4024L14.5702 24.9882C14.2095 25.349 13.6375 25.5977 12.6992 25.5977V27.5977ZM15.9845 26.4024C16.8268 25.56 17.1797 24.4133 17.1797 23.1172H15.1797C15.1797 24.0554 14.931 24.6275 14.5702 24.9882L15.9845 26.4024ZM17.1797 23.1172V18.0781H15.1797V23.1172H17.1797ZM17.1797 18.0781C17.1797 17.4369 17.0881 16.8299 16.8851 16.2715L15.0055 16.955C15.115 17.2561 15.1797 17.6256 15.1797 18.0781H17.1797ZM16.8851 16.2715C16.6813 15.7112 16.3722 15.2168 15.9518 14.8072L14.556 16.2397C14.745 16.4238 14.8968 16.656 15.0055 16.955L16.8851 16.2715ZM15.9701 14.8256C15.5605 14.4052 15.0662 14.096 14.5058 13.8922L13.8223 15.7718C14.1213 15.8806 14.3536 16.0323 14.5377 16.2213L15.9701 14.8256ZM14.5058 13.8922C13.9475 13.6892 13.3404 13.5977 12.6992 13.5977V15.5977C13.1518 15.5977 13.5213 15.6624 13.8223 15.7718L14.5058 13.8922ZM12.6992 13.5977H6.55859V15.5977H12.6992V13.5977ZM5.55859 14.5977V26.5977H7.55859V14.5977H5.55859ZM6.55859 27.5977H12.6992V25.5977H6.55859V27.5977ZM5.15625 29V12.1953H3.15625V29H5.15625ZM4.15625 13.1953H12.6992V11.1953H4.15625V13.1953ZM12.6992 13.1953C13.4931 13.1953 14.1754 13.3194 14.7606 13.5484L15.4894 11.6859C14.6371 11.3525 13.7022 11.1953 12.6992 11.1953V13.1953ZM14.7728 13.5531C15.3737 13.7793 15.8652 14.0975 16.2641 14.5025L17.689 13.0991C17.0723 12.4728 16.3294 12.002 15.4772 11.6813L14.7728 13.5531ZM16.2749 14.5133C16.6799 14.9121 16.9981 15.4036 17.2242 16.0046L19.0961 15.3001C18.7754 14.4479 18.3045 13.7051 17.6783 13.0883L16.2749 14.5133ZM17.2276 16.0133C17.4584 16.6095 17.582 17.2935 17.582 18.0781H19.582C19.582 17.0815 19.4244 16.1483 19.0927 15.2913L17.2276 16.0133ZM17.582 18.0781V23.1172H19.582V18.0781H17.582ZM17.582 23.1172C17.582 23.9018 17.4584 24.5858 17.2276 25.182L19.0927 25.904C19.4244 25.047 19.582 24.1138 19.582 23.1172H17.582ZM17.2242 25.1907C16.9976 25.7928 16.678 26.2906 16.2695 26.6991L17.6837 28.1134C18.3064 27.4907 18.7758 26.7462 19.0961 25.8952L17.2242 25.1907ZM16.2695 26.6991C15.8682 27.1004 15.3719 27.422 14.764 27.6573L15.486 29.5224C16.3312 29.1952 17.0693 28.7277 17.6837 28.1134L16.2695 26.6991ZM14.7694 27.6552C14.1816 27.8788 13.4962 28 12.6992 28V30C13.6991 30 14.6309 29.8477 15.4806 29.5245L14.7694 27.6552ZM12.6992 28H4.15625V30H12.6992V28ZM32.7148 22.2031L32.5529 21.2163L31.2518 21.4298L31.8083 22.6252L32.7148 22.2031ZM35.8789 29V30H37.4475L36.7855 28.578L35.8789 29ZM33.2188 29L32.3117 29.4211L32.5805 30H33.2188V29ZM30.1016 22.2852L31.0086 21.8641L30.7398 21.2852H30.1016V22.2852ZM24.8398 22.2852V21.2852H23.8398V22.2852H24.8398ZM24.8398 29V30H25.8398V29H24.8398ZM22.4375 29H21.4375V30H22.4375V29ZM22.4375 12.1953V11.1953H21.4375V12.1953H22.4375ZM24.8398 19.8828H23.8398V20.8828H24.8398V19.8828ZM24.8398 14.5977V13.5977H23.8398V14.5977H24.8398ZM34.7148 18.1953C34.7148 19.2363 34.4917 19.9184 34.1643 20.3558C33.8511 20.7743 33.3559 21.0846 32.5529 21.2163L32.8767 23.1899C34.0737 22.9936 35.0786 22.4718 35.7654 21.5543C36.438 20.6558 36.7148 19.4981 36.7148 18.1953H34.7148ZM31.8083 22.6252L34.9723 29.422L36.7855 28.578L33.6214 21.7811L31.8083 22.6252ZM35.8789 28H33.2188V30H35.8789V28ZM34.1258 28.5789L31.0086 21.8641L29.1945 22.7062L32.3117 29.4211L34.1258 28.5789ZM30.1016 21.2852H24.8398V23.2852H30.1016V21.2852ZM23.8398 22.2852V29H25.8398V22.2852H23.8398ZM24.8398 28H22.4375V30H24.8398V28ZM23.4375 29V12.1953H21.4375V29H23.4375ZM22.4375 13.1953H31.6367V11.1953H22.4375V13.1953ZM31.6367 13.1953C32.8412 13.1953 33.5611 13.4965 33.9872 13.9239C34.4138 14.3517 34.7148 15.0753 34.7148 16.2852H36.7148C36.7148 14.7685 36.3362 13.4471 35.4034 12.5117C34.4702 11.5757 33.151 11.1953 31.6367 11.1953V13.1953ZM34.7148 16.2852V18.1953H36.7148V16.2852H34.7148ZM24.8398 20.8828H31.5078V18.8828H24.8398V20.8828ZM31.5078 20.8828C32.2582 20.8828 33.042 20.7238 33.5977 20.168L32.1835 18.7538C32.1767 18.7606 32.0386 18.8828 31.5078 18.8828V20.8828ZM33.5977 20.168C34.1534 19.6123 34.3125 18.8286 34.3125 18.0781H32.3125C32.3125 18.6089 32.1903 18.747 32.1835 18.7538L33.5977 20.168ZM34.3125 18.0781V16.4023H32.3125V18.0781H34.3125ZM34.3125 16.4023C34.3125 15.6519 34.1534 14.8681 33.5977 14.3124L32.1835 15.7266C32.1903 15.7334 32.3125 15.8715 32.3125 16.4023H34.3125ZM33.5977 14.3124C33.042 13.7567 32.2582 13.5977 31.5078 13.5977V15.5977C32.0386 15.5977 32.1767 15.7199 32.1835 15.7266L33.5977 14.3124ZM31.5078 13.5977H24.8398V15.5977H31.5078V13.5977ZM23.8398 14.5977V19.8828H25.8398V14.5977H23.8398ZM53.9492 27.5352L54.8671 27.9321L54.8709 27.9232L53.9492 27.5352ZM52.6602 28.8125L52.2721 27.8908L52.2632 27.8946L52.6602 28.8125ZM41.1992 28.8125L40.8023 29.7304L40.8112 29.7341L41.1992 28.8125ZM39.9219 27.5352L39.0002 27.9232L39.004 27.9321L39.9219 27.5352ZM39.9219 13.6719L40.8398 14.0688L40.8435 14.0599L39.9219 13.6719ZM40.4375 12.9102L41.1316 13.63L41.1382 13.6237L41.1446 13.6173L40.4375 12.9102ZM41.1992 12.3945L41.5962 13.3125L41.6076 13.3073L41.1992 12.3945ZM52.6602 12.3945L52.2427 13.3032L52.2573 13.3099L52.2721 13.3162L52.6602 12.3945ZM53.4336 12.9102L52.7265 13.6173L52.7329 13.6237L52.7395 13.63L53.4336 12.9102ZM53.9492 13.6719L53.0275 14.0599L53.0314 14.0688L53.9492 13.6719ZM42.1367 14.5977V13.5977H41.1367V14.5977H42.1367ZM42.1367 26.5977H41.1367V27.5977H42.1367V26.5977ZM51.7344 26.5977V27.5977H52.7344V26.5977H51.7344ZM51.7344 14.5977H52.7344V13.5977H51.7344V14.5977ZM53.1367 26.5977C53.1367 26.795 53.0999 26.9754 53.0276 27.1471L54.8709 27.9232C55.0486 27.5012 55.1367 27.0565 55.1367 26.5977H53.1367ZM53.0314 27.1382C52.9555 27.3137 52.8544 27.4618 52.7265 27.5898L54.1407 29.004C54.4503 28.6944 54.6929 28.3348 54.8671 27.9321L53.0314 27.1382ZM52.7265 27.5898C52.603 27.7133 52.4548 27.814 52.2721 27.8909L53.0482 29.7341C53.4593 29.561 53.8267 29.318 54.1407 29.004L52.7265 27.5898ZM52.2632 27.8946C52.1047 27.9632 51.9318 28 51.7344 28V30C52.1932 30 52.6374 29.9118 53.0571 29.7304L52.2632 27.8946ZM51.7344 28H42.1367V30H51.7344V28ZM42.1367 28C41.9393 28 41.759 27.9632 41.5873 27.8909L40.8112 29.7341C41.2332 29.9118 41.6779 30 42.1367 30V28ZM41.5961 27.8946C41.4207 27.8188 41.2725 27.7177 41.1446 27.5898L39.7304 29.004C40.04 29.3135 40.3996 29.5562 40.8023 29.7304L41.5961 27.8946ZM41.1446 27.5898C41.0167 27.4618 40.9156 27.3137 40.8397 27.1382L39.004 27.9321C39.1782 28.3348 39.4208 28.6944 39.7304 29.004L41.1446 27.5898ZM40.8435 27.1471C40.7712 26.9754 40.7344 26.795 40.7344 26.5977H38.7344C38.7344 27.0565 38.8225 27.5012 39.0002 27.9232L40.8435 27.1471ZM40.7344 26.5977V14.5977H38.7344V26.5977H40.7344ZM40.7344 14.5977C40.7344 14.4002 40.7712 14.2273 40.8397 14.0688L39.004 13.275C38.8226 13.6946 38.7344 14.1388 38.7344 14.5977H40.7344ZM40.8435 14.0599C40.9191 13.8803 41.0162 13.7413 41.1316 13.63L39.7434 12.1903C39.4213 12.5009 39.1746 12.8697 39.0002 13.2838L40.8435 14.0599ZM41.1446 13.6173C41.2725 13.4893 41.4207 13.3883 41.5961 13.3124L40.8023 11.4767C40.3996 11.6508 40.04 11.8935 39.7304 12.203L41.1446 13.6173ZM41.6076 13.3073C41.7748 13.2325 41.948 13.1953 42.1367 13.1953V11.1953C41.6691 11.1953 41.2174 11.2909 40.7909 11.4817L41.6076 13.3073ZM42.1367 13.1953H51.7344V11.1953H42.1367V13.1953ZM51.7344 13.1953C51.923 13.1953 52.0887 13.2325 52.2427 13.3032L53.0777 11.4859C52.6535 11.291 52.202 11.1953 51.7344 11.1953V13.1953ZM52.2721 13.3162C52.4548 13.3931 52.603 13.4937 52.7265 13.6173L54.1407 12.203C53.8267 11.8891 53.4593 11.646 53.0482 11.4729L52.2721 13.3162ZM52.7395 13.63C52.8549 13.7413 52.952 13.8803 53.0276 14.0599L54.8709 13.2838C54.6965 12.8697 54.4498 12.5009 54.1277 12.1903L52.7395 13.63ZM53.0314 14.0688C53.0999 14.2273 53.1367 14.4002 53.1367 14.5977H55.1367C55.1367 14.1388 55.0485 13.6946 54.8671 13.275L53.0314 14.0688ZM53.1367 14.5977V26.5977H55.1367V14.5977H53.1367ZM41.1367 14.5977V26.5977H43.1367V14.5977H41.1367ZM42.1367 27.5977H51.7344V25.5977H42.1367V27.5977ZM52.7344 26.5977V14.5977H50.7344V26.5977H52.7344ZM51.7344 13.5977H42.1367V15.5977H51.7344V13.5977ZM60.8633 12.1953H61.8633V11.1953H60.8633V12.1953ZM60.8633 29V30H61.8633V29H60.8633ZM58.4609 29H57.4609V30H58.4609V29ZM58.4609 12.1953V11.1953H57.4609V12.1953H58.4609ZM59.8633 12.1953V29H61.8633V12.1953H59.8633ZM60.8633 28H58.4609V30H60.8633V28ZM59.4609 29V12.1953H57.4609V29H59.4609ZM58.4609 13.1953H60.8633V11.1953H58.4609V13.1953ZM76.2852 15.5234L75.5689 16.2213L75.578 16.2306L75.5873 16.2397L76.2852 15.5234ZM67.5898 14.5977V13.5977H66.5898V14.5977H67.5898ZM67.5898 26.5977H66.5898V27.5977H67.5898V26.5977ZM65.1875 29H64.1875V30H65.1875V29ZM65.1875 12.1953V11.1953H64.1875V12.1953H65.1875ZM76.1562 12.6172L75.7918 13.5485L75.804 13.5531L76.1562 12.6172ZM78.0078 13.8008L77.2953 14.5025L77.3007 14.5079L77.3061 14.5133L78.0078 13.8008ZM79.1914 15.6523L78.2555 16.0046L78.2588 16.0133L79.1914 15.6523ZM79.1914 25.543L78.2588 25.182L78.2555 25.1907L79.1914 25.543ZM76.1562 28.5898L76.5118 29.5245L76.5172 29.5224L76.1562 28.5898ZM73.7305 27.5977C75.0266 27.5977 76.1733 27.2448 77.0157 26.4024L75.6015 24.9882C75.2407 25.349 74.6687 25.5977 73.7305 25.5977V27.5977ZM77.0157 26.4024C77.8581 25.56 78.2109 24.4133 78.2109 23.1172H76.2109C76.2109 24.0554 75.9622 24.6275 75.6015 24.9882L77.0157 26.4024ZM78.2109 23.1172V18.0781H76.2109V23.1172H78.2109ZM78.2109 18.0781C78.2109 17.4369 78.1194 16.8299 77.9164 16.2715L76.0368 16.955C76.1462 17.2561 76.2109 17.6256 76.2109 18.0781H78.2109ZM77.9164 16.2715C77.7126 15.7112 77.4034 15.2168 76.983 14.8072L75.5873 16.2397C75.7763 16.4238 75.928 16.656 76.0368 16.955L77.9164 16.2715ZM77.0014 14.8256C76.5918 14.4052 76.0974 14.096 75.5371 13.8922L74.8536 15.7718C75.1526 15.8806 75.3848 16.0323 75.5689 16.2213L77.0014 14.8256ZM75.5371 13.8922C74.9787 13.6892 74.3716 13.5977 73.7305 13.5977V15.5977C74.183 15.5977 74.5525 15.6624 74.8536 15.7718L75.5371 13.8922ZM73.7305 13.5977H67.5898V15.5977H73.7305V13.5977ZM66.5898 14.5977V26.5977H68.5898V14.5977H66.5898ZM67.5898 27.5977H73.7305V25.5977H67.5898V27.5977ZM66.1875 29V12.1953H64.1875V29H66.1875ZM65.1875 13.1953H73.7305V11.1953H65.1875V13.1953ZM73.7305 13.1953C74.5244 13.1953 75.2066 13.3194 75.7919 13.5484L76.5206 11.6859C75.6684 11.3525 74.7335 11.1953 73.7305 11.1953V13.1953ZM75.804 13.5531C76.405 13.7793 76.8965 14.0975 77.2953 14.5025L78.7203 13.0991C78.1035 12.4728 77.3606 12.002 76.5085 11.6813L75.804 13.5531ZM77.3061 14.5133C77.7111 14.9121 78.0293 15.4036 78.2555 16.0046L80.1273 15.3001C79.8066 14.4479 79.3358 13.7051 78.7095 13.0883L77.3061 14.5133ZM78.2588 16.0133C78.4896 16.6095 78.6133 17.2935 78.6133 18.0781H80.6133C80.6133 17.0815 80.4557 16.1483 80.124 15.2913L78.2588 16.0133ZM78.6133 18.0781V23.1172H80.6133V18.0781H78.6133ZM78.6133 23.1172C78.6133 23.9018 78.4896 24.5858 78.2588 25.182L80.124 25.904C80.4557 25.047 80.6133 24.1138 80.6133 23.1172H78.6133ZM78.2555 25.1907C78.0289 25.7928 77.7093 26.2906 77.3007 26.6991L78.7149 28.1134C79.3376 27.4907 79.807 26.7462 80.1273 25.8952L78.2555 25.1907ZM77.3007 26.6991C76.8994 27.1004 76.4032 27.422 75.7953 27.6573L76.5172 29.5224C77.3625 29.1952 78.1006 28.7277 78.7149 28.1134L77.3007 26.6991ZM75.8007 27.6552C75.2129 27.8788 74.5275 28 73.7305 28V30C74.7303 30 75.6621 29.8477 76.5118 29.5245L75.8007 27.6552ZM73.7305 28H65.1875V30H73.7305V28ZM112.25 12.1953V11.1953H111.25V12.1953H112.25ZM124.496 12.1953H125.496V11.1953H124.496V12.1953ZM124.496 14.5977V15.5977H125.496V14.5977H124.496ZM114.652 14.5977V13.5977H113.652V14.5977H114.652ZM114.652 19.4023H113.652V20.4023H114.652V19.4023ZM123.055 19.4023H124.055V18.4023H123.055V19.4023ZM123.055 21.8047V22.8047H124.055V21.8047H123.055ZM114.652 21.8047V20.8047H113.652V21.8047H114.652ZM114.652 26.5977H113.652V27.5977H114.652V26.5977ZM124.496 26.5977H125.496V25.5977H124.496V26.5977ZM124.496 29V30H125.496V29H124.496ZM112.25 29H111.25V30H112.25V29ZM112.25 13.1953H124.496V11.1953H112.25V13.1953ZM123.496 12.1953V14.5977H125.496V12.1953H123.496ZM124.496 13.5977H114.652V15.5977H124.496V13.5977ZM113.652 14.5977V19.4023H115.652V14.5977H113.652ZM114.652 20.4023H123.055V18.4023H114.652V20.4023ZM122.055 19.4023V21.8047H124.055V19.4023H122.055ZM123.055 20.8047H114.652V22.8047H123.055V20.8047ZM113.652 21.8047V26.5977H115.652V21.8047H113.652ZM114.652 27.5977H124.496V25.5977H114.652V27.5977ZM123.496 26.5977V29H125.496V26.5977H123.496ZM124.496 28H112.25V30H124.496V28ZM113.25 29V12.1953H111.25V29H113.25ZM129.676 12.1953L130.49 11.6146L130.191 11.1953H129.676V12.1953ZM134.164 18.4883L133.35 19.0689L134.162 20.2075L134.977 19.071L134.164 18.4883ZM138.676 12.1953V11.1953H138.162L137.863 11.6126L138.676 12.1953ZM141.582 12.1953L142.396 12.7767L143.526 11.1953H141.582V12.1953ZM135.629 20.5273L134.815 19.946L134.399 20.5287L134.817 21.1105L135.629 20.5273ZM141.711 29V30H143.66L142.523 28.4169L141.711 29ZM138.805 29L137.993 29.5836L138.292 30H138.805V29ZM134.164 22.543L134.976 21.9594L134.161 20.8252L133.35 21.9623L134.164 22.543ZM129.559 29V30H130.074L130.373 29.5807L129.559 29ZM126.652 29L125.84 28.4169L124.704 30H126.652V29ZM132.734 20.5273L133.547 21.1105L133.964 20.5287L133.548 19.946L132.734 20.5273ZM126.781 12.1953V11.1953H124.838L125.968 12.7767L126.781 12.1953ZM128.862 12.776L133.35 19.0689L134.978 17.9076L130.49 11.6146L128.862 12.776ZM134.977 19.071L139.488 12.778L137.863 11.6126L133.351 17.9056L134.977 19.071ZM138.676 13.1953H141.582V11.1953H138.676V13.1953ZM140.768 11.614L134.815 19.946L136.443 21.1087L142.396 12.7767L140.768 11.614ZM134.817 21.1105L140.899 29.5831L142.523 28.4169L136.441 19.9442L134.817 21.1105ZM141.711 28H138.805V30H141.711V28ZM139.617 28.4164L134.976 21.9594L133.352 23.1266L137.993 29.5836L139.617 28.4164ZM133.35 21.9623L128.744 28.4193L130.373 29.5807L134.978 23.1236L133.35 21.9623ZM129.559 28H126.652V30H129.559V28ZM127.465 29.5831L133.547 21.1105L131.922 19.9442L125.84 28.4169L127.465 29.5831ZM133.548 19.946L127.595 11.614L125.968 12.7767L131.921 21.1087L133.548 19.946ZM126.781 13.1953H129.676V11.1953H126.781V13.1953ZM144.781 13.6719L145.699 14.0688L145.703 14.0599L144.781 13.6719ZM145.297 12.9102L145.991 13.63L145.998 13.6237L146.004 13.6173L145.297 12.9102ZM146.059 12.3945L146.456 13.3125L146.467 13.3073L146.059 12.3945ZM157.039 12.3945L156.622 13.3032L156.636 13.3099L156.651 13.3162L157.039 12.3945ZM157.812 12.9102L157.105 13.6173L157.112 13.6237L157.118 13.63L157.812 12.9102ZM158.328 13.6719L157.406 14.0599L157.41 14.0688L158.328 13.6719ZM158.516 16.7656V17.7656H159.516V16.7656H158.516ZM156.113 16.7656H155.113V17.7656H156.113V16.7656ZM156.113 14.5977H157.113V13.5977H156.113V14.5977ZM146.996 14.5977V13.5977H145.996V14.5977H146.996ZM146.996 26.5977H145.996V27.5977H146.996V26.5977ZM156.113 26.5977V27.5977H157.113V26.5977H156.113ZM156.113 24.4414V23.4414H155.113V24.4414H156.113ZM158.516 24.4414H159.516V23.4414H158.516V24.4414ZM158.328 27.5352L159.246 27.9321L159.25 27.9232L158.328 27.5352ZM157.039 28.8125L156.651 27.8908L156.642 27.8946L157.039 28.8125ZM146.059 28.8125L145.662 29.7304L145.671 29.7341L146.059 28.8125ZM144.781 27.5352L143.86 27.9232L143.863 27.9321L144.781 27.5352ZM145.594 14.5977C145.594 14.4002 145.631 14.2273 145.699 14.0688L143.863 13.275C143.682 13.6946 143.594 14.1388 143.594 14.5977H145.594ZM145.703 14.0599C145.779 13.8803 145.876 13.7413 145.991 13.63L144.603 12.1903C144.281 12.5009 144.034 12.8697 143.86 13.2838L145.703 14.0599ZM146.004 13.6173C146.132 13.4893 146.28 13.3883 146.456 13.3124L145.662 11.4767C145.259 11.6508 144.899 11.8935 144.59 12.203L146.004 13.6173ZM146.467 13.3073C146.634 13.2325 146.807 13.1953 146.996 13.1953V11.1953C146.529 11.1953 146.077 11.2909 145.65 11.4817L146.467 13.3073ZM146.996 13.1953H156.113V11.1953H146.996V13.1953ZM156.113 13.1953C156.302 13.1953 156.468 13.2325 156.622 13.3032L157.457 11.4859C157.032 11.291 156.581 11.1953 156.113 11.1953V13.1953ZM156.651 13.3162C156.834 13.3931 156.982 13.4937 157.105 13.6173L158.52 12.203C158.206 11.8891 157.838 11.646 157.427 11.4729L156.651 13.3162ZM157.118 13.63C157.234 13.7413 157.331 13.8803 157.406 14.0599L159.25 13.2838C159.075 12.8697 158.829 12.5009 158.507 12.1903L157.118 13.63ZM157.41 14.0688C157.479 14.2273 157.516 14.4002 157.516 14.5977H159.516C159.516 14.1388 159.427 13.6946 159.246 13.275L157.41 14.0688ZM157.516 14.5977V16.7656H159.516V14.5977H157.516ZM158.516 15.7656H156.113V17.7656H158.516V15.7656ZM157.113 16.7656V14.5977H155.113V16.7656H157.113ZM156.113 13.5977H146.996V15.5977H156.113V13.5977ZM145.996 14.5977V26.5977H147.996V14.5977H145.996ZM146.996 27.5977H156.113V25.5977H146.996V27.5977ZM157.113 26.5977V24.4414H155.113V26.5977H157.113ZM156.113 25.4414H158.516V23.4414H156.113V25.4414ZM157.516 24.4414V26.5977H159.516V24.4414H157.516ZM157.516 26.5977C157.516 26.795 157.479 26.9754 157.406 27.1471L159.25 27.9232C159.427 27.5012 159.516 27.0565 159.516 26.5977H157.516ZM157.41 27.1382C157.334 27.3137 157.233 27.4618 157.105 27.5898L158.52 29.004C158.829 28.6944 159.072 28.3348 159.246 27.9321L157.41 27.1382ZM157.105 27.5898C156.982 27.7133 156.834 27.814 156.651 27.8909L157.427 29.7341C157.838 29.561 158.206 29.318 158.52 29.004L157.105 27.5898ZM156.642 27.8946C156.484 27.9632 156.311 28 156.113 28V30C156.572 30 157.016 29.9118 157.436 29.7304L156.642 27.8946ZM156.113 28H146.996V30H156.113V28ZM146.996 28C146.799 28 146.618 27.9632 146.447 27.8909L145.671 29.7341C146.093 29.9118 146.537 30 146.996 30V28ZM146.456 27.8946C146.28 27.8188 146.132 27.7177 146.004 27.5898L144.59 29.004C144.899 29.3135 145.259 29.5562 145.662 29.7304L146.456 27.8946ZM146.004 27.5898C145.876 27.4618 145.775 27.3137 145.699 27.1382L143.863 27.9321C144.038 28.3348 144.28 28.6944 144.59 29.004L146.004 27.5898ZM145.703 27.1471C145.631 26.9754 145.594 26.795 145.594 26.5977H143.594C143.594 27.0565 143.682 27.5012 143.86 27.9232L145.703 27.1471ZM145.594 26.5977V14.5977H143.594V26.5977H145.594ZM176.785 12.1953H177.785V11.1953H176.785V12.1953ZM176.785 29V30H177.785V29H176.785ZM174.383 29H173.383V30H174.383V29ZM174.383 21.8047H175.383V20.8047H174.383V21.8047ZM164.762 21.8047V20.8047H163.762V21.8047H164.762ZM164.762 29V30H165.762V29H164.762ZM162.359 29H161.359V30H162.359V29ZM162.359 12.1953V11.1953H161.359V12.1953H162.359ZM164.762 12.1953H165.762V11.1953H164.762V12.1953ZM164.762 19.4023H163.762V20.4023H164.762V19.4023ZM174.383 19.4023V20.4023H175.383V19.4023H174.383ZM174.383 12.1953V11.1953H173.383V12.1953H174.383ZM175.785 12.1953V29H177.785V12.1953H175.785ZM176.785 28H174.383V30H176.785V28ZM175.383 29V21.8047H173.383V29H175.383ZM174.383 20.8047H164.762V22.8047H174.383V20.8047ZM163.762 21.8047V29H165.762V21.8047H163.762ZM164.762 28H162.359V30H164.762V28ZM163.359 29V12.1953H161.359V29H163.359ZM162.359 13.1953H164.762V11.1953H162.359V13.1953ZM163.762 12.1953V19.4023H165.762V12.1953H163.762ZM164.762 20.4023H174.383V18.4023H164.762V20.4023ZM175.383 19.4023V12.1953H173.383V19.4023H175.383ZM174.383 13.1953H176.785V11.1953H174.383V13.1953ZM188.551 12.1953L189.484 11.8355L189.237 11.1953H188.551V12.1953ZM195.031 29V30H196.489L195.964 28.6402L195.031 29ZM192.629 29L191.696 29.3592L191.942 30H192.629V29ZM191.141 25.1328L192.074 24.7736L191.827 24.1328H191.141V25.1328ZM183.559 25.1328V24.1328H182.872L182.625 24.7736L183.559 25.1328ZM182.07 29V30H182.757L183.004 29.3592L182.07 29ZM179.668 29L178.735 28.6402L178.211 30H179.668V29ZM186.148 12.1953V11.1953H185.462L185.215 11.8355L186.148 12.1953ZM184.473 22.7305L183.541 22.3677L183.01 23.7305H184.473V22.7305ZM190.215 22.7305V23.7305H191.673L191.148 22.3703L190.215 22.7305ZM187.355 15.3242L188.288 14.9641L187.359 12.5576L186.424 14.9615L187.355 15.3242ZM187.618 12.5551L194.098 29.3598L195.964 28.6402L189.484 11.8355L187.618 12.5551ZM195.031 28H192.629V30H195.031V28ZM193.562 28.6408L192.074 24.7736L190.207 25.492L191.696 29.3592L193.562 28.6408ZM191.141 24.1328H183.559V26.1328H191.141V24.1328ZM182.625 24.7736L181.137 28.6408L183.004 29.3592L184.492 25.492L182.625 24.7736ZM182.07 28H179.668V30H182.07V28ZM180.601 29.3598L187.081 12.5551L185.215 11.8355L178.735 28.6402L180.601 29.3598ZM186.148 13.1953H188.551V11.1953H186.148V13.1953ZM184.473 23.7305H190.215V21.7305H184.473V23.7305ZM191.148 22.3703L188.288 14.9641L186.423 15.6844L189.282 23.0906L191.148 22.3703ZM186.424 14.9615L183.541 22.3677L185.405 23.0932L188.287 15.6869L186.424 14.9615ZM200.316 29V30H201.316V29H200.316ZM197.914 29H196.914V30H197.914V29ZM197.914 12.1953V11.1953H196.914V12.1953H197.914ZM200.316 12.1953L201.107 11.5827L200.806 11.1953H200.316V12.1953ZM210.418 25.2266L209.628 25.8392L211.418 28.1488V25.2266H210.418ZM210.418 12.1953V11.1953H209.418V12.1953H210.418ZM212.82 12.1953H213.82V11.1953H212.82V12.1953ZM212.82 29V30H213.82V29H212.82ZM210.418 29L209.628 29.6127L209.928 30H210.418V29ZM200.316 15.9688L201.107 15.3561L199.316 13.0465V15.9688H200.316ZM200.316 28H197.914V30H200.316V28ZM198.914 29V12.1953H196.914V29H198.914ZM197.914 13.1953H200.316V11.1953H197.914V13.1953ZM199.526 12.808L209.628 25.8392L211.208 24.6139L201.107 11.5827L199.526 12.808ZM211.418 25.2266V12.1953H209.418V25.2266H211.418ZM210.418 13.1953H212.82V11.1953H210.418V13.1953ZM211.82 12.1953V29H213.82V12.1953H211.82ZM212.82 28H210.418V30H212.82V28ZM211.208 28.3873L201.107 15.3561L199.526 16.5814L209.628 29.6127L211.208 28.3873ZM199.316 15.9688V29H201.316V15.9688H199.316ZM217.32 13.6719L218.238 14.0688L218.242 14.0599L217.32 13.6719ZM217.836 12.9102L218.53 13.63L218.537 13.6237L218.543 13.6173L217.836 12.9102ZM218.598 12.3945L218.995 13.3125L219.006 13.3073L218.598 12.3945ZM229.578 12.3945L229.161 13.3032L229.175 13.3099L229.19 13.3162L229.578 12.3945ZM230.352 12.9102L229.644 13.6173L229.651 13.6237L229.657 13.63L230.352 12.9102ZM230.867 13.6719L229.946 14.0599L229.949 14.0688L230.867 13.6719ZM231.055 16.7656V17.7656H232.055V16.7656H231.055ZM228.652 16.7656H227.652V17.7656H228.652V16.7656ZM228.652 14.5977H229.652V13.5977H228.652V14.5977ZM219.535 14.5977V13.5977H218.535V14.5977H219.535ZM219.535 26.5977H218.535V27.5977H219.535V26.5977ZM228.652 26.5977V27.5977H229.652V26.5977H228.652ZM228.652 22.5195H229.652V21.5195H228.652V22.5195ZM224.094 22.5195H223.094V23.5195H224.094V22.5195ZM224.094 20.1172V19.1172H223.094V20.1172H224.094ZM231.055 20.1172H232.055V19.1172H231.055V20.1172ZM230.867 27.5352L231.785 27.9321L231.789 27.9232L230.867 27.5352ZM229.578 28.8125L229.19 27.8908L229.181 27.8946L229.578 28.8125ZM218.598 28.8125L218.201 29.7304L218.21 29.7341L218.598 28.8125ZM217.32 27.5352L216.399 27.9232L216.402 27.9321L217.32 27.5352ZM218.133 14.5977C218.133 14.4002 218.17 14.2273 218.238 14.0688L216.402 13.275C216.221 13.6946 216.133 14.1388 216.133 14.5977H218.133ZM218.242 14.0599C218.318 13.8803 218.415 13.7413 218.53 13.63L217.142 12.1903C216.82 12.5009 216.573 12.8697 216.399 13.2838L218.242 14.0599ZM218.543 13.6173C218.671 13.4893 218.819 13.3883 218.995 13.3124L218.201 11.4767C217.798 11.6508 217.438 11.8935 217.129 12.203L218.543 13.6173ZM219.006 13.3073C219.173 13.2325 219.346 13.1953 219.535 13.1953V11.1953C219.068 11.1953 218.616 11.2909 218.189 11.4817L219.006 13.3073ZM219.535 13.1953H228.652V11.1953H219.535V13.1953ZM228.652 13.1953C228.841 13.1953 229.007 13.2325 229.161 13.3032L229.996 11.4859C229.571 11.291 229.12 11.1953 228.652 11.1953V13.1953ZM229.19 13.3162C229.373 13.3931 229.521 13.4937 229.644 13.6173L231.059 12.203C230.745 11.8891 230.377 11.646 229.966 11.4729L229.19 13.3162ZM229.657 13.63C229.773 13.7413 229.87 13.8803 229.946 14.0599L231.789 13.2838C231.614 12.8697 231.368 12.5009 231.046 12.1903L229.657 13.63ZM229.949 14.0688C230.018 14.2273 230.055 14.4002 230.055 14.5977H232.055C232.055 14.1388 231.967 13.6946 231.785 13.275L229.949 14.0688ZM230.055 14.5977V16.7656H232.055V14.5977H230.055ZM231.055 15.7656H228.652V17.7656H231.055V15.7656ZM229.652 16.7656V14.5977H227.652V16.7656H229.652ZM228.652 13.5977H219.535V15.5977H228.652V13.5977ZM218.535 14.5977V26.5977H220.535V14.5977H218.535ZM219.535 27.5977H228.652V25.5977H219.535V27.5977ZM229.652 26.5977V22.5195H227.652V26.5977H229.652ZM228.652 21.5195H224.094V23.5195H228.652V21.5195ZM225.094 22.5195V20.1172H223.094V22.5195H225.094ZM224.094 21.1172H231.055V19.1172H224.094V21.1172ZM230.055 20.1172V26.5977H232.055V20.1172H230.055ZM230.055 26.5977C230.055 26.795 230.018 26.9754 229.946 27.1471L231.789 27.9232C231.967 27.5012 232.055 27.0565 232.055 26.5977H230.055ZM229.949 27.1382C229.873 27.3137 229.772 27.4618 229.644 27.5898L231.059 29.004C231.368 28.6944 231.611 28.3348 231.785 27.9321L229.949 27.1382ZM229.644 27.5898C229.521 27.7133 229.373 27.814 229.19 27.8909L229.966 29.7341C230.377 29.561 230.745 29.318 231.059 29.004L229.644 27.5898ZM229.181 27.8946C229.023 27.9632 228.85 28 228.652 28V30C229.111 30 229.555 29.9118 229.975 29.7304L229.181 27.8946ZM228.652 28H219.535V30H228.652V28ZM219.535 28C219.338 28 219.157 27.9632 218.986 27.8909L218.21 29.7341C218.632 29.9118 219.076 30 219.535 30V28ZM218.995 27.8946C218.819 27.8188 218.671 27.7177 218.543 27.5898L217.129 29.004C217.438 29.3135 217.798 29.5562 218.201 29.7304L218.995 27.8946ZM218.543 27.5898C218.415 27.4618 218.314 27.3137 218.238 27.1382L216.402 27.9321C216.577 28.3348 216.819 28.6944 217.129 29.004L218.543 27.5898ZM218.242 27.1471C218.17 26.9754 218.133 26.795 218.133 26.5977H216.133C216.133 27.0565 216.221 27.5012 216.399 27.9232L218.242 27.1471ZM218.133 26.5977V14.5977H216.133V26.5977H218.133ZM235.367 12.1953V11.1953H234.367V12.1953H235.367ZM247.613 12.1953H248.613V11.1953H247.613V12.1953ZM247.613 14.5977V15.5977H248.613V14.5977H247.613ZM237.77 14.5977V13.5977H236.77V14.5977H237.77ZM237.77 19.4023H236.77V20.4023H237.77V19.4023ZM246.172 19.4023H247.172V18.4023H246.172V19.4023ZM246.172 21.8047V22.8047H247.172V21.8047H246.172ZM237.77 21.8047V20.8047H236.77V21.8047H237.77ZM237.77 26.5977H236.77V27.5977H237.77V26.5977ZM247.613 26.5977H248.613V25.5977H247.613V26.5977ZM247.613 29V30H248.613V29H247.613ZM235.367 29H234.367V30H235.367V29ZM235.367 13.1953H247.613V11.1953H235.367V13.1953ZM246.613 12.1953V14.5977H248.613V12.1953H246.613ZM247.613 13.5977H237.77V15.5977H247.613V13.5977ZM236.77 14.5977V19.4023H238.77V14.5977H236.77ZM237.77 20.4023H246.172V18.4023H237.77V20.4023ZM245.172 19.4023V21.8047H247.172V19.4023H245.172ZM246.172 20.8047H237.77V22.8047H246.172V20.8047ZM236.77 21.8047V26.5977H238.77V21.8047H236.77ZM237.77 27.5977H247.613V25.5977H237.77V27.5977ZM246.613 26.5977V29H248.613V26.5977H246.613ZM247.613 28H235.367V30H247.613V28ZM236.367 29V12.1953H234.367V29H236.367Z" fill="#EE9112" mask="url(#path-15-outside-1_25_35)"/>
</g>
<defs>
<filter id="filter0_d_25_35" x="0.15625" y="3" width="251.457" height="31.7806" filterUnits="userSpaceOnUse" color-interpolation-filters="sRGB">
<feFlood flood-opacity="0" result="BackgroundImageFix"/>
<feColorMatrix in="SourceAlpha" type="matrix" values="0 0 0 0 0 0 0 0 0 0 0 0 0 0 0 0 0 0 127 0" result="hardAlpha"/>
<feOffset/>
<feGaussianBlur stdDeviation="2"/>
<feComposite in2="hardAlpha" operator="out"/>
<feColorMatrix type="matrix" values="0 0 0 0 0 0 0 0 0 0 0 0 0 0 0 0 0 0 0.25 0"/>
<feBlend mode="normal" in2="BackgroundImageFix" result="effect1_dropShadow_25_35"/>
<feBlend mode="normal" in="SourceGraphic" in2="effect1_dropShadow_25_35" result="shape"/>
</filter>
<filter id="filter1_i_25_35" x="4.15625" y="12.1953" width="243.457" height="24.8047" filterUnits="userSpaceOnUse" color-interpolation-filters="sRGB">
<feFlood flood-opacity="0" result="BackgroundImageFix"/>
<feBlend mode="normal" in="SourceGraphic" in2="BackgroundImageFix" result="shape"/>
<feColorMatrix in="SourceAlpha" type="matrix" values="0 0 0 0 0 0 0 0 0 0 0 0 0 0 0 0 0 0 127 0" result="hardAlpha"/>
<feOffset dy="8"/>
<feGaussianBlur stdDeviation="5"/>
<feComposite in2="hardAlpha" operator="arithmetic" k2="-1" k3="1"/>
<feColorMatrix type="matrix" values="0 0 0 0 0 0 0 0 0 0 0 0 0 0 0 0 0 0 0.25 0"/>
<feBlend mode="normal" in2="shape" result="effect1_innerShadow_25_35"/>
</filter>
</defs>
</svg>
