<svg width="500" height="100" viewBox="0 0 500 100" fill="none" xmlns="http://www.w3.org/2000/svg">
<path d="M198.191 26.4497L203.986 28.6784L208.622 32.0215L210.94 35.3646L205.145 38.7076L198.191 36.4789H187.76L179.647 38.7076L173.852 35.3646L179.647 29.7928L186.601 26.4497V30.9072H198.191V26.4497Z" fill="#EE9112"/>
<path d="M208.622 21.9923H210.94L213.258 23.1067L210.94 26.4498L208.622 25.3354V21.9923Z" fill="#EE9112"/>
<path d="M173.852 21.9923H176.17L177.329 24.221L176.17 26.4498H173.852L172.693 24.221L173.852 21.9923Z" fill="#EE9112"/>
<path d="M210.94 57.6516L214.417 59.8803L208.622 66.5665L203.986 69.9095L197.032 73.2526L195.873 67.6808H185.442L180.806 69.9095L176.17 66.5665L172.693 62.109L170.375 58.766L175.011 57.6516L179.647 60.9947L185.442 62.109H192.396H198.191L202.827 60.9947L210.94 57.6516Z" fill="#303273"/>
<path d="M186.601 27.5641V30.9072H198.191V26.4497L192.396 25.3354L186.601 27.5641Z" fill="#303273"/>
<path d="M215.576 42.0507L220.212 45.3937V52.0799L219.053 57.6516L214.417 58.766L215.576 54.3086L216.735 49.8512L215.576 42.0507Z" fill="#EE9112"/>
<path d="M169.216 42.0507L165.739 44.2794L164.58 48.7368V52.0799L165.739 56.5373L168.057 58.766H170.375L169.216 55.423V50.9655V42.0507Z" fill="#EE9112"/>
<path d="M205.145 38.7077L210.94 35.3646L214.417 40.9364L215.576 45.3938L216.735 48.7368L215.576 54.3086L214.417 58.766L209.781 57.6517L212.099 54.3086L213.258 50.9655L212.099 46.5081L208.622 40.9364L205.145 38.7077Z" fill="black"/>
<path d="M173.852 35.3646L179.647 38.7077L173.852 44.2794L172.693 48.7368V53.1942L175.011 57.6517L170.375 58.766L169.216 54.3086V47.6225L170.375 40.9364L173.852 35.3646Z" fill="black"/>
<path d="M181.965 71.0238L187.76 73.2526H194.714L197.032 72.1382L195.873 67.6808H184.283L180.806 69.9095L181.965 71.0238Z" fill="black"/>
<path d="M193.555 36.4789L200.509 37.5933L205.145 38.7076L209.781 43.1651L212.099 46.5081L213.258 50.9655L212.099 55.4229L208.622 58.766L202.827 60.9947L197.032 62.1091H191.237H186.601L180.806 60.9947L176.17 58.766L172.693 55.4229V50.9655V46.5081L175.011 43.1651L178.488 39.822L183.124 37.5933L186.601 36.4789H193.555Z" fill="#FFFAFA"/>
<path d="M173.774 21.1327C172.453 21.5032 171.584 22.6957 171.596 24.1313C171.62 25.9259 172.929 27.1299 174.844 27.1299H175.666L176.677 28.5077C177.236 29.2718 177.7 29.9317 177.7 29.9896C177.7 30.0359 177.153 30.5569 176.475 31.1358C173.726 33.4977 171.441 36.6815 169.918 40.2591L169.43 41.4052L168.562 41.6715C167.562 41.961 166.943 42.3546 166.229 43.1187C163.683 45.8742 163.231 52.624 165.325 56.8383C165.789 57.7761 166.039 58.135 166.61 58.6444C167.586 59.5128 168.716 59.999 169.811 60.0106C170.168 60.0106 170.216 60.0801 170.858 61.2494C174.19 67.3393 179.83 71.6693 186.589 73.3365C188.838 73.8923 190.504 74.0543 193.229 73.9849C196.596 73.9038 199.083 73.3944 201.975 72.2019C207.377 69.9558 211.625 66.1584 214.338 61.1684L214.933 60.0801L215.778 59.9411C217.17 59.7096 217.813 59.3854 218.658 58.5171C219.681 57.4751 220.216 56.3289 220.728 54.1639C220.99 53.064 221.097 49.2897 220.895 47.9698C220.621 46.0942 220.026 44.5428 219.134 43.3966C218.586 42.6788 217.408 41.8915 216.516 41.6484C216.135 41.5442 215.778 41.4052 215.707 41.3242C215.635 41.2547 215.457 40.8611 215.302 40.4443C214.088 37.0868 211.018 32.9188 208.02 30.5569C207.698 30.3138 207.448 30.0591 207.448 30.0012C207.448 29.9086 208.067 29.0287 209.198 27.512C209.459 27.1531 209.495 27.1415 210.328 27.1531C210.983 27.1647 211.328 27.0952 211.744 26.91C213.386 26.1574 214.041 24.2934 213.231 22.6841C212.708 21.6421 211.685 21.0169 210.471 21.0053C208.567 20.9706 207.02 22.5915 207.258 24.3513C207.341 24.9881 207.615 25.6943 207.889 25.9953C208.055 26.169 207.972 26.3079 207.032 27.5236C206.461 28.2646 205.925 28.8666 205.842 28.8666C205.759 28.8666 205.235 28.6119 204.688 28.3109C201.88 26.7363 198.881 25.729 195.609 25.2659C194.288 25.0691 190.694 25.0807 189.481 25.2659C185.887 25.8332 183.257 26.7247 180.425 28.2993C179.854 28.6119 179.342 28.8666 179.283 28.8666C179.212 28.8666 178.7 28.2646 178.141 27.5352L177.117 26.1922L177.403 25.7869C178.319 24.4671 178.01 22.6494 176.689 21.6768C175.82 21.0285 174.821 20.8433 173.774 21.1327ZM211.339 23.1125C211.827 23.564 211.946 24.0734 211.673 24.6176C211.411 25.1733 210.971 25.428 210.316 25.428C209.864 25.428 209.733 25.3701 209.388 25.0112C208.876 24.4555 208.841 23.7493 209.305 23.2051C209.876 22.5452 210.685 22.5104 211.339 23.1125ZM175.761 23.1125C176.142 23.4598 176.189 23.564 176.189 24.0271C176.165 24.9418 175.606 25.4628 174.642 25.4396C173.393 25.4164 172.857 23.9461 173.774 23.0662C174.059 22.7883 174.214 22.7304 174.714 22.7304C175.237 22.7304 175.38 22.7883 175.761 23.1125ZM196.192 27.0721C197.822 27.3615 197.727 27.2457 197.632 28.9013C197.584 29.677 197.524 30.3485 197.489 30.3949C197.465 30.4527 195.252 30.4875 192.574 30.4875C188.053 30.4875 187.696 30.4759 187.589 30.2791C187.434 30.0012 187.374 27.512 187.517 27.3731C187.648 27.2457 188.707 27.0489 190.016 26.8984C191.277 26.7479 194.966 26.8521 196.192 27.0721ZM185.709 29.9665C185.756 31.0548 185.816 32.0042 185.851 32.0736C185.923 32.2936 199.107 32.2936 199.178 32.0736C199.202 32.0042 199.286 31.0548 199.357 29.9781C199.428 28.8898 199.512 27.9867 199.547 27.952C199.726 27.7783 202.653 29.0634 204.236 30.0128C204.783 30.3485 205.699 30.9622 206.259 31.3905C207.329 32.201 209.828 34.5628 209.828 34.7712C209.828 34.8407 209.436 35.1301 208.972 35.4312C206.485 36.9594 205.913 37.3067 205.426 37.5846L204.89 37.874L204.117 37.5267C202.129 36.6237 198.702 35.7553 196.085 35.4659C194.49 35.2922 190.242 35.327 188.648 35.5238C185.828 35.8595 183.924 36.3342 181.413 37.3067C180.747 37.573 180.14 37.7814 180.068 37.7814C180.009 37.7814 179.533 37.5267 179.033 37.2141C177.01 35.9753 175.535 35.1186 175.428 35.1186C174.868 35.1186 176.606 33.1619 178.39 31.7842C179.902 30.6264 180.842 30.0012 182.044 29.376C183.317 28.7045 185.185 27.9288 185.435 27.9751C185.578 27.9983 185.625 28.3572 185.709 29.9665ZM175.368 36.9478C175.963 37.3183 176.867 37.874 177.367 38.1751C177.879 38.4761 178.319 38.754 178.343 38.8003C178.379 38.8466 177.962 39.2055 177.427 39.5991C174.166 41.9725 172.131 45.168 171.572 48.7802C171.12 51.6862 171.667 54.5459 173.072 56.6646C173.333 57.0467 173.536 57.3709 173.536 57.4056C173.536 57.4635 171.679 58.0424 171.465 58.0424C171.156 58.0424 170.287 55.2985 169.954 53.2376C169.74 51.9641 169.74 47.4604 169.942 46.3489C170.477 43.4892 171.287 41.0926 172.5 38.8234C173.179 37.5614 174.012 36.2763 174.166 36.2763C174.226 36.2763 174.773 36.5773 175.368 36.9478ZM211.708 37.272C213.957 40.5601 215.219 44.566 215.385 48.9192C215.492 51.802 215.159 54.2333 214.338 56.6878C213.85 58.135 213.862 58.1234 212.791 57.8108C212.303 57.6603 211.851 57.4867 211.768 57.4172C211.661 57.3246 211.744 57.093 212.137 56.4794C213.243 54.6964 213.66 53.1682 213.66 50.8642C213.672 47.553 212.744 45.0059 210.554 42.2967C210.138 41.7873 209.519 41.139 209.186 40.8611C208.222 40.0391 206.925 39.055 206.83 39.055C206.77 39.055 206.734 38.9855 206.734 38.9045C206.734 38.8234 207.413 38.3603 208.258 37.8625C209.091 37.3762 210.007 36.8205 210.304 36.6352C210.602 36.45 210.899 36.3111 210.959 36.3226C211.03 36.3342 211.363 36.7626 211.708 37.272ZM196.739 37.2604C201.689 38.0014 205.164 39.4949 208.032 42.1231C209.804 43.7555 210.947 45.6311 211.637 48.0277C212.018 49.3939 212.018 52.0336 211.637 53.3534C210.911 55.8195 209.162 57.7414 206.378 59.1654C204.557 60.0916 202.796 60.6705 200.249 61.1799C195.454 62.1293 189.183 62.0714 184.364 61.041C180.794 60.2769 178.331 59.2349 176.379 57.6603C174.844 56.4215 173.821 54.8469 173.405 53.1103C173.19 52.1841 173.155 51.7904 173.214 50.3201C173.274 48.375 173.452 47.5877 174.142 46.1289C176.023 42.1925 179.818 39.2865 184.899 37.9204C186.327 37.5267 188.588 37.1447 189.957 37.0405C191.325 36.9478 195.525 37.0752 196.739 37.2604ZM168.728 43.8481C168.252 45.4922 168.026 47.472 168.026 49.8801C168.026 52.7282 168.276 54.4186 169.121 57.1741C169.442 58.2045 169.442 58.2045 169.014 58.1234C167.955 57.915 166.955 56.7225 166.396 55.009C165.932 53.6081 165.765 52.3809 165.765 50.3432C165.765 48.676 165.801 48.2129 166.027 47.333C166.456 45.6774 167.158 44.4849 168.11 43.8018C168.609 43.4313 168.835 43.4545 168.728 43.8481ZM217.396 44.0797C218.063 44.7512 218.634 45.7932 218.931 46.8815C219.669 49.6023 219.312 54.1986 218.205 56.3289C217.694 57.313 216.992 57.9266 216.052 58.2045C215.683 58.3203 215.695 58.1697 216.135 56.792C216.992 54.0481 217.337 50.8874 217.099 47.9814C216.968 46.4184 216.73 44.8901 216.432 43.7671C216.29 43.2461 216.694 43.3735 217.396 44.0797ZM175.88 59.4896C178.105 61.0526 181.627 62.3377 185.375 62.9629C188.66 63.5071 194.062 63.6576 197.275 63.3102C199.535 63.0555 199.309 62.9861 199.405 64.0281C199.595 66.1005 200.368 67.8255 201.773 69.3422C202.082 69.678 202.332 70.0022 202.332 70.06C202.332 70.3263 198.702 71.6578 197.798 71.7272L197.394 71.762L197.358 69.5275L197.334 67.3045H190.825H184.316L182.746 68.2308C181.889 68.7402 181.092 69.157 180.973 69.157C180.699 69.157 179.176 68.1497 177.986 67.1772C176.855 66.251 175.356 64.7459 174.595 63.7734C173.559 62.4651 172.108 60.138 172.108 59.7906C172.108 59.7327 172.417 59.5938 172.798 59.4896C173.167 59.3854 173.75 59.2002 174.071 59.0844C174.404 58.9686 174.737 58.876 174.809 58.8644C174.892 58.8528 175.368 59.1423 175.88 59.4896ZM211.732 59.2696C212.446 59.5012 213.041 59.7212 213.041 59.779C213.041 59.8254 212.815 60.2769 212.553 60.7747C211.494 62.7314 209.4 65.2553 207.532 66.8299C206.437 67.7445 204.402 69.157 204.164 69.157C204.081 69.157 203.641 68.7633 203.177 68.2771C202.07 67.1309 201.451 65.9268 201.189 64.4333C200.916 62.7892 200.916 62.7892 201.975 62.5345C203.902 62.0714 205.366 61.562 207.02 60.74C208.079 60.2306 209.745 59.1886 209.888 58.9686C210.007 58.7718 210.352 58.8297 211.732 59.2696ZM195.49 70.6621V72.2251L194.954 72.3061C193.253 72.5492 189.838 72.3293 187.493 71.8314C185.471 71.3915 182.984 70.4537 183.079 70.1758C183.114 70.0948 183.507 69.8053 183.959 69.539L184.78 69.0528L190.135 69.0759L195.49 69.0991V70.6621Z" fill="black"/>
<path d="M180.818 43.2229C179.533 43.5471 178.593 44.0913 177.569 45.0754C176.546 46.0595 176.046 46.9394 175.654 48.4676C175.344 49.6486 175.416 50.8063 175.856 52.0915C176.855 54.9859 179.39 56.7804 182.496 56.7804C184.554 56.7804 186.03 56.19 187.47 54.8006C188.517 53.7934 189.136 52.7051 189.421 51.3505C189.647 50.2969 189.647 49.7296 189.433 48.6413C188.957 46.2563 187.66 44.647 185.387 43.6282C183.912 42.9567 182.377 42.8293 180.818 43.2229ZM183.043 45.249C183.317 45.4111 183.698 45.7932 183.888 46.0826C184.197 46.5457 184.245 46.7426 184.245 47.4025C184.245 48.0856 184.197 48.2477 183.864 48.7339C183.317 49.5212 182.412 49.9843 181.556 49.9033C179.259 49.6833 178.331 47.1015 179.997 45.5616C180.83 44.7859 182.079 44.647 183.043 45.249Z" fill="black"/>
<path d="M201.142 43.165C198.988 43.6397 197.334 44.8669 196.382 46.6962C195.799 47.8077 195.621 48.6065 195.621 49.938C195.621 51.9641 196.251 53.4229 197.739 54.8585C199.143 56.2131 200.713 56.8151 202.748 56.792C205.509 56.7572 208.032 55.1248 209.114 52.6587C209.4 52.0104 209.709 50.5747 209.709 49.8801C209.709 49.0581 209.376 47.6803 208.983 46.8699C207.615 44.1028 204.2 42.4819 201.142 43.165ZM204.152 44.9711C204.652 45.0985 205.473 45.7584 205.723 46.2215C205.973 46.7078 206.056 47.5298 205.902 48.0971C205.699 48.8265 204.831 49.6254 204.01 49.8222C202.427 50.1927 200.785 48.9423 200.785 47.3677C200.785 46.8236 201.154 46.0363 201.606 45.6079C202.332 44.9248 203.189 44.7048 204.152 44.9711Z" fill="black"/>
<g filter="url(#filter0_i_8_10)">
<path d="M7.95 69C6.51667 69 5.35 68.5667 4.45 67.7C3.55 66.8333 3.1 65.7 3.1 64.3V34H19.8C22.4667 34 24.8 34.5 26.8 35.5C28.8333 36.5 30.4 37.9167 31.5 39.75C32.6333 41.5833 33.2 43.7 33.2 46.1V55.9C33.2 60.2 32.0833 63.4667 29.85 65.7C27.6167 67.9 24.3333 69 20 69H7.95ZM19.8 62.9C21.9333 62.9 23.55 62.2833 24.65 61.05C25.75 59.8167 26.3 58 26.3 55.6V46.4C26.3 44.5 25.6833 42.9833 24.45 41.85C23.2167 40.6833 21.6 40.1 19.6 40.1H10V62.9H19.8ZM38.2074 34H56.8074C59.8408 34 62.2741 34.8167 64.1074 36.45C65.9741 38.0833 66.9074 40.2333 66.9074 42.9V46.4C66.9074 48.1333 66.4074 49.65 65.4074 50.95C64.4408 52.2167 63.0241 53.1833 61.1574 53.85V53.95C62.2241 54.65 63.0241 55.45 63.5574 56.35C64.1241 57.25 64.6741 58.5 65.2074 60.1L68.0074 69H60.8574L58.2074 60.7C57.7741 59.2667 57.1741 58.2 56.4074 57.5C55.6408 56.8 54.6908 56.45 53.5574 56.45H45.1074V69H38.2074V34ZM55.5074 50.5C56.9074 50.5 58.0074 50.1333 58.8074 49.4C59.6074 48.6333 60.0074 47.65 60.0074 46.45V43.2C60.0074 42.2333 59.7074 41.4667 59.1074 40.9C58.5074 40.3 57.7074 40 56.7074 40H45.1074V50.5H55.5074ZM84.2488 69.4C81.6155 69.4 79.2822 68.85 77.2488 67.75C75.2488 66.6167 73.6822 65.05 72.5488 63.05C71.4488 61.0167 70.8988 58.6667 70.8988 56V47C70.8988 44.3333 71.4488 42 72.5488 40C73.6822 37.9667 75.2488 36.4 77.2488 35.3C79.2822 34.1667 81.6155 33.6 84.2488 33.6H89.5488C92.1822 33.6 94.4988 34.1667 96.4988 35.3C98.5322 36.4 100.099 37.9667 101.199 40C102.332 42 102.899 44.3333 102.899 47V56C102.899 58.6667 102.332 61.0167 101.199 63.05C100.099 65.05 98.5322 66.6167 96.4988 67.75C94.4988 68.85 92.1822 69.4 89.5488 69.4H84.2488ZM89.5488 63.3C91.4822 63.3 93.0322 62.6 94.1988 61.2C95.3988 59.8 95.9988 57.9667 95.9988 55.7V47.3C95.9988 45.0333 95.3988 43.2 94.1988 41.8C93.0322 40.4 91.4822 39.7 89.5488 39.7H84.2488C82.3155 39.7 80.7488 40.4 79.5488 41.8C78.3822 43.2 77.7988 45.0333 77.7988 47.3V55.7C77.7988 57.9667 78.3822 59.8 79.5488 61.2C80.7488 62.6 82.3155 63.3 84.2488 63.3H89.5488ZM108.58 34H115.48V69H108.58V34ZM127.042 69C125.608 69 124.442 68.5667 123.542 67.7C122.642 66.8333 122.192 65.7 122.192 64.3V34H138.892C141.558 34 143.892 34.5 145.892 35.5C147.925 36.5 149.492 37.9167 150.592 39.75C151.725 41.5833 152.292 43.7 152.292 46.1V55.9C152.292 60.2 151.175 63.4667 148.942 65.7C146.708 67.9 143.425 69 139.092 69H127.042ZM138.892 62.9C141.025 62.9 142.642 62.2833 143.742 61.05C144.842 59.8167 145.392 58 145.392 55.6V46.4C145.392 44.5 144.775 42.9833 143.542 41.85C142.308 40.6833 140.692 40.1 138.692 40.1H129.092V62.9H138.892ZM234.171 69C232.737 69 231.571 68.5667 230.671 67.7C229.771 66.8333 229.321 65.7 229.321 64.3V34H256.021V40H236.221V48.1H254.521V54.1H236.221V63H256.021V69H234.171ZM269.717 51.15L258.017 34H265.867L273.667 45.5L281.467 34H289.267L277.567 51.15L289.767 69H281.917L273.667 56.8L265.367 69H257.517L269.717 51.15ZM303.33 69.4C300.763 69.4 298.497 68.85 296.53 67.75C294.597 66.65 293.097 65.1 292.03 63.1C290.963 61.0667 290.43 58.7333 290.43 56.1V46.9C290.43 44.2667 290.963 41.95 292.03 39.95C293.13 37.9167 294.663 36.35 296.63 35.25C298.63 34.15 300.93 33.6 303.53 33.6H308.83C311.33 33.6 313.53 34.1333 315.43 35.2C317.33 36.2667 318.797 37.7667 319.83 39.7C320.897 41.6 321.43 43.8167 321.43 46.35H314.63C314.63 44.35 314.097 42.75 313.03 41.55C311.963 40.3167 310.563 39.7 308.83 39.7H303.53C301.663 39.7 300.163 40.4 299.03 41.8C297.897 43.1667 297.33 44.9667 297.33 47.2V55.8C297.33 58.0333 297.88 59.85 298.98 61.25C300.08 62.6167 301.53 63.3 303.33 63.3H308.73C310.497 63.3 311.93 62.6167 313.03 61.25C314.163 59.8833 314.73 58.0833 314.73 55.85H321.53C321.53 58.55 320.997 60.9333 319.93 63C318.863 65.0333 317.363 66.6167 315.43 67.75C313.497 68.85 311.263 69.4 308.73 69.4H303.33ZM325.854 34H332.754V48.45H349.054V34H355.954V69H349.054V54.45H332.754V69H325.854V34ZM382.633 60.85H369.533L366.433 69H359.233L372.933 34H376.033C378.2 34 379.667 35 380.433 37L392.883 69H385.683L382.633 60.85ZM371.383 55.05H380.783L376.133 42.45H376.083L371.383 55.05ZM396.166 34H402.316L419.116 57.8V34H425.866V69H419.716L402.916 45.2V69H396.166V34ZM444.055 69.4C441.488 69.4 439.222 68.85 437.255 67.75C435.288 66.65 433.755 65.1 432.655 63.1C431.588 61.0667 431.055 58.7333 431.055 56.1V46.9C431.055 44.2667 431.588 41.95 432.655 39.95C433.755 37.9167 435.288 36.35 437.255 35.25C439.255 34.15 441.555 33.6 444.155 33.6H449.755C452.255 33.6 454.455 34.1 456.355 35.1C458.255 36.1 459.722 37.5167 460.755 39.35C461.822 41.1833 462.355 43.3 462.355 45.7H455.555C455.555 43.9 455.022 42.45 453.955 41.35C452.888 40.25 451.488 39.7 449.755 39.7H444.155C442.288 39.7 440.788 40.4 439.655 41.8C438.522 43.1667 437.955 44.9667 437.955 47.2V55.8C437.955 58.0333 438.505 59.85 439.605 61.25C440.738 62.6167 442.222 63.3 444.055 63.3H449.955C451.655 63.3 453.055 62.6833 454.155 61.45C455.288 60.2167 455.855 58.6833 455.855 56.85V55.75H446.155V49.75H462.655V56.85C462.655 59.2833 462.122 61.45 461.055 63.35C459.988 65.25 458.488 66.7333 456.555 67.8C454.622 68.8667 452.422 69.4 449.955 69.4H444.055ZM472.501 69C471.067 69 469.901 68.5667 469.001 67.7C468.101 66.8333 467.651 65.7 467.651 64.3V34H494.351V40H474.551V48.1H492.851V54.1H474.551V63H494.351V69H472.501Z" fill="#EE9112"/>
</g>
<defs>
<filter id="filter0_i_8_10" x="3.10001" y="33.6" width="491.251" height="39.8" filterUnits="userSpaceOnUse" color-interpolation-filters="sRGB">
<feFlood flood-opacity="0" result="BackgroundImageFix"/>
<feBlend mode="normal" in="SourceGraphic" in2="BackgroundImageFix" result="shape"/>
<feColorMatrix in="SourceAlpha" type="matrix" values="0 0 0 0 0 0 0 0 0 0 0 0 0 0 0 0 0 0 127 0" result="hardAlpha"/>
<feOffset dy="6"/>
<feGaussianBlur stdDeviation="2"/>
<feComposite in2="hardAlpha" operator="arithmetic" k2="-1" k3="1"/>
<feColorMatrix type="matrix" values="0 0 0 0 0 0 0 0 0 0 0 0 0 0 0 0 0 0 0.24 0"/>
<feBlend mode="plus-darker" in2="shape" result="effect1_innerShadow_8_10"/>
</filter>
</defs>
</svg>
