<svg width="250" height="45" viewBox="0 0 250 45" fill="none" xmlns="http://www.w3.org/2000/svg">
<path d="M97.7503 7.44525L100.25 8.44525L102.25 9.94525L103.25 11.4453L100.75 12.9453L97.7503 11.9453H93.2503L89.7503 12.9453L87.2503 11.4453L89.7503 8.94525L92.7503 7.44525V9.44525H97.7503V7.44525Z" fill="#EE9112"/>
<path d="M102.25 5.44525H103.25L104.25 5.94525L103.25 7.44525L102.25 6.94525V5.44525Z" fill="#EE9112"/>
<path d="M87.2503 5.44525H88.2503L88.7503 6.44525L88.2503 7.44525H87.2503L86.7503 6.44525L87.2503 5.44525Z" fill="#EE9112"/>
<path d="M103.25 21.4453L104.75 22.4453L102.25 25.4453L100.25 26.9453L97.2503 28.4453L96.7503 25.9453H92.2503L90.2503 26.9453L88.2503 25.4453L86.7503 23.4453L85.7503 21.9453L87.7503 21.4453L89.7503 22.9453L92.2503 23.4453H95.2503H97.7503L99.7503 22.9453L103.25 21.4453Z" fill="#303273"/>
<path d="M92.7503 7.94525V9.44525H97.7503V7.44525L95.2503 6.94525L92.7503 7.94525Z" fill="#303273"/>
<path d="M105.25 14.4453L107.25 15.9453V18.9453L106.75 21.4453L104.75 21.9453L105.25 19.9453L105.75 17.9453L105.25 14.4453Z" fill="#EE9112"/>
<path d="M85.2503 14.4453L83.7503 15.4453L83.2503 17.4453V18.9453L83.7503 20.9453L84.7503 21.9453H85.7503L85.2503 20.4453V18.4453V14.4453Z" fill="#EE9112"/>
<path d="M100.75 12.9453L103.25 11.4453L104.75 13.9453L105.25 15.9453L105.75 17.4453L105.25 19.9453L104.75 21.9453L102.75 21.4453L103.75 19.9453L104.25 18.4453L103.75 16.4453L102.25 13.9453L100.75 12.9453Z" fill="black"/>
<path d="M87.2503 11.4453L89.7503 12.9453L87.2503 15.4453L86.7503 17.4453V19.4453L87.7503 21.4453L85.7503 21.9453L85.2503 19.9453V16.9453L85.7503 13.9453L87.2503 11.4453Z" fill="black"/>
<path d="M90.7503 27.4453L93.2503 28.4453H96.2503L97.2503 27.9453L96.7503 25.9453H91.7503L90.2503 26.9453L90.7503 27.4453Z" fill="black"/>
<path d="M95.7503 11.9453L98.7503 12.4453L100.75 12.9453L102.75 14.9453L103.75 16.4453L104.25 18.4453L103.75 20.4453L102.25 21.9453L99.7503 22.9453L97.2503 23.4453H94.7503H92.7503L90.2503 22.9453L88.2503 21.9453L86.7503 20.4453V18.4453V16.4453L87.7503 14.9453L89.2503 13.4453L91.2503 12.4453L92.7503 11.9453H95.7503Z" fill="#FFFAFA"/>
<path d="M87.2164 5.05954C86.6466 5.22577 86.2719 5.76084 86.277 6.40499C86.2873 7.21019 86.8519 7.75045 87.6784 7.75045H88.0326L88.469 8.36863C88.7103 8.71149 88.9105 9.00759 88.9105 9.03356C88.9105 9.05434 88.6743 9.28811 88.3817 9.54785C87.1959 10.6076 86.2103 12.0362 85.5532 13.6414L85.3427 14.1556L84.968 14.2751C84.5368 14.405 84.2698 14.5816 83.9618 14.9245C82.8632 16.1609 82.6682 19.1895 83.5717 21.0804C83.7719 21.5011 83.8797 21.6622 84.1261 21.8908C84.547 22.2804 85.0347 22.4985 85.507 22.5037C85.661 22.5037 85.6815 22.5349 85.9587 23.0596C87.3961 25.7921 89.8294 27.7349 92.7452 28.483C93.7154 28.7323 94.4341 28.805 95.6096 28.7739C97.0624 28.7375 98.1353 28.5089 99.3827 27.9739C101.713 26.9661 103.546 25.2622 104.716 23.0232L104.973 22.5349L105.338 22.4726C105.938 22.3687 106.215 22.2232 106.58 21.8336C107.021 21.3661 107.252 20.8518 107.473 19.8804C107.586 19.3869 107.632 17.6934 107.545 17.1011C107.427 16.2596 107.17 15.5635 106.785 15.0492C106.549 14.7271 106.041 14.3738 105.656 14.2647C105.492 14.218 105.338 14.1556 105.307 14.1193C105.276 14.0881 105.199 13.9115 105.132 13.7245C104.609 12.218 103.284 10.3479 101.991 9.28811C101.852 9.17902 101.744 9.06473 101.744 9.03876C101.744 8.9972 102.011 8.60239 102.499 7.92187C102.612 7.76084 102.627 7.75564 102.986 7.76084C103.269 7.76603 103.418 7.73486 103.597 7.65174C104.306 7.31408 104.588 6.47772 104.239 5.75564C104.013 5.28811 103.572 5.00759 103.048 5.0024C102.227 4.98681 101.559 5.71409 101.662 6.50369C101.698 6.78941 101.816 7.10629 101.934 7.24136C102.006 7.31928 101.97 7.38162 101.565 7.92707C101.318 8.25954 101.087 8.52967 101.051 8.52967C101.015 8.52967 100.789 8.41538 100.553 8.28032C99.3417 7.57382 98.048 7.12187 96.6363 6.91408C96.0665 6.82577 94.5162 6.83097 93.9926 6.91408C92.4423 7.16863 91.3078 7.56863 90.086 8.27512C89.8396 8.41538 89.6189 8.52967 89.5932 8.52967C89.5624 8.52967 89.3417 8.25954 89.1004 7.93226L88.6589 7.32967L88.7821 7.14785C89.1774 6.55564 89.0439 5.74006 88.4741 5.3037C88.0994 5.01279 87.6682 4.92967 87.2164 5.05954ZM103.423 5.94785C103.633 6.15045 103.685 6.37902 103.567 6.62317C103.454 6.87252 103.264 6.98681 102.981 6.98681C102.786 6.98681 102.73 6.96084 102.581 6.7998C102.36 6.55045 102.345 6.23356 102.545 5.98941C102.791 5.69331 103.14 5.67772 103.423 5.94785ZM88.0737 5.94785C88.238 6.10369 88.2585 6.15045 88.2585 6.35824C88.2483 6.76863 88.007 7.00239 87.5912 6.992C87.0522 6.98162 86.8211 6.32187 87.2164 5.92707C87.3396 5.8024 87.4064 5.77642 87.622 5.77642C87.8478 5.77642 87.9094 5.8024 88.0737 5.94785ZM96.8879 7.72447C97.5912 7.85434 97.5501 7.80239 97.509 8.54525C97.4885 8.8933 97.4628 9.1946 97.4474 9.21538C97.4372 9.24136 96.4823 9.25694 95.3273 9.25694C93.3766 9.25694 93.2226 9.25174 93.1764 9.16343C93.1096 9.03876 93.084 7.92187 93.1456 7.85954C93.202 7.80239 93.6589 7.71408 94.2236 7.64655C94.7678 7.57902 96.3591 7.62577 96.8879 7.72447ZM92.3653 9.02317C92.3858 9.51149 92.4115 9.93746 92.4269 9.96863C92.4577 10.0673 98.1456 10.0673 98.1764 9.96863C98.1866 9.93746 98.2226 9.51149 98.2534 9.02837C98.2842 8.54006 98.3201 8.13486 98.3355 8.11928C98.4125 8.04136 99.6754 8.61798 100.358 9.04395C100.594 9.1946 100.99 9.46993 101.231 9.66213C101.693 10.0258 102.771 11.0855 102.771 11.179C102.771 11.2102 102.601 11.3401 102.401 11.4751C101.328 12.1608 101.082 12.3167 100.872 12.4414L100.64 12.5712L100.307 12.4154C99.4495 12.0102 97.971 11.6206 96.8417 11.4907C96.1538 11.4128 94.3211 11.4284 93.6333 11.5167C92.4166 11.6673 91.5953 11.8803 90.5121 12.3167C90.2246 12.4362 89.9628 12.5297 89.932 12.5297C89.9064 12.5297 89.701 12.4154 89.4854 12.2751C88.6127 11.7193 87.9762 11.3349 87.93 11.3349C87.6887 11.3349 88.4382 10.4569 89.2082 9.83876C89.8602 9.31928 90.2657 9.03876 90.7842 8.75824C91.3335 8.45694 92.1394 8.10889 92.2472 8.12967C92.3088 8.14006 92.3294 8.3011 92.3653 9.02317ZM87.9043 12.1556C88.161 12.3219 88.5511 12.5712 88.7667 12.7063C88.9875 12.8414 89.1774 12.966 89.1877 12.9868C89.2031 13.0076 89.0234 13.1686 88.7924 13.3453C87.3858 14.4102 86.508 15.844 86.2667 17.4648C86.0717 18.7687 86.3078 20.0518 86.9135 21.0024C87.0265 21.1739 87.1138 21.3193 87.1138 21.3349C87.1138 21.3609 86.3129 21.6206 86.2205 21.6206C86.0871 21.6206 85.7123 20.3895 85.5686 19.4648C85.4762 18.8934 85.4762 16.8726 85.5634 16.3739C85.7945 15.0908 86.1435 14.0154 86.6671 12.9972C86.9598 12.431 87.3191 11.8543 87.3858 11.8543C87.4115 11.8543 87.6476 11.9894 87.9043 12.1556ZM103.582 12.3011C104.552 13.7764 105.096 15.5739 105.168 17.5271C105.214 18.8206 105.071 19.9115 104.716 21.0128C104.506 21.6622 104.511 21.657 104.049 21.5167C103.839 21.4492 103.644 21.3713 103.608 21.3401C103.561 21.2985 103.597 21.1947 103.767 20.9193C104.244 20.1193 104.424 19.4336 104.424 18.3998C104.429 16.9141 104.029 15.7713 103.084 14.5556C102.904 14.3271 102.637 14.0362 102.494 13.9115C102.078 13.5427 101.518 13.1011 101.477 13.1011C101.452 13.1011 101.436 13.0699 101.436 13.0336C101.436 12.9972 101.729 12.7894 102.093 12.566C102.453 12.3479 102.848 12.0985 102.976 12.0154C103.105 11.9323 103.233 11.8699 103.259 11.8751C103.289 11.8803 103.433 12.0725 103.582 12.3011ZM97.124 12.2959C99.2595 12.6284 100.759 13.2985 101.996 14.4777C102.761 15.2102 103.253 16.0518 103.551 17.1271C103.715 17.7401 103.715 18.9245 103.551 19.5167C103.238 20.6232 102.483 21.4856 101.282 22.1245C100.497 22.5401 99.737 22.7998 98.6384 23.0284C96.5696 23.4544 93.8643 23.4284 91.7852 22.9661C90.2452 22.6232 89.1825 22.1557 88.3407 21.4492C87.6784 20.8934 87.237 20.1869 87.0573 19.4076C86.9649 18.9921 86.9495 18.8154 86.9752 18.1557C87.0008 17.283 87.0778 16.9297 87.3756 16.2752C88.1867 14.5089 89.8242 13.205 92.0162 12.592C92.6322 12.4154 93.6076 12.244 94.1979 12.1972C94.7883 12.1556 96.6004 12.2128 97.124 12.2959ZM85.0398 15.2518C84.8345 15.9895 84.737 16.8778 84.737 17.9583C84.737 19.2362 84.8448 19.9947 85.2092 21.231C85.3478 21.6934 85.3478 21.6934 85.163 21.657C84.7062 21.5635 84.2749 21.0284 84.0337 20.2596C83.8335 19.631 83.7616 19.0804 83.7616 18.1661C83.7616 17.418 83.777 17.2102 83.8745 16.8154C84.0593 16.0726 84.3622 15.5375 84.7729 15.231C84.9885 15.0648 85.086 15.0752 85.0398 15.2518ZM106.036 15.3557C106.323 15.657 106.57 16.1245 106.698 16.6128C107.016 17.8336 106.862 19.896 106.385 20.8518C106.164 21.2934 105.861 21.5687 105.456 21.6934C105.297 21.7453 105.302 21.6778 105.492 21.0596C105.861 19.8284 106.01 18.4102 105.907 17.1063C105.851 16.405 105.748 15.7193 105.62 15.2154C105.558 14.9817 105.733 15.0388 106.036 15.3557ZM88.125 22.27C89.085 22.9713 90.6045 23.5479 92.2216 23.8284C93.6384 24.0726 95.969 24.1401 97.355 23.9843C98.3304 23.87 98.2328 23.8388 98.2739 24.3063C98.3561 25.2362 98.6897 26.0102 99.2955 26.6908C99.4289 26.8414 99.5367 26.9869 99.5367 27.0128C99.5367 27.1323 97.971 27.7297 97.5809 27.7609L97.4064 27.7765L97.391 26.7739L97.3807 25.7765H94.5727H91.7647L91.0871 26.1921C90.7175 26.4206 90.3735 26.6076 90.3222 26.6076C90.2041 26.6076 89.547 26.1557 89.0337 25.7193C88.546 25.3037 87.8992 24.6284 87.5706 24.1921C87.124 23.605 86.4977 22.5609 86.4977 22.405C86.4977 22.3791 86.6312 22.3167 86.7955 22.27C86.9546 22.2232 87.2062 22.1401 87.3448 22.0882C87.4885 22.0362 87.6322 21.9947 87.663 21.9895C87.699 21.9843 87.9043 22.1141 88.125 22.27ZM103.592 22.1713C103.9 22.2752 104.157 22.3739 104.157 22.3998C104.157 22.4206 104.059 22.6232 103.946 22.8466C103.49 23.7245 102.586 24.857 101.78 25.5635C101.308 25.9739 100.43 26.6076 100.327 26.6076C100.291 26.6076 100.101 26.431 99.9012 26.2128C99.4238 25.6985 99.1569 25.1583 99.0439 24.4882C98.9259 23.7505 98.9259 23.7505 99.3827 23.6362C100.214 23.4284 100.846 23.1998 101.559 22.831C102.016 22.6024 102.735 22.1349 102.797 22.0362C102.848 21.9479 102.997 21.9739 103.592 22.1713ZM96.585 27.283V27.9843L96.354 28.0206C95.6199 28.1297 94.1466 28.031 93.1353 27.8076C92.2626 27.6102 91.1897 27.1895 91.2308 27.0648C91.2462 27.0284 91.4156 26.8985 91.6107 26.7791L91.9649 26.5609L94.2749 26.5713L96.585 26.5817V27.283Z" fill="black"/>
<path d="M90.2554 14.9713C89.701 15.1167 89.2955 15.3609 88.854 15.8025C88.4125 16.244 88.1969 16.6388 88.0275 17.3245C87.894 17.8544 87.9248 18.3739 88.1148 18.9505C88.546 20.2492 89.6394 21.0544 90.9793 21.0544C91.8673 21.0544 92.5039 20.7895 93.125 20.1661C93.5768 19.7141 93.8437 19.2258 93.9669 18.618C94.0645 18.1453 94.0645 17.8908 93.9721 17.4025C93.7667 16.3323 93.2072 15.6102 92.2267 15.1531C91.5901 14.8518 90.9279 14.7946 90.2554 14.9713ZM91.2154 15.8804C91.3335 15.9531 91.4977 16.1245 91.5799 16.2544C91.7133 16.4622 91.7339 16.5505 91.7339 16.8466C91.7339 17.1531 91.7133 17.2258 91.5696 17.444C91.3335 17.7973 90.9433 18.005 90.5737 17.9687C89.583 17.87 89.1825 16.7115 89.9012 16.0206C90.2606 15.6726 90.7996 15.6102 91.2154 15.8804Z" fill="black"/>
<path d="M99.0234 14.9453C98.0942 15.1583 97.3807 15.7089 96.97 16.5297C96.7185 17.0284 96.6415 17.3868 96.6415 17.9842C96.6415 18.8933 96.9135 19.5479 97.5552 20.192C98.161 20.7998 98.8386 21.07 99.7164 21.0596C100.907 21.044 101.996 20.3115 102.463 19.205C102.586 18.9141 102.72 18.27 102.72 17.9583C102.72 17.5894 102.576 16.9713 102.406 16.6076C101.816 15.3661 100.343 14.6388 99.0234 14.9453ZM100.322 15.7557C100.538 15.8128 100.892 16.1089 101 16.3167C101.108 16.5349 101.144 16.9037 101.077 17.1583C100.99 17.4855 100.615 17.844 100.261 17.9323C99.5778 18.0985 98.8694 17.5375 98.8694 16.831C98.8694 16.5868 99.0285 16.2336 99.2236 16.0414C99.5368 15.7349 99.9064 15.6362 100.322 15.7557Z" fill="black"/>
<mask id="path-15-outside-1_24_22" maskUnits="userSpaceOnUse" x="1" y="5" width="242" height="24" fill="black">
<rect fill="white" x="1" y="5" width="242" height="24"/>
<path d="M2.43 7H11.28C12.46 7 13.35 7.32 13.95 7.96C14.57 8.58 14.88 9.46 14.88 10.6V24.4C14.88 25.56 14.57 26.45 13.95 27.07C13.35 27.69 12.46 28 11.28 28H2.43V7ZM11.22 8.95H4.53V26.08H11.22C12.26 26.08 12.78 25.54 12.78 24.46V10.57C12.78 9.49 12.26 8.95 11.22 8.95ZM19.4515 7H27.9415C29.1015 7 29.9915 7.32 30.6115 7.96C31.2315 8.58 31.5415 9.46 31.5415 10.6V15.55C31.5415 16.69 31.2315 17.58 30.6115 18.22C29.9915 18.84 29.1015 19.15 27.9415 19.15H26.3515L32.5015 28H29.9815L23.9815 19.15H21.5515V28H19.4515V7ZM21.5515 8.95V17.23H27.8815C28.9215 17.23 29.4415 16.69 29.4415 15.61V10.57C29.4415 9.49 28.9215 8.95 27.8815 8.95H21.5515ZM44.3205 8.95H39.1005C38.0605 8.95 37.5405 9.49 37.5405 10.57V24.46C37.5405 25.54 38.0605 26.08 39.1005 26.08H44.3205C45.3605 26.08 45.8805 25.54 45.8805 24.46V10.57C45.8805 9.49 45.3605 8.95 44.3205 8.95ZM44.3805 28H39.0405C37.8605 28 36.9605 27.69 36.3405 27.07C35.7405 26.45 35.4405 25.56 35.4405 24.4V10.6C35.4405 9.46 35.7405 8.58 36.3405 7.96C36.9605 7.32 37.8605 7 39.0405 7H44.3805C45.5405 7 46.4305 7.32 47.0505 7.96C47.6705 8.58 47.9805 9.46 47.9805 10.6V24.4C47.9805 25.54 47.6705 26.43 47.0505 27.07C46.4305 27.69 45.5405 28 44.3805 28ZM54.6277 28H52.5277V7H54.6277V28ZM59.5003 7H68.3503C69.5303 7 70.4203 7.32 71.0203 7.96C71.6403 8.58 71.9503 9.46 71.9503 10.6V24.4C71.9503 25.56 71.6403 26.45 71.0203 27.07C70.4203 27.69 69.5303 28 68.3503 28H59.5003V7ZM68.2903 8.95H61.6003V26.08H68.2903C69.3303 26.08 69.8503 25.54 69.8503 24.46V10.57C69.8503 9.49 69.3303 8.95 68.2903 8.95ZM117.479 7H127.949V8.95H119.579V16.03H126.449V17.98H119.579V26.08H128.549V28H117.479V7ZM142.419 9.43L138.759 16.93L144.219 28H141.999L137.289 18.46H137.169L132.489 28H130.269L135.729 16.93L130.869 7H133.119L137.199 15.37H137.319L140.499 8.74L141.039 6.79L143.229 7.06L142.419 9.43ZM150.574 7H155.584L158.584 7.84L158.044 9.67L155.584 8.95H150.634C149.594 8.95 149.074 9.49 149.074 10.57V24.46C149.074 25.54 149.594 26.08 150.634 26.08H155.944L158.404 25.36L158.914 27.19L155.944 28H150.574C149.394 28 148.494 27.69 147.874 27.07C147.274 26.45 146.974 25.56 146.974 24.4V10.6C146.974 9.46 147.274 8.58 147.874 7.96C148.494 7.32 149.394 7 150.574 7ZM174.96 7V28H172.86V18.22H164.52V28H162.42V7H164.52V16.3H172.86V7H174.96ZM188.973 19.63L186.183 8.95H185.223L182.403 19.63H188.973ZM181.923 21.55L180.243 28H178.173L183.663 7H187.713L193.203 28H191.133L189.423 21.55H181.923ZM206.845 28L199.525 13.36L198.265 10.36H198.145L198.505 15.97V28H196.405V7H198.505L205.795 21.67L207.055 24.67H207.175L206.845 19.06V7H208.945V28H206.845ZM217.257 7H222.387L225.357 7.84L224.847 9.67L222.387 8.95H217.317C216.277 8.95 215.757 9.49 215.757 10.57V24.46C215.757 25.54 216.277 26.08 217.317 26.08H222.837L223.677 25.84V19.18H220.287V17.2H225.777V27.28L223.257 28H217.257C216.077 28 215.177 27.69 214.557 27.07C213.957 26.45 213.657 25.56 213.657 24.4V10.6C213.657 9.46 213.957 8.58 214.557 7.96C215.177 7.32 216.077 7 217.257 7ZM230.037 7H240.507V8.95H232.137V16.03H239.007V17.98H232.137V26.08H241.107V28H230.037V7Z"/>
</mask>
<g filter="url(#filter0_i_24_22)">
<path d="M2.43 7H11.28C12.46 7 13.35 7.32 13.95 7.96C14.57 8.58 14.88 9.46 14.88 10.6V24.4C14.88 25.56 14.57 26.45 13.95 27.07C13.35 27.69 12.46 28 11.28 28H2.43V7ZM11.22 8.95H4.53V26.08H11.22C12.26 26.08 12.78 25.54 12.78 24.46V10.57C12.78 9.49 12.26 8.95 11.22 8.95ZM19.4515 7H27.9415C29.1015 7 29.9915 7.32 30.6115 7.96C31.2315 8.58 31.5415 9.46 31.5415 10.6V15.55C31.5415 16.69 31.2315 17.58 30.6115 18.22C29.9915 18.84 29.1015 19.15 27.9415 19.15H26.3515L32.5015 28H29.9815L23.9815 19.15H21.5515V28H19.4515V7ZM21.5515 8.95V17.23H27.8815C28.9215 17.23 29.4415 16.69 29.4415 15.61V10.57C29.4415 9.49 28.9215 8.95 27.8815 8.95H21.5515ZM44.3205 8.95H39.1005C38.0605 8.95 37.5405 9.49 37.5405 10.57V24.46C37.5405 25.54 38.0605 26.08 39.1005 26.08H44.3205C45.3605 26.08 45.8805 25.54 45.8805 24.46V10.57C45.8805 9.49 45.3605 8.95 44.3205 8.95ZM44.3805 28H39.0405C37.8605 28 36.9605 27.69 36.3405 27.07C35.7405 26.45 35.4405 25.56 35.4405 24.4V10.6C35.4405 9.46 35.7405 8.58 36.3405 7.96C36.9605 7.32 37.8605 7 39.0405 7H44.3805C45.5405 7 46.4305 7.32 47.0505 7.96C47.6705 8.58 47.9805 9.46 47.9805 10.6V24.4C47.9805 25.54 47.6705 26.43 47.0505 27.07C46.4305 27.69 45.5405 28 44.3805 28ZM54.6277 28H52.5277V7H54.6277V28ZM59.5003 7H68.3503C69.5303 7 70.4203 7.32 71.0203 7.96C71.6403 8.58 71.9503 9.46 71.9503 10.6V24.4C71.9503 25.56 71.6403 26.45 71.0203 27.07C70.4203 27.69 69.5303 28 68.3503 28H59.5003V7ZM68.2903 8.95H61.6003V26.08H68.2903C69.3303 26.08 69.8503 25.54 69.8503 24.46V10.57C69.8503 9.49 69.3303 8.95 68.2903 8.95ZM117.479 7H127.949V8.95H119.579V16.03H126.449V17.98H119.579V26.08H128.549V28H117.479V7ZM142.419 9.43L138.759 16.93L144.219 28H141.999L137.289 18.46H137.169L132.489 28H130.269L135.729 16.93L130.869 7H133.119L137.199 15.37H137.319L140.499 8.74L141.039 6.79L143.229 7.06L142.419 9.43ZM150.574 7H155.584L158.584 7.84L158.044 9.67L155.584 8.95H150.634C149.594 8.95 149.074 9.49 149.074 10.57V24.46C149.074 25.54 149.594 26.08 150.634 26.08H155.944L158.404 25.36L158.914 27.19L155.944 28H150.574C149.394 28 148.494 27.69 147.874 27.07C147.274 26.45 146.974 25.56 146.974 24.4V10.6C146.974 9.46 147.274 8.58 147.874 7.96C148.494 7.32 149.394 7 150.574 7ZM174.96 7V28H172.86V18.22H164.52V28H162.42V7H164.52V16.3H172.86V7H174.96ZM188.973 19.63L186.183 8.95H185.223L182.403 19.63H188.973ZM181.923 21.55L180.243 28H178.173L183.663 7H187.713L193.203 28H191.133L189.423 21.55H181.923ZM206.845 28L199.525 13.36L198.265 10.36H198.145L198.505 15.97V28H196.405V7H198.505L205.795 21.67L207.055 24.67H207.175L206.845 19.06V7H208.945V28H206.845ZM217.257 7H222.387L225.357 7.84L224.847 9.67L222.387 8.95H217.317C216.277 8.95 215.757 9.49 215.757 10.57V24.46C215.757 25.54 216.277 26.08 217.317 26.08H222.837L223.677 25.84V19.18H220.287V17.2H225.777V27.28L223.257 28H217.257C216.077 28 215.177 27.69 214.557 27.07C213.957 26.45 213.657 25.56 213.657 24.4V10.6C213.657 9.46 213.957 8.58 214.557 7.96C215.177 7.32 216.077 7 217.257 7ZM230.037 7H240.507V8.95H232.137V16.03H239.007V17.98H232.137V26.08H241.107V28H230.037V7Z" fill="#EE9112"/>
</g>
<path d="M2.43 7V6H1.43V7H2.43ZM13.95 7.96L13.2205 8.64394L13.2315 8.6557L13.2429 8.66711L13.95 7.96ZM13.95 27.07L13.2429 26.3629L13.2371 26.3687L13.2314 26.3746L13.95 27.07ZM2.43 28H1.43V29H2.43V28ZM4.53 8.95V7.95H3.53V8.95H4.53ZM4.53 26.08H3.53V27.08H4.53V26.08ZM2.43 8H11.28V6H2.43V8ZM11.28 8C12.2828 8 12.8681 8.26808 13.2205 8.64394L14.6795 7.27606C13.8319 6.37192 12.6372 6 11.28 6V8ZM13.2429 8.66711C13.6239 9.04808 13.88 9.64224 13.88 10.6H15.88C15.88 9.27776 15.5161 8.11192 14.6571 7.25289L13.2429 8.66711ZM13.88 10.6V24.4H15.88V10.6H13.88ZM13.88 24.4C13.88 25.3835 13.6208 25.985 13.2429 26.3629L14.6571 27.7771C15.5192 26.915 15.88 25.7365 15.88 24.4H13.88ZM13.2314 26.3746C12.8808 26.7369 12.2916 27 11.28 27V29C12.6284 29 13.8192 28.6431 14.6686 27.7654L13.2314 26.3746ZM11.28 27H2.43V29H11.28V27ZM3.43 28V7H1.43V28H3.43ZM11.22 7.95H4.53V9.95H11.22V7.95ZM3.53 8.95V26.08H5.53V8.95H3.53ZM4.53 27.08H11.22V25.08H4.53V27.08ZM11.22 27.08C11.9039 27.08 12.5982 26.9004 13.1103 26.3686C13.6156 25.8439 13.78 25.1449 13.78 24.46H11.78C11.78 24.8551 11.6844 24.9661 11.6697 24.9814C11.6618 24.9896 11.5761 25.08 11.22 25.08V27.08ZM13.78 24.46V10.57H11.78V24.46H13.78ZM13.78 10.57C13.78 9.8851 13.6156 9.1861 13.1103 8.66136C12.5982 8.12958 11.9039 7.95 11.22 7.95V9.95C11.5761 9.95 11.6618 10.0404 11.6697 10.0486C11.6844 10.0639 11.78 10.1749 11.78 10.57H13.78ZM19.4515 7V6H18.4515V7H19.4515ZM30.6115 7.96L29.8932 8.65579L29.8988 8.66149L29.9044 8.66711L30.6115 7.96ZM30.6115 18.22L31.3186 18.9271L31.3242 18.9215L31.3297 18.9158L30.6115 18.22ZM26.3515 19.15V18.15H24.4388L25.5303 19.7207L26.3515 19.15ZM32.5015 28V29H34.4141L33.3227 27.4293L32.5015 28ZM29.9815 28L29.1538 28.5612L29.4513 29H29.9815V28ZM23.9815 19.15L24.8092 18.5888L24.5117 18.15H23.9815V19.15ZM21.5515 19.15V18.15H20.5515V19.15H21.5515ZM21.5515 28V29H22.5515V28H21.5515ZM19.4515 28H18.4515V29H19.4515V28ZM21.5515 8.95V7.95H20.5515V8.95H21.5515ZM21.5515 17.23H20.5515V18.23H21.5515V17.23ZM19.4515 8H27.9415V6H19.4515V8ZM27.9415 8C28.9163 8 29.5138 8.26413 29.8932 8.65579L31.3297 7.2642C30.4692 6.37587 29.2867 6 27.9415 6V8ZM29.9044 8.66711C30.2854 9.04808 30.5415 9.64224 30.5415 10.6H32.5415C32.5415 9.27776 32.1776 8.11192 31.3186 7.25289L29.9044 8.66711ZM30.5415 10.6V15.55H32.5415V10.6H30.5415ZM30.5415 15.55C30.5415 16.506 30.286 17.1188 29.8932 17.5242L31.3297 18.9158C32.177 18.0412 32.5415 16.874 32.5415 15.55H30.5415ZM29.9044 17.5129C29.5265 17.8908 28.925 18.15 27.9415 18.15V20.15C29.278 20.15 30.4565 19.7892 31.3186 18.9271L29.9044 17.5129ZM27.9415 18.15H26.3515V20.15H27.9415V18.15ZM25.5303 19.7207L31.6803 28.5707L33.3227 27.4293L27.1727 18.5793L25.5303 19.7207ZM32.5015 27H29.9815V29H32.5015V27ZM30.8092 27.4388L24.8092 18.5888L23.1538 19.7112L29.1538 28.5612L30.8092 27.4388ZM23.9815 18.15H21.5515V20.15H23.9815V18.15ZM20.5515 19.15V28H22.5515V19.15H20.5515ZM21.5515 27H19.4515V29H21.5515V27ZM20.4515 28V7H18.4515V28H20.4515ZM20.5515 8.95V17.23H22.5515V8.95H20.5515ZM21.5515 18.23H27.8815V16.23H21.5515V18.23ZM27.8815 18.23C28.5654 18.23 29.2597 18.0504 29.7718 17.5186C30.2771 16.9939 30.4415 16.2949 30.4415 15.61H28.4415C28.4415 16.0051 28.3459 16.1161 28.3312 16.1314C28.3232 16.1396 28.2375 16.23 27.8815 16.23V18.23ZM30.4415 15.61V10.57H28.4415V15.61H30.4415ZM30.4415 10.57C30.4415 9.8851 30.2771 9.1861 29.7718 8.66136C29.2597 8.12958 28.5654 7.95 27.8815 7.95V9.95C28.2375 9.95 28.3232 10.0404 28.3312 10.0486C28.3459 10.0639 28.4415 10.1749 28.4415 10.57H30.4415ZM27.8815 7.95H21.5515V9.95H27.8815V7.95ZM36.3405 27.07L35.6219 27.7654L35.6276 27.7713L35.6334 27.7771L36.3405 27.07ZM36.3405 7.96L35.6223 7.2642L35.6219 7.26458L36.3405 7.96ZM47.0505 7.96L46.3323 8.65579L46.3378 8.66149L46.3434 8.66711L47.0505 7.96ZM47.0505 27.07L47.7577 27.7771L47.7633 27.7715L47.7688 27.7658L47.0505 27.07ZM44.3205 7.95H39.1005V9.95H44.3205V7.95ZM39.1005 7.95C38.4166 7.95 37.7223 8.12958 37.2102 8.66136C36.7049 9.1861 36.5405 9.8851 36.5405 10.57H38.5405C38.5405 10.1749 38.6362 10.0639 38.6509 10.0486C38.6588 10.0404 38.7445 9.95 39.1005 9.95V7.95ZM36.5405 10.57V24.46H38.5405V10.57H36.5405ZM36.5405 24.46C36.5405 25.1449 36.7049 25.8439 37.2102 26.3686C37.7223 26.9004 38.4166 27.08 39.1005 27.08V25.08C38.7445 25.08 38.6588 24.9896 38.6509 24.9814C38.6362 24.9661 38.5405 24.8551 38.5405 24.46H36.5405ZM39.1005 27.08H44.3205V25.08H39.1005V27.08ZM44.3205 27.08C45.0045 27.08 45.6988 26.9004 46.2109 26.3686C46.7162 25.8439 46.8805 25.1449 46.8805 24.46H44.8805C44.8805 24.8551 44.7849 24.9661 44.7702 24.9814C44.7623 24.9896 44.6766 25.08 44.3205 25.08V27.08ZM46.8805 24.46V10.57H44.8805V24.46H46.8805ZM46.8805 10.57C46.8805 9.8851 46.7162 9.1861 46.2109 8.66136C45.6988 8.12958 45.0045 7.95 44.3205 7.95V9.95C44.6766 9.95 44.7623 10.0404 44.7702 10.0486C44.7849 10.0639 44.8805 10.1749 44.8805 10.57H46.8805ZM44.3805 27H39.0405V29H44.3805V27ZM39.0405 27C38.0313 27 37.4225 26.7377 37.0477 26.3629L35.6334 27.7771C36.4986 28.6423 37.6898 29 39.0405 29V27ZM37.0591 26.3746C36.6946 25.9979 36.4405 25.3921 36.4405 24.4H34.4405C34.4405 25.7279 34.7864 26.9021 35.6219 27.7654L37.0591 26.3746ZM36.4405 24.4V10.6H34.4405V24.4H36.4405ZM36.4405 10.6C36.4405 9.63354 36.6917 9.03511 37.0591 8.65542L35.6219 7.26458C34.7894 8.12489 34.4405 9.28645 34.4405 10.6H36.4405ZM37.0588 8.65579C37.4351 8.26731 38.0399 8 39.0405 8V6C37.6812 6 36.486 6.37269 35.6223 7.2642L37.0588 8.65579ZM39.0405 8H44.3805V6H39.0405V8ZM44.3805 8C45.3554 8 45.9529 8.26413 46.3323 8.65579L47.7688 7.2642C46.9082 6.37587 45.7257 6 44.3805 6V8ZM46.3434 8.66711C46.7244 9.04808 46.9805 9.64224 46.9805 10.6H48.9805C48.9805 9.27776 48.6167 8.11192 47.7577 7.25289L46.3434 8.66711ZM46.9805 10.6V24.4H48.9805V10.6H46.9805ZM46.9805 24.4C46.9805 25.356 46.725 25.9688 46.3323 26.3742L47.7688 27.7658C48.6161 26.8912 48.9805 25.724 48.9805 24.4H46.9805ZM46.3434 26.3629C45.9656 26.7408 45.3641 27 44.3805 27V29C45.717 29 46.8955 28.6392 47.7577 27.7771L46.3434 26.3629ZM54.6277 28V29H55.6277V28H54.6277ZM52.5277 28H51.5277V29H52.5277V28ZM52.5277 7V6H51.5277V7H52.5277ZM54.6277 7H55.6277V6H54.6277V7ZM54.6277 27H52.5277V29H54.6277V27ZM53.5277 28V7H51.5277V28H53.5277ZM52.5277 8H54.6277V6H52.5277V8ZM53.6277 7V28H55.6277V7H53.6277ZM59.5003 7V6H58.5003V7H59.5003ZM71.0203 7.96L70.2908 8.64394L70.3018 8.6557L70.3132 8.66711L71.0203 7.96ZM71.0203 27.07L70.3132 26.3629L70.3074 26.3687L70.3017 26.3746L71.0203 27.07ZM59.5003 28H58.5003V29H59.5003V28ZM61.6003 8.95V7.95H60.6003V8.95H61.6003ZM61.6003 26.08H60.6003V27.08H61.6003V26.08ZM59.5003 8H68.3503V6H59.5003V8ZM68.3503 8C69.3531 8 69.9384 8.26808 70.2908 8.64394L71.7499 7.27606C70.9022 6.37192 69.7075 6 68.3503 6V8ZM70.3132 8.66711C70.6942 9.04808 70.9503 9.64224 70.9503 10.6H72.9503C72.9503 9.27776 72.5864 8.11192 71.7274 7.25289L70.3132 8.66711ZM70.9503 10.6V24.4H72.9503V10.6H70.9503ZM70.9503 24.4C70.9503 25.3835 70.6911 25.985 70.3132 26.3629L71.7274 27.7771C72.5896 26.915 72.9503 25.7365 72.9503 24.4H70.9503ZM70.3017 26.3746C69.9511 26.7369 69.3619 27 68.3503 27V29C69.6987 29 70.8895 28.6431 71.7389 27.7654L70.3017 26.3746ZM68.3503 27H59.5003V29H68.3503V27ZM60.5003 28V7H58.5003V28H60.5003ZM68.2903 7.95H61.6003V9.95H68.2903V7.95ZM60.6003 8.95V26.08H62.6003V8.95H60.6003ZM61.6003 27.08H68.2903V25.08H61.6003V27.08ZM68.2903 27.08C68.9743 27.08 69.6686 26.9004 70.1806 26.3686C70.6859 25.8439 70.8503 25.1449 70.8503 24.46H68.8503C68.8503 24.8551 68.7547 24.9661 68.74 24.9814C68.7321 24.9896 68.6464 25.08 68.2903 25.08V27.08ZM70.8503 24.46V10.57H68.8503V24.46H70.8503ZM70.8503 10.57C70.8503 9.8851 70.6859 9.1861 70.1806 8.66136C69.6686 8.12958 68.9743 7.95 68.2903 7.95V9.95C68.6464 9.95 68.7321 10.0404 68.74 10.0486C68.7547 10.0639 68.8503 10.1749 68.8503 10.57H70.8503ZM117.479 7V6H116.479V7H117.479ZM127.949 7H128.949V6H127.949V7ZM127.949 8.95V9.95H128.949V8.95H127.949ZM119.579 8.95V7.95H118.579V8.95H119.579ZM119.579 16.03H118.579V17.03H119.579V16.03ZM126.449 16.03H127.449V15.03H126.449V16.03ZM126.449 17.98V18.98H127.449V17.98H126.449ZM119.579 17.98V16.98H118.579V17.98H119.579ZM119.579 26.08H118.579V27.08H119.579V26.08ZM128.549 26.08H129.549V25.08H128.549V26.08ZM128.549 28V29H129.549V28H128.549ZM117.479 28H116.479V29H117.479V28ZM117.479 8H127.949V6H117.479V8ZM126.949 7V8.95H128.949V7H126.949ZM127.949 7.95H119.579V9.95H127.949V7.95ZM118.579 8.95V16.03H120.579V8.95H118.579ZM119.579 17.03H126.449V15.03H119.579V17.03ZM125.449 16.03V17.98H127.449V16.03H125.449ZM126.449 16.98H119.579V18.98H126.449V16.98ZM118.579 17.98V26.08H120.579V17.98H118.579ZM119.579 27.08H128.549V25.08H119.579V27.08ZM127.549 26.08V28H129.549V26.08H127.549ZM128.549 27H117.479V29H128.549V27ZM118.479 28V7H116.479V28H118.479ZM142.419 9.43L143.317 9.86856L143.345 9.81247L143.365 9.7534L142.419 9.43ZM138.759 16.93L137.86 16.4914L137.645 16.9323L137.862 17.3723L138.759 16.93ZM144.219 28V29H145.827L145.116 27.5577L144.219 28ZM141.999 28L141.102 28.4427L141.377 29H141.999V28ZM137.289 18.46L138.185 18.0173L137.91 17.46H137.289V18.46ZM137.169 18.46V17.46H136.545L136.271 18.0196L137.169 18.46ZM132.489 28V29H133.112L133.386 28.4404L132.489 28ZM130.269 28L129.372 27.5577L128.66 29H130.269V28ZM135.729 16.93L136.626 17.3723L136.843 16.9317L136.627 16.4904L135.729 16.93ZM130.869 7V6H129.266L129.97 7.4396L130.869 7ZM133.119 7L134.018 6.56183L133.744 6H133.119V7ZM137.199 15.37L136.3 15.8082L136.574 16.37H137.199V15.37ZM137.319 15.37V16.37H137.948L138.22 15.8025L137.319 15.37ZM140.499 8.74L141.4 9.17247L141.439 9.09243L141.462 9.00688L140.499 8.74ZM141.039 6.79L141.161 5.79751L140.305 5.69199L140.075 6.52312L141.039 6.79ZM143.229 7.06L144.175 7.3834L144.573 6.21819L143.351 6.06751L143.229 7.06ZM141.52 8.99143L137.86 16.4914L139.657 17.3686L143.317 9.86856L141.52 8.99143ZM137.862 17.3723L143.322 28.4423L145.116 27.5577L139.656 16.4877L137.862 17.3723ZM144.219 27H141.999V29H144.219V27ZM142.895 27.5573L138.185 18.0173L136.392 18.9027L141.102 28.4427L142.895 27.5573ZM137.289 17.46H137.169V19.46H137.289V17.46ZM136.271 18.0196L131.591 27.5596L133.386 28.4404L138.066 18.9004L136.271 18.0196ZM132.489 27H130.269V29H132.489V27ZM131.166 28.4423L136.626 17.3723L134.832 16.4877L129.372 27.5577L131.166 28.4423ZM136.627 16.4904L131.767 6.5604L129.97 7.4396L134.83 17.3696L136.627 16.4904ZM130.869 8H133.119V6H130.869V8ZM132.22 7.43817L136.3 15.8082L138.098 14.9318L134.018 6.56183L132.22 7.43817ZM137.199 16.37H137.319V14.37H137.199V16.37ZM138.22 15.8025L141.4 9.17247L139.597 8.30753L136.417 14.9375L138.22 15.8025ZM141.462 9.00688L142.002 7.05688L140.075 6.52312L139.535 8.47312L141.462 9.00688ZM140.916 7.78249L143.106 8.05249L143.351 6.06751L141.161 5.79751L140.916 7.78249ZM142.282 6.73659L141.472 9.10659L143.365 9.7534L144.175 7.3834L142.282 6.73659ZM155.584 7L155.853 6.03703L155.721 6H155.584V7ZM158.584 7.84L159.543 8.12302L159.83 7.15045L158.853 6.87703L158.584 7.84ZM158.044 9.67L157.763 10.6297L158.72 10.91L159.003 9.95302L158.044 9.67ZM155.584 8.95L155.865 7.99026L155.727 7.95H155.584V8.95ZM155.944 26.08V27.08H156.087L156.225 27.0397L155.944 26.08ZM158.404 25.36L159.367 25.0915L159.095 24.1157L158.123 24.4003L158.404 25.36ZM158.914 27.19L159.177 28.1548L160.147 27.8902L159.877 26.9215L158.914 27.19ZM155.944 28V29H156.078L156.207 28.9648L155.944 28ZM147.874 27.07L147.155 27.7654L147.161 27.7713L147.167 27.7771L147.874 27.07ZM147.874 7.96L147.156 7.2642L147.155 7.26458L147.874 7.96ZM150.574 8H155.584V6H150.574V8ZM155.314 7.96296L158.314 8.80296L158.853 6.87703L155.853 6.03703L155.314 7.96296ZM157.625 7.55698L157.085 9.38698L159.003 9.95302L159.543 8.12302L157.625 7.55698ZM158.325 8.71026L155.865 7.99026L155.303 9.90974L157.763 10.6297L158.325 8.71026ZM155.584 7.95H150.634V9.95H155.584V7.95ZM150.634 7.95C149.95 7.95 149.256 8.12958 148.743 8.66136C148.238 9.1861 148.074 9.8851 148.074 10.57H150.074C150.074 10.1749 150.169 10.0639 150.184 10.0486C150.192 10.0404 150.278 9.95 150.634 9.95V7.95ZM148.074 10.57V24.46H150.074V10.57H148.074ZM148.074 24.46C148.074 25.1449 148.238 25.8439 148.743 26.3686C149.256 26.9004 149.95 27.08 150.634 27.08V25.08C150.278 25.08 150.192 24.9896 150.184 24.9814C150.169 24.9661 150.074 24.8551 150.074 24.46H148.074ZM150.634 27.08H155.944V25.08H150.634V27.08ZM156.225 27.0397L158.685 26.3197L158.123 24.4003L155.663 25.1203L156.225 27.0397ZM157.44 25.6285L157.95 27.4585L159.877 26.9215L159.367 25.0915L157.44 25.6285ZM158.651 26.2252L155.681 27.0352L156.207 28.9648L159.177 28.1548L158.651 26.2252ZM155.944 27H150.574V29H155.944V27ZM150.574 27C149.565 27 148.956 26.7377 148.581 26.3629L147.167 27.7771C148.032 28.6423 149.223 29 150.574 29V27ZM148.592 26.3746C148.228 25.9979 147.974 25.3921 147.974 24.4H145.974C145.974 25.7279 146.32 26.9021 147.155 27.7654L148.592 26.3746ZM147.974 24.4V10.6H145.974V24.4H147.974ZM147.974 10.6C147.974 9.63354 148.225 9.03511 148.592 8.65542L147.155 7.26458C146.323 8.12489 145.974 9.28645 145.974 10.6H147.974ZM148.592 8.65579C148.968 8.26731 149.573 8 150.574 8V6C149.214 6 148.019 6.37269 147.156 7.2642L148.592 8.65579ZM174.96 7H175.96V6H174.96V7ZM174.96 28V29H175.96V28H174.96ZM172.86 28H171.86V29H172.86V28ZM172.86 18.22H173.86V17.22H172.86V18.22ZM164.52 18.22V17.22H163.52V18.22H164.52ZM164.52 28V29H165.52V28H164.52ZM162.42 28H161.42V29H162.42V28ZM162.42 7V6H161.42V7H162.42ZM164.52 7H165.52V6H164.52V7ZM164.52 16.3H163.52V17.3H164.52V16.3ZM172.86 16.3V17.3H173.86V16.3H172.86ZM172.86 7V6H171.86V7H172.86ZM173.96 7V28H175.96V7H173.96ZM174.96 27H172.86V29H174.96V27ZM173.86 28V18.22H171.86V28H173.86ZM172.86 17.22H164.52V19.22H172.86V17.22ZM163.52 18.22V28H165.52V18.22H163.52ZM164.52 27H162.42V29H164.52V27ZM163.42 28V7H161.42V28H163.42ZM162.42 8H164.52V6H162.42V8ZM163.52 7V16.3H165.52V7H163.52ZM164.52 17.3H172.86V15.3H164.52V17.3ZM173.86 16.3V7H171.86V16.3H173.86ZM172.86 8H174.96V6H172.86V8ZM188.973 19.63V20.63H190.267L189.94 19.3772L188.973 19.63ZM186.183 8.95L187.15 8.69724L186.955 7.95H186.183V8.95ZM185.223 8.95V7.95H184.452L184.256 8.6947L185.223 8.95ZM182.403 19.63L181.436 19.3747L181.104 20.63H182.403V19.63ZM181.923 21.55V20.55H181.15L180.955 21.2979L181.923 21.55ZM180.243 28V29H181.015L181.21 28.2521L180.243 28ZM178.173 28L177.205 27.7471L176.878 29H178.173V28ZM183.663 7V6H182.89L182.695 6.74707L183.663 7ZM187.713 7L188.68 6.74707L188.485 6H187.713V7ZM193.203 28V29H194.498L194.17 27.7471L193.203 28ZM191.133 28L190.166 28.2563L190.363 29H191.133V28ZM189.423 21.55L190.389 21.2937L190.192 20.55H189.423V21.55ZM189.94 19.3772L187.15 8.69724L185.215 9.20275L188.005 19.8828L189.94 19.3772ZM186.183 7.95H185.223V9.95H186.183V7.95ZM184.256 8.6947L181.436 19.3747L183.369 19.8853L186.189 9.20529L184.256 8.6947ZM182.403 20.63H188.973V18.63H182.403V20.63ZM180.955 21.2979L179.275 27.7479L181.21 28.2521L182.89 21.8021L180.955 21.2979ZM180.243 27H178.173V29H180.243V27ZM179.14 28.2529L184.63 7.25293L182.695 6.74707L177.205 27.7471L179.14 28.2529ZM183.663 8H187.713V6H183.663V8ZM186.745 7.25293L192.235 28.2529L194.17 27.7471L188.68 6.74707L186.745 7.25293ZM193.203 27H191.133V29H193.203V27ZM192.099 27.7437L190.389 21.2937L188.456 21.8063L190.166 28.2563L192.099 27.7437ZM189.423 20.55H181.923V22.55H189.423V20.55ZM206.845 28L205.95 28.4472L206.227 29H206.845V28ZM199.525 13.36L198.603 13.7472L198.615 13.7777L198.63 13.8072L199.525 13.36ZM198.265 10.36L199.187 9.97277L198.929 9.36H198.265V10.36ZM198.145 10.36V9.36H197.078L197.147 10.424L198.145 10.36ZM198.505 15.97H199.505V15.9379L199.503 15.906L198.505 15.97ZM198.505 28V29H199.505V28H198.505ZM196.405 28H195.405V29H196.405V28ZM196.405 7V6H195.405V7H196.405ZM198.505 7L199.4 6.55498L199.124 6H198.505V7ZM205.795 21.67L206.717 21.2828L206.704 21.2535L206.69 21.225L205.795 21.67ZM207.055 24.67L206.133 25.0572L206.39 25.67H207.055V24.67ZM207.175 24.67V25.67H208.235L208.173 24.6113L207.175 24.67ZM206.845 19.06H205.845V19.0894L205.846 19.1187L206.845 19.06ZM206.845 7V6H205.845V7H206.845ZM208.945 7H209.945V6H208.945V7ZM208.945 28V29H209.945V28H208.945ZM207.739 27.5528L200.419 12.9128L198.63 13.8072L205.95 28.4472L207.739 27.5528ZM200.447 12.9728L199.187 9.97277L197.343 10.7472L198.603 13.7472L200.447 12.9728ZM198.265 9.36H198.145V11.36H198.265V9.36ZM197.147 10.424L197.507 16.034L199.503 15.906L199.143 10.296L197.147 10.424ZM197.505 15.97V28H199.505V15.97H197.505ZM198.505 27H196.405V29H198.505V27ZM197.405 28V7H195.405V28H197.405ZM196.405 8H198.505V6H196.405V8ZM197.609 7.44501L204.899 22.115L206.69 21.225L199.4 6.55498L197.609 7.44501ZM204.873 22.0572L206.133 25.0572L207.977 24.2828L206.717 21.2828L204.873 22.0572ZM207.055 25.67H207.175V23.67H207.055V25.67ZM208.173 24.6113L207.843 19.0013L205.846 19.1187L206.176 24.7287L208.173 24.6113ZM207.845 19.06V7H205.845V19.06H207.845ZM206.845 8H208.945V6H206.845V8ZM207.945 7V28H209.945V7H207.945ZM208.945 27H206.845V29H208.945V27ZM222.387 7L222.659 6.03774L222.526 6H222.387V7ZM225.357 7.84L226.32 8.10846L226.588 7.14885L225.629 6.87774L225.357 7.84ZM224.847 9.67L224.566 10.6297L225.538 10.9143L225.81 9.93846L224.847 9.67ZM222.387 8.95L222.668 7.99026L222.53 7.95H222.387V8.95ZM222.837 26.08V27.08H222.977L223.112 27.0415L222.837 26.08ZM223.677 25.84L223.952 26.8015L224.677 26.5943V25.84H223.677ZM223.677 19.18H224.677V18.18H223.677V19.18ZM220.287 19.18H219.287V20.18H220.287V19.18ZM220.287 17.2V16.2H219.287V17.2H220.287ZM225.777 17.2H226.777V16.2H225.777V17.2ZM225.777 27.28L226.052 28.2415L226.777 28.0343V27.28H225.777ZM223.257 28V29H223.397L223.532 28.9615L223.257 28ZM214.557 27.07L213.838 27.7654L213.844 27.7713L213.85 27.7771L214.557 27.07ZM214.557 7.96L213.839 7.2642L213.838 7.26458L214.557 7.96ZM217.257 8H222.387V6H217.257V8ZM222.115 7.96225L225.085 8.80225L225.629 6.87774L222.659 6.03774L222.115 7.96225ZM224.394 7.57154L223.884 9.40154L225.81 9.93846L226.32 8.10846L224.394 7.57154ZM225.128 8.71026L222.668 7.99026L222.106 9.90974L224.566 10.6297L225.128 8.71026ZM222.387 7.95H217.317V9.95H222.387V7.95ZM217.317 7.95C216.633 7.95 215.939 8.12958 215.427 8.66136C214.921 9.1861 214.757 9.8851 214.757 10.57H216.757C216.757 10.1749 216.853 10.0639 216.867 10.0486C216.875 10.0404 216.961 9.95 217.317 9.95V7.95ZM214.757 10.57V24.46H216.757V10.57H214.757ZM214.757 24.46C214.757 25.1449 214.921 25.8439 215.427 26.3686C215.939 26.9004 216.633 27.08 217.317 27.08V25.08C216.961 25.08 216.875 24.9896 216.867 24.9814C216.853 24.9661 216.757 24.8551 216.757 24.46H214.757ZM217.317 27.08H222.837V25.08H217.317V27.08ZM223.112 27.0415L223.952 26.8015L223.402 24.8785L222.562 25.1185L223.112 27.0415ZM224.677 25.84V19.18H222.677V25.84H224.677ZM223.677 18.18H220.287V20.18H223.677V18.18ZM221.287 19.18V17.2H219.287V19.18H221.287ZM220.287 18.2H225.777V16.2H220.287V18.2ZM224.777 17.2V27.28H226.777V17.2H224.777ZM225.502 26.3185L222.982 27.0385L223.532 28.9615L226.052 28.2415L225.502 26.3185ZM223.257 27H217.257V29H223.257V27ZM217.257 27C216.248 27 215.639 26.7377 215.264 26.3629L213.85 27.7771C214.715 28.6423 215.906 29 217.257 29V27ZM215.276 26.3746C214.911 25.9979 214.657 25.3921 214.657 24.4H212.657C212.657 25.7279 213.003 26.9021 213.838 27.7654L215.276 26.3746ZM214.657 24.4V10.6H212.657V24.4H214.657ZM214.657 10.6C214.657 9.63354 214.908 9.03511 215.276 8.65542L213.838 7.26458C213.006 8.12489 212.657 9.28645 212.657 10.6H214.657ZM215.275 8.65579C215.652 8.26731 216.256 8 217.257 8V6C215.898 6 214.702 6.37269 213.839 7.2642L215.275 8.65579ZM230.037 7V6H229.037V7H230.037ZM240.507 7H241.507V6H240.507V7ZM240.507 8.95V9.95H241.507V8.95H240.507ZM232.137 8.95V7.95H231.137V8.95H232.137ZM232.137 16.03H231.137V17.03H232.137V16.03ZM239.007 16.03H240.007V15.03H239.007V16.03ZM239.007 17.98V18.98H240.007V17.98H239.007ZM232.137 17.98V16.98H231.137V17.98H232.137ZM232.137 26.08H231.137V27.08H232.137V26.08ZM241.107 26.08H242.107V25.08H241.107V26.08ZM241.107 28V29H242.107V28H241.107ZM230.037 28H229.037V29H230.037V28ZM230.037 8H240.507V6H230.037V8ZM239.507 7V8.95H241.507V7H239.507ZM240.507 7.95H232.137V9.95H240.507V7.95ZM231.137 8.95V16.03H233.137V8.95H231.137ZM232.137 17.03H239.007V15.03H232.137V17.03ZM238.007 16.03V17.98H240.007V16.03H238.007ZM239.007 16.98H232.137V18.98H239.007V16.98ZM231.137 17.98V26.08H233.137V17.98H231.137ZM232.137 27.08H241.107V25.08H232.137V27.08ZM240.107 26.08V28H242.107V26.08H240.107ZM241.107 27H230.037V29H241.107V27ZM231.037 28V7H229.037V28H231.037Z" fill="#EE9112" mask="url(#path-15-outside-1_24_22)"/>
<defs>
<filter id="filter0_i_24_22" x="2.43" y="6.78999" width="238.677" height="25.21" filterUnits="userSpaceOnUse" color-interpolation-filters="sRGB">
<feFlood flood-opacity="0" result="BackgroundImageFix"/>
<feBlend mode="normal" in="SourceGraphic" in2="BackgroundImageFix" result="shape"/>
<feColorMatrix in="SourceAlpha" type="matrix" values="0 0 0 0 0 0 0 0 0 0 0 0 0 0 0 0 0 0 127 0" result="hardAlpha"/>
<feOffset dy="4"/>
<feGaussianBlur stdDeviation="2"/>
<feComposite in2="hardAlpha" operator="arithmetic" k2="-1" k3="1"/>
<feColorMatrix type="matrix" values="0 0 0 0 0 0 0 0 0 0 0 0 0 0 0 0 0 0 0.25 0"/>
<feBlend mode="normal" in2="shape" result="effect1_innerShadow_24_22"/>
</filter>
</defs>
</svg>
