<svg width="250" height="45" viewBox="0 0 250 45" fill="none" xmlns="http://www.w3.org/2000/svg">
<path d="M98.7503 13.4453L101.25 14.4453L103.25 15.9453L104.25 17.4453L101.75 18.9453L98.7503 17.9453H94.2503L90.7503 18.9453L88.2503 17.4453L90.7503 14.9453L93.7503 13.4453V15.4453H98.7503V13.4453Z" fill="#EE9112"/>
<path d="M103.25 11.4453H104.25L105.25 11.9453L104.25 13.4453L103.25 12.9453V11.4453Z" fill="#EE9112"/>
<path d="M88.2503 11.4453H89.2503L89.7503 12.4453L89.2503 13.4453H88.2503L87.7503 12.4453L88.2503 11.4453Z" fill="#EE9112"/>
<path d="M104.25 27.4453L105.75 28.4453L103.25 31.4453L101.25 32.9453L98.2503 34.4453L97.7503 31.9453H93.2503L91.2503 32.9453L89.2503 31.4453L87.7503 29.4453L86.7503 27.9453L88.7503 27.4453L90.7503 28.9453L93.2503 29.4453H96.2503H98.7503L100.75 28.9453L104.25 27.4453Z" fill="#303273"/>
<path d="M93.7503 13.9453V15.4453H98.7503V13.4453L96.2503 12.9453L93.7503 13.9453Z" fill="#303273"/>
<path d="M106.25 20.4453L108.25 21.9453V24.9453L107.75 27.4453L105.75 27.9453L106.25 25.9453L106.75 23.9453L106.25 20.4453Z" fill="#EE9112"/>
<path d="M86.2503 20.4453L84.7503 21.4453L84.2503 23.4453V24.9453L84.7503 26.9453L85.7503 27.9453H86.7503L86.2503 26.4453V24.4453V20.4453Z" fill="#EE9112"/>
<path d="M101.75 18.9453L104.25 17.4453L105.75 19.9453L106.25 21.9453L106.75 23.4453L106.25 25.9453L105.75 27.9453L103.75 27.4453L104.75 25.9453L105.25 24.4453L104.75 22.4453L103.25 19.9453L101.75 18.9453Z" fill="black"/>
<path d="M88.2503 17.4453L90.7503 18.9453L88.2503 21.4453L87.7503 23.4453V25.4453L88.7503 27.4453L86.7503 27.9453L86.2503 25.9453V22.9453L86.7503 19.9453L88.2503 17.4453Z" fill="black"/>
<path d="M91.7503 33.4453L94.2503 34.4453H97.2503L98.2503 33.9453L97.7503 31.9453H92.7503L91.2503 32.9453L91.7503 33.4453Z" fill="black"/>
<path d="M96.7503 17.9453L99.7503 18.4453L101.75 18.9453L103.75 20.9453L104.75 22.4453L105.25 24.4453L104.75 26.4453L103.25 27.9453L100.75 28.9453L98.2503 29.4453H95.7503H93.7503L91.2503 28.9453L89.2503 27.9453L87.7503 26.4453V24.4453V22.4453L88.7503 20.9453L90.2503 19.4453L92.2503 18.4453L93.7503 17.9453H96.7503Z" fill="#FFFAFA"/>
<path d="M88.2164 11.0595C87.6466 11.2258 87.2719 11.7608 87.277 12.405C87.2873 13.2102 87.8519 13.7505 88.6784 13.7505H89.0326L89.469 14.3686C89.7103 14.7115 89.9105 15.0076 89.9105 15.0336C89.9105 15.0543 89.6743 15.2881 89.3817 15.5479C88.1959 16.6076 87.2103 18.0362 86.5532 19.6414L86.3427 20.1556L85.968 20.2751C85.5368 20.405 85.2698 20.5816 84.9618 20.9245C83.8632 22.1609 83.6682 25.1895 84.5717 27.0804C84.7719 27.5011 84.8797 27.6622 85.1261 27.8908C85.547 28.2804 86.0347 28.4985 86.507 28.5037C86.661 28.5037 86.6815 28.5349 86.9587 29.0596C88.3961 31.7921 90.8294 33.7349 93.7452 34.483C94.7154 34.7323 95.4341 34.805 96.6096 34.7739C98.0624 34.7375 99.1353 34.5089 100.383 33.9739C102.713 32.9661 104.546 31.2622 105.716 29.0232L105.973 28.5349L106.338 28.4726C106.938 28.3687 107.215 28.2232 107.58 27.8336C108.021 27.3661 108.252 26.8518 108.473 25.8804C108.586 25.3869 108.632 23.6934 108.545 23.1011C108.427 22.2596 108.17 21.5635 107.785 21.0492C107.549 20.7271 107.041 20.3738 106.656 20.2647C106.492 20.218 106.338 20.1556 106.307 20.1193C106.276 20.0881 106.199 19.9115 106.132 19.7245C105.609 18.218 104.284 16.3479 102.991 15.2881C102.852 15.179 102.744 15.0647 102.744 15.0388C102.744 14.9972 103.011 14.6024 103.499 13.9219C103.612 13.7608 103.627 13.7556 103.986 13.7608C104.269 13.766 104.418 13.7349 104.597 13.6517C105.306 13.3141 105.588 12.4777 105.239 11.7556C105.013 11.2881 104.572 11.0076 104.048 11.0024C103.227 10.9868 102.559 11.7141 102.662 12.5037C102.698 12.7894 102.816 13.1063 102.934 13.2414C103.006 13.3193 102.97 13.3816 102.565 13.9271C102.318 14.2595 102.087 14.5297 102.051 14.5297C102.015 14.5297 101.789 14.4154 101.553 14.2803C100.342 13.5738 99.048 13.1219 97.6363 12.9141C97.0665 12.8258 95.5162 12.831 94.9926 12.9141C93.4423 13.1686 92.3078 13.5686 91.086 14.2751C90.8396 14.4154 90.6189 14.5297 90.5932 14.5297C90.5624 14.5297 90.3417 14.2595 90.1004 13.9323L89.6589 13.3297L89.7821 13.1479C90.1774 12.5556 90.0439 11.7401 89.4741 11.3037C89.0994 11.0128 88.6682 10.9297 88.2164 11.0595ZM104.423 11.9479C104.633 12.1505 104.685 12.379 104.567 12.6232C104.454 12.8725 104.264 12.9868 103.981 12.9868C103.786 12.9868 103.73 12.9608 103.581 12.7998C103.36 12.5505 103.345 12.2336 103.545 11.9894C103.791 11.6933 104.14 11.6777 104.423 11.9479ZM89.0737 11.9479C89.238 12.1037 89.2585 12.1505 89.2585 12.3582C89.2483 12.7686 89.007 13.0024 88.5912 12.992C88.0522 12.9816 87.8211 12.3219 88.2164 11.9271C88.3396 11.8024 88.4064 11.7764 88.622 11.7764C88.8478 11.7764 88.9094 11.8024 89.0737 11.9479ZM97.8879 13.7245C98.5912 13.8543 98.5501 13.8024 98.509 14.5453C98.4885 14.8933 98.4628 15.1946 98.4474 15.2154C98.4372 15.2414 97.4823 15.2569 96.3273 15.2569C94.3766 15.2569 94.2226 15.2517 94.1764 15.1634C94.1096 15.0388 94.084 13.9219 94.1456 13.8595C94.202 13.8024 94.6589 13.7141 95.2236 13.6466C95.7678 13.579 97.3591 13.6258 97.8879 13.7245ZM93.3653 15.0232C93.3858 15.5115 93.4115 15.9375 93.4269 15.9686C93.4577 16.0673 99.1456 16.0673 99.1764 15.9686C99.1866 15.9375 99.2226 15.5115 99.2534 15.0284C99.2842 14.5401 99.3201 14.1349 99.3355 14.1193C99.4125 14.0414 100.675 14.618 101.358 15.044C101.594 15.1946 101.99 15.4699 102.231 15.6621C102.693 16.0258 103.771 17.0855 103.771 17.179C103.771 17.2102 103.601 17.3401 103.401 17.4751C102.328 18.1608 102.082 18.3167 101.872 18.4414L101.64 18.5712L101.307 18.4154C100.45 18.0102 98.971 17.6206 97.8417 17.4907C97.1538 17.4128 95.3211 17.4284 94.6333 17.5167C93.4166 17.6673 92.5953 17.8803 91.5121 18.3167C91.2246 18.4362 90.9628 18.5297 90.932 18.5297C90.9064 18.5297 90.701 18.4154 90.4854 18.2751C89.6127 17.7193 88.9762 17.3349 88.93 17.3349C88.6887 17.3349 89.4382 16.4569 90.2082 15.8388C90.8602 15.3193 91.2657 15.0388 91.7842 14.7582C92.3335 14.4569 93.1394 14.1089 93.2472 14.1297C93.3088 14.1401 93.3294 14.3011 93.3653 15.0232ZM88.9043 18.1556C89.161 18.3219 89.5511 18.5712 89.7667 18.7063C89.9875 18.8414 90.1774 18.966 90.1877 18.9868C90.2031 19.0076 90.0234 19.1686 89.7924 19.3453C88.3858 20.4102 87.508 21.844 87.2667 23.4648C87.0717 24.7687 87.3078 26.0518 87.9135 27.0024C88.0265 27.1739 88.1138 27.3193 88.1138 27.3349C88.1138 27.3609 87.3129 27.6206 87.2205 27.6206C87.0871 27.6206 86.7123 26.3895 86.5686 25.4648C86.4762 24.8934 86.4762 22.8726 86.5634 22.3739C86.7945 21.0908 87.1435 20.0154 87.6671 18.9972C87.9598 18.431 88.3191 17.8543 88.3858 17.8543C88.4115 17.8543 88.6476 17.9894 88.9043 18.1556ZM104.582 18.3011C105.552 19.7764 106.096 21.5739 106.168 23.5271C106.214 24.8206 106.071 25.9115 105.716 27.0128C105.506 27.6622 105.511 27.657 105.049 27.5167C104.839 27.4492 104.644 27.3713 104.608 27.3401C104.561 27.2985 104.597 27.1947 104.767 26.9193C105.244 26.1193 105.424 25.4336 105.424 24.3998C105.429 22.9141 105.029 21.7713 104.084 20.5556C103.904 20.3271 103.637 20.0362 103.494 19.9115C103.078 19.5427 102.518 19.1011 102.477 19.1011C102.452 19.1011 102.436 19.0699 102.436 19.0336C102.436 18.9972 102.729 18.7894 103.093 18.566C103.453 18.3479 103.848 18.0985 103.976 18.0154C104.105 17.9323 104.233 17.8699 104.259 17.8751C104.289 17.8803 104.433 18.0725 104.582 18.3011ZM98.124 18.2959C100.26 18.6284 101.759 19.2985 102.996 20.4777C103.761 21.2102 104.253 22.0518 104.551 23.1271C104.715 23.7401 104.715 24.9245 104.551 25.5167C104.238 26.6232 103.483 27.4856 102.282 28.1245C101.497 28.5401 100.737 28.7998 99.6384 29.0284C97.5696 29.4544 94.8643 29.4284 92.7852 28.9661C91.2452 28.6232 90.1825 28.1557 89.3407 27.4492C88.6784 26.8934 88.237 26.1869 88.0573 25.4076C87.9649 24.9921 87.9495 24.8154 87.9752 24.1557C88.0008 23.283 88.0778 22.9297 88.3756 22.2752C89.1867 20.5089 90.8242 19.205 93.0162 18.592C93.6322 18.4154 94.6076 18.244 95.1979 18.1972C95.7883 18.1556 97.6004 18.2128 98.124 18.2959ZM86.0398 21.2518C85.8345 21.9895 85.737 22.8778 85.737 23.9583C85.737 25.2362 85.8448 25.9947 86.2092 27.231C86.3478 27.6934 86.3478 27.6934 86.163 27.657C85.7062 27.5635 85.2749 27.0284 85.0337 26.2596C84.8335 25.631 84.7616 25.0804 84.7616 24.1661C84.7616 23.418 84.777 23.2102 84.8745 22.8154C85.0593 22.0726 85.3622 21.5375 85.7729 21.231C85.9885 21.0648 86.086 21.0752 86.0398 21.2518ZM107.036 21.3557C107.323 21.657 107.57 22.1245 107.698 22.6128C108.016 23.8336 107.862 25.896 107.385 26.8518C107.164 27.2934 106.861 27.5687 106.456 27.6934C106.297 27.7453 106.302 27.6778 106.492 27.0596C106.861 25.8284 107.01 24.4102 106.907 23.1063C106.851 22.405 106.748 21.7193 106.62 21.2154C106.558 20.9817 106.733 21.0388 107.036 21.3557ZM89.125 28.27C90.085 28.9713 91.6045 29.5479 93.2216 29.8284C94.6384 30.0726 96.969 30.1401 98.355 29.9843C99.3304 29.87 99.2328 29.8388 99.2739 30.3063C99.3561 31.2362 99.6897 32.0102 100.296 32.6908C100.429 32.8414 100.537 32.9869 100.537 33.0128C100.537 33.1323 98.971 33.7297 98.5809 33.7609L98.4064 33.7765L98.391 32.7739L98.3807 31.7765H95.5727H92.7647L92.0871 32.1921C91.7175 32.4206 91.3735 32.6076 91.3222 32.6076C91.2041 32.6076 90.547 32.1557 90.0337 31.7193C89.546 31.3037 88.8992 30.6284 88.5706 30.1921C88.124 29.605 87.4977 28.5609 87.4977 28.405C87.4977 28.3791 87.6312 28.3167 87.7955 28.27C87.9546 28.2232 88.2062 28.1401 88.3448 28.0882C88.4885 28.0362 88.6322 27.9947 88.663 27.9895C88.699 27.9843 88.9043 28.1141 89.125 28.27ZM104.592 28.1713C104.9 28.2752 105.157 28.3739 105.157 28.3998C105.157 28.4206 105.059 28.6232 104.946 28.8466C104.49 29.7245 103.586 30.857 102.78 31.5635C102.308 31.9739 101.43 32.6076 101.327 32.6076C101.291 32.6076 101.101 32.431 100.901 32.2128C100.424 31.6985 100.157 31.1583 100.044 30.4882C99.9259 29.7505 99.9259 29.7505 100.383 29.6362C101.214 29.4284 101.846 29.1998 102.559 28.831C103.016 28.6024 103.735 28.1349 103.797 28.0362C103.848 27.9479 103.997 27.9739 104.592 28.1713ZM97.585 33.283V33.9843L97.354 34.0206C96.6199 34.1297 95.1466 34.031 94.1353 33.8076C93.2626 33.6102 92.1897 33.1895 92.2308 33.0648C92.2462 33.0284 92.4156 32.8985 92.6107 32.7791L92.9649 32.5609L95.2749 32.5713L97.585 32.5817V33.283Z" fill="black"/>
<path d="M91.2554 20.9713C90.701 21.1167 90.2955 21.3609 89.854 21.8025C89.4125 22.244 89.1969 22.6388 89.0275 23.3245C88.894 23.8544 88.9248 24.3739 89.1148 24.9505C89.546 26.2492 90.6394 27.0544 91.9793 27.0544C92.8673 27.0544 93.5039 26.7895 94.125 26.1661C94.5768 25.7141 94.8437 25.2258 94.9669 24.618C95.0645 24.1453 95.0645 23.8908 94.9721 23.4025C94.7667 22.3323 94.2072 21.6102 93.2267 21.1531C92.5901 20.8518 91.9279 20.7946 91.2554 20.9713ZM92.2154 21.8804C92.3335 21.9531 92.4977 22.1245 92.5799 22.2544C92.7133 22.4622 92.7339 22.5505 92.7339 22.8466C92.7339 23.1531 92.7133 23.2258 92.5696 23.444C92.3335 23.7973 91.9433 24.005 91.5737 23.9687C90.583 23.87 90.1825 22.7115 90.9012 22.0206C91.2606 21.6726 91.7996 21.6102 92.2154 21.8804Z" fill="black"/>
<path d="M100.023 20.9453C99.0942 21.1583 98.3807 21.7089 97.97 22.5297C97.7185 23.0284 97.6415 23.3868 97.6415 23.9842C97.6415 24.8933 97.9135 25.5479 98.5552 26.192C99.161 26.7998 99.8386 27.07 100.716 27.0596C101.907 27.044 102.996 26.3115 103.463 25.205C103.586 24.9141 103.72 24.27 103.72 23.9583C103.72 23.5894 103.576 22.9713 103.406 22.6076C102.816 21.3661 101.343 20.6388 100.023 20.9453ZM101.322 21.7557C101.538 21.8128 101.892 22.1089 102 22.3167C102.108 22.5349 102.144 22.9037 102.077 23.1583C101.99 23.4855 101.615 23.844 101.261 23.9323C100.578 24.0985 99.8694 23.5375 99.8694 22.831C99.8694 22.5868 100.029 22.2336 100.224 22.0414C100.537 21.7349 100.906 21.6362 101.322 21.7557Z" fill="black"/>
<g filter="url(#filter0_i_25_31)">
<path d="M5.9 28.825C6.08333 28.8417 6.29167 28.8583 6.525 28.875C6.775 28.875 7.06667 28.875 7.4 28.875C9.35 28.875 10.7917 28.3833 11.725 27.4C12.675 26.4167 13.15 25.0583 13.15 23.325C13.15 21.5083 12.7 20.1333 11.8 19.2C10.9 18.2667 9.475 17.8 7.525 17.8C7.25833 17.8 6.98333 17.8083 6.7 17.825C6.41667 17.825 6.15 17.8417 5.9 17.875V28.825ZM17.175 23.325C17.175 24.825 16.9417 26.1333 16.475 27.25C16.0083 28.3667 15.3417 29.2917 14.475 30.025C13.625 30.7583 12.5833 31.3083 11.35 31.675C10.1167 32.0417 8.73333 32.225 7.2 32.225C6.5 32.225 5.68333 32.1917 4.75 32.125C3.81667 32.075 2.9 31.9583 2 31.775V14.9C2.9 14.7333 3.83333 14.625 4.8 14.575C5.78333 14.5083 6.625 14.475 7.325 14.475C8.80833 14.475 10.15 14.6417 11.35 14.975C12.5667 15.3083 13.6083 15.8333 14.475 16.55C15.3417 17.2667 16.0083 18.1833 16.475 19.3C16.9417 20.4167 17.175 21.7583 17.175 23.325ZM25.5076 14.475C28.1076 14.475 30.0993 14.9417 31.4826 15.875C32.866 16.7917 33.5576 18.225 33.5576 20.175C33.5576 21.3917 33.2743 22.3833 32.7076 23.15C32.1576 23.9 31.3576 24.4917 30.3076 24.925C30.6576 25.3583 31.0243 25.8583 31.4076 26.425C31.791 26.975 32.166 27.5583 32.5326 28.175C32.916 28.775 33.2826 29.4083 33.6326 30.075C33.9826 30.725 34.3076 31.3667 34.6076 32H30.2326C29.916 31.4333 29.591 30.8583 29.2576 30.275C28.941 29.6917 28.6076 29.125 28.2576 28.575C27.9243 28.025 27.591 27.5083 27.2576 27.025C26.9243 26.525 26.591 26.075 26.2576 25.675H24.3326V32H20.4326V14.925C21.2826 14.7583 22.1576 14.6417 23.0576 14.575C23.9743 14.5083 24.791 14.475 25.5076 14.475ZM25.7326 17.8C25.4493 17.8 25.191 17.8083 24.9576 17.825C24.741 17.8417 24.5326 17.8583 24.3326 17.875V22.575H25.4326C26.8993 22.575 27.9493 22.3917 28.5826 22.025C29.216 21.6583 29.5326 21.0333 29.5326 20.15C29.5326 19.3 29.2076 18.7 28.5576 18.35C27.9243 17.9833 26.9826 17.8 25.7326 17.8ZM39.943 23.325C39.943 24.175 40.043 24.9417 40.243 25.625C40.4596 26.3083 40.7596 26.9 41.143 27.4C41.543 27.8833 42.0263 28.2583 42.593 28.525C43.1596 28.7917 43.8096 28.925 44.543 28.925C45.2596 28.925 45.9013 28.7917 46.468 28.525C47.0513 28.2583 47.5346 27.8833 47.918 27.4C48.318 26.9 48.618 26.3083 48.818 25.625C49.0346 24.9417 49.143 24.175 49.143 23.325C49.143 22.475 49.0346 21.7083 48.818 21.025C48.618 20.325 48.318 19.7333 47.918 19.25C47.5346 18.75 47.0513 18.3667 46.468 18.1C45.9013 17.8333 45.2596 17.7 44.543 17.7C43.8096 17.7 43.1596 17.8417 42.593 18.125C42.0263 18.3917 41.543 18.775 41.143 19.275C40.7596 19.7583 40.4596 20.35 40.243 21.05C40.043 21.7333 39.943 22.4917 39.943 23.325ZM53.168 23.325C53.168 24.8083 52.943 26.1167 52.493 27.25C52.0596 28.3667 51.4596 29.3083 50.693 30.075C49.9263 30.825 49.0096 31.3917 47.943 31.775C46.893 32.1583 45.7596 32.35 44.543 32.35C43.3596 32.35 42.243 32.1583 41.193 31.775C40.143 31.3917 39.2263 30.825 38.443 30.075C37.6596 29.3083 37.043 28.3667 36.593 27.25C36.143 26.1167 35.918 24.8083 35.918 23.325C35.918 21.8417 36.1513 20.5417 36.618 19.425C37.0846 18.2917 37.7096 17.3417 38.493 16.575C39.293 15.8083 40.2096 15.2333 41.243 14.85C42.293 14.4667 43.393 14.275 44.543 14.275C45.7263 14.275 46.843 14.4667 47.893 14.85C48.943 15.2333 49.8596 15.8083 50.643 16.575C51.4263 17.3417 52.043 18.2917 52.493 19.425C52.943 20.5417 53.168 21.8417 53.168 23.325ZM56.4189 14.675H60.3189V32H56.4189V14.675ZM68.2291 28.825C68.4124 28.8417 68.6208 28.8583 68.8541 28.875C69.1041 28.875 69.3958 28.875 69.7291 28.875C71.6791 28.875 73.1208 28.3833 74.0541 27.4C75.0041 26.4167 75.4791 25.0583 75.4791 23.325C75.4791 21.5083 75.0291 20.1333 74.1291 19.2C73.2291 18.2667 71.8041 17.8 69.8541 17.8C69.5874 17.8 69.3124 17.8083 69.0291 17.825C68.7458 17.825 68.4791 17.8417 68.2291 17.875V28.825ZM79.5041 23.325C79.5041 24.825 79.2708 26.1333 78.8041 27.25C78.3374 28.3667 77.6708 29.2917 76.8041 30.025C75.9541 30.7583 74.9124 31.3083 73.6791 31.675C72.4458 32.0417 71.0624 32.225 69.5291 32.225C68.8291 32.225 68.0124 32.1917 67.0791 32.125C66.1458 32.075 65.2291 31.9583 64.3291 31.775V14.9C65.2291 14.7333 66.1624 14.625 67.1291 14.575C68.1124 14.5083 68.9541 14.475 69.6541 14.475C71.1374 14.475 72.4791 14.6417 73.6791 14.975C74.8958 15.3083 75.9374 15.8333 76.8041 16.55C77.6708 17.2667 78.3374 18.1833 78.8041 19.3C79.2708 20.4167 79.5041 21.7583 79.5041 23.325ZM112.791 32V14.675H124.491V17.95H116.691V21.35H123.616V24.55H116.691V28.725H125.066V32H112.791ZM138.39 32C137.907 31.0333 137.374 30.0583 136.79 29.075C136.224 28.075 135.565 27.0583 134.815 26.025C134.582 26.325 134.282 26.7417 133.915 27.275C133.565 27.8083 133.207 28.375 132.84 28.975C132.49 29.575 132.157 30.15 131.84 30.7C131.524 31.25 131.29 31.6833 131.14 32H126.69C127.424 30.65 128.274 29.2333 129.24 27.75C130.224 26.2667 131.315 24.6917 132.515 23.025L126.94 14.675H131.665L135.04 20.075L138.34 14.675H142.79L137.29 23.075C138.69 24.8917 139.865 26.575 140.815 28.125C141.765 29.6583 142.515 30.95 143.065 32H138.39ZM152.258 32.35C149.442 32.35 147.292 31.5667 145.808 30C144.342 28.4333 143.608 26.2083 143.608 23.325C143.608 21.8917 143.833 20.6167 144.283 19.5C144.733 18.3667 145.35 17.4167 146.133 16.65C146.917 15.8667 147.85 15.275 148.933 14.875C150.017 14.475 151.192 14.275 152.458 14.275C153.192 14.275 153.858 14.3333 154.458 14.45C155.058 14.55 155.583 14.675 156.033 14.825C156.483 14.9583 156.858 15.1 157.158 15.25C157.458 15.4 157.675 15.5167 157.808 15.6L156.683 18.75C156.15 18.4667 155.525 18.225 154.808 18.025C154.108 17.825 153.308 17.725 152.408 17.725C151.808 17.725 151.217 17.825 150.633 18.025C150.067 18.225 149.558 18.55 149.108 19C148.675 19.4333 148.325 20 148.058 20.7C147.792 21.4 147.658 22.25 147.658 23.25C147.658 24.05 147.742 24.8 147.908 25.5C148.092 26.1833 148.375 26.775 148.758 27.275C149.158 27.775 149.675 28.175 150.308 28.475C150.942 28.7583 151.708 28.9 152.608 28.9C153.175 28.9 153.683 28.8667 154.133 28.8C154.583 28.7333 154.983 28.6583 155.333 28.575C155.683 28.475 155.992 28.3667 156.258 28.25C156.525 28.1333 156.767 28.025 156.983 27.925L158.058 31.05C157.508 31.3833 156.733 31.6833 155.733 31.95C154.733 32.2167 153.575 32.35 152.258 32.35ZM171.019 14.675H174.919V32H171.019V24.65H164.469V32H160.569V14.675H164.469V21.3H171.019V14.675ZM190.529 32C190.345 31.4 190.137 30.7833 189.904 30.15C189.687 29.5167 189.47 28.8833 189.254 28.25H182.504C182.287 28.8833 182.062 29.5167 181.829 30.15C181.612 30.7833 181.412 31.4 181.229 32H177.179C177.829 30.1333 178.445 28.4083 179.029 26.825C179.612 25.2417 180.179 23.75 180.729 22.35C181.295 20.95 181.845 19.625 182.379 18.375C182.929 17.1083 183.495 15.875 184.079 14.675H187.804C188.37 15.875 188.929 17.1083 189.479 18.375C190.029 19.625 190.579 20.95 191.129 22.35C191.695 23.75 192.27 25.2417 192.854 26.825C193.437 28.4083 194.054 30.1333 194.704 32H190.529ZM185.854 18.6C185.77 18.85 185.645 19.1917 185.479 19.625C185.312 20.0583 185.12 20.5583 184.904 21.125C184.687 21.6917 184.445 22.3167 184.179 23C183.929 23.6833 183.67 24.4 183.404 25.15H188.329C188.062 24.4 187.804 23.6833 187.554 23C187.304 22.3167 187.062 21.6917 186.829 21.125C186.612 20.5583 186.42 20.0583 186.254 19.625C186.087 19.1917 185.954 18.85 185.854 18.6ZM208.571 32C207.455 30.0167 206.246 28.0583 204.946 26.125C203.646 24.1917 202.263 22.3667 200.796 20.65V32H196.946V14.675H200.121C200.671 15.225 201.28 15.9 201.946 16.7C202.613 17.5 203.288 18.3583 203.971 19.275C204.671 20.175 205.363 21.1167 206.046 22.1C206.73 23.0667 207.371 24 207.971 24.9V14.675H211.846V32H208.571ZM224.293 17.675C222.476 17.675 221.159 18.1833 220.343 19.2C219.543 20.2 219.143 21.575 219.143 23.325C219.143 24.175 219.243 24.95 219.443 25.65C219.643 26.3333 219.943 26.925 220.343 27.425C220.743 27.925 221.243 28.3167 221.843 28.6C222.443 28.8667 223.143 29 223.943 29C224.376 29 224.743 28.9917 225.043 28.975C225.359 28.9583 225.634 28.925 225.868 28.875V22.85H229.768V31.425C229.301 31.6083 228.551 31.8 227.518 32C226.484 32.2167 225.209 32.325 223.693 32.325C222.393 32.325 221.209 32.125 220.143 31.725C219.093 31.325 218.193 30.7417 217.443 29.975C216.693 29.2083 216.109 28.2667 215.693 27.15C215.293 26.0333 215.093 24.7583 215.093 23.325C215.093 21.875 215.318 20.5917 215.768 19.475C216.218 18.3583 216.834 17.4167 217.618 16.65C218.401 15.8667 219.318 15.275 220.368 14.875C221.434 14.475 222.568 14.275 223.768 14.275C224.584 14.275 225.318 14.3333 225.968 14.45C226.634 14.55 227.201 14.675 227.668 14.825C228.151 14.9583 228.543 15.1 228.843 15.25C229.159 15.4 229.384 15.5167 229.518 15.6L228.393 18.725C227.859 18.4417 227.243 18.2 226.543 18C225.859 17.7833 225.109 17.675 224.293 17.675ZM233.396 32V14.675H245.096V17.95H237.296V21.35H244.221V24.55H237.296V28.725H245.671V32H233.396Z" fill="#EE9112"/>
</g>
<defs>
<filter id="filter0_i_25_31" x="2" y="14.275" width="243.671" height="22.075" filterUnits="userSpaceOnUse" color-interpolation-filters="sRGB">
<feFlood flood-opacity="0" result="BackgroundImageFix"/>
<feBlend mode="normal" in="SourceGraphic" in2="BackgroundImageFix" result="shape"/>
<feColorMatrix in="SourceAlpha" type="matrix" values="0 0 0 0 0 0 0 0 0 0 0 0 0 0 0 0 0 0 127 0" result="hardAlpha"/>
<feOffset dy="8"/>
<feGaussianBlur stdDeviation="2"/>
<feComposite in2="hardAlpha" operator="arithmetic" k2="-1" k3="1"/>
<feColorMatrix type="matrix" values="0 0 0 0 0 0 0 0 0 0 0 0 0 0 0 0 0 0 0.25 0"/>
<feBlend mode="normal" in2="shape" result="effect1_innerShadow_25_31"/>
</filter>
</defs>
</svg>
