<svg width="500" height="100" viewBox="0 0 500 100" fill="none" xmlns="http://www.w3.org/2000/svg">
<path d="M198.191 29.4497L203.986 31.6784L208.622 35.0215L210.94 38.3646L205.145 41.7076L198.191 39.4789H187.76L179.647 41.7076L173.852 38.3646L179.647 32.7928L186.601 29.4497V33.9072H198.191V29.4497Z" fill="#EE9112"/>
<path d="M208.622 24.9923H210.94L213.258 26.1067L210.94 29.4498L208.622 28.3354V24.9923Z" fill="#EE9112"/>
<path d="M173.852 24.9923H176.17L177.329 27.221L176.17 29.4498H173.852L172.693 27.221L173.852 24.9923Z" fill="#EE9112"/>
<path d="M210.94 60.6516L214.417 62.8803L208.622 69.5665L203.986 72.9095L197.032 76.2526L195.873 70.6808H185.442L180.806 72.9095L176.17 69.5665L172.693 65.109L170.375 61.766L175.011 60.6516L179.647 63.9947L185.442 65.109H192.396H198.191L202.827 63.9947L210.94 60.6516Z" fill="#303273"/>
<path d="M186.601 30.5641V33.9072H198.191V29.4497L192.396 28.3354L186.601 30.5641Z" fill="#303273"/>
<path d="M215.576 45.0507L220.212 48.3937V55.0799L219.053 60.6516L214.417 61.766L215.576 57.3086L216.735 52.8512L215.576 45.0507Z" fill="#EE9112"/>
<path d="M169.216 45.0507L165.739 47.2794L164.58 51.7368V55.0799L165.739 59.5373L168.057 61.766H170.375L169.216 58.423V53.9655V45.0507Z" fill="#EE9112"/>
<path d="M205.145 41.7077L210.94 38.3646L214.417 43.9364L215.576 48.3938L216.735 51.7368L215.576 57.3086L214.417 61.766L209.781 60.6517L212.099 57.3086L213.258 53.9655L212.099 49.5081L208.622 43.9364L205.145 41.7077Z" fill="black"/>
<path d="M173.852 38.3646L179.647 41.7077L173.852 47.2794L172.693 51.7368V56.1942L175.011 60.6517L170.375 61.766L169.216 57.3086V50.6225L170.375 43.9364L173.852 38.3646Z" fill="black"/>
<path d="M181.965 74.0238L187.76 76.2526H194.714L197.032 75.1382L195.873 70.6808H184.283L180.806 72.9095L181.965 74.0238Z" fill="black"/>
<path d="M193.555 39.4789L200.509 40.5933L205.145 41.7076L209.781 46.1651L212.099 49.5081L213.258 53.9655L212.099 58.4229L208.622 61.766L202.827 63.9947L197.032 65.1091H191.237H186.601L180.806 63.9947L176.17 61.766L172.693 58.4229V53.9655V49.5081L175.011 46.1651L178.488 42.822L183.124 40.5933L186.601 39.4789H193.555Z" fill="#FFFAFA"/>
<path d="M173.774 24.1327C172.453 24.5032 171.584 25.6957 171.596 27.1313C171.62 28.9259 172.929 30.1299 174.844 30.1299H175.666L176.677 31.5077C177.236 32.2718 177.7 32.9317 177.7 32.9896C177.7 33.0359 177.153 33.5569 176.475 34.1358C173.726 36.4977 171.441 39.6815 169.918 43.2591L169.43 44.4052L168.562 44.6715C167.562 44.961 166.943 45.3546 166.229 46.1187C163.683 48.8742 163.231 55.624 165.325 59.8383C165.789 60.7761 166.039 61.135 166.61 61.6444C167.586 62.5128 168.716 62.999 169.811 63.0106C170.168 63.0106 170.216 63.0801 170.858 64.2494C174.19 70.3393 179.83 74.6693 186.589 76.3365C188.838 76.8923 190.504 77.0543 193.229 76.9849C196.596 76.9038 199.083 76.3944 201.975 75.2019C207.377 72.9558 211.625 69.1584 214.338 64.1684L214.933 63.0801L215.778 62.9411C217.17 62.7096 217.813 62.3854 218.658 61.5171C219.681 60.4751 220.216 59.3289 220.728 57.1639C220.99 56.064 221.097 52.2897 220.895 50.9698C220.621 49.0942 220.026 47.5428 219.134 46.3966C218.586 45.6788 217.408 44.8915 216.516 44.6484C216.135 44.5442 215.778 44.4052 215.707 44.3242C215.635 44.2547 215.457 43.8611 215.302 43.4443C214.088 40.0868 211.018 35.9188 208.02 33.5569C207.698 33.3138 207.448 33.0591 207.448 33.0012C207.448 32.9086 208.067 32.0287 209.198 30.512C209.459 30.1531 209.495 30.1415 210.328 30.1531C210.983 30.1647 211.328 30.0952 211.744 29.91C213.386 29.1574 214.041 27.2934 213.231 25.6841C212.708 24.6421 211.685 24.0169 210.471 24.0053C208.567 23.9706 207.02 25.5915 207.258 27.3513C207.341 27.9881 207.615 28.6943 207.889 28.9953C208.055 29.169 207.972 29.3079 207.032 30.5236C206.461 31.2646 205.925 31.8666 205.842 31.8666C205.759 31.8666 205.235 31.6119 204.688 31.3109C201.88 29.7363 198.881 28.729 195.609 28.2659C194.288 28.0691 190.694 28.0807 189.481 28.2659C185.887 28.8332 183.257 29.7247 180.425 31.2993C179.854 31.6119 179.342 31.8666 179.283 31.8666C179.212 31.8666 178.7 31.2646 178.141 30.5352L177.117 29.1922L177.403 28.7869C178.319 27.4671 178.01 25.6494 176.689 24.6768C175.82 24.0285 174.821 23.8433 173.774 24.1327ZM211.339 26.1125C211.827 26.564 211.946 27.0734 211.673 27.6176C211.411 28.1733 210.971 28.428 210.316 28.428C209.864 28.428 209.733 28.3701 209.388 28.0112C208.876 27.4555 208.841 26.7493 209.305 26.2051C209.876 25.5452 210.685 25.5104 211.339 26.1125ZM175.761 26.1125C176.142 26.4598 176.189 26.564 176.189 27.0271C176.165 27.9418 175.606 28.4628 174.642 28.4396C173.393 28.4164 172.857 26.9461 173.774 26.0662C174.059 25.7883 174.214 25.7304 174.714 25.7304C175.237 25.7304 175.38 25.7883 175.761 26.1125ZM196.192 30.0721C197.822 30.3615 197.727 30.2457 197.632 31.9013C197.584 32.677 197.524 33.3485 197.489 33.3949C197.465 33.4527 195.252 33.4875 192.574 33.4875C188.053 33.4875 187.696 33.4759 187.589 33.2791C187.434 33.0012 187.374 30.512 187.517 30.3731C187.648 30.2457 188.707 30.0489 190.016 29.8984C191.277 29.7479 194.966 29.8521 196.192 30.0721ZM185.709 32.9665C185.756 34.0548 185.816 35.0042 185.851 35.0736C185.923 35.2936 199.107 35.2936 199.178 35.0736C199.202 35.0042 199.286 34.0548 199.357 32.9781C199.428 31.8898 199.512 30.9867 199.547 30.952C199.726 30.7783 202.653 32.0634 204.236 33.0128C204.783 33.3485 205.699 33.9622 206.259 34.3905C207.329 35.201 209.828 37.5628 209.828 37.7712C209.828 37.8407 209.436 38.1301 208.972 38.4312C206.485 39.9594 205.913 40.3067 205.426 40.5846L204.89 40.874L204.117 40.5267C202.129 39.6237 198.702 38.7553 196.085 38.4659C194.49 38.2922 190.242 38.327 188.648 38.5238C185.828 38.8595 183.924 39.3342 181.413 40.3067C180.747 40.573 180.14 40.7814 180.068 40.7814C180.009 40.7814 179.533 40.5267 179.033 40.2141C177.01 38.9753 175.535 38.1186 175.428 38.1186C174.868 38.1186 176.606 36.1619 178.39 34.7842C179.902 33.6264 180.842 33.0012 182.044 32.376C183.317 31.7045 185.185 30.9288 185.435 30.9751C185.578 30.9983 185.625 31.3572 185.709 32.9665ZM175.368 39.9478C175.963 40.3183 176.867 40.874 177.367 41.1751C177.879 41.4761 178.319 41.754 178.343 41.8003C178.379 41.8466 177.962 42.2055 177.427 42.5991C174.166 44.9725 172.131 48.168 171.572 51.7802C171.12 54.6862 171.667 57.5459 173.072 59.6646C173.333 60.0467 173.536 60.3709 173.536 60.4056C173.536 60.4635 171.679 61.0424 171.465 61.0424C171.156 61.0424 170.287 58.2985 169.954 56.2376C169.74 54.9641 169.74 50.4604 169.942 49.3489C170.477 46.4892 171.287 44.0926 172.5 41.8234C173.179 40.5614 174.012 39.2763 174.166 39.2763C174.226 39.2763 174.773 39.5773 175.368 39.9478ZM211.708 40.272C213.957 43.5601 215.219 47.566 215.385 51.9192C215.492 54.802 215.159 57.2333 214.338 59.6878C213.85 61.135 213.862 61.1234 212.791 60.8108C212.303 60.6603 211.851 60.4867 211.768 60.4172C211.661 60.3246 211.744 60.093 212.137 59.4794C213.243 57.6964 213.66 56.1682 213.66 53.8642C213.672 50.553 212.744 48.0059 210.554 45.2967C210.138 44.7873 209.519 44.139 209.186 43.8611C208.222 43.0391 206.925 42.055 206.83 42.055C206.77 42.055 206.734 41.9855 206.734 41.9045C206.734 41.8234 207.413 41.3603 208.258 40.8625C209.091 40.3762 210.007 39.8205 210.304 39.6352C210.602 39.45 210.899 39.3111 210.959 39.3226C211.03 39.3342 211.363 39.7626 211.708 40.272ZM196.739 40.2604C201.689 41.0014 205.164 42.4949 208.032 45.1231C209.804 46.7555 210.947 48.6311 211.637 51.0277C212.018 52.3939 212.018 55.0336 211.637 56.3534C210.911 58.8195 209.162 60.7414 206.378 62.1654C204.557 63.0916 202.796 63.6705 200.249 64.1799C195.454 65.1293 189.183 65.0714 184.364 64.041C180.794 63.2769 178.331 62.2349 176.379 60.6603C174.844 59.4215 173.821 57.8469 173.405 56.1103C173.19 55.1841 173.155 54.7904 173.214 53.3201C173.274 51.375 173.452 50.5877 174.142 49.1289C176.023 45.1925 179.818 42.2865 184.899 40.9204C186.327 40.5267 188.588 40.1447 189.957 40.0405C191.325 39.9478 195.525 40.0752 196.739 40.2604ZM168.728 46.8481C168.252 48.4922 168.026 50.472 168.026 52.8801C168.026 55.7282 168.276 57.4186 169.121 60.1741C169.442 61.2045 169.442 61.2045 169.014 61.1234C167.955 60.915 166.955 59.7225 166.396 58.009C165.932 56.6081 165.765 55.3809 165.765 53.3432C165.765 51.676 165.801 51.2129 166.027 50.333C166.456 48.6774 167.158 47.4849 168.11 46.8018C168.609 46.4313 168.835 46.4545 168.728 46.8481ZM217.396 47.0797C218.063 47.7512 218.634 48.7932 218.931 49.8815C219.669 52.6023 219.312 57.1986 218.205 59.3289C217.694 60.313 216.992 60.9266 216.052 61.2045C215.683 61.3203 215.695 61.1697 216.135 59.792C216.992 57.0481 217.337 53.8874 217.099 50.9814C216.968 49.4184 216.73 47.8901 216.432 46.7671C216.29 46.2461 216.694 46.3735 217.396 47.0797ZM175.88 62.4896C178.105 64.0526 181.627 65.3377 185.375 65.9629C188.66 66.5071 194.062 66.6576 197.275 66.3102C199.535 66.0555 199.309 65.9861 199.405 67.0281C199.595 69.1005 200.368 70.8255 201.773 72.3422C202.082 72.678 202.332 73.0022 202.332 73.06C202.332 73.3263 198.702 74.6578 197.798 74.7272L197.394 74.762L197.358 72.5275L197.334 70.3045H190.825H184.316L182.746 71.2308C181.889 71.7402 181.092 72.157 180.973 72.157C180.699 72.157 179.176 71.1497 177.986 70.1772C176.855 69.251 175.356 67.7459 174.595 66.7734C173.559 65.4651 172.108 63.138 172.108 62.7906C172.108 62.7327 172.417 62.5938 172.798 62.4896C173.167 62.3854 173.75 62.2002 174.071 62.0844C174.404 61.9686 174.737 61.876 174.809 61.8644C174.892 61.8528 175.368 62.1423 175.88 62.4896ZM211.732 62.2696C212.446 62.5012 213.041 62.7212 213.041 62.779C213.041 62.8254 212.815 63.2769 212.553 63.7747C211.494 65.7314 209.4 68.2553 207.532 69.8299C206.437 70.7445 204.402 72.157 204.164 72.157C204.081 72.157 203.641 71.7633 203.177 71.2771C202.07 70.1309 201.451 68.9268 201.189 67.4333C200.916 65.7892 200.916 65.7892 201.975 65.5345C203.902 65.0714 205.366 64.562 207.02 63.74C208.079 63.2306 209.745 62.1886 209.888 61.9686C210.007 61.7718 210.352 61.8297 211.732 62.2696ZM195.49 73.6621V75.2251L194.954 75.3061C193.253 75.5492 189.838 75.3293 187.493 74.8314C185.471 74.3915 182.984 73.4537 183.079 73.1758C183.114 73.0948 183.507 72.8053 183.959 72.539L184.78 72.0528L190.135 72.0759L195.49 72.0991V73.6621Z" fill="black"/>
<path d="M180.818 46.2229C179.533 46.5471 178.593 47.0913 177.569 48.0754C176.546 49.0595 176.046 49.9394 175.654 51.4676C175.344 52.6486 175.416 53.8063 175.856 55.0915C176.855 57.9859 179.39 59.7804 182.496 59.7804C184.554 59.7804 186.03 59.19 187.47 57.8006C188.517 56.7934 189.136 55.7051 189.421 54.3505C189.647 53.2969 189.647 52.7296 189.433 51.6413C188.957 49.2563 187.66 47.647 185.387 46.6282C183.912 45.9567 182.377 45.8293 180.818 46.2229ZM183.043 48.249C183.317 48.4111 183.698 48.7932 183.888 49.0826C184.197 49.5457 184.245 49.7426 184.245 50.4025C184.245 51.0856 184.197 51.2477 183.864 51.7339C183.317 52.5212 182.412 52.9843 181.556 52.9033C179.259 52.6833 178.331 50.1015 179.997 48.5616C180.83 47.7859 182.079 47.647 183.043 48.249Z" fill="black"/>
<path d="M201.142 46.165C198.988 46.6397 197.334 47.8669 196.382 49.6962C195.799 50.8077 195.621 51.6065 195.621 52.938C195.621 54.9641 196.251 56.4229 197.739 57.8585C199.143 59.2131 200.713 59.8151 202.748 59.792C205.509 59.7572 208.032 58.1248 209.114 55.6587C209.4 55.0104 209.709 53.5747 209.709 52.8801C209.709 52.0581 209.376 50.6803 208.983 49.8699C207.615 47.1028 204.2 45.4819 201.142 46.165ZM204.152 47.9711C204.652 48.0985 205.473 48.7584 205.723 49.2215C205.973 49.7078 206.056 50.5298 205.902 51.0971C205.699 51.8265 204.831 52.6254 204.01 52.8222C202.427 53.1927 200.785 51.9423 200.785 50.3677C200.785 49.8236 201.154 49.0363 201.606 48.6079C202.332 47.9248 203.189 47.7048 204.152 47.9711Z" fill="black"/>
<g filter="url(#filter0_i_8_6)">
<path d="M24.2549 51.9917V50.7964C24.2549 46.5464 23.4746 43.4751 21.9141 41.5825C20.3701 39.6733 17.9961 38.7188 14.792 38.7188H12.9492C11.5547 38.7188 10.6748 38.835 10.3096 39.0674C9.94434 39.2832 9.76172 39.9307 9.76172 41.0098L9.71191 41.6821C9.67871 42.1304 9.66211 42.5952 9.66211 43.0767V51.7925C9.66211 58.5659 9.73682 62.2349 9.88623 62.7993C10.0854 63.5796 11.2891 63.9697 13.4971 63.9697L13.8457 63.9448C15.8877 63.9282 17.5229 63.7041 18.7515 63.2725C21.1587 62.4092 22.7275 60.583 23.458 57.7939C23.9893 55.752 24.2549 53.8179 24.2549 51.9917ZM30.8042 50.5225V51.7676C30.8042 57.7773 29.4512 62.1768 26.7451 64.9658C24.0391 67.7549 19.7227 69.1494 13.7959 69.1494H10.3345C6.18408 69.1494 3.94287 68.8506 3.61084 68.2529C3.39502 67.8545 3.28711 64.2354 3.28711 57.3955V40.6113L3.26221 40.0386V38.918L3.2373 36.6768V36.104C3.2373 34.8589 3.66064 34.0952 4.50732 33.813C5.07178 33.6304 7.10547 33.5391 10.6084 33.5391H14.6924C22.7109 33.5391 27.6914 36.5522 29.6338 42.5786C30.4141 44.9692 30.8042 47.6172 30.8042 50.5225ZM45.123 49.9497H46.7666L46.9907 49.9248H47.4141C50.4521 49.9248 52.5522 49.4517 53.7144 48.5054C54.8765 47.5425 55.4575 46.1313 55.4575 44.272V43.7988C55.4575 42.0723 54.9097 40.8022 53.814 39.9888C52.7349 39.1753 51.0415 38.7686 48.7339 38.7686H47.6631L47.4639 38.7935C45.5547 38.7935 44.4175 38.8931 44.0522 39.0923C43.7036 39.2915 43.5293 39.9473 43.5293 41.0596C43.4961 41.3252 43.4795 41.5659 43.4795 41.7817V43.5498L43.4546 44.1973V47.584C43.5044 47.9824 43.5293 48.3062 43.5293 48.5552C43.5293 49.4849 44.0605 49.9497 45.123 49.9497ZM55.8062 54.1582C55.8062 54.2578 55.9805 54.6147 56.3291 55.229C56.6777 55.8433 57.8315 58.0596 59.7905 61.8779C61.7495 65.6963 62.729 67.7632 62.729 68.0786C62.729 68.7593 61.8657 69.0996 60.1392 69.0996C58.4126 69.0996 57.1592 68.6597 56.3789 67.7798C55.8477 67.1821 54.8184 65.2979 53.291 62.127C51.7637 58.9395 50.5933 56.9888 49.7798 56.2749C48.9829 55.5444 47.7046 55.1792 45.9448 55.1792C44.7661 55.1792 44.0605 55.6357 43.8281 56.5488C43.5957 57.4453 43.4795 59.5039 43.4795 62.7246C43.4795 65.9453 43.2554 67.8296 42.8071 68.3774C42.3589 68.9087 41.4375 69.1743 40.043 69.1743H39.3208C38.3247 69.1743 37.7021 69.0249 37.4531 68.7261C37.2207 68.4106 37.1045 67.5391 37.1045 66.1113V56.5488L37.1294 55.8018V51.4189C37.1294 41.0928 37.2456 35.6392 37.478 35.0581C37.7271 34.4604 38.3579 34.0869 39.3706 33.9375C40.3833 33.7881 42.5913 33.7134 45.9946 33.7134H48.958C55.4492 33.7134 59.4751 35.6309 61.0356 39.4658C61.5005 40.6113 61.7329 42.0806 61.7329 43.8735C61.7329 45.6499 61.3677 47.2188 60.6372 48.5801C59.9233 49.9414 58.9355 51.0952 57.6738 52.0415C56.4287 52.9878 55.8062 53.6934 55.8062 54.1582ZM73.1631 50.9458V52.1162C73.1631 56.0342 73.8022 58.9312 75.0806 60.8071C76.7573 63.2476 78.8823 64.4678 81.4556 64.4678H82.626C85.1328 64.4678 87.1084 63.4053 88.5527 61.2803C90.0137 59.1553 90.7441 56.2002 90.7441 52.415V50.4478C90.7441 44.853 89.1338 41.1509 85.9131 39.3413C84.917 38.7769 83.7632 38.4946 82.4517 38.4946H81.2812C78.7412 38.4946 76.749 39.5488 75.3047 41.6572C73.877 43.7656 73.1631 46.8618 73.1631 50.9458ZM97.144 50.373V52.0913C97.144 54.9302 96.7788 57.5034 96.0483 59.811C95.3179 62.1021 94.3384 63.9199 93.1099 65.2646C91.8979 66.6094 90.3374 67.6802 88.4282 68.4771C86.519 69.2573 84.5435 69.6475 82.5015 69.6475H81.9038C74.2173 69.6475 69.4526 66.1445 67.6099 59.1387C67.0454 56.9805 66.7632 54.6147 66.7632 52.0415V50.8711C66.7632 48.2812 67.0952 45.8491 67.7593 43.5747C68.4233 41.2837 69.3032 39.4658 70.3989 38.1211C71.5112 36.7598 73.0386 35.6226 74.981 34.7095C76.9233 33.7798 79.0649 33.3149 81.4058 33.3149H82.6011C84.9419 33.3149 87.0586 33.7632 88.9512 34.6597C90.8438 35.5562 92.3379 36.6602 93.4336 37.9717C94.5459 39.2832 95.4424 41.0347 96.123 43.2261C96.8037 45.4175 97.144 47.7998 97.144 50.373ZM108.873 69.1494H107.503C106.092 69.1494 105.121 68.9253 104.59 68.4771C104.059 68.0122 103.793 66.958 103.793 65.3145C103.793 64.8662 103.984 63.9116 104.366 62.4507C104.764 60.9731 104.963 59.6616 104.963 58.5161L105.038 55.7769V50.647C105.038 46.6958 105.013 44.2969 104.963 43.4502C104.914 42.5869 104.698 41.5327 104.316 40.2876C103.951 39.0259 103.768 38.1045 103.768 37.5234V37.1001C103.768 35.772 104.042 34.8838 104.59 34.4355C105.154 33.9707 106.333 33.7383 108.126 33.7383H109.496C110.558 33.7383 111.289 33.9956 111.687 34.5103C112.085 35.0083 112.285 35.7222 112.285 36.6519C112.285 37.5815 112.119 38.7188 111.787 40.0635C111.471 41.3916 111.313 42.7197 111.313 44.0479V50.6968L111.338 52.0664C111.338 57.5449 111.504 60.9897 111.836 62.4009C112.168 63.7954 112.334 64.8745 112.334 65.6382V66.0615C112.334 67.4561 112.061 68.3193 111.513 68.6514C110.981 68.9834 110.102 69.1494 108.873 69.1494ZM140.399 51.9917V50.7964C140.399 46.5464 139.619 43.4751 138.059 41.5825C136.515 39.6733 134.141 38.7188 130.937 38.7188H129.094C127.699 38.7188 126.819 38.835 126.454 39.0674C126.089 39.2832 125.906 39.9307 125.906 41.0098L125.856 41.6821C125.823 42.1304 125.807 42.5952 125.807 43.0767V51.7925C125.807 58.5659 125.881 62.2349 126.031 62.7993C126.23 63.5796 127.434 63.9697 129.642 63.9697L129.99 63.9448C132.032 63.9282 133.667 63.7041 134.896 63.2725C137.303 62.4092 138.872 60.583 139.603 57.7939C140.134 55.752 140.399 53.8179 140.399 51.9917ZM146.949 50.5225V51.7676C146.949 57.7773 145.596 62.1768 142.89 64.9658C140.184 67.7549 135.867 69.1494 129.94 69.1494H126.479C122.329 69.1494 120.087 68.8506 119.755 68.2529C119.54 67.8545 119.432 64.2354 119.432 57.3955V40.6113L119.407 40.0386V38.918L119.382 36.6768V36.104C119.382 34.8589 119.805 34.0952 120.652 33.813C121.216 33.6304 123.25 33.5391 126.753 33.5391H130.837C138.855 33.5391 143.836 36.5522 145.778 42.5786C146.559 44.9692 146.949 47.6172 146.949 50.5225ZM263.915 36.4028C263.915 38.3452 262.521 39.3164 259.731 39.3164L258.262 39.2666L256.743 39.3164H254.353C251.896 39.3164 250.418 39.5239 249.92 39.939C249.156 40.5864 248.774 42.5537 248.774 45.8408C248.774 46.8203 249.181 47.4595 249.995 47.7583C250.808 48.0405 252.742 48.1816 255.797 48.1816C258.868 48.1816 260.57 48.3228 260.902 48.605C261.25 48.8872 261.425 49.626 261.425 50.8213C261.425 52.0166 261.035 52.7388 260.254 52.9878C259.856 53.1206 258.113 53.187 255.025 53.187C251.954 53.187 250.053 53.4692 249.322 54.0337C248.608 54.5815 248.251 56.1338 248.251 58.6904C248.251 61.2471 248.667 62.7661 249.497 63.2476C250.343 63.729 252.609 63.9697 256.295 63.9697C259.98 63.9697 262.222 64.144 263.019 64.4927C263.832 64.8413 264.239 65.6216 264.239 66.8335C264.239 67.8628 263.55 68.4937 262.172 68.7261C260.312 69.0415 257.167 69.1992 252.734 69.1992H250.094C246.525 69.1992 244.317 68.9585 243.47 68.4771C242.441 67.896 241.926 65.937 241.926 62.6001V58.1675C241.926 55.2954 242.034 52.3486 242.25 49.3271C242.466 46.3057 242.574 43.3091 242.574 40.3374C242.574 37.3491 242.889 35.5728 243.52 35.0083C244.35 34.2612 246.392 33.8877 249.646 33.8877H254.676L255.498 33.9126L258.76 33.8877C260.703 33.8877 262.047 34.0537 262.794 34.3857C263.542 34.7178 263.915 35.3901 263.915 36.4028ZM290.312 35.7056C291.357 34.5269 292.735 33.9375 294.445 33.9375C296.172 33.9375 297.035 34.1035 297.035 34.4355C297.035 35.0166 295.491 37.731 292.403 42.5786C289.315 47.4097 287.771 50.2402 287.771 51.0703C287.771 51.9004 290.204 56.001 295.068 63.3721C296.778 65.9785 297.633 67.3481 297.633 67.481V68.0039C297.633 68.6348 296.529 68.9502 294.321 68.9502C292.926 68.9502 291.831 68.5518 291.034 67.7549C290.237 66.958 288.734 64.8745 286.526 61.5044C284.318 58.1343 283.181 56.4492 283.115 56.4492C283.048 56.4492 281.944 58.126 279.803 61.4795C277.678 64.8164 276.532 66.5845 276.366 66.7837C275.221 68.2446 273.967 68.9751 272.606 68.9751C270.415 68.9751 269.319 68.5269 269.319 67.6304C269.319 67.3149 270.896 64.7251 274.05 59.8608C277.221 54.98 278.807 51.9087 278.807 50.647C278.807 50.0825 277.304 47.4678 274.299 42.8027C271.311 38.1211 269.817 35.5229 269.817 35.0083C269.817 34.4937 270.879 34.2363 273.004 34.2363C274.615 34.2363 276.076 35 277.387 36.5273C277.802 37.0088 278.915 38.644 280.724 41.4331C282.534 44.2222 283.513 45.6167 283.663 45.6167C283.696 45.6167 284.742 44.0479 286.8 40.9102C288.859 37.7725 290.029 36.0376 290.312 35.7056ZM307.843 52.6143C307.843 54.3408 308.042 55.9678 308.44 57.4951C309.553 61.7451 312.317 63.8701 316.733 63.8701C318.244 63.8701 319.929 63.5049 321.788 62.7744C323.647 62.0273 324.917 61.6538 325.598 61.6538C326.295 61.6538 326.835 61.8779 327.217 62.3262C327.599 62.7744 327.79 63.2891 327.79 63.8701C327.79 65.1816 326.453 66.4932 323.78 67.8047C321.605 68.8672 319.19 69.3984 316.534 69.3984H315.762C313.288 69.3984 311.097 68.9585 309.188 68.0786C305.552 66.4019 303.219 63.6626 302.19 59.8608C301.542 57.4536 301.219 54.7891 301.219 51.8672C301.219 45.9902 302.489 41.5078 305.029 38.4199C306.174 37.0254 307.81 35.8633 309.935 34.9336C312.076 34.0039 314.16 33.5391 316.185 33.5391H316.932C319.671 33.5391 321.821 33.9209 323.382 34.6846C324.942 35.4482 326.096 36.3281 326.843 37.3242C327.125 37.7061 327.267 38.3037 327.267 39.1172C327.267 39.9307 327.026 40.5781 326.544 41.0596C326.063 41.541 325.465 41.7817 324.751 41.7817C324.054 41.7817 322.668 41.3833 320.593 40.5864C318.518 39.7729 316.816 39.3662 315.488 39.3662C314.16 39.3662 312.964 39.6567 311.902 40.2378C310.856 40.8188 310.059 41.5659 309.511 42.479C308.399 44.3052 307.843 47.6836 307.843 52.6143ZM360.536 67.5557C360.536 68.5352 359.789 69.0249 358.295 69.0249C356.303 69.0249 355.083 68.4023 354.634 67.1572C354.402 66.5098 354.286 64.2603 354.286 60.4087C354.286 56.5405 353.896 54.3491 353.115 53.8345C352.617 53.5024 350.6 53.3364 347.064 53.3364C343.544 53.3364 341.527 53.71 341.013 54.457C340.631 55.0049 340.44 57.0054 340.44 60.4585C340.44 63.895 340.266 66.1196 339.917 67.1323C339.568 68.1284 338.589 68.6265 336.979 68.6265C335.368 68.6265 334.472 68.2861 334.289 67.6055C334.223 67.3564 334.189 65.8457 334.189 63.0732L334.115 57.5698L334.239 50.2236L334.14 43.1514L334.065 38.918L334.04 37.3242L334.015 36.5522V35.7803C334.015 34.834 334.978 34.3608 336.904 34.3608C338.249 34.3608 339.137 34.917 339.568 36.0293C339.801 36.5938 339.975 38.2207 340.091 40.9102C340.208 43.583 340.274 44.9858 340.291 45.1187C340.49 46.3638 340.93 47.2354 341.61 47.7334C342.308 48.2314 345.047 48.4805 349.828 48.4805C352.036 48.4805 353.306 48.0488 353.638 47.1855C353.97 46.3057 354.136 44.2554 354.136 41.0347C354.136 37.814 354.369 35.8301 354.833 35.083C355.298 34.3359 356.452 33.9624 358.295 33.9624C359.341 33.9624 359.963 34.2197 360.163 34.7344C360.362 35.2324 360.461 37.3242 360.461 41.0098V50.2734L360.486 51.1699L360.561 52.9878L360.536 53.9092C360.47 55.7686 360.437 57.9268 360.437 60.3838L360.486 64.0444L360.536 65.8374V67.5557ZM378.814 54.7061H382.625C384.202 54.7061 384.99 54.4736 384.99 54.0088V53.8594C384.99 51.9834 383.903 48.2148 381.728 42.5537C381.313 41.4746 381.031 40.9351 380.881 40.9351C380.815 40.9351 380.533 41.5078 380.035 42.6533C377.478 48.6133 376.2 52.415 376.2 54.0586C376.2 54.4902 377.071 54.7061 378.814 54.7061ZM395.549 67.5059C395.549 68.3857 394.735 68.8257 393.108 68.8257C391.481 68.8257 390.303 68.3193 389.572 67.3066C389.124 66.6758 388.601 65.4722 388.003 63.6958C387.422 61.9028 386.982 60.832 386.684 60.4834C386.186 59.9189 384.907 59.6367 382.849 59.6367C378.665 59.6367 376.009 59.9272 374.88 60.5083C374.266 60.8237 373.61 61.9609 372.913 63.9199C372.215 65.8789 371.701 67.0659 371.369 67.481C370.738 68.2612 369.667 68.6514 368.156 68.6514C366.662 68.6514 365.915 68.3027 365.915 67.6055C365.915 66.9082 367.426 62.0273 370.447 52.9629C373.469 43.8984 375.046 39.2251 375.179 38.9429C376.457 36.3198 377.354 34.7842 377.868 34.3359C378.399 33.8877 379.396 33.6636 380.856 33.6636C382.317 33.6802 383.289 33.8711 383.77 34.2363C384.949 35.1494 386.667 38.9263 388.925 45.5669C391.199 52.2075 392.527 56.3247 392.909 57.9185C393.291 59.4956 393.822 61.4131 394.503 63.6709C395.2 65.9287 395.549 67.207 395.549 67.5059ZM407.054 45.7412C406.821 49.626 406.705 53.9922 406.705 58.8398C406.705 63.6709 406.464 66.4849 405.983 67.2817C405.518 68.062 404.613 68.4521 403.269 68.4521C402.604 68.4521 402.115 68.3359 401.799 68.1035C401.484 67.8545 401.326 67.3647 401.326 66.6343V65.7129L401.5 59.8608C401.534 58.9644 401.55 58.2837 401.55 57.8188L401.575 55.752V48.7544L401.6 47.7583V42.7778C401.6 42.0806 401.567 41.0845 401.5 39.7896L401.351 36.9258C401.351 35.7471 401.525 35.0332 401.874 34.7842C402.239 34.5352 402.937 34.4106 403.966 34.4106C405.012 34.4106 405.908 34.6265 406.655 35.0581C407.419 35.4897 408.166 36.1455 408.896 37.0254C411.204 39.8145 414.076 44.0063 417.513 49.6011C420.949 55.1792 422.726 57.9683 422.842 57.9683C422.975 57.9683 423.041 54.5649 423.041 47.7583C423.041 40.9351 423.257 36.9258 423.688 35.7305C424.137 34.5186 425.208 33.9126 426.901 33.9126C427.631 33.9126 428.154 34.0703 428.47 34.3857C428.802 34.6846 428.968 35.5063 428.968 36.8511V38.7935C428.968 39.4575 428.918 40.9932 428.818 43.4004C428.735 45.8076 428.694 50.0991 428.694 56.2749C428.694 62.4341 428.578 66.1279 428.345 67.3564C428.179 68.2529 427.631 68.7012 426.702 68.7012H425.805C424.012 68.7012 422.493 67.8711 421.248 66.2109C420.7 65.4805 419.646 63.8701 418.085 61.3799L416.517 58.8398C415.819 57.7109 415.105 56.582 414.375 55.4531C409.876 48.4971 407.46 45.019 407.128 45.019L407.054 45.7412ZM456.36 59.0142C456.36 58.1675 455.605 57.2793 454.094 56.3496C452.583 55.4199 451.828 54.3989 451.828 53.2866C451.828 53.0376 451.986 52.7803 452.301 52.5146C452.965 51.9502 454.426 51.668 456.684 51.668C458.942 51.668 460.403 52.083 461.067 52.9131C461.748 53.7266 462.088 55.8848 462.088 59.3877V61.2305C462.088 64.6172 461.2 66.8584 459.423 67.9541C457.664 69.0498 454.783 69.5977 450.782 69.5977H449.861C447.918 69.5977 445.918 69.1494 443.859 68.2529C441.801 67.3564 440.157 66.1445 438.929 64.6172C437.7 63.0732 436.746 61.1558 436.065 58.8647C435.384 56.5571 435.044 54.1084 435.044 51.5186V50.5225C435.044 45.1934 436.372 41.0928 439.028 38.2207C442.066 34.9502 445.951 33.3149 450.683 33.3149H451.654C454.376 33.3149 456.709 33.8545 458.651 34.9336C460.61 35.9961 461.59 37.1499 461.59 38.395C461.59 39.1089 461.391 39.6899 460.992 40.1382C460.594 40.5698 460.129 40.7856 459.598 40.7856C459.066 40.7856 457.846 40.52 455.937 39.9888C454.044 39.4409 452.459 39.167 451.181 39.167C448.259 39.167 445.91 40.1299 444.133 42.0557C442.357 43.9814 441.469 46.6792 441.469 50.1489C441.469 52.3071 441.693 54.3242 442.141 56.2002C442.589 58.0596 443.195 59.4956 443.959 60.5083C444.723 61.521 445.802 62.293 447.196 62.8242C448.591 63.3555 450.068 63.6211 451.629 63.6211C453.206 63.6211 454.385 63.1479 455.165 62.2017C455.962 61.2388 456.36 60.1763 456.36 59.0142ZM491.423 36.4028C491.423 38.3452 490.028 39.3164 487.239 39.3164L485.77 39.2666L484.251 39.3164H481.86C479.403 39.3164 477.926 39.5239 477.428 39.939C476.664 40.5864 476.282 42.5537 476.282 45.8408C476.282 46.8203 476.689 47.4595 477.502 47.7583C478.316 48.0405 480.25 48.1816 483.305 48.1816C486.376 48.1816 488.078 48.3228 488.41 48.605C488.758 48.8872 488.933 49.626 488.933 50.8213C488.933 52.0166 488.542 52.7388 487.762 52.9878C487.364 53.1206 485.621 53.187 482.533 53.187C479.461 53.187 477.561 53.4692 476.83 54.0337C476.116 54.5815 475.759 56.1338 475.759 58.6904C475.759 61.2471 476.174 62.7661 477.004 63.2476C477.851 63.729 480.117 63.9697 483.803 63.9697C487.488 63.9697 489.729 64.144 490.526 64.4927C491.34 64.8413 491.747 65.6216 491.747 66.8335C491.747 67.8628 491.058 68.4937 489.68 68.7261C487.82 69.0415 484.674 69.1992 480.242 69.1992H477.602C474.033 69.1992 471.825 68.9585 470.978 68.4771C469.949 67.896 469.434 65.937 469.434 62.6001V58.1675C469.434 55.2954 469.542 52.3486 469.758 49.3271C469.974 46.3057 470.082 43.3091 470.082 40.3374C470.082 37.3491 470.397 35.5728 471.028 35.0083C471.858 34.2612 473.9 33.8877 477.154 33.8877H482.184L483.006 33.9126L486.268 33.8877C488.21 33.8877 489.555 34.0537 490.302 34.3857C491.049 34.7178 491.423 35.3901 491.423 36.4028Z" fill="#EE9112"/>
</g>
<defs>
<filter id="filter0_i_8_6" x="3.2373" y="33.3149" width="488.509" height="40.3325" filterUnits="userSpaceOnUse" color-interpolation-filters="sRGB">
<feFlood flood-opacity="0" result="BackgroundImageFix"/>
<feBlend mode="normal" in="SourceGraphic" in2="BackgroundImageFix" result="shape"/>
<feColorMatrix in="SourceAlpha" type="matrix" values="0 0 0 0 0 0 0 0 0 0 0 0 0 0 0 0 0 0 127 0" result="hardAlpha"/>
<feOffset dy="6"/>
<feGaussianBlur stdDeviation="2"/>
<feComposite in2="hardAlpha" operator="arithmetic" k2="-1" k3="1"/>
<feColorMatrix type="matrix" values="0 0 0 0 0 0 0 0 0 0 0 0 0 0 0 0 0 0 0.24 0"/>
<feBlend mode="plus-darker" in2="shape" result="effect1_innerShadow_8_6"/>
</filter>
</defs>
</svg>
