<svg width="250" height="45" viewBox="0 0 250 45" fill="none" xmlns="http://www.w3.org/2000/svg">
<path d="M97.7503 13.4453L100.25 14.4453L102.25 15.9453L103.25 17.4453L100.75 18.9453L97.7503 17.9453H93.2503L89.7503 18.9453L87.2503 17.4453L89.7503 14.9453L92.7503 13.4453V15.4453H97.7503V13.4453Z" fill="#EE9112"/>
<path d="M102.25 11.4453H103.25L104.25 11.9453L103.25 13.4453L102.25 12.9453V11.4453Z" fill="#EE9112"/>
<path d="M87.2503 11.4453H88.2503L88.7503 12.4453L88.2503 13.4453H87.2503L86.7503 12.4453L87.2503 11.4453Z" fill="#EE9112"/>
<path d="M103.25 27.4453L104.75 28.4453L102.25 31.4453L100.25 32.9453L97.2503 34.4453L96.7503 31.9453H92.2503L90.2503 32.9453L88.2503 31.4453L86.7503 29.4453L85.7503 27.9453L87.7503 27.4453L89.7503 28.9453L92.2503 29.4453H95.2503H97.7503L99.7503 28.9453L103.25 27.4453Z" fill="#303273"/>
<path d="M92.7503 13.9453V15.4453H97.7503V13.4453L95.2503 12.9453L92.7503 13.9453Z" fill="#303273"/>
<path d="M105.25 20.4453L107.25 21.9453V24.9453L106.75 27.4453L104.75 27.9453L105.25 25.9453L105.75 23.9453L105.25 20.4453Z" fill="#EE9112"/>
<path d="M85.2503 20.4453L83.7503 21.4453L83.2503 23.4453V24.9453L83.7503 26.9453L84.7503 27.9453H85.7503L85.2503 26.4453V24.4453V20.4453Z" fill="#EE9112"/>
<path d="M100.75 18.9453L103.25 17.4453L104.75 19.9453L105.25 21.9453L105.75 23.4453L105.25 25.9453L104.75 27.9453L102.75 27.4453L103.75 25.9453L104.25 24.4453L103.75 22.4453L102.25 19.9453L100.75 18.9453Z" fill="black"/>
<path d="M87.2503 17.4453L89.7503 18.9453L87.2503 21.4453L86.7503 23.4453V25.4453L87.7503 27.4453L85.7503 27.9453L85.2503 25.9453V22.9453L85.7503 19.9453L87.2503 17.4453Z" fill="black"/>
<path d="M90.7503 33.4453L93.2503 34.4453H96.2503L97.2503 33.9453L96.7503 31.9453H91.7503L90.2503 32.9453L90.7503 33.4453Z" fill="black"/>
<path d="M95.7503 17.9453L98.7503 18.4453L100.75 18.9453L102.75 20.9453L103.75 22.4453L104.25 24.4453L103.75 26.4453L102.25 27.9453L99.7503 28.9453L97.2503 29.4453H94.7503H92.7503L90.2503 28.9453L88.2503 27.9453L86.7503 26.4453V24.4453V22.4453L87.7503 20.9453L89.2503 19.4453L91.2503 18.4453L92.7503 17.9453H95.7503Z" fill="#FFFAFA"/>
<path d="M87.2164 11.0595C86.6466 11.2258 86.2719 11.7608 86.277 12.405C86.2873 13.2102 86.8519 13.7505 87.6784 13.7505H88.0326L88.469 14.3686C88.7103 14.7115 88.9105 15.0076 88.9105 15.0336C88.9105 15.0543 88.6743 15.2881 88.3817 15.5479C87.1959 16.6076 86.2103 18.0362 85.5532 19.6414L85.3427 20.1556L84.968 20.2751C84.5368 20.405 84.2698 20.5816 83.9618 20.9245C82.8632 22.1609 82.6682 25.1895 83.5717 27.0804C83.7719 27.5011 83.8797 27.6622 84.1261 27.8908C84.547 28.2804 85.0347 28.4985 85.507 28.5037C85.661 28.5037 85.6815 28.5349 85.9587 29.0596C87.3961 31.7921 89.8294 33.7349 92.7452 34.483C93.7154 34.7323 94.4341 34.805 95.6096 34.7739C97.0624 34.7375 98.1353 34.5089 99.3827 33.9739C101.713 32.9661 103.546 31.2622 104.716 29.0232L104.973 28.5349L105.338 28.4726C105.938 28.3687 106.215 28.2232 106.58 27.8336C107.021 27.3661 107.252 26.8518 107.473 25.8804C107.586 25.3869 107.632 23.6934 107.545 23.1011C107.427 22.2596 107.17 21.5635 106.785 21.0492C106.549 20.7271 106.041 20.3738 105.656 20.2647C105.492 20.218 105.338 20.1556 105.307 20.1193C105.276 20.0881 105.199 19.9115 105.132 19.7245C104.609 18.218 103.284 16.3479 101.991 15.2881C101.852 15.179 101.744 15.0647 101.744 15.0388C101.744 14.9972 102.011 14.6024 102.499 13.9219C102.612 13.7608 102.627 13.7556 102.986 13.7608C103.269 13.766 103.418 13.7349 103.597 13.6517C104.306 13.3141 104.588 12.4777 104.239 11.7556C104.013 11.2881 103.572 11.0076 103.048 11.0024C102.227 10.9868 101.559 11.7141 101.662 12.5037C101.698 12.7894 101.816 13.1063 101.934 13.2414C102.006 13.3193 101.97 13.3816 101.565 13.9271C101.318 14.2595 101.087 14.5297 101.051 14.5297C101.015 14.5297 100.789 14.4154 100.553 14.2803C99.3417 13.5738 98.048 13.1219 96.6363 12.9141C96.0665 12.8258 94.5162 12.831 93.9926 12.9141C92.4423 13.1686 91.3078 13.5686 90.086 14.2751C89.8396 14.4154 89.6189 14.5297 89.5932 14.5297C89.5624 14.5297 89.3417 14.2595 89.1004 13.9323L88.6589 13.3297L88.7821 13.1479C89.1774 12.5556 89.0439 11.7401 88.4741 11.3037C88.0994 11.0128 87.6682 10.9297 87.2164 11.0595ZM103.423 11.9479C103.633 12.1505 103.685 12.379 103.567 12.6232C103.454 12.8725 103.264 12.9868 102.981 12.9868C102.786 12.9868 102.73 12.9608 102.581 12.7998C102.36 12.5505 102.345 12.2336 102.545 11.9894C102.791 11.6933 103.14 11.6777 103.423 11.9479ZM88.0737 11.9479C88.238 12.1037 88.2585 12.1505 88.2585 12.3582C88.2483 12.7686 88.007 13.0024 87.5912 12.992C87.0522 12.9816 86.8211 12.3219 87.2164 11.9271C87.3396 11.8024 87.4064 11.7764 87.622 11.7764C87.8478 11.7764 87.9094 11.8024 88.0737 11.9479ZM96.8879 13.7245C97.5912 13.8543 97.5501 13.8024 97.509 14.5453C97.4885 14.8933 97.4628 15.1946 97.4474 15.2154C97.4372 15.2414 96.4823 15.2569 95.3273 15.2569C93.3766 15.2569 93.2226 15.2517 93.1764 15.1634C93.1096 15.0388 93.084 13.9219 93.1456 13.8595C93.202 13.8024 93.6589 13.7141 94.2236 13.6466C94.7678 13.579 96.3591 13.6258 96.8879 13.7245ZM92.3653 15.0232C92.3858 15.5115 92.4115 15.9375 92.4269 15.9686C92.4577 16.0673 98.1456 16.0673 98.1764 15.9686C98.1866 15.9375 98.2226 15.5115 98.2534 15.0284C98.2842 14.5401 98.3201 14.1349 98.3355 14.1193C98.4125 14.0414 99.6754 14.618 100.358 15.044C100.594 15.1946 100.99 15.4699 101.231 15.6621C101.693 16.0258 102.771 17.0855 102.771 17.179C102.771 17.2102 102.601 17.3401 102.401 17.4751C101.328 18.1608 101.082 18.3167 100.872 18.4414L100.64 18.5712L100.307 18.4154C99.4495 18.0102 97.971 17.6206 96.8417 17.4907C96.1538 17.4128 94.3211 17.4284 93.6333 17.5167C92.4166 17.6673 91.5953 17.8803 90.5121 18.3167C90.2246 18.4362 89.9628 18.5297 89.932 18.5297C89.9064 18.5297 89.701 18.4154 89.4854 18.2751C88.6127 17.7193 87.9762 17.3349 87.93 17.3349C87.6887 17.3349 88.4382 16.4569 89.2082 15.8388C89.8602 15.3193 90.2657 15.0388 90.7842 14.7582C91.3335 14.4569 92.1394 14.1089 92.2472 14.1297C92.3088 14.1401 92.3294 14.3011 92.3653 15.0232ZM87.9043 18.1556C88.161 18.3219 88.5511 18.5712 88.7667 18.7063C88.9875 18.8414 89.1774 18.966 89.1877 18.9868C89.2031 19.0076 89.0234 19.1686 88.7924 19.3453C87.3858 20.4102 86.508 21.844 86.2667 23.4648C86.0717 24.7687 86.3078 26.0518 86.9135 27.0024C87.0265 27.1739 87.1138 27.3193 87.1138 27.3349C87.1138 27.3609 86.3129 27.6206 86.2205 27.6206C86.0871 27.6206 85.7123 26.3895 85.5686 25.4648C85.4762 24.8934 85.4762 22.8726 85.5634 22.3739C85.7945 21.0908 86.1435 20.0154 86.6671 18.9972C86.9598 18.431 87.3191 17.8543 87.3858 17.8543C87.4115 17.8543 87.6476 17.9894 87.9043 18.1556ZM103.582 18.3011C104.552 19.7764 105.096 21.5739 105.168 23.5271C105.214 24.8206 105.071 25.9115 104.716 27.0128C104.506 27.6622 104.511 27.657 104.049 27.5167C103.839 27.4492 103.644 27.3713 103.608 27.3401C103.561 27.2985 103.597 27.1947 103.767 26.9193C104.244 26.1193 104.424 25.4336 104.424 24.3998C104.429 22.9141 104.029 21.7713 103.084 20.5556C102.904 20.3271 102.637 20.0362 102.494 19.9115C102.078 19.5427 101.518 19.1011 101.477 19.1011C101.452 19.1011 101.436 19.0699 101.436 19.0336C101.436 18.9972 101.729 18.7894 102.093 18.566C102.453 18.3479 102.848 18.0985 102.976 18.0154C103.105 17.9323 103.233 17.8699 103.259 17.8751C103.289 17.8803 103.433 18.0725 103.582 18.3011ZM97.124 18.2959C99.2595 18.6284 100.759 19.2985 101.996 20.4777C102.761 21.2102 103.253 22.0518 103.551 23.1271C103.715 23.7401 103.715 24.9245 103.551 25.5167C103.238 26.6232 102.483 27.4856 101.282 28.1245C100.497 28.5401 99.737 28.7998 98.6384 29.0284C96.5696 29.4544 93.8643 29.4284 91.7852 28.9661C90.2452 28.6232 89.1825 28.1557 88.3407 27.4492C87.6784 26.8934 87.237 26.1869 87.0573 25.4076C86.9649 24.9921 86.9495 24.8154 86.9752 24.1557C87.0008 23.283 87.0778 22.9297 87.3756 22.2752C88.1867 20.5089 89.8242 19.205 92.0162 18.592C92.6322 18.4154 93.6076 18.244 94.1979 18.1972C94.7883 18.1556 96.6004 18.2128 97.124 18.2959ZM85.0398 21.2518C84.8345 21.9895 84.737 22.8778 84.737 23.9583C84.737 25.2362 84.8448 25.9947 85.2092 27.231C85.3478 27.6934 85.3478 27.6934 85.163 27.657C84.7062 27.5635 84.2749 27.0284 84.0337 26.2596C83.8335 25.631 83.7616 25.0804 83.7616 24.1661C83.7616 23.418 83.777 23.2102 83.8745 22.8154C84.0593 22.0726 84.3622 21.5375 84.7729 21.231C84.9885 21.0648 85.086 21.0752 85.0398 21.2518ZM106.036 21.3557C106.323 21.657 106.57 22.1245 106.698 22.6128C107.016 23.8336 106.862 25.896 106.385 26.8518C106.164 27.2934 105.861 27.5687 105.456 27.6934C105.297 27.7453 105.302 27.6778 105.492 27.0596C105.861 25.8284 106.01 24.4102 105.907 23.1063C105.851 22.405 105.748 21.7193 105.62 21.2154C105.558 20.9817 105.733 21.0388 106.036 21.3557ZM88.125 28.27C89.085 28.9713 90.6045 29.5479 92.2216 29.8284C93.6384 30.0726 95.969 30.1401 97.355 29.9843C98.3304 29.87 98.2328 29.8388 98.2739 30.3063C98.3561 31.2362 98.6897 32.0102 99.2955 32.6908C99.4289 32.8414 99.5367 32.9869 99.5367 33.0128C99.5367 33.1323 97.971 33.7297 97.5809 33.7609L97.4064 33.7765L97.391 32.7739L97.3807 31.7765H94.5727H91.7647L91.0871 32.1921C90.7175 32.4206 90.3735 32.6076 90.3222 32.6076C90.2041 32.6076 89.547 32.1557 89.0337 31.7193C88.546 31.3037 87.8992 30.6284 87.5706 30.1921C87.124 29.605 86.4977 28.5609 86.4977 28.405C86.4977 28.3791 86.6312 28.3167 86.7955 28.27C86.9546 28.2232 87.2062 28.1401 87.3448 28.0882C87.4885 28.0362 87.6322 27.9947 87.663 27.9895C87.699 27.9843 87.9043 28.1141 88.125 28.27ZM103.592 28.1713C103.9 28.2752 104.157 28.3739 104.157 28.3998C104.157 28.4206 104.059 28.6232 103.946 28.8466C103.49 29.7245 102.586 30.857 101.78 31.5635C101.308 31.9739 100.43 32.6076 100.327 32.6076C100.291 32.6076 100.101 32.431 99.9012 32.2128C99.4238 31.6985 99.1569 31.1583 99.0439 30.4882C98.9259 29.7505 98.9259 29.7505 99.3827 29.6362C100.214 29.4284 100.846 29.1998 101.559 28.831C102.016 28.6024 102.735 28.1349 102.797 28.0362C102.848 27.9479 102.997 27.9739 103.592 28.1713ZM96.585 33.283V33.9843L96.354 34.0206C95.6199 34.1297 94.1466 34.031 93.1353 33.8076C92.2626 33.6102 91.1897 33.1895 91.2308 33.0648C91.2462 33.0284 91.4156 32.8985 91.6107 32.7791L91.9649 32.5609L94.2749 32.5713L96.585 32.5817V33.283Z" fill="black"/>
<path d="M90.2554 20.9713C89.701 21.1167 89.2955 21.3609 88.854 21.8025C88.4125 22.244 88.1969 22.6388 88.0275 23.3245C87.894 23.8544 87.9248 24.3739 88.1148 24.9505C88.546 26.2492 89.6394 27.0544 90.9793 27.0544C91.8673 27.0544 92.5039 26.7895 93.125 26.1661C93.5768 25.7141 93.8437 25.2258 93.9669 24.618C94.0645 24.1453 94.0645 23.8908 93.9721 23.4025C93.7667 22.3323 93.2072 21.6102 92.2267 21.1531C91.5901 20.8518 90.9279 20.7946 90.2554 20.9713ZM91.2154 21.8804C91.3335 21.9531 91.4977 22.1245 91.5799 22.2544C91.7133 22.4622 91.7339 22.5505 91.7339 22.8466C91.7339 23.1531 91.7133 23.2258 91.5696 23.444C91.3335 23.7973 90.9433 24.005 90.5737 23.9687C89.583 23.87 89.1825 22.7115 89.9012 22.0206C90.2606 21.6726 90.7996 21.6102 91.2154 21.8804Z" fill="black"/>
<path d="M99.0234 20.9453C98.0942 21.1583 97.3807 21.7089 96.97 22.5297C96.7185 23.0284 96.6415 23.3868 96.6415 23.9842C96.6415 24.8933 96.9135 25.5479 97.5552 26.192C98.161 26.7998 98.8386 27.07 99.7164 27.0596C100.907 27.044 101.996 26.3115 102.463 25.205C102.586 24.9141 102.72 24.27 102.72 23.9583C102.72 23.5894 102.576 22.9713 102.406 22.6076C101.816 21.3661 100.343 20.6388 99.0234 20.9453ZM100.322 21.7557C100.538 21.8128 100.892 22.1089 101 22.3167C101.108 22.5349 101.144 22.9037 101.077 23.1583C100.99 23.4855 100.615 23.844 100.261 23.9323C99.5778 24.0985 98.8694 23.5375 98.8694 22.831C98.8694 22.5868 99.0285 22.2336 99.2236 22.0414C99.5368 21.7349 99.9064 21.6362 100.322 21.7557Z" fill="black"/>
<g filter="url(#filter0_i_24_28)">
<path d="M1.61 32V15.049H12.673L16.192 18.568V28.481L12.673 32H1.61ZM5.911 28.734H10.81L12.029 27.515V19.534L10.81 18.315H5.911V28.734ZM18.7252 32V15.049H30.2712L32.8472 17.602V23.674L30.9152 25.606L33.4912 32H29.1672L26.9362 26.227H23.0262V32H18.7252ZM23.0262 22.961H27.8562L28.6612 22.156V19.12L27.8562 18.315H23.0262V22.961ZM37.8885 32L35.3355 29.447V17.602L37.8885 15.049H47.8245L50.3775 17.602V29.447L47.8245 32H37.8885ZM40.4645 28.734H45.2945L46.0995 27.929V19.12L45.2485 18.315H40.4645L39.6365 19.12V27.929L40.4645 28.734ZM52.4454 32V28.757H54.3314L54.2854 18.292H52.4454V15.049H60.2654V18.292H58.4024L58.3564 28.757H60.2654V32H52.4454ZM62.7936 32V15.049H73.8566L77.3756 18.568V28.481L73.8566 32H62.7936ZM67.0946 28.734H71.9936L73.2126 27.515V19.534L71.9936 18.315H67.0946V28.734ZM113.87 32V15.049H126.75V18.545H118.171V21.673H125.899V24.916H118.171V28.504H126.75V32H113.87ZM127.893 32L131.964 23.122L127.916 15.049H132.861L135.552 21.397H136.38L139.071 15.049H144.016L139.968 23.122L144.039 32H139.071L136.38 25.261H135.552L132.861 32H127.893ZM147.498 32L144.945 29.447V17.602L147.498 15.049H156.215L158.791 17.602V21.029H154.605V19.12L153.777 18.315H150.074L149.246 19.12V27.929L150.074 28.734H153.915L154.766 27.929V25.997H158.929V29.447L156.376 32H147.498ZM160.813 32V15.049H165.114V21.351H170.887V15.049H175.188V32H170.887V24.709H165.114V32H160.813ZM176.79 32L181.758 15.049H188.75L193.718 32H189.164L188.313 28.619H182.195L181.344 32H176.79ZM183.046 25.307H187.462L185.668 18.292H184.84L183.046 25.307ZM195.336 32V15.049H200.028L205.732 25.215V15.049H209.734V32H205.732L200.166 22.064H199.338V32H195.336ZM215.038 32L212.485 29.447V17.602L215.038 15.049H224.514L227.067 17.602V20.73L222.881 20.707V19.12L222.053 18.315H217.614L216.786 19.12V27.906L217.614 28.734H221.225L223.433 26.779V26.181H220.328V22.892H227.32V32H223.686V30.482L221.984 32H215.038ZM231.767 32V15.049H244.647V18.545H236.068V21.673H243.796V24.916H236.068V28.504H244.647V32H231.767Z" fill="#EE9112"/>
</g>
<defs>
<filter id="filter0_i_24_28" x="1.61" y="15.049" width="243.037" height="20.951" filterUnits="userSpaceOnUse" color-interpolation-filters="sRGB">
<feFlood flood-opacity="0" result="BackgroundImageFix"/>
<feBlend mode="normal" in="SourceGraphic" in2="BackgroundImageFix" result="shape"/>
<feColorMatrix in="SourceAlpha" type="matrix" values="0 0 0 0 0 0 0 0 0 0 0 0 0 0 0 0 0 0 127 0" result="hardAlpha"/>
<feOffset dy="8"/>
<feGaussianBlur stdDeviation="2"/>
<feComposite in2="hardAlpha" operator="arithmetic" k2="-1" k3="1"/>
<feColorMatrix type="matrix" values="0 0 0 0 0 0 0 0 0 0 0 0 0 0 0 0 0 0 0.25 0"/>
<feBlend mode="normal" in2="shape" result="effect1_innerShadow_24_28"/>
</filter>
</defs>
</svg>
